<svg width="87" height="27" viewBox="0 0 87 27" fill="none" xmlns="http://www.w3.org/2000/svg">
<rect width="86.6294" height="26.5122" transform="translate(0.185547 0.395508)" fill="#FFBD0C"/>
<path d="M12.44 10.9319H18.82C18.98 10.9852 19.0933 11.1252 19.16 11.3519V16.3319C19.0933 16.5185 18.98 16.6385 18.82 16.6919H12.44V10.9319ZM8.8 7.97185V19.6519H20.62C20.82 19.6519 21.0467 19.5852 21.3 19.4519C21.5533 19.3052 21.7867 19.1319 22 18.9319C22.2267 18.7319 22.4133 18.5252 22.56 18.3119C22.7067 18.0852 22.78 17.8919 22.78 17.7319V9.95186C22.78 9.79186 22.7067 9.60519 22.56 9.39186C22.4267 9.16519 22.2467 8.94519 22.02 8.73186C21.8067 8.51852 21.5733 8.33852 21.32 8.19186C21.0667 8.04519 20.8267 7.97185 20.6 7.97185H8.8ZM29.912 19.6519L31.032 16.6919H33.332L31.212 11.1319L27.892 19.6519H23.712L28.592 7.97185H33.752L38.652 19.6519H29.912ZM39.8742 7.97185V14.1919C40.0076 14.8052 40.3742 15.1719 40.9742 15.2919H49.8942V16.6919H39.8742V19.6519H52.4342C53.0209 19.5319 53.3876 19.1785 53.5342 18.5919V7.97185H49.8942V12.3519H43.5142V7.97185H39.8742ZM76.3414 7.97185C76.8614 8.09185 77.2147 8.41185 77.4014 8.93186V14.3719C77.1881 14.7452 76.8281 15.0519 76.3214 15.2919H67.3814V16.6919H77.4014V19.6519H63.7614V13.2719C63.9081 12.9652 64.0747 12.7519 64.2614 12.6319C64.4481 12.5119 64.6547 12.4185 64.8814 12.3519H73.7414V10.9319H64.9814V7.97185H76.3414Z" fill="black"/>
</svg>
