<svg width="696" height="538" viewBox="0 0 696 538" fill="none" xmlns="http://www.w3.org/2000/svg">
<path opacity="0.7" d="M14 269C68.6507 265.597 138.266 258.375 212.084 246.497M14 269C68.6507 272.403 138.266 279.625 212.084 291.503M14 269H696M14 269C493.572 269 668.488 354 696 396.5M14 269C493.572 269 668.488 184 696 141.5M635.184 100.614C666.43 75.1776 688.042 46.4101 695.999 14L696 141.5M635.184 100.614V437.385M635.184 100.614C613.787 118.033 587.873 133.89 558.731 148.285M635.184 437.385C666.43 462.822 688.042 491.59 696 524L696 396.5M635.184 437.385C613.787 419.967 587.873 404.11 558.731 389.714M558.731 148.285V389.714M558.731 148.285C537.666 158.691 514.915 168.332 490.965 177.248M558.731 389.714C537.666 379.309 514.915 369.667 490.965 360.752M490.965 177.248V360.752M490.965 177.248C469.781 185.134 447.659 192.452 424.937 199.229M490.965 360.752C469.781 352.866 447.659 345.547 424.937 338.771M424.937 199.229V338.771M424.937 199.229C400.026 206.658 374.393 213.436 348.484 219.597M424.937 338.771C400.026 331.342 374.393 324.564 348.484 318.403M348.484 219.597V318.403M348.484 219.597C326.583 224.805 304.484 229.573 282.456 233.92M348.484 318.403C326.583 313.195 304.484 308.427 282.456 304.08M282.456 233.92V304.08M282.456 233.92C258.806 238.588 235.238 242.772 212.084 246.497M282.456 304.08C258.806 299.412 235.238 295.228 212.084 291.503M212.084 246.497V291.503M696 269L696 396.5M696 269L696 141.5" stroke="url(#paint0_linear_752_216)" stroke-width="4"/>
<g opacity="0.5" filter="url(#filter0_f_752_216)">
<path d="M14 269C68.6507 265.597 138.266 258.375 212.084 246.497M14 269C68.6507 272.403 138.266 279.625 212.084 291.503M14 269H696M14 269C493.572 269 668.488 354 696 396.5M14 269C493.572 269 668.488 184 696 141.5M635.184 100.614C666.43 75.1776 688.042 46.4101 695.999 14L696 141.5M635.184 100.614V437.385M635.184 100.614C613.787 118.033 587.873 133.89 558.731 148.285M635.184 437.385C666.43 462.822 688.042 491.59 696 524L696 396.5M635.184 437.385C613.787 419.967 587.873 404.11 558.731 389.714M558.731 148.285V389.714M558.731 148.285C537.666 158.691 514.915 168.332 490.965 177.248M558.731 389.714C537.666 379.309 514.915 369.667 490.965 360.752M490.965 177.248V360.752M490.965 177.248C469.781 185.134 447.659 192.452 424.937 199.229M490.965 360.752C469.781 352.866 447.659 345.547 424.937 338.771M424.937 199.229V338.771M424.937 199.229C400.026 206.658 374.393 213.436 348.484 219.597M424.937 338.771C400.026 331.342 374.393 324.564 348.484 318.403M348.484 219.597V318.403M348.484 219.597C326.583 224.805 304.484 229.573 282.456 233.92M348.484 318.403C326.583 313.195 304.484 308.427 282.456 304.08M282.456 233.92V304.08M282.456 233.92C258.806 238.588 235.238 242.772 212.084 246.497M282.456 304.08C258.806 299.412 235.238 295.228 212.084 291.503M212.084 246.497V291.503M696 269L696 396.5M696 269L696 141.5" stroke="url(#paint1_linear_752_216)" stroke-width="4"/>
</g>
<defs>
<filter id="filter0_f_752_216" x="0.875977" y="0.522949" width="710.124" height="536.954" filterUnits="userSpaceOnUse" color-interpolation-filters="sRGB">
<feFlood flood-opacity="0" result="BackgroundImageFix"/>
<feBlend mode="normal" in="SourceGraphic" in2="BackgroundImageFix" result="shape"/>
<feGaussianBlur stdDeviation="6.5" result="effect1_foregroundBlur_752_216"/>
</filter>
<linearGradient id="paint0_linear_752_216" x1="754" y1="269" x2="-21.5" y2="269" gradientUnits="userSpaceOnUse">
<stop stop-color="#8338ED"/>
<stop offset="1" stop-color="#FF3234"/>
</linearGradient>
<linearGradient id="paint1_linear_752_216" x1="14" y1="269" x2="719.5" y2="269" gradientUnits="userSpaceOnUse">
<stop stop-color="#FB5507"/>
<stop offset="1" stop-color="#FB5507" stop-opacity="0"/>
</linearGradient>
</defs>
</svg>
