<svg width="128" height="92" viewBox="0 0 128 92" fill="none" xmlns="http://www.w3.org/2000/svg">
<g filter="url(#filter0_f_1803_6085)">
<path fill-rule="evenodd" clip-rule="evenodd" d="M100.639 34.1737C94.2608 33.9073 87.5883 36.0807 82.02 40.0892C72.6966 46.8009 67.4582 56.727 64.5528 64.7423C63.0902 68.7772 62.1914 72.4031 61.6568 75.0263C61.3891 76.3397 61.2117 77.4069 61.1003 78.1546C61.0446 78.5286 61.0053 78.823 60.9794 79.0289C60.9665 79.1318 60.9569 79.2126 60.9503 79.2701L60.9426 79.3389L60.9403 79.3599L60.9395 79.367L60.9393 79.3698C60.9393 79.3698 60.939 79.3719 63.9228 79.6837L60.939 79.3719L60.6611 82.0317L63.2716 82.6122L63.9228 79.6837C63.2716 82.6122 63.2737 82.6127 63.2737 82.6127L63.2764 82.6133L63.2834 82.6148L63.3041 82.6193L63.3717 82.6338C63.4284 82.6458 63.508 82.6623 63.6098 82.6827C63.8131 82.7235 64.1049 82.7797 64.4772 82.8455C65.2216 82.9771 66.2899 83.1476 67.6204 83.3106C70.2776 83.636 74.0014 83.9343 78.2918 83.8277C86.8148 83.616 97.8903 81.7983 107.214 75.0867C109.981 73.0945 112.422 70.6878 114.397 67.9937C116.37 65.3001 117.852 62.353 118.732 59.3072C119.612 56.2606 119.877 53.1573 119.461 50.1798C119.046 47.1972 117.957 44.4173 116.235 42.0254C112.739 37.1683 107.04 34.441 100.639 34.1737ZM93.2155 53.2765C94.4621 52.6449 95.7358 52.372 96.8504 52.4186C97.9594 52.4649 98.8029 52.8177 99.3668 53.2915C99.9164 53.7533 100.282 54.3941 100.395 55.2047C100.511 56.0388 100.358 57.0785 99.8033 58.1874C99.2493 59.2955 98.3517 60.351 97.2018 61.1788C95.6471 62.2979 93.8888 62.8202 92.3832 62.7573C90.8999 62.6954 89.908 62.0954 89.3781 61.3592C88.9757 60.8002 88.739 60.0341 88.8168 59.0763C88.896 58.1023 89.302 56.9872 90.0927 55.9082C90.8816 54.8316 91.9708 53.9072 93.2155 53.2765Z" fill="url(#paint0_linear_1803_6085)"/>
</g>
<path d="M60.8727 5C53.4804 5 46.3909 7.9581 41.1637 13.2235C35.9366 18.489 33 25.6305 33 33.0769C33 58.3462 60.8727 78 60.8727 78C60.8727 78 88.7455 58.3462 88.7455 33.0769C88.7455 29.3898 88.0245 25.7388 86.6238 22.3323C85.223 18.9259 83.1699 15.8307 80.5817 13.2235C77.9935 10.6164 74.9208 8.54823 71.5392 7.13723C68.1575 5.72623 64.533 5 60.8727 5ZM60.8727 44.3077C58.6676 44.3077 56.5121 43.649 54.6786 42.415C52.8452 41.1809 51.4162 39.4269 50.5723 37.3748C49.7285 35.3226 49.5077 33.0645 49.9379 30.8859C50.3681 28.7074 51.4299 26.7062 52.9891 25.1356C54.5484 23.5649 56.5349 22.4953 58.6976 22.0619C60.8604 21.6286 63.1021 21.851 65.1393 22.701C67.1765 23.5511 68.9178 24.9906 70.1429 26.8374C71.3679 28.6843 72.0218 30.8557 72.0218 33.0769C72.0218 36.0555 70.8472 38.9121 68.7563 41.0183C66.6655 43.1245 63.8297 44.3077 60.8727 44.3077Z" fill="url(#paint1_linear_1803_6085)" stroke="black" stroke-width="4"/>
<defs>
<filter id="filter0_f_1803_6085" x="52.6602" y="26.1514" width="74.9941" height="65.6982" filterUnits="userSpaceOnUse" color-interpolation-filters="sRGB">
<feFlood flood-opacity="0" result="BackgroundImageFix"/>
<feBlend mode="normal" in="SourceGraphic" in2="BackgroundImageFix" result="shape"/>
<feGaussianBlur stdDeviation="4" result="effect1_foregroundBlur_1803_6085"/>
</filter>
<linearGradient id="paint0_linear_1803_6085" x1="61.0341" y1="80.7489" x2="115.805" y2="40.9826" gradientUnits="userSpaceOnUse">
<stop stop-opacity="0.9"/>
<stop offset="1" stop-opacity="0"/>
</linearGradient>
<linearGradient id="paint1_linear_1803_6085" x1="94.3199" y1="5.00081" x2="48.457" y2="-9.1491" gradientUnits="userSpaceOnUse">
<stop stop-color="#8338ED"/>
<stop offset="1" stop-color="#FF0070"/>
</linearGradient>
</defs>
</svg>
