<svg width="468" height="413" viewBox="0 0 468 413" fill="none" xmlns="http://www.w3.org/2000/svg">
<path d="M290.485 401.643L4.59986 102.95L406.218 4.71208L290.485 401.643Z" stroke="#C5721A" stroke-width="4"/>
<path d="M274.172 405.034L9.81905 87.1263L417.312 17.1434L274.172 405.034Z" stroke="#8338ED" stroke-width="4"/>
<path d="M257.665 407.279L16.1313 71.7053L427.513 30.3182L257.665 407.279Z" stroke="#FF0070" stroke-width="4"/>
<path d="M241.037 408.367L23.5009 56.7627L436.768 44.1729L241.037 408.367Z" stroke="#FB5507" stroke-width="4"/>
<path d="M224.375 408.293L31.8954 42.3706L445.034 58.6396L224.375 408.293Z" stroke="#C5721A" stroke-width="4"/>
<path d="M207.76 407.058L41.2744 28.5994L452.272 73.6479L207.76 407.058Z" stroke="#8338ED" stroke-width="4"/>
<path d="M191.27 404.665L51.5898 15.5154L458.443 89.1238L191.27 404.665Z" stroke="#FF0070" stroke-width="4"/>
<path d="M174.989 401.129L62.7946 3.18351L463.523 104.993L174.989 401.129Z" stroke="#FB5507" stroke-width="4"/>
<path d="M158.438 188.961V170.164H160.61C160.943 170.164 161.205 170.247 161.43 170.409C161.431 170.414 161.432 170.42 161.433 170.425C161.466 170.616 161.497 170.898 161.525 171.261C161.579 171.981 161.612 172.927 161.63 173.898C161.662 175.533 161.654 177.184 161.65 177.857C161.65 177.983 161.649 178.074 161.649 178.126V186.35C161.621 187.155 161.598 187.657 161.557 187.994C161.543 188.111 161.528 188.189 161.517 188.238C161.466 188.268 161.395 188.305 161.301 188.346C161.094 188.435 160.802 188.532 160.411 188.626L158.438 188.961ZM166.35 196.065L166.377 196.057L166.404 196.047C167.25 195.724 168.02 195.29 168.708 194.744C169.395 194.199 169.973 193.566 170.437 192.848L170.446 192.834L170.454 192.819C170.948 191.996 171.201 191.099 171.201 190.146V169.164C171.201 167.858 170.813 166.64 170.062 165.53C169.653 164.853 169.16 164.266 168.585 163.772C169.158 163.292 169.651 162.725 170.062 162.073C170.809 160.92 171.201 159.68 171.201 158.368V146.923C171.201 145.77 170.942 144.709 170.395 143.774C169.925 142.885 169.276 142.151 168.456 141.585C167.693 140.977 166.801 140.545 165.798 140.277C164.801 139.962 163.775 139.805 162.725 139.805H149.66H148.66V140.805V199.323V200.606L149.904 200.293L161.963 197.259C162.259 197.239 162.611 197.165 162.924 197.09C163.322 196.995 163.776 196.868 164.218 196.737C164.896 196.535 165.581 196.314 166.024 196.17C166.157 196.128 166.267 196.092 166.35 196.065ZM160.61 159.023H158.438V149.147H159.78C160.291 149.147 160.719 149.282 161.098 149.545L161.123 149.562L161.149 149.578C161.366 149.709 161.498 149.889 161.498 150.306V157.864C161.498 158.084 161.421 158.361 161.164 158.711C160.983 158.957 160.819 159.023 160.61 159.023Z" fill="white" stroke="url(#paint0_linear_762_849)" stroke-width="2"/>
<path d="M181.328 184.892V140.661V139.661H180.328H172.701H171.701V140.661V194.284V195.417L172.825 195.277L188.684 193.297L189.56 193.188V192.305V185.107V183.992L188.451 184.113L181.328 184.892Z" fill="white" stroke="url(#paint1_linear_762_849)" stroke-width="2"/>
<path d="M199.93 191.405V173.331H202.99V190.865V191.938L204.06 191.863L211.763 191.323L212.693 191.258V190.326V146.779C212.693 144.816 211.944 143.118 210.495 141.737C209.047 140.357 207.289 139.661 205.274 139.661H197.647C195.631 139.661 193.873 140.357 192.426 141.737C190.977 143.118 190.228 144.816 190.228 146.779V192.125V193.223L191.321 193.121L199.023 192.401L199.93 192.316V191.405ZM199.93 164.062V150.162C199.93 149.885 200.026 149.636 200.3 149.375C200.575 149.113 200.859 149.003 201.196 149.003H201.724C202.062 149.003 202.346 149.113 202.62 149.375C202.895 149.636 202.99 149.885 202.99 150.162V164.062H199.93Z" fill="white" stroke="url(#paint2_linear_762_849)" stroke-width="2"/>
<path d="M223.164 149.558L223.164 149.558L223.169 149.554C223.51 149.261 223.838 149.147 224.179 149.147C225.04 149.147 225.367 149.373 225.499 149.545L225.513 149.564L225.528 149.582C225.782 149.884 225.976 150.317 226.057 150.94C226.146 151.617 226.148 152.35 226.056 153.142L226.053 153.169L226.051 153.196C226 154.026 225.973 154.767 225.973 155.417V156.417H226.973H234.601H235.601V155.417V146.923C235.601 144.963 234.854 143.267 233.41 141.888C232.009 140.5 230.27 139.805 228.257 139.805H220.554C218.539 139.805 216.781 140.501 215.333 141.881L215.326 141.888L215.319 141.895C213.924 143.279 213.211 144.973 213.211 146.923V157.072C213.211 158.699 213.542 160.217 214.217 161.611L214.224 161.625L214.232 161.639C214.926 162.963 215.78 164.184 216.793 165.301C217.771 166.381 218.801 167.412 219.882 168.393L219.9 168.41L219.919 168.425C221.009 169.322 222.023 170.218 222.961 171.112C223.874 171.982 224.603 172.837 225.158 173.675L225.168 173.691L225.179 173.706C225.72 174.459 225.973 175.241 225.973 176.074C225.973 176.586 226 177.211 226.051 177.943L226.052 177.948C226.096 178.543 226.074 179.138 225.985 179.735C225.908 180.21 225.74 180.61 225.488 180.953L225.467 180.981L225.447 181.012C225.399 181.088 225.252 181.264 224.632 181.264C223.772 181.264 223.445 181.039 223.313 180.866C223.025 180.488 222.833 180.031 222.754 179.467C222.663 178.775 222.639 178.058 222.684 177.314C222.786 176.433 222.838 175.635 222.838 174.923V173.923H221.838H214.211H213.211L213.211 174.923L213.211 184.1C213.211 186.05 213.924 187.744 215.319 189.128L215.333 189.142L215.348 189.156C216.798 190.482 218.552 191.146 220.554 191.146H228.257C230.23 191.146 231.961 190.444 233.403 189.07C234.845 187.696 235.601 186.024 235.601 184.1L235.601 174.707C235.601 173.072 235.241 171.549 234.512 170.154C233.866 168.824 233.034 167.598 232.019 166.477C231.025 165.38 229.483 163.913 227.414 162.085C225.414 160.274 224.158 158.976 223.568 158.16C223.07 157.402 222.838 156.637 222.838 155.848V150.306C222.838 149.959 222.948 149.741 223.164 149.558Z" fill="white" stroke="url(#paint3_linear_762_849)" stroke-width="2"/>
<path d="M237.192 139.805H236.192V140.805V148.075V149.075H237.192H242.007V189.534V190.534H243.007H250.71H251.71V189.534V149.075H256.525H257.525V148.075V140.805V139.805H256.525H237.192Z" fill="white" stroke="url(#paint4_linear_762_849)" stroke-width="2"/>
<path d="M311.646 139.805H310.646V140.805V148.075V149.075H311.646H316.461V195.364V196.176L317.256 196.343L324.958 197.962L326.164 198.216V196.984V149.075H330.979H331.979V148.075V140.805V139.805H330.979H311.646Z" fill="white" stroke="url(#paint5_linear_762_849)" stroke-width="2"/>
<path d="M276.411 149.405L276.431 149.426L276.452 149.447C276.708 149.69 276.822 149.957 276.822 150.306V180.033C276.822 180.382 276.708 180.649 276.452 180.893C276.268 181.068 276.003 181.192 275.557 181.192H275.028C274.611 181.192 274.305 181.083 274.059 180.891C273.864 180.664 273.762 180.396 273.762 180.033V150.306C273.762 149.932 273.871 149.657 274.078 149.426C274.331 149.194 274.629 149.075 275.028 149.075H275.557C275.967 149.075 276.219 149.199 276.411 149.405ZM279.173 191.865L279.196 191.866H279.219C281.376 191.866 283.014 190.681 284.327 189.43C285.122 188.672 285.662 187.597 286.003 186.552C286.349 185.494 286.525 184.367 286.525 183.416V146.923C286.525 144.96 285.776 143.262 284.327 141.881C282.879 140.501 281.121 139.805 279.106 139.805H271.479C269.463 139.805 267.705 140.501 266.258 141.881C264.809 143.262 264.06 144.96 264.06 146.923V183.416C264.06 184.367 264.235 185.494 264.581 186.552C264.923 187.597 265.462 188.672 266.258 189.43C267.699 190.804 269.45 191.5 271.455 191.506L279.173 191.865Z" fill="white" stroke="url(#paint6_linear_762_849)" stroke-width="2"/>
<path d="M310.053 140.661V139.661H309.053H301.426H300.426V140.661V179.889C300.426 180.278 300.407 180.799 300.328 181.243C300.289 181.467 300.241 181.629 300.195 181.73C300.191 181.74 300.187 181.749 300.183 181.756C300.122 181.782 300.027 181.802 299.85 181.804C299.731 181.805 299.602 181.798 299.429 181.789L299.415 181.788C299.255 181.779 299.061 181.768 298.859 181.768H298.806L298.753 181.774C298.172 181.835 297.755 181.638 297.459 181.299C297.14 180.936 296.913 180.346 296.913 179.601V179.59V179.579V179.568V179.557V179.546V179.535V179.524V179.514V179.503V179.492V179.481V179.47V179.459V179.448V179.438V179.427V179.416V179.405V179.395V179.384V179.373V179.362V179.352V179.341V179.33V179.319V179.309V179.298V179.287V179.277V179.266V179.255V179.245V179.234V179.224V179.213V179.202V179.192V179.181V179.171V179.16V179.15V179.139V179.129V179.118V179.108V179.097V179.087V179.076V179.066V179.055V179.045V179.034V179.024V179.014V179.003V178.993V178.983V178.972V178.962V178.952V178.941V178.931V178.921V178.91V178.9V178.89V178.879V178.869V178.859V178.849V178.839V178.828V178.818V178.808V178.798V178.788V178.777V178.767V178.757V178.747V178.737V178.727V178.717V178.707V178.697V178.686V178.676V178.666V178.656V178.646V178.636V178.626V178.616V178.606V178.596V178.586V178.576V178.567V178.557V178.547V178.537V178.527V178.517V178.507V178.497V178.487V178.478V178.468V178.458V178.448V178.438V178.429V178.419V178.409V178.399V178.389V178.38V178.37V178.36V178.351V178.341V178.331V178.321V178.312V178.302V178.293V178.283V178.273V178.264V178.254V178.244V178.235V178.225V178.216V178.206V178.197V178.187V178.178V178.168V178.159V178.149V178.14V178.13V178.121V178.111V178.102V178.092V178.083V178.074V178.064V178.055V178.045V178.036V178.027V178.017V178.008V177.999V177.989V177.98V177.971V177.962V177.952V177.943V177.934V177.924V177.915V177.906V177.897V177.888V177.878V177.869V177.86V177.851V177.842V177.833V177.824V177.814V177.805V177.796V177.787V177.778V177.769V177.76V177.751V177.742V177.733V177.724V177.715V177.706V177.697V177.688V177.679V177.67V177.661V177.652V177.643V177.634V177.625V177.617V177.608V177.599V177.59V177.581V177.572V177.564V177.555V177.546V177.537V177.528V177.52V177.511V177.502V177.493V177.485V177.476V177.467V177.458V177.45V177.441V177.432V177.424V177.415V177.407V177.398V177.389V177.381V177.372V177.363V177.355V177.346V177.338V177.329V177.321V177.312V177.304V177.295V177.287V177.278V177.27V177.261V177.253V177.244V177.236V177.228V177.219V177.211V177.202V177.194V177.186V177.177V177.169V177.161V177.152V177.144V177.136V177.127V177.119V177.111V177.103V177.094V177.086V177.078V177.07V177.062V177.053V177.045V177.037V177.029V177.021V177.013V177.004V176.996V176.988V176.98V176.972V176.964V176.956V176.948V176.94V176.932V176.924V176.916V176.908V176.9V176.892V176.884V176.876V176.868V176.86V176.852V176.844V176.836V176.828V176.82V176.812V176.804V176.797V176.789V176.781V176.773V176.765V176.757V176.75V176.742V176.734V176.726V176.719V176.711V176.703V176.695V176.688V176.68V176.672V176.665V176.657V176.649V176.642V176.634V176.626V176.619V176.611V176.603V176.596V176.588V176.581V176.573V176.566V176.558V176.551V176.543V176.536V176.528V176.521V176.513V176.506V176.498V176.491V176.483V176.476V176.468V176.461V176.454V176.446V176.439V176.432V176.424V176.417V176.41V176.402V176.395V176.388V176.38V176.373V176.366V176.358V176.351V176.344V176.337V176.33V176.322V176.315V176.308V176.301V176.294V176.287V176.279V176.272V176.265V176.258V176.251V176.244V176.237V176.23V176.223V176.216V176.209V176.201V176.194V176.187V176.18V176.173V176.167V176.16V176.153V176.146V176.139V176.132V176.125V176.118V176.111V176.104V176.097V176.09V176.084V176.077V176.07V176.063V176.056V176.05V176.043V176.036V176.029V176.022V176.016V176.009V176.002V175.996V175.989V175.982V175.975V175.969V175.962V175.955V175.949V175.942V175.936V175.929V175.922V175.916V175.909V175.903V175.896V175.89V175.883V175.876V175.87V175.863V175.857V175.85V175.844V175.838V175.831V175.825V175.818V175.812V175.805V175.799V175.793V175.786V175.78V175.773V175.767V175.761V175.754V175.748V175.742V175.736V175.729V175.723V175.717V175.71V175.704V175.698V175.692V175.686V175.679V175.673V175.667V175.661V175.655V175.649V175.642V175.636V175.63V175.624V175.618V175.612V175.606V175.6V175.594V175.588V175.582V175.576V175.57V175.564V175.558V175.552V175.546V175.54V175.534V175.528V175.522V175.516V175.51V175.504V175.498V175.492V175.486V175.481V175.475V175.469V175.463V175.457V175.451V175.446V175.44V175.434V175.428V175.423V175.417V175.411V175.405V175.4V175.394V175.388V175.383V175.377V175.371V175.366V175.36V175.354V140.661V139.661H295.913H288.286H287.286V140.661V183.344C287.286 184.261 287.434 185.802 287.742 187.274C287.896 188.012 288.097 188.76 288.352 189.418C288.599 190.053 288.934 190.705 289.409 191.158L289.416 191.165L289.424 191.171C290.859 192.485 292.594 193.149 294.573 193.161L302.714 194.055L302.769 194.061H302.823C304.752 194.061 306.782 193.512 308.233 192.129C308.751 191.636 309.061 190.864 309.269 190.158C309.49 189.409 309.648 188.54 309.762 187.686C309.989 185.977 310.053 184.217 310.053 183.344V140.661ZM300.161 181.794C300.161 181.794 300.162 181.792 300.164 181.789C300.162 181.792 300.161 181.794 300.161 181.794Z" fill="white" stroke="url(#paint7_linear_762_849)" stroke-width="2"/>
<defs>
<linearGradient id="paint0_linear_762_849" x1="159.931" y1="140.805" x2="159.931" y2="199.323" gradientUnits="userSpaceOnUse">
<stop stop-color="#E00FBE"/>
<stop offset="1" stop-color="#8C34E9"/>
</linearGradient>
<linearGradient id="paint1_linear_762_849" x1="180.631" y1="140.661" x2="180.631" y2="194.284" gradientUnits="userSpaceOnUse">
<stop stop-color="#E00FBE"/>
<stop offset="1" stop-color="#8C34E9"/>
</linearGradient>
<linearGradient id="paint2_linear_762_849" x1="201.46" y1="140.661" x2="201.46" y2="192.125" gradientUnits="userSpaceOnUse">
<stop stop-color="#E00FBE"/>
<stop offset="1" stop-color="#8C34E9"/>
</linearGradient>
<linearGradient id="paint3_linear_762_849" x1="224.406" y1="140.805" x2="224.406" y2="190.146" gradientUnits="userSpaceOnUse">
<stop stop-color="#E00FBE"/>
<stop offset="1" stop-color="#8C34E9"/>
</linearGradient>
<linearGradient id="paint4_linear_762_849" x1="246.859" y1="140.805" x2="246.859" y2="189.534" gradientUnits="userSpaceOnUse">
<stop stop-color="#E00FBE"/>
<stop offset="1" stop-color="#8C34E9"/>
</linearGradient>
<linearGradient id="paint5_linear_762_849" x1="321.313" y1="140.805" x2="321.313" y2="196.984" gradientUnits="userSpaceOnUse">
<stop stop-color="#E00FBE"/>
<stop offset="1" stop-color="#8C34E9"/>
</linearGradient>
<linearGradient id="paint6_linear_762_849" x1="275.292" y1="140.805" x2="275.292" y2="190.866" gradientUnits="userSpaceOnUse">
<stop stop-color="#E00FBE"/>
<stop offset="1" stop-color="#8C34E9"/>
</linearGradient>
<linearGradient id="paint7_linear_762_849" x1="298.67" y1="140.661" x2="298.67" y2="193.061" gradientUnits="userSpaceOnUse">
<stop stop-color="#E00FBE"/>
<stop offset="1" stop-color="#8C34E9"/>
</linearGradient>
</defs>
</svg>
