<svg width="66" height="82" viewBox="0 0 66 82" fill="none" xmlns="http://www.w3.org/2000/svg">
<g filter="url(#filter0_f_1091_503)">
<path fill-rule="evenodd" clip-rule="evenodd" d="M10.2949 10H24.745L55.1197 40.6861L24.745 71.3722H10.2949V62.3352H19.6334L41.0628 40.6861L19.6334 19.037H10.2949V10ZM9.99998 33.1396H19.6334L26.6127 40.1905L19.6334 47.2414H9.99998V33.1396Z" fill="url(#paint0_linear_1091_503)"/>
</g>
<mask id="path-2-outside-1_1091_503" maskUnits="userSpaceOnUse" x="7.99998" y="8" width="50" height="66" fill="black">
<rect fill="white" x="7.99998" y="8" width="50" height="66"/>
<path fill-rule="evenodd" clip-rule="evenodd" d="M10.2949 10H24.745L55.1197 40.6861L24.745 71.3722H10.2949V62.3352H19.6334L41.0628 40.6861L19.6334 19.037H10.2949V10ZM10 33.1396H19.6334L26.6127 40.1905L19.6334 47.2414H10V33.1396Z"/>
</mask>
<path fill-rule="evenodd" clip-rule="evenodd" d="M10.2949 10H24.745L55.1197 40.6861L24.745 71.3722H10.2949V62.3352H19.6334L41.0628 40.6861L19.6334 19.037H10.2949V10ZM10 33.1396H19.6334L26.6127 40.1905L19.6334 47.2414H10V33.1396Z" fill="url(#paint1_linear_1091_503)"/>
<path d="M24.745 10L26.1664 8.59302L25.5794 8H24.745V10ZM10.2949 10V8H8.29488V10H10.2949ZM55.1197 40.6861L56.5411 42.0931L57.9338 40.6861L56.5411 39.2791L55.1197 40.6861ZM24.745 71.3722V73.3722H25.5794L26.1664 72.7792L24.745 71.3722ZM10.2949 71.3722H8.29488V73.3722H10.2949V71.3722ZM10.2949 62.3352V60.3352H8.29488V62.3352H10.2949ZM19.6334 62.3352V64.3352H20.4678L21.0548 63.7422L19.6334 62.3352ZM41.0628 40.6861L42.4842 42.0931L43.8769 40.6861L42.4842 39.2791L41.0628 40.6861ZM19.6334 19.037L21.0548 17.63L20.4678 17.037H19.6334V19.037ZM10.2949 19.037H8.29488V21.037H10.2949V19.037ZM19.6334 33.1396L21.0548 31.7327L20.4678 31.1396H19.6334V33.1396ZM9.99998 33.1396V31.1396H7.99998V33.1396H9.99998ZM26.6127 40.1905L28.0341 41.5975L29.4268 40.1905L28.0341 38.7835L26.6127 40.1905ZM19.6334 47.2414V49.2414H20.4678L21.0548 48.6483L19.6334 47.2414ZM9.99998 47.2414H7.99998V49.2414H9.99998V47.2414ZM24.745 8H10.2949V12H24.745V8ZM56.5411 39.2791L26.1664 8.59302L23.3236 11.407L53.6983 42.0931L56.5411 39.2791ZM26.1664 72.7792L56.5411 42.0931L53.6983 39.2791L23.3236 69.9652L26.1664 72.7792ZM10.2949 73.3722H24.745V69.3722H10.2949V73.3722ZM8.29488 62.3352V71.3722H12.2949V62.3352H8.29488ZM19.6334 60.3352H10.2949V64.3352H19.6334V60.3352ZM39.6414 39.2791L18.212 60.9282L21.0548 63.7422L42.4842 42.0931L39.6414 39.2791ZM18.212 20.444L39.6414 42.0931L42.4842 39.2791L21.0548 17.63L18.212 20.444ZM10.2949 21.037H19.6334V17.037H10.2949V21.037ZM8.29488 10V19.037H12.2949V10H8.29488ZM19.6334 31.1396H9.99998V35.1396H19.6334V31.1396ZM28.0341 38.7835L21.0548 31.7327L18.212 34.5466L25.1913 41.5975L28.0341 38.7835ZM21.0548 48.6483L28.0341 41.5975L25.1913 38.7835L18.212 45.8344L21.0548 48.6483ZM9.99998 49.2414H19.6334V45.2414H9.99998V49.2414ZM7.99998 33.1396V47.2414H12V33.1396H7.99998Z" fill="#240724" mask="url(#path-2-outside-1_1091_503)"/>
<defs>
<filter id="filter0_f_1091_503" x="-1.52588e-05" y="0" width="65.1197" height="81.3721" filterUnits="userSpaceOnUse" color-interpolation-filters="sRGB">
<feFlood flood-opacity="0" result="BackgroundImageFix"/>
<feBlend mode="normal" in="SourceGraphic" in2="BackgroundImageFix" result="shape"/>
<feGaussianBlur stdDeviation="5" result="effect1_foregroundBlur_1091_503"/>
</filter>
<linearGradient id="paint0_linear_1091_503" x1="-2.9093" y1="107.582" x2="42.69" y2="120.547" gradientUnits="userSpaceOnUse">
<stop stop-color="#8338ED"/>
<stop offset="1" stop-color="#FF0070"/>
</linearGradient>
<linearGradient id="paint1_linear_1091_503" x1="-2.9093" y1="107.582" x2="42.69" y2="120.547" gradientUnits="userSpaceOnUse">
<stop stop-color="#8338ED"/>
<stop offset="1" stop-color="#FF0070"/>
</linearGradient>
</defs>
</svg>
