<svg width="46" height="45" viewBox="0 0 46 45" fill="none" xmlns="http://www.w3.org/2000/svg">
<path d="M19.7421 6.14492C19.6589 6.0611 19.5585 5.99648 19.4477 5.95557C19.3369 5.91467 19.2186 5.89847 19.1009 5.90812C18.9832 5.91776 18.8691 5.95302 18.7665 6.01141C18.6638 6.06981 18.5752 6.14993 18.5068 6.24617C16.806 8.68825 15.8943 11.5929 15.8946 14.5689C15.8908 15.0898 15.9178 15.6105 15.9756 16.1282L0.828585 36.7832C0.369858 37.4079 0.150297 38.1764 0.209743 38.9492C0.26919 39.722 0.603704 40.4479 1.15259 40.9952L4.04834 43.8909C4.59559 44.4398 5.32147 44.7743 6.09427 44.8338C6.86707 44.8932 7.63558 44.6736 8.26034 44.2149L28.9153 29.0679C29.433 29.1257 29.9537 29.1528 30.4746 29.1489C33.4506 29.1492 36.3553 28.2375 38.7973 26.5367C38.8936 26.4683 38.9737 26.3797 39.0321 26.277C39.0905 26.1744 39.1257 26.0603 39.1354 25.9426C39.145 25.8249 39.1288 25.7066 39.0879 25.5958C39.047 25.4851 38.9824 25.3846 38.8986 25.3014L19.7421 6.14492ZM19.4788 27.8732L15.4288 31.9232C15.1192 32.2226 14.7053 32.39 14.2746 32.39C13.8439 32.39 13.43 32.2226 13.1203 31.9232C12.8161 31.616 12.6455 31.2012 12.6455 30.7689C12.6455 30.3366 12.8161 29.9218 13.1203 29.6147L17.1703 25.5647C17.4851 25.3063 17.8847 25.1743 18.2914 25.1943C18.6981 25.2143 19.0828 25.3848 19.3708 25.6727C19.6587 25.9607 19.8292 26.3454 19.8492 26.7521C19.8692 27.1588 19.7372 27.5584 19.4788 27.8732V27.8732ZM42.4423 22.8917C42.3739 22.9879 42.2853 23.068 42.1827 23.1264C42.0801 23.1848 41.9659 23.2201 41.8483 23.2297C41.7306 23.2394 41.6122 23.2232 41.5015 23.1823C41.3907 23.1414 41.2902 23.0767 41.2071 22.9929L22.0506 3.83642C21.9668 3.75326 21.9021 3.65278 21.8612 3.54203C21.8203 3.43127 21.8041 3.31291 21.8138 3.19523C21.8234 3.07756 21.8587 2.96342 21.9171 2.8608C21.9755 2.75818 22.0556 2.66957 22.1518 2.60117C24.9593 0.65318 28.3618 -0.246839 31.7652 0.058251C35.1687 0.363341 38.3569 1.85416 40.7731 4.27041C43.1894 6.68666 44.6802 9.87482 44.9853 13.2783C45.2903 16.6817 44.3903 20.0842 42.4423 22.8917V22.8917Z" fill="#F0F0F0"/>
</svg>
