<svg width="46" height="38" viewBox="0 0 46 38" fill="none" xmlns="http://www.w3.org/2000/svg">
<path d="M6.2802 21.384V27.4536C6.2802 29.0304 7.1442 30.4992 8.5266 31.2552L19.3266 37.152C20.6226 37.8648 22.1778 37.8648 23.4738 37.152L34.2738 31.2552C35.6562 30.4992 36.5202 29.0304 36.5202 27.4536V21.384L23.4738 28.512C22.1778 29.2248 20.6226 29.2248 19.3266 28.512L6.2802 21.384ZM19.3266 0.5184L1.1178 10.4544C-0.3726 11.2752 -0.3726 13.4352 1.1178 14.256L19.3266 24.192C20.6226 24.9048 22.1778 24.9048 23.4738 24.192L40.8402 14.7096V27.4752C40.8402 28.6632 41.8122 29.6352 43.0002 29.6352C44.1882 29.6352 45.1602 28.6632 45.1602 27.4752V13.6296C45.1602 12.8304 44.7282 12.1176 44.037 11.7288L23.4738 0.5184C22.8356 0.178038 22.1235 0 21.4002 0C20.6769 0 19.9648 0.178038 19.3266 0.5184V0.5184Z" fill="#F0F0F0"/>
</svg>
