<svg width="52" height="42" viewBox="0 0 52 42" fill="none" xmlns="http://www.w3.org/2000/svg">
<path d="M27.3618 0.4374C26.487 -0.1458 25.353 -0.1458 24.4782 0.4374L13.4703 7.776H3.888C1.7415 7.776 0 9.5175 0 11.664V37.584C0 39.7305 1.7415 41.472 3.888 41.472H47.952C50.0985 41.472 51.84 39.7305 51.84 37.584V11.664C51.84 9.5175 50.0985 7.776 47.952 7.776H38.3697L27.3618 0.4374ZM20.736 33.696C20.736 30.8367 23.0607 28.512 25.92 28.512C28.7793 28.512 31.104 30.8367 31.104 33.696V41.472H20.736V33.696ZM7.776 15.552H10.368C11.0808 15.552 11.664 16.1352 11.664 16.848V22.032C11.664 22.7448 11.0808 23.328 10.368 23.328H7.776C7.0632 23.328 6.48 22.7448 6.48 22.032V16.848C6.48 16.1352 7.0632 15.552 7.776 15.552ZM40.176 16.848C40.176 16.1352 40.7592 15.552 41.472 15.552H44.064C44.7768 15.552 45.36 16.1352 45.36 16.848V22.032C45.36 22.7448 44.7768 23.328 44.064 23.328H41.472C40.7592 23.328 40.176 22.7448 40.176 22.032V16.848ZM7.776 25.92H10.368C11.0808 25.92 11.664 26.5032 11.664 27.216V32.4C11.664 33.1128 11.0808 33.696 10.368 33.696H7.776C7.0632 33.696 6.48 33.1128 6.48 32.4V27.216C6.48 26.5032 7.0632 25.92 7.776 25.92ZM40.176 27.216C40.176 26.5032 40.7592 25.92 41.472 25.92H44.064C44.7768 25.92 45.36 26.5032 45.36 27.216V32.4C45.36 33.1128 44.7768 33.696 44.064 33.696H41.472C40.7592 33.696 40.176 33.1128 40.176 32.4V27.216ZM18.792 14.256C18.792 12.3655 19.543 10.5525 20.8797 9.21574C22.2165 7.87898 24.0295 7.128 25.92 7.128C27.8105 7.128 29.6235 7.87898 30.9603 9.21574C32.297 10.5525 33.048 12.3655 33.048 14.256C33.048 16.1465 32.297 17.9595 30.9603 19.2963C29.6235 20.633 27.8105 21.384 25.92 21.384C24.0295 21.384 22.2165 20.633 20.8797 19.2963C19.543 17.9595 18.792 16.1465 18.792 14.256ZM25.92 10.368C25.2072 10.368 24.624 10.9512 24.624 11.664V14.256C24.624 14.9688 25.2072 15.552 25.92 15.552H28.512C29.2248 15.552 29.808 14.9688 29.808 14.256C29.808 13.5432 29.2248 12.96 28.512 12.96H27.216V11.664C27.216 10.9512 26.6328 10.368 25.92 10.368Z" fill="#F0F0F0"/>
</svg>
