<svg width="39" height="43" viewBox="0 0 39 43" fill="none" xmlns="http://www.w3.org/2000/svg">
<path d="M37.4625 0.565873C37.029 0.268107 36.5293 0.0810436 36.0068 0.0210334C35.4844 -0.0389769 34.9552 0.0298936 34.4655 0.221624C31.6305 1.33537 25.8795 3.17812 19.44 3.17812C13.0005 3.17812 7.2495 1.33537 4.4145 0.221624C3.92366 0.0307096 3.39368 -0.0376744 2.87046 0.0223937C2.34724 0.0824618 1.84655 0.269171 1.41174 0.566352C0.97694 0.863534 0.621136 1.26223 0.375144 1.72791C0.129151 2.19359 0.000386392 2.71221 0 3.23887V14.5181C0 21.7676 1.96425 28.5919 5.508 33.7556C9.05175 38.9194 14.1345 42.0581 19.44 42.0581C24.7455 42.0581 29.7068 39.1219 33.372 33.7556C37.0373 28.3894 38.88 21.7676 38.88 14.5181V3.23887C38.8808 2.71129 38.752 2.1916 38.5048 1.7255C38.2576 1.2594 37.8997 0.861185 37.4625 0.565873V0.565873ZM9.74025 20.4514C9.59939 20.6111 9.42844 20.7414 9.23716 20.835C9.04588 20.9285 8.83804 20.9835 8.62551 20.9966C8.41299 21.0098 8.19995 20.9809 7.99859 20.9117C7.79723 20.8425 7.61149 20.7342 7.452 20.5931C7.29374 20.4509 7.16505 20.2788 7.07329 20.0868C6.98153 19.8949 6.92849 19.6867 6.91721 19.4742C6.90593 19.2617 6.93662 19.049 7.00753 18.8484C7.07844 18.6478 7.18819 18.4631 7.3305 18.3049C7.93471 17.623 8.67672 17.0772 9.50752 16.7033C10.3383 16.3295 11.239 16.1362 12.15 16.1362C13.061 16.1362 13.9617 16.3295 14.7925 16.7033C15.6233 17.0772 16.3653 17.623 16.9695 18.3049C17.1118 18.4631 17.2216 18.6478 17.2925 18.8484C17.3634 19.049 17.3941 19.2617 17.3828 19.4742C17.3715 19.6867 17.3185 19.8949 17.2267 20.0868C17.135 20.2788 17.0063 20.4509 16.848 20.5931C16.5507 20.8529 16.1696 20.9967 15.7748 20.9981C15.545 20.9983 15.3179 20.9497 15.1084 20.8554C14.899 20.7612 14.7119 20.6234 14.5598 20.4514C14.2559 20.1133 13.8843 19.843 13.4692 19.6579C13.054 19.4728 12.6045 19.3772 12.15 19.3772C11.6955 19.3772 11.246 19.4728 10.8308 19.6579C10.4157 19.843 10.0441 20.1133 9.74025 20.4514V20.4514ZM25.7175 30.4549C23.8545 31.6837 21.6718 32.3388 19.44 32.3388C17.2082 32.3388 15.0255 31.6837 13.1625 30.4549C12.8096 30.2125 12.5654 29.8417 12.4822 29.4217C12.3989 29.0017 12.4832 28.5658 12.717 28.2071C12.8337 28.0286 12.9845 27.8749 13.1608 27.7549C13.3371 27.6348 13.5353 27.5507 13.7441 27.5074C13.953 27.4642 14.1683 27.4626 14.3778 27.5027C14.5872 27.5428 14.7867 27.624 14.9648 27.7414C16.2896 28.626 17.847 29.0981 19.44 29.0981C21.033 29.0981 22.5904 28.626 23.9153 27.7414C24.0933 27.624 24.2928 27.5428 24.5022 27.5027C24.7117 27.4626 24.927 27.4642 25.1359 27.5074C25.3447 27.5507 25.5429 27.6348 25.7192 27.7549C25.8955 27.8749 26.0463 28.0286 26.163 28.2071C26.3968 28.5658 26.4811 29.0017 26.3978 29.4217C26.3146 29.8417 26.0704 30.2125 25.7175 30.4549V30.4549ZM31.428 20.5931C31.1307 20.8529 30.7496 20.9967 30.3548 20.9981C30.125 20.9983 29.8979 20.9497 29.6884 20.8554C29.479 20.7612 29.2919 20.6234 29.1398 20.4514C28.8359 20.1133 28.4643 19.843 28.0492 19.6579C27.634 19.4728 27.1845 19.3772 26.73 19.3772C26.2755 19.3772 25.826 19.4728 25.4108 19.6579C24.9957 19.843 24.6241 20.1133 24.3203 20.4514C24.1794 20.6111 24.0084 20.7414 23.8172 20.835C23.6259 20.9285 23.418 20.9835 23.2055 20.9966C22.993 21.0098 22.7799 20.9809 22.5786 20.9117C22.3772 20.8425 22.1915 20.7342 22.032 20.5931C21.8737 20.4509 21.7451 20.2788 21.6533 20.0868C21.5615 19.8949 21.5085 19.6867 21.4972 19.4742C21.4859 19.2617 21.5166 19.049 21.5875 18.8484C21.6584 18.6478 21.7682 18.4631 21.9105 18.3049C22.5147 17.623 23.2567 17.0772 24.0875 16.7033C24.9183 16.3295 25.819 16.1362 26.73 16.1362C27.641 16.1362 28.5417 16.3295 29.3725 16.7033C30.2033 17.0772 30.9453 17.623 31.5495 18.3049C31.6918 18.4631 31.8016 18.6478 31.8725 18.8484C31.9434 19.049 31.9741 19.2617 31.9628 19.4742C31.9515 19.6867 31.8985 19.8949 31.8067 20.0868C31.715 20.2788 31.5863 20.4509 31.428 20.5931V20.5931Z" fill="#F0F0F0"/>
</svg>
