<svg width="360" height="60" viewBox="0 0 360 60" fill="none" xmlns="http://www.w3.org/2000/svg">
<path fill-rule="evenodd" clip-rule="evenodd" d="M129.725 59.2501L129.888 59.3375L129.997 59.3962C130.051 59.425 130.106 59.4549 130.165 59.4867C130.322 59.4344 130.479 59.3788 130.639 59.3225C130.99 59.1987 131.349 59.0718 131.729 58.9699C131.941 58.9128 132.171 58.8744 132.401 58.8361C132.702 58.7858 133.002 58.7357 133.259 58.6436C133.607 58.521 133.952 58.5467 134.298 58.5725C134.574 58.5931 134.851 58.6137 135.129 58.5589C135.31 58.3419 135.498 58.1144 135.705 57.8622C135.995 57.9309 136.276 57.9987 136.575 58.0707C136.828 58.1317 137.094 58.1958 137.389 58.2661C138.281 57.804 139.22 57.3171 140.232 56.7915C140.581 56.8338 140.932 56.8753 141.301 56.9189C141.654 56.9606 142.024 57.0042 142.424 57.0525C143.143 56.3258 144.198 55.7737 145.388 55.2709C145.852 55.4308 146.367 55.5333 146.869 55.6333C147.574 55.7739 148.255 55.9093 148.733 56.1918C149.439 56.8567 150.046 57.43 150.716 58.065C151.249 57.8269 151.66 57.6399 152.178 57.4071L153.266 57.5372C153.602 57.5772 153.964 57.6199 154.356 57.6664C154.624 57.6168 154.891 57.5455 155.168 57.4713C156.078 57.2283 157.103 56.9545 158.636 57.3153C158.636 57.3153 159.08 57.4864 159.577 57.6822C159.773 57.6936 159.976 57.7052 160.187 57.7172L160.794 57.7518C161.031 57.7654 161.279 57.7797 161.542 57.7951C161.761 58.0368 162.01 58.3066 162.277 58.5959C162.569 58.6824 162.891 58.7794 163.197 58.8693C163.261 58.8554 163.329 58.8451 163.394 58.8352C163.527 58.8149 163.65 58.7962 163.71 58.7512C164.113 58.4511 164.501 58.1443 164.804 57.9045L164.808 57.901C164.918 57.8138 165.017 57.7356 165.101 57.6699C165.539 57.513 165.975 57.4732 166.378 57.4364C166.926 57.3863 167.413 57.3418 167.761 57.0155C167.725 56.8796 167.673 56.6839 167.607 56.4651C167.944 56.28 168.286 56.0922 168.631 55.9026C168.987 55.7074 169.347 55.5101 169.707 55.3115C169.583 55.1788 169.465 55.0534 169.351 54.9329L169.283 54.8601C169.047 54.6103 168.831 54.3804 168.625 54.1491C168.437 53.9389 168.262 53.7257 168.075 53.4983L168.074 53.4967C167.974 53.3754 167.871 53.2501 167.761 53.119C167.867 52.8009 168.306 52.6398 168.757 52.4742C169.06 52.3633 169.367 52.2505 169.585 52.0871C169.668 51.8314 169.752 51.5738 169.867 51.2316L169.966 51.2157L170.026 51.2058L170.247 51.1696L170.261 51.1673L170.497 51.1286C170.6 51.1118 170.704 51.0948 170.809 51.0782C170.814 51.0554 170.818 51.0325 170.821 51.0094C170.826 50.9745 170.828 50.9392 170.828 50.9038C170.829 50.8731 170.828 50.8423 170.826 50.8115C170.825 50.7879 170.823 50.7642 170.821 50.7405L170.818 50.7062C170.795 50.4237 170.773 50.1403 171.204 49.9034C171.98 49.8999 172.347 50.1186 172.333 50.586C172.284 50.6182 172.237 50.6557 172.189 50.694L172.188 50.6946C172.108 50.7584 172.025 50.8245 171.924 50.8725C171.893 50.887 171.861 50.8999 171.826 50.9106C171.615 50.9727 171.374 51.0028 171.133 51.033C171.071 51.0407 171.009 51.0484 170.948 51.0566L170.89 51.0647C170.864 51.0685 170.837 51.0723 170.811 51.0764L171.605 51.9185L171.894 52.2264C172.026 52.2091 172.151 52.1929 172.278 52.1767L172.778 52.1125C172.89 52.0981 173.009 52.0828 173.139 52.0659C173.294 52.1281 173.469 52.1978 173.666 52.2765C173.911 52.3741 174.192 52.4857 174.518 52.6145L174.547 52.6095C174.86 52.5554 175.266 52.4853 175.679 52.4152C176.281 52.4981 176.887 52.5828 177.437 52.6604C177.774 52.4516 178.088 52.2346 178.398 52.02L178.4 52.019C179.348 51.3637 180.264 50.7306 181.716 50.4184C181.922 50.515 182.115 50.6058 182.3 50.6923L182.971 51.0076C183.793 50.9018 184.096 50.5807 184.065 50.1874C184.02 49.5753 184.371 49.0444 184.951 48.5575C185.125 48.4138 185.359 48.2949 185.59 48.1771C185.697 48.1228 185.803 48.0687 185.903 48.0125C186.51 48.4111 187.044 48.7622 187.541 49.0867C188.448 49.1522 189.274 49.2141 190.133 49.2784L190.682 49.3195C190.799 49.238 190.919 49.1537 191.042 49.068L191.359 48.8454C191.464 48.7713 191.57 48.6969 191.676 48.6228C191.721 48.627 191.768 48.6291 191.816 48.6306L191.868 48.6321C192.002 48.6358 192.131 48.6394 192.207 48.6775C192.834 48.992 193.449 49.3151 194.093 49.654C194.294 49.7594 194.497 49.8662 194.704 49.9749L194.945 50.1009H197.658C198.416 50.4699 199.112 50.8088 199.774 51.1303C200.311 51.3914 200.825 51.641 201.33 51.886C201.775 51.8402 202.125 51.8031 202.58 51.7572C202.87 51.9365 203.17 52.123 203.488 52.3206L204.035 52.6604C205.253 52.1824 206.206 51.6338 206.956 50.93C206.999 50.9203 207.041 50.9108 207.084 50.9013L207.166 50.8832C207.236 50.8678 207.306 50.8524 207.375 50.8365C207.66 50.8171 207.937 50.7642 208.199 50.6513L208.63 50.5533C209.362 50.3872 210.145 50.2096 211.026 50.011C213.087 50.1257 215.501 50.3303 217.869 50.7095C218.242 50.7684 218.661 50.7336 219.184 50.6901C219.46 50.6672 219.765 50.6418 220.108 50.6266C220.31 50.6959 220.57 50.7854 220.863 50.8863L221.418 51.0772C221.652 51.1575 221.895 51.2412 222.14 51.3251C222.545 51.3251 222.895 51.2178 223.256 51.1072C223.7 50.9713 224.16 50.8304 224.758 50.8771L224.43 51.4337C224.342 51.5832 224.257 51.7295 224.172 51.8754C224.784 52.0412 225.336 52.1929 225.81 52.3235C225.859 52.7648 225.461 52.9998 225.081 53.2238C224.895 53.3338 224.713 53.441 224.591 53.5688C224.333 53.8335 224.203 54.1395 224.051 54.4999L224.05 54.5002C223.975 54.6776 223.895 54.8681 223.79 55.0734L224.075 54.983L224.331 54.9014C224.522 54.8403 224.666 54.7942 224.818 54.7471C225.25 55.2286 224.899 55.6661 224.486 56.1247L224.831 56.5652L225.32 57.1901C225.313 57.2154 225.304 57.2412 225.294 57.2673C225.274 57.3175 225.251 57.3691 225.227 57.4217C225.054 57.8013 224.856 58.2363 225.943 58.6136C226.176 58.6235 226.479 58.6366 226.821 58.6518C227.15 58.6663 227.516 58.6827 227.894 58.7C228.203 58.5099 228.5 58.3287 228.839 58.1224C229 58.0243 229.171 57.9205 229.356 57.8075C229.636 57.8533 230.047 57.9186 230.494 57.9909C232.142 57.7792 233.186 57.1725 233.74 56.2288C233.614 55.925 233.485 55.6155 233.353 55.2971L232.853 54.0944C233.302 53.9808 233.739 54.0589 234.177 54.1373C234.739 54.2377 235.302 54.3384 235.893 54.0362C235.788 53.7046 235.665 53.3201 235.553 52.9691C235.599 52.9461 235.641 52.9234 235.679 52.9016C235.709 52.8846 235.737 52.8682 235.763 52.8526C235.869 52.7901 235.951 52.7414 236.05 52.7256C236.492 52.6586 236.949 52.6022 237.357 52.768C237.468 52.8625 237.408 52.9684 237.348 53.0733C237.267 53.2168 237.186 53.3584 237.546 53.4665C238.344 53.2072 238.409 52.8262 238.064 52.3923C237.867 52.1418 238.074 52.0007 238.511 51.8349C238.768 51.9242 239.045 52.0186 239.36 52.1261L239.396 52.1383L239.403 52.1406L239.414 52.1444C239.575 52.1992 239.745 52.2573 239.929 52.3199C240.554 52.0871 241.229 51.8349 241.969 51.558C242.136 51.2351 242.317 50.8877 242.523 50.4855C242.108 50.183 241.67 49.8652 241.232 49.5472L241.229 49.5452L241.205 49.5277C241.236 49.4377 241.231 49.3195 241.323 49.2419C241.749 48.8891 242.262 48.6139 243.054 48.5222C243.408 48.4794 243.747 48.3878 244.121 48.2867C244.223 48.2591 244.328 48.2307 244.437 48.2025C244.52 48.1807 244.606 48.159 244.694 48.1377C244.85 47.5186 245.264 46.9401 245.675 46.3664C246.211 45.6178 246.741 44.8776 246.682 44.0666C247.166 43.7436 247.647 43.8113 248.126 43.8789C248.463 43.9264 248.8 43.9738 249.135 43.885C249.619 43.7577 250.189 43.7345 250.789 43.7102C251.061 43.6991 251.341 43.6877 251.62 43.6662C251.733 43.4475 251.83 43.2605 251.971 42.9924C252.092 42.9155 252.217 42.8268 252.348 42.7331C252.664 42.5088 253.02 42.256 253.459 42.0681C253.611 42.0027 253.773 41.9442 253.941 41.8901H257.285L259.373 42.4861L259.434 42.5237L259.488 42.5569L259.616 42.6355L259.617 42.6364L259.619 42.6373C259.947 42.8402 260.425 43.135 260.921 43.4193C261.167 43.5604 261.458 43.7226 261.774 43.765C262.633 43.8864 263.151 44.2253 263.715 44.5938C263.863 44.6912 264.016 44.7906 264.178 44.8886C264.195 45.1006 264.216 45.3323 264.238 45.5768L264.272 45.9505C263.914 46.1886 263.568 46.4197 263.21 46.6649C263.304 47.0194 263.393 47.3704 263.529 47.8855C264.048 48.4633 264.772 49.0136 265.518 49.581C266.267 50.1516 267.04 50.7395 267.651 51.3903C267.843 51.5921 268.197 51.7429 268.568 51.9013L268.67 51.9445C268.714 51.9634 268.758 51.9825 268.802 52.0019C268.902 52.0461 269.002 52.0918 269.098 52.14C269.195 52.3413 269.224 52.5559 269.254 52.7735C269.317 53.2309 269.382 53.7013 270.079 54.0874C270.294 54.0204 270.516 53.952 270.738 53.8837C270.959 53.8153 271.181 53.7469 271.397 53.6799C271.464 53.7072 271.53 53.7348 271.596 53.7627C271.741 53.8246 271.884 53.8878 272.025 53.9505C272.477 54.1511 272.918 54.3467 273.411 54.4789C273.867 54.5993 274.105 54.8102 274.341 55.0194C274.496 55.1568 274.651 55.2935 274.865 55.4032C275.294 55.6225 275.702 55.8529 276.123 56.0901L276.124 56.0907L276.283 56.1802L276.393 56.242C276.49 56.2967 276.588 56.3517 276.688 56.4069C277.066 56.4254 277.446 56.4449 277.829 56.4645L277.852 56.4657L277.858 56.466C278.197 56.4834 278.539 56.5009 278.885 56.518C279.27 56.7021 279.654 56.8845 280.101 57.0967L280.758 57.4088C280.79 57.3804 280.823 57.353 280.857 57.3265C280.884 57.3048 280.912 57.2837 280.939 57.263C281.067 57.1657 281.185 57.0765 281.213 56.9784C281.493 56.0242 282.605 55.5391 284.247 55.2216C284.904 55.204 285.725 55.1828 286.458 55.1634C287.224 54.9323 287.65 54.6077 288.074 54.2497C289.913 52.6869 290.598 52.3799 293.493 51.2228C294.362 50.8735 295.243 50.7113 296.182 50.6019C296.828 50.7788 296.858 51.101 296.885 51.3818C296.899 51.5264 296.911 51.6601 297.006 51.7572C297.177 51.8505 297.287 51.9109 297.413 51.946C297.644 52.0105 297.928 51.9895 298.733 51.9301C299.311 51.5791 299.706 51.1699 299.664 50.6672C299.622 50.1662 299.92 49.7411 300.556 49.2649L301.552 49.2006C302.04 49.1693 302.541 49.1371 303.012 49.1061C303.195 49.0069 303.367 48.9061 303.535 48.8076L303.536 48.8072C303.903 48.5923 304.252 48.3883 304.657 48.2347C305.293 47.9984 305.821 47.732 306.289 47.3069C305.803 46.7707 305.128 46.2874 304.44 45.8129C306.42 45.6594 306.42 45.6594 309.77 46.2627L311.083 45.7529C312.98 45.857 314.068 45.6965 315.975 45.0227C316.039 44.8922 316.101 44.7591 316.164 44.6248C316.308 44.3176 316.455 44.0035 316.639 43.698C316.734 43.5337 316.894 43.3823 317.06 43.2248C317.14 43.1489 317.222 43.0715 317.298 42.9906C317.434 42.9746 317.57 42.9586 317.705 42.9424L318.302 42.8708L318.307 42.8701C319.231 42.759 320.14 42.6496 321.054 42.5603C321.173 42.5484 321.315 42.6158 321.47 42.6896C321.546 42.726 321.626 42.7639 321.708 42.7948C321.376 43.0312 321.101 43.227 320.787 43.4545C320.821 43.4917 320.85 43.5354 320.879 43.5799L320.88 43.5809C320.946 43.6821 321.016 43.7875 321.148 43.8303C321.528 43.9555 321.97 44.0666 322.404 44.0842C323.065 44.111 323.732 44.1055 324.35 44.1005C324.587 44.0985 324.817 44.0966 325.038 44.0966C326.024 44.3859 326.597 44.7369 326.832 45.3102C327.054 45.8534 327.727 46.2133 328.898 46.3262C329.222 46.1816 329.514 46.0061 329.812 45.8268C330.233 45.5729 330.668 45.3112 331.226 45.1179C331.549 45.0055 331.85 44.8734 332.151 44.7419L332.152 44.7413C332.709 44.4974 333.262 44.2553 333.933 44.1442C334.055 44.1638 334.167 44.1816 334.273 44.1984L334.283 44.2001C334.469 44.2297 334.638 44.2565 334.812 44.2853C335.016 44.2283 335.207 44.1619 335.4 44.0952C335.808 43.9535 336.22 43.8108 336.756 43.7544C338.203 43.6032 339.633 43.3999 341.065 43.1963L341.068 43.1959L341.076 43.1947C341.305 43.1622 341.533 43.1298 341.761 43.0976L342.189 43.0374C342.505 42.9934 342.821 42.9499 343.138 42.9077C344.236 42.7613 345.324 42.7772 346.407 43.0171C346.785 42.9312 347.17 42.8414 347.563 42.7497L347.937 42.6625L348.537 42.7268C349.135 42.7911 349.75 42.8571 350.412 42.9271C350.468 42.9705 350.529 43.0144 350.592 43.0593C350.743 43.1676 350.903 43.282 351.016 43.4104C351.124 43.5314 351.19 43.6654 351.264 43.8152L351.267 43.8197L351.286 43.8586L351.307 43.9019C351.329 43.9461 351.353 43.9915 351.379 44.0384C352.63 44.0701 353.809 44.1001 355.088 44.1336C355.001 44.2447 354.915 44.355 354.829 44.465C354.658 44.6844 354.487 44.9028 354.316 45.1239L353.446 46.245C354.105 46.4549 354.714 46.649 355.415 46.8659L355.43 46.9191L355.444 46.9709L355.476 47.0861L355.505 47.1898L355.525 47.2603C355.557 47.3718 355.591 47.4859 355.624 47.5997C355.659 47.6243 355.692 47.6509 355.724 47.6774L355.725 47.6783C355.8 47.739 355.874 47.7994 355.975 47.8361C356.024 47.8536 356.074 47.8702 356.126 47.8862C356.169 47.8997 356.213 47.9127 356.257 47.9254C356.338 47.9486 356.421 47.9708 356.503 47.993C356.838 48.0831 357.17 48.1725 357.382 48.3212C358.203 48.8909 359.2 49.159 360.463 49.2225C360.661 49.2322 360.844 49.3436 361.028 49.4561L361.072 49.4831L361.107 49.5045L361.128 49.5169C361.146 49.5275 361.164 49.538 361.182 49.5482L361.202 49.5594L361.233 49.5757C361.251 49.5854 361.269 49.5947 361.287 49.6035L361.297 49.603C361.817 49.5732 362.337 49.5433 362.846 49.5118C363.125 49.7298 363.396 49.9413 363.668 50.1538C364.017 50.4263 364.368 50.7003 364.74 50.9917C365.03 50.967 365.373 50.9371 365.865 50.893C366.388 51.1311 367.018 51.4151 367.73 51.7361C368.498 51.348 369.179 51.0076 369.895 50.6495C370.254 50.6371 370.618 50.5907 370.984 50.544C371.81 50.4386 372.644 50.3322 373.45 50.616C373.852 50.4871 374.236 50.3635 374.599 50.2464C375.02 50.1103 375.413 49.983 375.77 49.8663C376.326 49.9022 376.448 50.0872 376.577 50.2848C376.664 50.4181 376.756 50.5571 376.986 50.6601L378.424 50.7911C378.808 50.8262 379.223 50.8642 379.667 50.9053C380.274 50.8135 381.064 50.6954 381.835 50.579C382.037 50.643 382.235 50.7065 382.426 50.7675L382.976 50.9426L383.204 51.015L383.337 51.057C384.26 51.0111 384.621 50.7024 384.927 50.3814C385.029 50.4149 385.136 50.4502 385.241 50.4855C385.285 50.4569 385.327 50.429 385.37 50.4018C385.395 50.3854 385.421 50.3691 385.448 50.3532C385.584 50.3992 385.721 50.4436 385.868 50.4915L385.977 50.5272L386.137 50.5794L386.248 50.616C386.338 50.4444 386.426 50.2771 386.511 50.1147C386.591 49.9614 386.669 49.8126 386.745 49.6688C386.946 49.6106 387.093 49.5453 387.263 49.5206C387.772 49.4448 388.268 49.5274 388.745 49.6066C389.155 49.6748 389.551 49.7405 389.926 49.7006C390.711 49.6182 391.268 49.7629 391.848 49.9139C391.904 49.9284 391.96 49.9431 392.017 49.9575C392.09 49.9763 392.165 49.9949 392.24 50.0128C392.688 50.1186 393.117 50.1486 393.491 49.921C393.58 49.5772 393.212 49.5283 392.845 49.4794C392.587 49.4449 392.329 49.4106 392.23 49.2737C392.243 49.245 392.251 49.2101 392.26 49.1749L392.26 49.1732C392.279 49.0966 392.297 49.0194 392.363 49.0038C392.859 48.8788 393.365 48.7685 393.897 48.6524C394.013 48.6272 394.129 48.6018 394.248 48.5758L394.451 48.5311C394.631 48.561 394.811 48.591 394.989 48.621V38.5807H395V-1.59673C395 -1.59673 393.803 -7.75854 389.767 -7.3334C387.826 -7.12881 387.506 -7.68363 387.133 -8.3285C386.732 -9.02359 386.269 -9.82327 383.653 -9.88934C379.849 -9.9867 379.057 -8.55701 378.492 -7.53732C378.308 -7.2049 378.148 -6.91605 377.915 -6.73789C376.968 -6.01326 371.987 -7.3334 370.853 -7.71722C369.72 -8.10105 368.458 -6.22669 368.458 -5.20431C368.458 -4.18194 361.272 -3.79811 359.695 -4.18194C358.118 -4.56404 355.786 -3.96851 355.975 -2.43494C356.112 -1.32182 351.699 -0.634895 348.979 -0.21159C347.952 -0.0517044 347.166 0.0705948 346.959 0.164024C346.61 0.320995 346.208 -0.208897 345.765 -0.792919C345.246 -1.47684 344.671 -2.23495 344.06 -2.05112C342.923 -1.71032 341.285 -3.45731 341.79 -4.39362C342.294 -5.33167 338.699 -7.54684 337.438 -7.3334C336.486 -7.17358 335.858 -8.3234 335.254 -9.42827C335.058 -9.7869 334.865 -10.1408 334.664 -10.4436C334.025 -11.4045 332.087 -9.88683 330.784 -8.86649C330.414 -8.57649 330.095 -8.3267 329.872 -8.18539C329.281 -7.81162 328.712 -8.78062 328.126 -9.77657L328.126 -9.77744C327.711 -10.4827 327.289 -11.2013 326.845 -11.466C326.311 -11.7847 325.65 -11.5729 325.185 -11.4239C324.719 -11.2743 324.45 -11.188 324.702 -11.7637C325.207 -12.9135 321.801 -14.2749 320.919 -14.5744C320.391 -14.7538 320.338 -14.1225 320.271 -13.3403V-13.3399C320.227 -12.8162 320.176 -12.2248 319.974 -11.7637C319.469 -10.614 315.75 -10.657 314.048 -11.4229C312.346 -12.1889 306.166 -12.8291 307.05 -10.7413C307.626 -9.38024 306.647 -8.79822 305.827 -8.30996C305.388 -8.04928 304.995 -7.81533 304.907 -7.50381C304.655 -6.61052 295.578 -7.6742 295.702 -8.39881C295.827 -9.12344 289.838 -9.33513 289.397 -7.71722C288.956 -6.0976 281.958 -8.22842 280.949 -8.82394C279.94 -9.4212 277.418 -7.76025 277.545 -6.86526C277.673 -5.97023 276.348 -4.94785 274.835 -5.84286C273.321 -6.73788 272.628 -4.99089 272.628 -3.88416C272.628 -3.30335 271.538 -3.17906 270.363 -3.04523C269.297 -2.92365 268.161 -2.79422 267.711 -2.30758C266.766 -1.28519 265.694 -1.96678 265.757 -3.62772C265.818 -5.29038 264.873 -5.63116 262.162 -5.7155C260.201 -5.77778 260.22 -5.48228 260.285 -4.4913C260.31 -4.1127 260.342 -3.63261 260.272 -3.03218C260.088 -1.44678 256.142 -0.450951 253.68 0.170105C252.77 0.399948 252.062 0.578465 251.824 0.716534C251.476 0.917358 251.196 0.469952 250.8 -0.164074C250.191 -1.13859 249.306 -2.55403 247.473 -2.73443C245.428 -2.93557 245.599 -2.51464 245.906 -1.76084C246.054 -1.39876 246.232 -0.959873 246.212 -0.476242C246.168 0.54332 244.384 0.407269 242.818 0.287781C242.094 0.23259 241.417 0.180923 240.979 0.248367C240.182 0.369785 239.574 -0.839241 238.902 -2.17375C238.402 -3.16611 237.868 -4.22784 237.195 -4.86353C235.618 -6.35406 233.412 -5.11826 233.412 -3.62772C233.412 -2.67945 232.876 -2.69601 231.966 -2.72409C231.446 -2.74015 230.804 -2.75999 230.07 -2.60534C228.888 -2.35635 227.663 -3.42221 226.649 -4.30529C225.931 -4.92995 225.318 -5.46315 224.9 -5.37472C223.892 -5.16129 219.981 -7.1217 219.604 -7.88762C219.227 -8.65355 217.145 -9.46252 214.687 -9.37817C213.308 -9.33089 212.802 -9.75228 212.256 -10.2066C211.829 -10.5624 211.377 -10.9384 210.463 -11.1251C208.953 -11.4347 206.649 -10.6011 205.184 -10.0709C204.629 -9.87 204.194 -9.71268 203.969 -9.67767C203.148 -9.55029 201.951 -11.509 201.951 -11.509L200.249 -11.466C199.398 -11.4445 199.366 -11.0718 199.335 -10.6992C199.303 -10.3265 199.271 -9.9539 198.42 -9.9324C196.716 -9.88935 196.275 -12.0615 196.339 -12.9565C196.4 -13.8515 192.744 -14.2766 190.033 -13.9359C188.399 -13.7304 187.131 -14.284 186.05 -14.7559C185.339 -15.0667 184.708 -15.342 184.107 -15.342C183.419 -15.342 183.148 -14.7256 182.909 -14.1816C182.622 -13.5292 182.381 -12.9808 181.521 -13.7241C179.944 -15.0873 176.35 -15.1286 175.973 -13.1699C175.607 -11.2821 171.969 -11.8842 171.701 -11.9313V-19.7724C171.47 -19.7343 171.268 -19.7001 171.09 -19.6701C170.304 -19.5369 169.99 -19.4838 169.704 -19.5226C169.513 -19.5484 169.335 -19.6148 169.038 -19.7254C168.642 -19.8727 168.035 -20.0984 166.908 -20.4109C164.397 -21.1074 163.162 -18.723 162.362 -17.1806C162.038 -16.5542 161.785 -16.0666 161.548 -15.9806C161.219 -15.8611 161.052 -16.1603 160.82 -16.5779C160.474 -17.2006 159.982 -18.0863 158.585 -18.2388C156.252 -18.4935 155.37 -16.5348 155.37 -16.5348C155.37 -16.5348 154.552 -14.9169 150.453 -14.8739C147.394 -14.8418 146.514 -13.8354 145.791 -13.0087C145.546 -12.7285 145.319 -12.4689 145.032 -12.2749C143.895 -11.509 141.437 -12.4883 141.437 -12.4883C139.955 -12.6475 139.932 -12.3202 139.894 -11.7923C139.861 -11.3327 139.817 -10.721 138.79 -10.1458C137.117 -9.20864 135.275 -9.65526 133.813 -10.0099C133.347 -10.1229 132.919 -10.2266 132.548 -10.2732C131.835 -10.3627 129.965 -10.1028 130.153 -9.16647C130.344 -8.22842 129.208 -6.9513 127.506 -6.61052C126.286 -6.36613 125.811 -7.08562 125.384 -7.73188C125.216 -7.98682 125.055 -8.23035 124.859 -8.39881C124.166 -8.99608 122.842 -8.61225 121.14 -7.97369C119.435 -7.3334 118.554 -10.2732 118.554 -10.2732C118.554 -10.2732 114.202 -12.0615 113.95 -10.0598C113.759 -8.54306 112.701 -8.49375 111.705 -8.44731C111.386 -8.43248 111.074 -8.41794 110.799 -8.35579C110.257 -8.23358 110.103 -8.605 109.899 -9.09644C109.674 -9.6363 109.389 -10.321 108.465 -10.6553C107.428 -11.0305 106.368 -10.6409 105.274 -10.2386C104.507 -9.95625 103.722 -9.66767 102.916 -9.63291C100.96 -9.54857 98.1878 -11.7637 99.3216 -12.8704C100.455 -13.9771 96.0427 -15.8515 95.7905 -14.6587C95.5383 -13.466 91.0621 -13.3386 91.0621 -13.3386C91.0621 -13.3386 87.722 -13.6364 86.838 -11.805C86.1937 -10.4703 85.4831 -10.4695 84.7062 -10.4686C84.4171 -10.4683 84.1188 -10.4679 83.8114 -10.3988C82.6752 -10.1441 81.2892 -11.5073 82.2981 -12.1458C83.307 -12.7844 81.2255 -14.2749 78.9556 -14.4883C77.7868 -14.5973 77.7047 -14.0972 77.6161 -13.5572C77.5326 -13.0484 77.4432 -12.5041 76.4334 -12.4006C74.3519 -12.1871 75.1086 -13.8481 75.1086 -13.8481C75.1086 -13.8481 75.3608 -15.3816 72.0183 -15.5951C68.6783 -15.8085 68.8668 -19.6416 68.8668 -19.6416C68.8668 -19.6416 67.1013 -21.046 66.8491 -21.7707C66.5969 -22.4953 60.9844 -21.1321 60.0392 -19.7259C59.094 -18.3197 54.4904 -20.2371 54.4904 -20.2371C54.4904 -20.2371 52.8497 -22.4953 50.7071 -21.8137C48.5646 -21.1321 48.4371 -20.1527 48.9416 -18.151C49.446 -16.1493 42.4476 -16.7035 43.8972 -17.6398C43.8972 -17.6398 36.9625 -22.0271 37.0873 -19.3438C37.2121 -16.6605 34.7537 -16.9582 34.7537 -16.9582C34.7537 -16.9582 29.3323 -18.3214 30.3411 -16.1493C31.35 -13.9754 26.1146 -11.8463 26.5578 -13.2095C26.8431 -14.0865 25.0919 -13.9583 23.2523 -13.8236C22.2327 -13.7489 21.1858 -13.6723 20.4435 -13.7637C19.2548 -13.9102 17.7171 -12.5837 16.6519 -11.6647C15.8518 -10.9745 15.3182 -10.5142 15.3991 -11.0804C15.5876 -12.4006 13.9469 -12.9548 11.8044 -13.2525C10.7345 -13.4012 10.0883 -12.0742 9.51347 -10.8936C8.93707 -9.70978 8.43229 -8.67318 7.64399 -9.41947C6.06959 -10.91 1.46592 -10.2714 1.46592 -10.2714C0.132179 -10.1684 -0.261177 -9.01427 -0.626091 -7.94377C-0.864754 -7.24352 -1.0912 -6.57906 -1.56069 -6.26799C-1.96574 -5.9995 -4.58731 -6.01326 -3.26254 -7.29038C-1.93777 -8.5675 -7.7999 -9.46249 -9.88134 -9.07869C-11.0635 -8.86043 -10.9621 -8.20194 -10.8749 -7.63522C-10.8088 -7.20532 -10.7508 -6.82822 -11.2672 -6.73616C-12.4646 -6.52274 -16.0594 -9.29211 -16.0594 -9.29211L-18.447 -9.17258C-18.2253 -9.93859 -18.0036 -9.99391 -17.782 -9.67329C-17.6656 -9.53115 -17.5492 -9.78691 -17.4328 -10.0427L-17.4326 -10.0432C-17.3369 -10.2536 -17.2412 -10.4638 -17.1454 -10.4524C-17.2153 -10.5188 -17.2854 -10.5993 -17.3558 -10.6801C-17.6367 -11.0025 -17.9207 -11.3286 -18.2063 -10.7746C-18.4181 -11.002 -18.6307 -10.8752 -18.844 -10.748C-19.0202 -10.6429 -19.197 -10.5375 -19.3741 -10.6313C-19.8128 -10.2328 -20.2527 -10.3527 -20.6896 -10.4718C-21.0317 -10.565 -21.372 -10.6577 -21.7087 -10.5009C-21.7566 -10.8146 -21.8047 -10.8649 -21.8529 -10.9152C-21.9017 -10.9662 -21.9505 -11.0172 -21.999 -11.3422C-22.0435 -11.7201 -22.0881 -11.6872 -22.1328 -11.6543C-22.185 -11.6158 -22.2373 -11.5773 -22.2893 -12.196C-22.3369 -12.6052 -22.3847 -12.6112 -22.4326 -12.6171C-22.4817 -12.6233 -22.5307 -12.6294 -22.5795 -13.0686C-22.6273 -13.3367 -22.6754 -13.405 -22.7235 -13.4733C-22.7724 -13.5426 -22.8212 -13.6119 -22.8698 -13.8904C-23.077 -13.9939 -23.2841 -13.9194 -23.4913 -13.8449C-23.7277 -13.7599 -23.9641 -13.675 -24.2005 -13.8545C-24.3116 -13.8919 -24.4227 -13.9405 -24.5338 -13.989C-24.8663 -14.1343 -25.1988 -14.2795 -25.5313 -14.1257C-25.6891 -14.1136 -25.8469 -14.1394 -26.0047 -14.1652C-26.2905 -14.212 -26.5763 -14.2587 -26.862 -14.0807C-27.3056 -13.8265 -27.7493 -13.7099 -28.1928 -14.3609C-28.3787 -14.3109 -28.5645 -14.4389 -28.7504 -14.5668C-29.0081 -14.7443 -29.2659 -14.9217 -29.5236 -14.6248C-29.9672 -14.0644 -30.4108 -14.3042 -30.8543 -14.5962C-31.1488 -14.6896 -31.4433 -14.692 -31.7378 -14.6945C-32.1087 -14.6975 -32.4796 -14.7006 -32.8505 -14.8855C-33.3242 -15.2038 -33.798 -15.1161 -34.2718 -15.0283C-34.4634 -14.9929 -34.655 -14.9574 -34.8467 -14.9487C-35.2208 -15.6472 -35.595 -15.4268 -35.9691 -15.2065C-36.2603 -15.035 -36.5516 -14.8635 -36.8428 -15.1253C-37.3688 -14.1005 -37.8949 -14.5402 -38.4209 -14.9798C-38.5602 -15.0963 -38.6996 -15.2127 -38.8389 -15.3019C-39.0246 -15.33 -39.2109 -15.4271 -39.3974 -15.5242C-39.8162 -15.7424 -40.2367 -15.9614 -40.6557 -15.4023C-41.2613 -15.2661 -41.864 -15.3228 -42.4551 -15.7158C-42.8385 -15.3455 -43.2176 -15.5428 -43.5898 -15.7366C-43.7914 -15.8415 -43.9909 -15.9454 -44.188 -15.9576C-44.4724 -15.947 -44.7521 -16.1278 -45.0256 -16.3048C-45.291 -16.4763 -45.5506 -16.6442 -45.8032 -16.6301C-46.3163 -16.6646 -46.7936 -16.9559 -47.2102 -17.6311C-47.6258 -18.3845 -47.9807 -18.9638 -48.2488 -18.4594C-48.4508 -18.5021 -48.603 -19.0397 -48.6954 -19.3662C-48.7257 -19.4729 -48.7495 -19.5571 -48.7666 -19.594C-48.771 -19.6655 -48.775 -19.7276 -48.7785 -19.7816L-48.7913 -19.9791C-48.7955 -20.0452 -48.7976 -20.0838 -48.7975 -20.1068C-48.7973 -20.1329 -48.7944 -20.1386 -48.7885 -20.1411C-48.7871 -20.1416 -48.7856 -20.142 -48.7839 -20.1425C-48.7599 -20.1487 -48.7037 -20.1633 -48.6114 -20.8055C-48.8813 -21.9531 -49.161 -22.2998 -49.4454 -21.7322C-49.6237 -22.0462 -49.8046 -21.7795 -49.9869 -21.5107C-50.0956 -21.3505 -50.2048 -21.1894 -50.3143 -21.1502C-50.6552 -21.6752 -51.0003 -21.4782 -51.3451 -21.2813C-51.5943 -21.139 -51.8434 -20.9967 -52.0906 -21.1274C-52.4682 -20.8664 -52.8418 -20.7959 -53.2054 -20.7274L-53.209 -20.7267C-53.2681 -20.7155 -53.3269 -20.7044 -53.3854 -20.6926C-53.4099 -20.6876 -53.4344 -20.6825 -53.4589 -20.6771C-53.4886 -20.6707 -53.5182 -20.6639 -53.5477 -20.6568C-53.5643 -20.6528 -53.5807 -20.6487 -53.5972 -20.6444L-53.6197 -20.6385C-53.6395 -20.6332 -53.6592 -20.6277 -53.6789 -20.6219C-53.7215 -20.6095 -53.7639 -20.5958 -53.8061 -20.5807C-54.0531 -20.686 -54.2934 -20.4705 -54.5249 -20.2627C-54.806 -20.0105 -55.0742 -19.7699 -55.3259 -20.1291C-55.445 -19.9938 -55.5605 -19.8502 -55.6718 -19.7116C-55.9895 -19.3163 -56.2741 -18.9623 -56.5169 -18.9599C-56.5392 -18.9468 -56.5611 -18.9341 -56.5827 -18.9216C-56.8773 -18.751 -57.1038 -18.6199 -57.244 -18.1407L-57.2583 -18.1464C-57.8372 -18.3766 -58.436 -18.6148 -59.0443 -18.4946C-59.3884 -17.9243 -59.7358 -18.17 -60.0848 -18.4168C-60.358 -18.6101 -60.6321 -18.804 -60.9065 -18.608C-61.5313 -18.4646 -62.1572 -18.3656 -62.7743 -18.4946C-62.9817 -18.4571 -63.1882 -18.4562 -63.3934 -18.4553C-63.7989 -18.4534 -64.1995 -18.4515 -64.5921 -18.1681C-64.9787 -17.8706 -65.3579 -17.8934 -65.7273 -17.9156C-65.8211 -17.9212 -65.9143 -17.9269 -66.0068 -17.9271C-66.1069 -17.9275 -66.2062 -17.9216 -66.3047 -17.9029C-66.5449 -17.7299 -66.7799 -17.6019 -67.0089 -17.4771C-67.3013 -17.3179 -67.5839 -17.1639 -67.8554 -16.9286C-68.0532 -16.6363 -68.245 -16.7171 -68.43 -16.795C-68.6977 -16.9077 -68.9512 -17.0145 -69.189 -15.9784C-69.4323 -16.0364 -69.6591 -15.7173 -69.8672 -15.4247C-70.0029 -15.2338 -70.1306 -15.0542 -70.2497 -14.9976C-70.3748 -15.2114 -70.501 -14.9082 -70.6294 -14.5996L-70.6296 -14.5993C-70.7329 -14.3511 -70.8375 -14.0996 -70.9441 -14.1106C-71.0559 -13.7403 -71.1697 -13.7403 -71.2859 -13.7403C-71.4182 -13.7404 -71.5537 -13.7404 -71.6933 -13.1944C-71.9556 -13.515 -72.2324 -12.9839 -72.5275 -12.3556C-72.6596 -12.4887 -72.7956 -12.24 -72.9359 -11.9837C-73.1088 -11.6675 -73.2881 -11.3397 -73.4744 -11.7013C-74.0048 -11.3158 -74.5935 -11.3369 -75.2593 -11.3609C-75.4368 -11.3672 -75.6198 -11.3738 -75.8086 -11.3729L-75.7786 -10.9371C-75.7675 -10.7766 -75.7545 -10.5917 -75.7395 -10.3882C-75.7309 -10.2701 -75.7216 -10.1456 -75.7117 -10.0161C-75.672 -10.2555 -75.6221 -9.91239 -75.562 -9.49937L-75.5618 -9.49749L-75.5614 -9.49513C-75.4917 -9.01675 -75.4087 -8.44711 -75.3119 -8.57991C-75.4304 -8.31618 -75.548 -8.28319 -75.6652 -8.25035C-75.7838 -8.21706 -75.9018 -8.18398 -76.0193 -7.91109C-76.1117 -7.96429 -76.2037 -7.81295 -76.2953 -7.66228C-76.4484 -7.41051 -76.6004 -7.16064 -76.7512 -7.87003C-77.0299 -7.4952 -77.3038 -7.39629 -77.5728 -7.29915C-77.7682 -7.22857 -77.9611 -7.15891 -78.1514 -6.98504C-78.2542 -6.86645 -78.3564 -6.72817 -78.4578 -6.59093C-78.8021 -6.1248 -79.1376 -5.67055 -79.4638 -6.04008C-79.8862 -4.9511 -80.2932 -4.90157 -80.6827 -5.03973C-80.7788 -4.99258 -80.874 -4.96257 -80.968 -4.93288C-81.2564 -4.84187 -81.5352 -4.75385 -81.8042 -4.18538C-82.161 -3.22803 -82.5004 -3.05402 -82.8226 -2.8898C-83.1446 -2.82007 -83.4474 -2.42709 -83.7329 -1.64767C-83.9311 -1.42647 -84.1205 -1.15432 -84.3006 -0.895393L-84.3014 -0.894249C-84.3473 -0.828285 -84.3927 -0.763203 -84.4374 -0.700024C-84.4687 -0.655766 -84.4997 -0.61245 -84.5304 -0.570435C-84.1746 -0.825909 -83.8186 -0.737213 -83.4626 -0.648537C-83.2492 -0.59539 -83.0358 -0.542248 -82.8226 -0.563255C-82.7361 -0.542179 -82.6497 -0.522541 -82.5632 -0.502903C-82.0805 -0.393288 -81.5973 -0.283588 -81.1147 0.0806236C-80.9044 0.0488243 -80.694 0.122505 -80.4836 0.196209C-80.1247 0.321938 -79.7656 0.447685 -79.4069 0.0499878C-79.1974 0.160633 -78.9877 0.166359 -78.778 0.172081C-78.4183 0.181889 -78.0585 0.1917 -77.6991 0.731014C-77.4046 0.913479 -77.1099 0.817532 -76.8153 0.721607C-76.5405 0.632172 -76.2658 0.542736 -75.9913 0.678875C-75.4224 0.802044 -74.8524 1.05687 -74.2835 1.3814C-74.4956 1.33243 -74.7078 1.37981 -74.9203 1.42723C-75.2449 1.49968 -75.57 1.57226 -75.8959 1.30125C-76.0773 1.29708 -76.2588 1.36713 -76.4404 1.4372C-76.7974 1.57495 -77.1547 1.71284 -77.5121 1.28689C-77.7256 1.37004 -77.939 1.26227 -78.1523 1.15457C-78.4774 0.990437 -78.802 0.826488 -79.1263 1.33838C-79.6556 2.22837 -80.1839 1.8498 -80.7103 1.47252L-80.7338 1.45569C-80.9666 1.74023 -81.1989 1.61805 -81.4306 1.49615C-81.7306 1.33831 -82.0296 1.18096 -82.3278 1.90797C-82.7852 2.17186 -83.2402 2.05371 -83.6919 1.93645C-83.7353 1.92518 -83.7787 1.91392 -83.8221 1.90299C-83.8489 1.89623 -83.8758 1.88961 -83.9026 1.88321C-84.4233 1.75611 -84.9412 1.81088 -85.4522 2.18104C-85.8738 2.07212 -86.2914 2.26085 -86.7055 2.44805C-86.7945 2.48827 -86.8833 2.52842 -86.972 2.56552C-86.893 2.63945 -86.8172 2.69506 -86.7449 2.74816C-86.5386 2.89967 -86.3601 3.03079 -86.2102 3.50852C-86.0077 3.58346 -85.8563 4.00185 -85.755 4.67702C-85.7049 4.16216 -85.6673 4.41959 -85.6422 4.71221C-85.6172 5.20684 -85.6056 5.71191 -85.6065 5.89372C-85.6075 6.39008 -85.6207 6.39228 -85.6463 6.39659C-85.6726 6.40101 -85.712 6.4076 -85.7647 6.94815C-85.7869 6.96779 -85.8112 6.9706 -85.8378 6.97365C-85.9367 6.985 -86.0669 6.99995 -86.2295 7.89376C-86.4236 8.57003 -86.6643 8.77249 -86.9498 9.01273L-87 9.0551C-86.7744 9.20107 -86.5979 9.39267 -86.4706 9.93748C-86.4122 10.2119 -86.3646 10.3071 -86.3275 10.3812C-86.2837 10.4687 -86.2547 10.5267 -86.2401 10.8153C-86.2131 11.323 -86.2372 12.1669 -86.3124 12.324C-86.3198 12.3241 -86.3276 12.3269 -86.336 12.3321C-86.3396 12.3344 -86.3433 12.337 -86.3471 12.34C-86.3494 12.342 -86.3519 12.344 -86.3544 12.3463C-86.3571 12.3487 -86.3598 12.3513 -86.3626 12.354C-86.3672 12.3586 -86.3719 12.3635 -86.3768 12.3688C-86.3918 12.3854 -86.4079 12.4053 -86.4253 12.4266C-86.4949 12.5124 -86.5831 12.6211 -86.6904 12.6231C-86.5623 12.8251 -86.4356 12.9673 -86.3103 13.1081C-86.178 13.2566 -86.0473 13.4034 -85.918 13.6169C-85.6663 13.8848 -85.4204 13.9917 -85.1794 13.4762C-84.928 13.9067 -84.6829 13.9597 -84.4447 14.0113C-84.2277 14.0582 -84.0164 14.1039 -83.811 14.4322C-83.3799 15.3863 -82.9739 15.4573 -82.5959 15.4795C-82.3867 15.5442 -82.186 15.8259 -81.9939 16.0954C-81.8382 16.3141 -81.6881 16.5247 -81.5438 16.605L-81.5139 16.6539C-81.2036 17.1612 -80.9195 17.6256 -80.6654 17.5258C-80.4659 17.2725 -80.2847 17.9306 -80.1213 18.5238C-80.0691 18.7135 -80.0187 18.8965 -79.9701 19.041C-79.7704 19.8211 -79.6027 20.3372 -79.4686 20.7465C-79.4099 20.8871 -79.3576 21.094 -79.3119 21.2743C-79.2542 21.5026 -79.2072 21.6883 -79.1716 21.6432C-79.1456 21.9221 -79.1225 22.2721 -79.0897 22.8684L-79.0838 22.9356C-79.0518 23.3035 -79.0107 23.7773 -78.9508 22.7296C-78.8943 23.0461 -78.8211 23.0437 -78.7231 23.0405C-78.6006 23.0366 -78.4392 23.0313 -78.2227 23.6465C-78.0437 23.9421 -77.8162 23.8098 -77.5745 23.6691C-77.2902 23.5038 -76.9862 23.327 -76.7184 23.8211C-76.5147 23.6187 -76.3319 23.2457 -76.1944 22.9649L-76.1942 22.9645C-75.9971 22.5621 -75.8929 22.3495 -75.9537 23.101V23.1267C-75.9536 23.1391 -75.9535 23.1514 -75.9527 24.366V25.6309C-75.4443 25.7568 -74.9374 25.6237 -74.4358 25.492C-74.3637 25.473 -74.2918 25.4541 -74.2199 25.436C-73.6471 25.1845 -73.0819 25.1109 -72.5275 25.2008C-71.973 24.9968 -71.431 24.7003 -70.9045 24.3914C-70.378 24.0896 -69.8679 23.8837 -69.378 24.1939C-69.5094 24.8958 -69.6265 24.9116 -69.7292 24.9254C-69.8224 24.9379 -69.9037 24.9489 -69.973 25.4706C-70.0254 25.7597 -70.0706 26.1013 -70.1085 26.3881L-70.1089 26.3906V26.3911C-70.1757 26.8951 -70.2198 27.2281 -70.2401 26.8052C-70.2565 27.1461 -70.2575 27.4472 -70.244 27.9789C-70.2305 28.3602 -70.2025 28.6971 -70.1581 28.1438C-70.112 27.7254 -70.0488 28.0555 -69.9681 28.4855C-70.0884 28.6131 -70.1907 28.7496 -70.2367 28.9137C-70.1361 29.3757 -70.1052 29.8037 -71.1456 29.7084C-71.7116 29.6719 -71.6427 29.9455 -71.5737 30.219C-71.524 30.4163 -71.4743 30.6136 -71.6628 30.6945C-71.0814 31.3913 -71.5278 31.5862 -72.1582 31.6913C-72.5835 31.7496 -72.7079 31.9548 -72.8322 32.16C-72.9009 32.2734 -72.9696 32.3868 -73.089 32.4754C-73.5125 32.578 -73.5355 32.8762 -73.5585 33.1744C-73.5663 33.2741 -73.574 33.3738 -73.5966 33.4661C-73.5108 33.7281 -73.7793 33.8171 -74.0477 33.906C-74.2829 33.984 -74.5181 34.0619 -74.5151 34.2562C-74.1742 34.4679 -74.1134 34.5431 -74.0525 34.6183C-73.9925 34.6924 -73.9325 34.7664 -73.6049 34.9709C-73.0489 35.2879 -73.0727 35.3219 -73.0966 35.3558C-73.1199 35.389 -73.1433 35.4222 -72.6265 35.7189C-71.8323 36.1551 -71.9181 36.1619 -72.0037 36.1687C-72.077 36.1745 -72.1503 36.1803 -71.6735 36.4545C-71.2701 36.6967 -71.2338 36.7598 -71.1974 36.823C-71.1616 36.8853 -71.1257 36.9476 -70.7371 37.182C-71.1673 37.2852 -71.2657 37.554 -71.3647 37.824C-71.4913 38.169 -71.6185 38.5163 -72.4388 38.5239C-72.4292 38.6935 -72.6859 38.7326 -72.9418 38.7717C-73.2516 38.819 -73.5605 38.866 -73.3947 39.1441C-74.3231 38.9566 -74.0724 39.3433 -73.8245 39.7259C-73.7625 39.8217 -73.7005 39.9172 -73.6573 40.0033C-73.61 39.9373 -73.2654 40.0164 -72.9208 40.0955C-72.5023 40.1915 -72.0837 40.2876 -72.1979 40.1235C-72.5058 39.7497 -72.2231 39.6642 -70.78 40.1455C-69.6207 40.6004 -69.8177 40.3931 -70.0146 40.1857C-70.2135 39.9762 -70.4125 39.7668 -69.2139 40.2398C-67.9209 40.73 -67.9995 40.5504 -68.078 40.3708C-68.1237 40.2662 -68.1695 40.1616 -67.9444 40.1893C-67.034 40.5125 -67.0722 40.3724 -67.1104 40.2324C-67.1425 40.1146 -67.1747 39.9968 -66.6426 40.1545C-65.958 40.3439 -65.7445 40.3033 -65.5311 40.2626C-65.4153 40.2406 -65.2996 40.2185 -65.1088 40.2331C-64.871 40.4921 -65.3023 40.482 -65.804 40.4702C-66.3365 40.4577 -66.9484 40.4433 -66.9243 40.7467C-66.7034 41.1252 -67.0355 41.24 -67.3467 41.3476C-67.6866 41.4652 -68.0017 41.5741 -67.5431 42.009C-66.8816 42.2431 -66.6582 42.2634 -66.4348 42.2838C-66.2277 42.3027 -66.0206 42.3216 -65.4644 42.5107C-64.536 42.7927 -63.7008 43.03 -63.3858 43.0124C-62.8794 43.6502 -62.9149 43.9901 -63.2941 44.1271C-62.865 44.533 -62.8151 44.7404 -62.7688 44.9324C-62.7391 45.0556 -62.7109 45.1725 -62.585 45.3315C-62.5706 45.4676 -62.2205 45.7581 -61.9001 46.0239C-61.601 46.272 -61.3277 46.4988 -61.3771 46.5587C-61.4589 46.5973 -61.0836 46.8511 -60.7501 47.0767C-60.3401 47.354 -59.9934 47.5885 -60.6366 47.3278C-60.3502 47.5094 -59.9613 47.7338 -59.6579 47.9088C-59.2629 48.1367 -59.013 48.2809 -59.3235 48.1378C-58.5384 48.5374 -58.1484 48.7018 -57.8335 48.7874C-57.7485 48.8167 -57.6429 48.8546 -57.5266 48.8964C-56.9964 49.0869 -56.2438 49.3572 -56.2029 49.2498C-56.0817 49.2785 -55.9392 49.3157 -55.7889 49.3549C-55.1811 49.5137 -54.4456 49.7058 -54.4691 49.4978C-53.8594 50.2923 -54.5616 50.4589 -55.2595 50.6246C-55.765 50.7445 -56.2682 50.8639 -56.2691 51.2209C-54.5797 52.6084 -55.357 52.7728 -56.0738 52.9245C-56.4414 53.0023 -56.7932 53.0767 -56.7882 53.311C-57.1224 53.5454 -56.6737 54.1207 -56.2978 54.6025C-56.1327 54.8142 -55.9817 55.0078 -55.9172 55.1466C-55.8385 54.6277 -55.125 54.4321 -54.426 54.2405C-53.7054 54.0429 -53.0001 53.8495 -53.0216 53.3104C-51.1232 53.3373 -50.4448 52.7943 -49.7765 52.2594C-49.681 52.1829 -49.5856 52.1066 -49.487 52.0322C-49.1464 52.032 -48.806 52.0314 -48.4658 52.0309H-48.461C-47.8199 52.0297 -47.1795 52.0286 -46.5402 52.0307L-46.4101 52.0309L-46.3021 52.031H-46.3013C-45.8254 52.0312 -45.3483 52.0314 -44.8845 52.0783C-44.5475 52.1106 -44.2272 52.1951 -44.0256 52.2483L-43.9757 52.2615L-43.9468 52.269C-43.9189 52.2762 -43.8947 52.2821 -43.8749 52.2864C-43.4308 52.3407 -43.0306 52.2475 -42.6588 52.1609C-42.124 52.0363 -41.6478 51.9254 -41.1834 52.2864C-41.2518 52.5635 -41.5514 52.6441 -41.8425 52.7225C-42.0518 52.7789 -42.2567 52.8341 -42.3682 52.9602C-42.6328 52.9237 -42.8918 52.8777 -43.1474 52.8323C-43.9888 52.6828 -44.7955 52.5396 -45.656 52.7574C-46.31 52.9285 -46.5584 53.2354 -46.548 53.6429C-46.5297 54.0521 -46.2655 54.3555 -45.4128 54.5301C-45.149 54.4359 -44.8548 54.3324 -44.5488 54.2248C-44.3391 54.151 -44.1237 54.0752 -43.9088 53.9992C-43.7357 54.0154 -43.5643 54.0316 -43.3824 54.0488C-43.1879 54.0672 -42.9813 54.0867 -42.7475 54.1086C-42.3837 53.8417 -41.8594 53.6944 -41.3263 53.5446C-40.7247 53.3755 -40.1119 53.2033 -39.7055 52.8526C-39.6136 52.7735 -39.3929 52.7407 -39.1812 52.7093C-39.1099 52.6987 -39.0397 52.6882 -38.9758 52.6762L-38.7242 52.6303L-38.4798 52.586C-38.3608 52.5645 -38.2413 52.5429 -38.1209 52.5212C-37.5248 52.4138 -36.9073 52.3042 -36.2268 52.1841C-35.8411 52.2486 -35.4115 52.3214 -34.9661 52.3968L-34.3726 52.4972C-34.1823 52.5293 -33.9915 52.5615 -33.8022 52.5933C-33.3784 52.4522 -33.3994 52.2864 -33.5223 52.0571C-33.7347 51.6593 -33.9059 51.255 -34.0807 50.8422L-34.0884 50.8241C-34.1125 50.7672 -34.1366 50.7102 -34.161 50.6529L-34.1936 50.5766L-34.2229 50.5083L-34.255 50.4342L-34.2834 50.3691C-34.2161 50.3101 -34.1433 50.2478 -34.0631 50.1794C-33.9875 50.1148 -33.9054 50.0448 -33.8152 49.9669C-33.2947 50.0128 -32.7768 50.0586 -32.3113 50.1009C-31.7097 49.9722 -31.0741 49.4095 -30.5405 48.5469L-29.7841 49.0281C-29.5841 49.1552 -29.3823 49.2834 -29.1722 49.4167C-29.1797 49.4576 -29.09 49.5339 -28.917 49.6384C-27.7872 50.2323 -27.6591 50.2814 -27.2188 50.4273C-27.1808 50.4266 -26.9038 50.5384 -26.576 50.6707C-26.5694 50.6734 -26.5628 50.676 -26.5561 50.6787C-26.5815 50.7029 -26.6071 50.7273 -26.6328 50.7518C-26.5393 50.7929 -26.4576 50.834 -26.3821 50.8719C-26.2274 50.9497 -26.0987 51.0144 -25.9475 51.0393C-25.7882 51.0665 -25.6327 51.0799 -25.4806 51.0819C-25.4179 51.0977 -25.3824 51.0993 -25.3852 51.0817C-24.8352 51.0724 -24.3318 50.9201 -23.8681 50.7518C-23.3923 50.5775 -22.9498 50.3741 -22.4949 50.1649C-22.2871 50.0694 -22.0766 49.9726 -21.8593 49.8769C-21.7978 49.8721 -21.7324 49.8656 -21.6641 49.8588C-21.4855 49.8411 -21.2879 49.8215 -21.0929 49.824C-20.9125 49.8277 -20.7309 49.8553 -20.5524 49.8825C-20.4747 49.8944 -20.3975 49.9061 -20.3214 49.9157C-20.358 50.1433 -20.3919 50.3391 -20.4259 50.5278C-19.9493 50.6289 -19.6449 50.5028 -19.3361 50.3748C-19.3076 50.3629 -19.279 50.3511 -19.2502 50.3394L-19.2293 50.331C-19.2124 50.3242 -19.1954 50.3175 -19.1783 50.3109V49.9542C-18.8469 50.0834 -18.3884 50.2743 -17.7581 50.5489C-16.682 50.9138 -15.7542 51.1999 -15.6944 51.0559C-15.6174 50.9194 -15.1957 50.9449 -13.5508 51.5615C-12.0357 52.1794 -11.9167 52.1123 -11.7951 52.0438C-11.7306 52.0075 -11.6654 51.9708 -11.3917 52.0352C-11.0845 52.1103 -10.9164 52.1164 -10.7462 52.1226C-10.4619 52.1329 -10.1718 52.1435 -9.21722 52.476C-9.54433 52.1026 -8.60195 52.3429 -7.02814 52.8844L-7.0134 52.8817C-6.68224 52.8204 -6.34071 52.7571 -4.82677 53.2603C-5.03089 52.921 -4.02419 53.1658 -2.61331 53.6025C-3.73901 52.718 -3.53835 52.4013 -2.9072 52.241C-2.99231 51.7309 -3.04653 51.182 -2.61298 50.8427C-1.74083 50.7166 -1.5409 50.2344 -1.76774 49.5402C-1.63644 49.3527 -1.3597 49.2356 -1.08443 49.1192C-0.721237 48.9656 -0.36071 48.813 -0.340111 48.5015C0.840271 48.7205 0.956886 48.429 1.06844 48.1499C1.10273 48.0642 1.13655 47.9797 1.20047 47.9115C1.45428 48.0793 1.51031 48.2926 1.56851 48.5139V48.5142C1.61456 48.6892 1.66193 48.8691 1.8093 49.0356C1.90916 49.0499 2.02685 49.0676 2.15309 49.0865L2.16657 49.0885L2.17175 49.0893C2.33468 49.1137 2.51062 49.1401 2.68025 49.1643C3.15414 48.8462 3.59068 48.5543 4.06503 48.2372L4.41705 48.0019C4.99724 48.1368 5.56248 48.2696 6.15358 48.4073C6.34321 48.4515 6.53549 48.4962 6.73184 48.5416L6.82819 48.525C7.28254 48.4468 7.77322 48.3622 8.32996 48.27C8.63634 48.3719 8.96551 48.4565 9.30185 48.5428L9.30264 48.543C10.037 48.7316 10.8058 48.929 11.4478 49.3354L11.2095 49.8245L11.16 49.9269L11.0999 50.0516C11.1154 50.0761 11.1276 50.1043 11.1402 50.1333L11.1404 50.1336L11.1406 50.1341L11.1408 50.1344C11.1565 50.1704 11.1727 50.2076 11.1963 50.241C11.2176 50.2711 11.2448 50.298 11.283 50.3179C12.01 50.6954 12.7451 51.0665 13.4766 51.4359L13.4776 51.4364L13.48 51.4376C13.6642 51.5306 13.8482 51.6235 14.0317 51.7164C14.1331 51.7676 14.2344 51.8189 14.3354 51.8702C15.0492 51.9042 15.755 51.9386 16.4612 51.9731L16.4755 51.9737L16.4895 51.9744L16.4963 51.9747L18.0203 52.0488C18.262 52.0604 18.5045 52.072 18.7479 52.0836C19.3233 52.4452 19.9328 52.8262 20.4926 53.1754L22.3977 52.5867C22.6888 52.4967 22.9804 52.4066 23.2782 52.3146C23.344 52.3577 23.4077 52.3994 23.4698 52.4402L23.7343 52.6141C23.9844 52.7786 24.2153 52.9304 24.4578 53.0872C25.1862 53.3001 25.9283 53.5174 26.6595 53.7314L28.3943 54.2391C28.828 54.1763 29.079 53.9967 29.3314 53.8161C29.7032 53.5501 30.078 53.282 31.0439 53.3818C31.0701 53.3908 31.1035 53.402 31.1432 53.4153C31.1887 53.4304 31.2423 53.4482 31.3026 53.468C31.5629 53.5537 31.949 53.6791 32.3465 53.8069C33.6621 53.44 34.983 53.0731 36.5523 52.6339C37.4966 52.6904 38.6631 52.7609 39.9919 52.8421C40.0031 52.8221 40.0167 52.8007 40.0316 52.7782L40.0521 52.7477L40.0681 52.7244L40.0695 52.7223C40.1438 52.6137 40.2326 52.4841 40.2587 52.3482C40.3116 52.0933 40.329 51.8366 40.3484 51.5509C40.3558 51.441 40.3636 51.3269 40.3737 51.2069C40.7216 51.191 41.0669 51.1681 41.4174 51.1293C41.4487 51.1311 41.4775 51.1346 41.5063 51.1416C42.2936 51.2757 43.0835 51.4292 43.8185 51.6356C44.8281 51.9178 45.8273 52.1665 46.8761 51.9989C47.364 52.4207 48.0379 52.4929 48.6983 52.5635C49.1177 52.6084 49.5317 52.6527 49.8893 52.7856L50.4438 52.8315L50.6871 52.6321L51.2206 52.9303L51.3174 52.902L52.2617 52.6304H53.3864L53.7787 52.9902H54.4823L55.3271 53.2284H55.3297C55.6289 53.2042 55.943 53.175 56.2849 53.1433C56.6426 53.11 57.0308 53.0739 57.4641 53.0378C57.5766 53.0573 58.0971 53.1402 58.6175 53.2213C59.4911 52.8085 59.6612 52.2458 59.7109 51.6214C60.1608 51.2686 60.642 50.8912 61.1783 50.4767C61.3885 50.5696 61.5954 50.6587 61.7986 50.7462L61.7996 50.7467C62.1826 50.9116 62.5529 51.0712 62.9098 51.2404L62.9693 51.2684L63.0541 51.3079L63.0551 51.3083C63.5108 51.52 63.9952 51.745 64.0188 52.1065C64.0366 52.3989 64.3572 52.5487 64.6783 52.6987C64.9227 52.8129 65.1676 52.9273 65.2795 53.1049C65.4272 53.3409 65.6663 53.5589 65.9119 53.7828L65.9131 53.7838C66.0195 53.8809 66.127 53.9791 66.229 54.0803C66.2927 54.0927 66.3563 54.105 66.4196 54.1171C66.4988 54.1323 66.5778 54.1474 66.6568 54.1624L66.9788 54.2235C67.1717 54.26 67.3676 54.2971 67.5708 54.3361C67.8267 54.5384 67.9732 54.7807 68.1204 55.0242C68.3571 55.4153 68.5954 55.8094 69.2919 56.0453C70.6201 55.895 71.2621 55.8223 71.8556 55.9063C72.4109 55.985 72.9237 56.2008 73.9163 56.6186L74.2171 56.2852L74.7218 56.571L75.2606 56.5392L76.2023 56.1194L77.0994 56.3575L77.8867 56.1194L78.7865 56.3311L78.9826 56.3205L79.9478 55.8778L81.0123 56.2005C81.3776 56.2594 81.7295 56.3178 82.0719 56.3748L82.0857 56.3771L82.0875 56.3773L82.0889 56.3776L82.0959 56.3788C82.9663 56.5233 83.7777 56.6581 84.5983 56.765C84.8844 56.8005 85.1906 56.7788 85.5214 56.7554C85.6836 56.7439 85.8518 56.732 86.0265 56.7262C86.1053 56.6479 86.1929 56.5737 86.2785 56.5011C86.4571 56.3498 86.6272 56.2057 86.6908 56.0471C86.955 55.4174 87.6429 55.0611 88.7336 54.8441C89.2646 55.0117 89.7955 55.1792 90.3187 55.3451C90.6561 55.0769 90.6561 55.0769 89.309 54.389L88.2811 54.4949C88.2691 54.4583 88.2511 54.4226 88.2338 54.3885C88.1987 54.319 88.1667 54.2559 88.1948 54.2038C88.4773 53.6976 89.1887 53.4806 89.9813 53.3642C90.1574 53.3866 90.331 53.4085 90.5023 53.4299L91.0231 53.495L91.0253 53.4952L91.0979 53.5042C91.3387 53.5343 91.5756 53.5639 91.8096 53.5935C92.0311 53.4277 92.1707 53.2373 92.3079 53.0503C92.5837 52.6742 92.8499 52.3113 93.753 52.1876C94.071 52.3065 94.4096 52.4328 94.7593 52.563L96.5281 53.2213C97.1783 53.234 97.4414 53.0032 97.7167 52.7617C97.8611 52.635 98.009 52.5053 98.2178 52.4064C98.5107 52.4416 98.856 52.4805 99.2248 52.5263L99.3891 52.4637L100.03 52.2183L100.246 52.1361L100.491 52.043C100.678 52.1078 100.873 52.176 101.088 52.2508C101.416 52.3655 101.791 52.4961 102.251 52.6551C102.6 52.6404 103.009 52.6228 103.445 52.6042L104.689 52.551C104.856 52.6476 105.018 52.7523 105.182 52.8579L105.182 52.8582C105.557 53.0999 105.939 53.3467 106.405 53.5123C107.059 53.7452 107.582 53.9992 107.93 54.3731C108.288 54.3961 108.623 54.419 109.007 54.4455C109.086 54.55 109.16 54.6492 109.225 54.7381L109.23 54.7449C109.294 54.8302 109.35 54.906 109.397 54.9676C109.222 55.7145 108.447 56.1983 107.707 56.6608C107.538 56.7662 107.371 56.8706 107.213 56.9767L107.283 57.8463C107.867 57.9775 108.426 58.1041 108.998 58.2335L109.64 58.379C110.064 58.2908 110.49 58.2043 110.979 58.1056C111.362 58.1673 111.778 58.2372 112.186 58.3057L112.465 58.3525C112.85 58.2828 113.228 58.214 113.612 58.144C114.132 58.0494 114.661 57.9525 115.23 57.848L115.612 58.0196L115.628 58.0271C116.032 58.2084 116.471 58.4054 116.953 58.6242C118.567 58.7653 120.095 58.73 121.369 57.8815C121.649 57.6974 122.151 57.622 122.689 57.5413L122.837 57.519C122.895 57.5101 122.954 57.5011 123.012 57.4917C123.169 57.4667 123.325 57.4394 123.477 57.4071C124.348 57.5817 125.279 57.7687 126.265 57.9697C126.303 58.0766 126.342 58.177 126.379 58.2737C126.444 58.4434 126.505 58.6017 126.55 58.7635C126.557 58.7905 126.564 58.8176 126.57 58.8447C126.575 58.8673 126.58 58.8898 126.585 58.9125C126.593 58.9523 126.6 58.9924 126.607 59.033C126.621 59.113 126.633 59.1947 126.645 59.2793V59.2803L126.645 59.282L126.645 59.2848C126.659 59.3802 126.673 59.4793 126.691 59.5837L128.164 60C128.658 59.6737 129.053 59.402 129.469 59.1127C129.56 59.1615 129.643 59.2062 129.725 59.2501ZM-23.748 49.5839C-23.7106 49.5892 -23.673 49.5946 -23.6353 49.6C-23.644 49.612 -23.6526 49.624 -23.6613 49.636C-23.691 49.6183 -23.7199 49.6009 -23.748 49.5839ZM-23.6698 49.6479C-23.6871 49.6718 -23.7044 49.6957 -23.7217 49.7196L-23.7812 49.8015L-23.7928 49.8175L-23.845 49.8894L-23.91 49.9792L-25.0679 49.8624C-25.1157 49.774 -25.1707 49.6822 -25.2276 49.5894C-24.1668 49.9569 -24.0771 49.8505 -23.9873 49.744C-23.9373 49.6847 -23.8874 49.6254 -23.6698 49.6479ZM-26.3365 50.4695C-26.3388 50.4717 -26.3411 50.4739 -26.3434 50.4761C-26.3517 50.4714 -26.3601 50.4667 -26.3685 50.462C-26.3578 50.4645 -26.3471 50.467 -26.3365 50.4695Z" fill="#FFBD0C"/>
<path d="M-55.9185 55.3361C-55.8701 55.3017 -55.8759 55.2354 -55.9172 55.1466C-55.9261 55.2055 -55.9269 55.2685 -55.9185 55.3361Z" fill="#FFBD0C"/>
<path d="M-73.6157 40.1016C-73.6258 40.0707 -73.6401 40.0378 -73.6573 40.0033C-73.6712 40.0226 -73.6597 40.0541 -73.6157 40.1016Z" fill="#FFBD0C"/>
<path d="M-75.8216 -11.3729C-75.8317 -11.6819 -75.8274 -11.6423 -75.8086 -11.3729L-75.8216 -11.3729Z" fill="#FFBD0C"/>
<path d="M-17.1454 -10.4524C-17.1278 -10.4357 -17.1103 -10.4199 -17.0928 -10.4052C-17.0824 -10.3965 -17.072 -10.3882 -17.0617 -10.3804C-17.0835 -10.4167 -17.1053 -10.4382 -17.1271 -10.4474C-17.1332 -10.4501 -17.1393 -10.4517 -17.1454 -10.4524Z" fill="#FFBD0C"/>
</svg>
