<svg width="1920" height="162" viewBox="0 0 1920 162" fill="none" xmlns="http://www.w3.org/2000/svg">
<path fill-rule="evenodd" clip-rule="evenodd" d="M797.796 -384.952L798.5 -385.54L798.97 -385.935C799.201 -386.129 799.439 -386.33 799.692 -386.545C800.369 -386.192 801.049 -385.818 801.737 -385.439C803.25 -384.606 804.802 -383.752 806.438 -383.066C807.355 -382.681 808.347 -382.422 809.336 -382.165C810.636 -381.826 811.93 -381.489 813.038 -380.869C814.538 -380.044 816.027 -380.217 817.519 -380.39C818.71 -380.529 819.903 -380.668 821.105 -380.299C821.883 -378.838 822.696 -377.307 823.587 -375.609C824.839 -376.072 826.052 -376.528 827.341 -377.012C828.433 -377.423 829.58 -377.854 830.852 -378.328C834.699 -375.217 838.75 -371.94 843.116 -368.401C844.621 -368.686 846.134 -368.965 847.727 -369.259C849.249 -369.539 850.844 -369.833 852.57 -370.158C855.672 -365.266 860.219 -361.549 865.352 -358.165C867.355 -359.241 869.576 -359.932 871.741 -360.605C874.785 -361.551 877.719 -362.463 879.782 -364.364C882.828 -368.84 885.445 -372.699 888.333 -376.974C890.635 -375.371 892.406 -374.112 894.64 -372.545L899.333 -373.421C900.785 -373.69 902.343 -373.978 904.038 -374.291C905.191 -373.957 906.342 -373.477 907.54 -372.978C911.463 -371.342 915.883 -369.499 922.495 -371.928C922.495 -371.928 924.413 -373.08 926.556 -374.398C927.401 -374.474 928.276 -374.552 929.188 -374.633L931.804 -374.866C932.825 -374.957 933.897 -375.054 935.029 -375.157C935.976 -376.784 937.048 -378.601 938.199 -380.548C939.463 -381.13 940.85 -381.783 942.17 -382.389C942.445 -382.295 942.737 -382.226 943.018 -382.159C943.592 -382.022 944.124 -381.896 944.381 -381.593C946.12 -379.573 947.792 -377.508 949.099 -375.894L949.119 -375.87C949.594 -375.283 950.02 -374.757 950.383 -374.314C952.271 -373.258 954.151 -372.99 955.889 -372.742C958.253 -372.406 960.355 -372.106 961.857 -369.909C961.699 -368.995 961.474 -367.677 961.192 -366.204C962.643 -364.958 964.119 -363.694 965.609 -362.417C967.144 -361.103 968.694 -359.776 970.251 -358.439C969.715 -357.545 969.205 -356.701 968.715 -355.889L968.418 -355.399C967.402 -353.718 966.471 -352.17 965.58 -350.614C964.772 -349.198 964.016 -347.763 963.211 -346.232L963.205 -346.222C962.775 -345.405 962.331 -344.561 961.857 -343.679C962.31 -341.538 964.204 -340.453 966.153 -339.338C967.456 -338.592 968.784 -337.832 969.72 -336.733C970.081 -335.011 970.443 -333.277 970.939 -330.974L971.364 -330.866L971.625 -330.8L972.578 -330.556L972.638 -330.541L973.655 -330.28C974.099 -330.167 974.55 -330.053 975 -329.941C975.024 -329.788 975.042 -329.633 975.056 -329.478C975.076 -329.243 975.084 -329.006 975.086 -328.767C975.086 -328.561 975.082 -328.353 975.075 -328.146C975.069 -327.987 975.062 -327.827 975.053 -327.668L975.042 -327.437C974.943 -325.535 974.845 -323.627 976.704 -322.033C980.055 -322.009 981.634 -323.481 981.577 -326.628C981.365 -326.845 981.162 -327.097 980.954 -327.355L980.951 -327.359C980.605 -327.788 980.247 -328.233 979.81 -328.556C979.678 -328.654 979.538 -328.741 979.389 -328.813C978.478 -329.231 977.437 -329.434 976.398 -329.637C976.132 -329.689 975.866 -329.74 975.603 -329.796L975.351 -329.85C975.237 -329.875 975.124 -329.902 975.012 -329.929L978.434 -335.598L979.682 -337.671C980.251 -337.554 980.791 -337.445 981.336 -337.336L983.496 -336.904C983.979 -336.807 984.492 -336.704 985.052 -336.59C985.722 -337.009 986.473 -337.478 987.325 -338.008C988.381 -338.664 989.593 -339.416 990.998 -340.283L991.124 -340.249C992.473 -339.885 994.224 -339.413 996.007 -338.941C998.602 -339.499 1001.22 -340.069 1003.59 -340.592C1005.04 -339.186 1006.4 -337.726 1007.74 -336.281L1007.74 -336.274C1011.83 -331.863 1015.78 -327.601 1022.05 -325.5C1022.93 -326.15 1023.77 -326.761 1024.57 -327.343L1027.46 -329.466C1031 -328.753 1032.31 -326.592 1032.18 -323.944C1031.98 -319.824 1033.5 -316.25 1036 -312.973C1036.75 -312.005 1037.76 -311.205 1038.76 -310.412C1039.22 -310.046 1039.68 -309.682 1040.11 -309.303C1042.72 -311.987 1045.03 -314.35 1047.17 -316.535C1051.08 -316.976 1054.65 -317.393 1058.35 -317.825L1060.72 -318.102C1061.22 -317.553 1061.74 -316.986 1062.27 -316.409L1063.64 -314.91C1064.09 -314.412 1064.55 -313.911 1065.01 -313.412C1065.2 -313.44 1065.41 -313.454 1065.61 -313.465L1065.83 -313.475C1066.41 -313.5 1066.97 -313.524 1067.3 -313.78C1070 -315.897 1072.65 -318.072 1075.43 -320.354C1076.3 -321.063 1077.17 -321.782 1078.07 -322.514L1079.11 -323.362H1090.81C1094.08 -325.846 1097.08 -328.128 1099.94 -330.292C1102.25 -332.049 1104.47 -333.73 1106.65 -335.379C1108.57 -335.07 1110.08 -334.821 1112.04 -334.512C1113.29 -335.719 1114.58 -336.975 1115.95 -338.305L1118.31 -340.592C1123.57 -337.374 1127.68 -333.681 1130.92 -328.943C1131.1 -328.878 1131.28 -328.814 1131.46 -328.75L1131.82 -328.629C1132.12 -328.525 1132.42 -328.421 1132.72 -328.314C1133.95 -328.183 1135.15 -327.827 1136.27 -327.067L1138.14 -326.408C1141.29 -325.29 1144.67 -324.094 1148.47 -322.757C1157.36 -323.529 1167.77 -324.906 1177.98 -327.459C1179.59 -327.855 1181.4 -327.621 1183.66 -327.329C1184.85 -327.174 1186.16 -327.004 1187.64 -326.901C1188.51 -327.368 1189.63 -327.97 1190.9 -328.649L1193.29 -329.934C1194.3 -330.475 1195.35 -331.039 1196.41 -331.603C1198.15 -331.603 1199.66 -330.881 1201.22 -330.136C1203.13 -329.222 1205.12 -328.273 1207.7 -328.587L1206.28 -332.334C1205.9 -333.34 1205.54 -334.325 1205.17 -335.308C1207.81 -336.424 1210.19 -337.445 1212.23 -338.324C1212.45 -341.295 1210.73 -342.877 1209.09 -344.385C1208.29 -345.125 1207.5 -345.847 1206.98 -346.707C1205.87 -348.489 1205.31 -350.549 1204.65 -352.975L1204.65 -352.977C1204.32 -354.171 1203.97 -355.454 1203.52 -356.836L1204.75 -356.227L1205.86 -355.678C1206.68 -355.266 1207.3 -354.956 1207.96 -354.639C1209.82 -357.88 1208.31 -360.825 1206.53 -363.913L1208.01 -366.878L1210.12 -371.085C1210.09 -371.255 1210.05 -371.428 1210.01 -371.604C1209.93 -371.942 1209.82 -372.29 1209.72 -372.644C1208.98 -375.199 1208.12 -378.127 1212.81 -380.667C1213.82 -380.734 1215.12 -380.822 1216.6 -380.924C1218.02 -381.022 1219.6 -381.133 1221.23 -381.249C1222.56 -379.969 1223.84 -378.749 1225.3 -377.36C1226 -376.7 1226.73 -376.002 1227.53 -375.241C1228.74 -375.549 1230.51 -375.989 1232.44 -376.476C1239.55 -375.051 1244.05 -370.966 1246.44 -364.613C1245.9 -362.568 1245.34 -360.485 1244.77 -358.342L1242.62 -350.245C1244.55 -349.48 1246.44 -350.006 1248.33 -350.534C1250.75 -351.21 1253.18 -351.888 1255.73 -349.853C1255.27 -347.621 1254.74 -345.033 1254.26 -342.67C1254.46 -342.515 1254.64 -342.362 1254.8 -342.216C1254.93 -342.101 1255.05 -341.991 1255.17 -341.885C1255.62 -341.465 1255.98 -341.137 1256.4 -341.031C1258.31 -340.58 1260.28 -340.2 1262.04 -341.316C1262.52 -341.953 1262.26 -342.665 1262 -343.371C1261.65 -344.338 1261.3 -345.291 1262.86 -346.018C1266.3 -344.273 1266.58 -341.708 1265.09 -338.787C1264.24 -337.101 1265.13 -336.151 1267.02 -335.035C1268.13 -335.636 1269.32 -336.272 1270.68 -336.995L1270.84 -337.077L1270.87 -337.093L1270.91 -337.118C1271.61 -337.487 1272.34 -337.879 1273.13 -338.3C1275.83 -336.733 1278.74 -335.035 1281.93 -333.171C1282.66 -330.998 1283.43 -328.658 1284.33 -325.951C1282.53 -323.915 1280.65 -321.776 1278.76 -319.635L1278.74 -319.621L1278.64 -319.504C1278.77 -318.898 1278.75 -318.102 1279.15 -317.58C1280.99 -315.205 1283.2 -313.352 1286.62 -312.735C1288.14 -312.447 1289.6 -311.83 1291.22 -311.15C1291.66 -310.964 1292.11 -310.773 1292.58 -310.582C1292.94 -310.436 1293.31 -310.29 1293.69 -310.147C1294.36 -305.979 1296.15 -302.084 1297.92 -298.223C1300.23 -293.183 1302.52 -288.2 1302.26 -282.741C1304.35 -280.566 1306.42 -281.023 1308.49 -281.477C1309.95 -281.797 1311.4 -282.116 1312.85 -281.518C1314.93 -280.661 1317.39 -280.505 1319.98 -280.342C1321.15 -280.267 1322.36 -280.191 1323.56 -280.046C1324.05 -278.573 1324.47 -277.315 1325.08 -275.51C1325.6 -274.992 1326.14 -274.395 1326.7 -273.764C1328.07 -272.254 1329.6 -270.552 1331.49 -269.288C1332.15 -268.847 1332.85 -268.453 1333.57 -268.09H1348L1357 -272.102L1357.27 -272.355L1357.5 -272.578L1358.05 -273.107L1358.06 -273.113L1358.06 -273.12C1359.48 -274.485 1361.54 -276.47 1363.68 -278.383C1364.74 -279.333 1365.99 -280.426 1367.36 -280.711C1371.06 -281.528 1373.3 -283.809 1375.73 -286.29C1376.37 -286.946 1377.03 -287.615 1377.73 -288.274C1377.8 -289.702 1377.89 -291.261 1377.99 -292.907L1378.13 -295.423C1376.59 -297.026 1375.1 -298.581 1373.55 -300.232C1373.96 -302.618 1374.34 -304.981 1374.93 -308.449C1377.17 -312.339 1380.29 -316.043 1383.51 -319.863C1386.74 -323.703 1390.07 -327.661 1392.71 -332.042C1393.53 -333.4 1395.06 -334.416 1396.67 -335.482L1397.1 -335.773C1397.29 -335.9 1397.48 -336.029 1397.67 -336.159C1398.11 -336.457 1398.54 -336.764 1398.95 -337.089C1399.37 -338.444 1399.49 -339.889 1399.62 -341.353C1399.9 -344.432 1400.17 -347.599 1403.18 -350.198C1404.11 -349.747 1405.07 -349.287 1406.02 -348.827C1406.98 -348.366 1407.93 -347.906 1408.87 -347.455C1409.15 -347.638 1409.44 -347.825 1409.72 -348.013C1410.35 -348.429 1410.97 -348.855 1411.57 -349.277C1413.52 -350.627 1415.43 -351.944 1417.55 -352.834C1419.52 -353.644 1420.55 -355.064 1421.57 -356.472C1422.23 -357.397 1422.9 -358.317 1423.83 -359.056C1425.67 -360.532 1427.44 -362.083 1429.25 -363.68L1429.26 -363.684L1429.94 -364.286L1430.41 -364.702C1430.83 -365.07 1431.26 -365.441 1431.69 -365.813C1433.32 -365.937 1434.96 -366.068 1436.61 -366.2L1436.71 -366.208L1436.73 -366.21C1438.2 -366.327 1439.67 -366.445 1441.17 -366.56C1442.82 -367.799 1444.48 -369.027 1446.41 -370.456L1449.24 -372.557C1449.38 -372.365 1449.52 -372.181 1449.67 -372.003C1449.79 -371.857 1449.91 -371.715 1450.02 -371.575C1450.58 -370.92 1451.08 -370.32 1451.21 -369.66C1452.41 -363.236 1457.21 -359.971 1464.29 -357.833C1467.12 -357.714 1470.67 -357.572 1473.83 -357.441C1477.13 -355.886 1478.97 -353.701 1480.8 -351.291C1488.73 -340.77 1491.69 -338.704 1504.17 -330.914C1507.92 -328.563 1511.72 -327.471 1515.77 -326.735C1518.56 -327.926 1518.69 -330.095 1518.8 -331.985C1518.86 -332.958 1518.92 -333.858 1519.33 -334.512C1520.06 -335.14 1520.54 -335.546 1521.08 -335.783C1522.08 -336.217 1523.3 -336.076 1526.77 -335.676C1529.26 -333.313 1530.97 -330.558 1530.79 -327.174C1530.61 -323.802 1531.89 -320.94 1534.64 -317.734L1538.93 -317.301C1541.04 -317.091 1543.2 -316.874 1545.23 -316.665C1546.02 -315.998 1546.76 -315.319 1547.49 -314.656L1547.49 -314.653C1549.07 -313.207 1550.58 -311.833 1552.33 -310.8C1555.07 -309.208 1557.35 -307.415 1559.36 -304.554C1557.27 -300.944 1554.36 -297.691 1551.39 -294.496C1559.93 -293.463 1559.93 -293.464 1574.38 -297.524L1580.04 -294.093C1588.22 -294.793 1592.92 -293.713 1601.14 -289.177C1601.42 -288.299 1601.69 -287.403 1601.96 -286.498C1602.58 -284.431 1603.21 -282.316 1604.01 -280.259C1604.42 -279.154 1605.11 -278.134 1605.82 -277.074C1606.17 -276.563 1606.52 -276.042 1606.85 -275.498C1607.44 -275.39 1608.02 -275.282 1608.61 -275.173L1611.18 -274.691L1611.2 -274.687C1615.19 -273.938 1619.11 -273.202 1623.05 -272.601C1623.56 -272.521 1624.17 -272.974 1624.84 -273.472C1625.17 -273.716 1625.52 -273.972 1625.87 -274.18C1624.44 -275.771 1623.25 -277.089 1621.9 -278.621C1622.04 -278.871 1622.17 -279.165 1622.3 -279.465L1622.3 -279.471C1622.59 -280.153 1622.89 -280.862 1623.46 -281.15C1625.09 -281.993 1627 -282.741 1628.87 -282.86C1631.73 -283.04 1634.6 -283.003 1637.27 -282.969C1638.29 -282.956 1639.28 -282.943 1640.23 -282.943C1644.49 -284.89 1646.96 -287.253 1647.97 -291.112C1648.93 -294.77 1651.83 -297.192 1656.89 -297.952C1658.28 -296.978 1659.54 -295.797 1660.82 -294.59C1662.64 -292.881 1664.52 -291.119 1666.93 -289.818C1668.32 -289.061 1669.62 -288.172 1670.91 -287.287L1670.92 -287.283C1673.32 -285.641 1675.71 -284.012 1678.6 -283.264C1679.13 -283.395 1679.61 -283.515 1680.07 -283.628L1680.11 -283.64C1680.91 -283.839 1681.64 -284.019 1682.39 -284.214C1683.27 -283.829 1684.1 -283.382 1684.93 -282.933C1686.69 -281.98 1688.47 -281.019 1690.78 -280.64C1697.02 -279.622 1703.19 -278.253 1709.36 -276.883L1709.37 -276.88L1709.41 -276.871C1710.4 -276.653 1711.38 -276.435 1712.37 -276.218L1714.21 -275.813C1715.57 -275.516 1716.94 -275.224 1718.3 -274.94C1723.04 -273.954 1727.73 -274.061 1732.41 -275.676C1734.04 -275.098 1735.7 -274.493 1737.39 -273.876L1739.01 -273.289L1741.59 -273.722C1744.17 -274.155 1746.82 -274.599 1749.68 -275.07C1749.92 -275.362 1750.18 -275.658 1750.45 -275.96C1751.11 -276.689 1751.8 -277.459 1752.28 -278.324C1752.75 -279.138 1753.04 -280.04 1753.36 -281.049L1753.37 -281.079L1753.45 -281.341L1753.54 -281.632C1753.64 -281.93 1753.74 -282.236 1753.85 -282.551C1759.24 -282.765 1764.33 -282.967 1769.85 -283.192C1769.47 -283.94 1769.1 -284.682 1768.73 -285.423C1767.99 -286.9 1767.26 -288.37 1766.52 -289.859L1762.76 -297.406C1765.61 -298.819 1768.24 -300.125 1771.26 -301.585L1771.32 -301.943L1771.38 -302.292L1771.52 -303.067L1771.65 -303.765L1771.73 -304.24C1771.87 -304.991 1772.02 -305.759 1772.16 -306.525C1772.31 -306.691 1772.45 -306.869 1772.59 -307.048L1772.6 -307.054C1772.92 -307.462 1773.24 -307.869 1773.67 -308.116C1773.89 -308.234 1774.1 -308.346 1774.32 -308.454C1774.51 -308.544 1774.7 -308.632 1774.89 -308.717C1775.24 -308.873 1775.6 -309.023 1775.95 -309.172C1777.4 -309.779 1778.83 -310.381 1779.74 -311.381C1783.29 -315.217 1787.59 -317.022 1793.03 -317.449C1793.89 -317.514 1794.67 -318.264 1795.47 -319.021L1795.66 -319.203L1795.81 -319.347L1795.9 -319.431C1795.98 -319.502 1796.06 -319.573 1796.13 -319.641L1796.22 -319.717L1796.35 -319.827C1796.43 -319.892 1796.51 -319.954 1796.59 -320.014L1796.63 -320.01C1798.87 -319.81 1801.11 -319.609 1803.31 -319.396C1804.51 -320.864 1805.68 -322.288 1806.86 -323.718C1808.36 -325.552 1809.88 -327.397 1811.48 -329.359C1812.73 -329.192 1814.21 -328.991 1816.33 -328.694C1818.59 -330.297 1821.31 -332.209 1824.38 -334.37C1827.69 -331.758 1830.63 -329.466 1833.72 -327.055C1835.27 -326.972 1836.84 -326.659 1838.41 -326.345C1841.98 -325.636 1845.57 -324.919 1849.05 -326.83C1850.78 -325.962 1852.44 -325.13 1854 -324.341C1855.82 -323.425 1857.52 -322.568 1859.06 -321.783C1861.45 -322.024 1861.98 -323.27 1862.54 -324.6C1862.91 -325.497 1863.31 -326.433 1864.3 -327.127L1870.5 -328.009C1872.16 -328.245 1873.95 -328.5 1875.87 -328.777C1878.48 -328.16 1881.89 -327.364 1885.22 -326.58C1886.08 -327.011 1886.94 -327.439 1887.77 -327.849L1890.14 -329.028L1891.12 -329.515L1891.69 -329.798C1895.68 -329.489 1897.23 -327.411 1898.55 -325.25C1898.99 -325.476 1899.46 -325.713 1899.91 -325.951C1900.1 -325.759 1900.28 -325.571 1900.46 -325.388C1900.57 -325.277 1900.68 -325.168 1900.8 -325.06C1901.39 -325.37 1901.98 -325.669 1902.61 -325.992L1903.08 -326.232L1903.77 -326.583L1904.25 -326.83C1904.64 -325.675 1905.02 -324.548 1905.38 -323.455C1905.73 -322.423 1906.07 -321.421 1906.39 -320.453C1907.26 -320.061 1907.89 -319.622 1908.63 -319.456C1910.82 -318.945 1912.96 -319.501 1915.02 -320.035C1916.79 -320.494 1918.49 -320.936 1920.11 -320.667C1923.5 -320.113 1925.9 -321.087 1928.4 -322.103C1928.65 -322.201 1928.89 -322.3 1929.13 -322.397C1929.45 -322.524 1929.77 -322.648 1930.1 -322.769C1932.03 -323.481 1933.88 -323.683 1935.49 -322.151C1935.87 -319.837 1934.29 -319.507 1932.71 -319.178C1931.59 -318.946 1930.48 -318.715 1930.05 -317.793C1930.11 -317.6 1930.14 -317.365 1930.18 -317.129L1930.18 -317.117C1930.26 -316.602 1930.34 -316.082 1930.63 -315.977C1932.76 -315.135 1934.95 -314.393 1937.24 -313.611C1937.74 -313.442 1938.24 -313.27 1938.76 -313.096L1939.63 -312.794C1940.41 -312.996 1941.19 -313.198 1941.95 -313.4V-245.812H1942V24.6512C1942 24.6512 1936.83 66.1307 1919.43 63.2688C1911.06 61.8915 1909.67 65.6264 1908.07 69.9675C1906.34 74.6466 1904.34 80.0298 1893.06 80.4746C1876.65 81.13 1873.23 71.5058 1870.8 64.6415C1870 62.4037 1869.31 60.4592 1868.31 59.2599C1864.22 54.382 1842.74 63.2688 1837.85 65.8526C1832.96 68.4364 1827.52 55.8187 1827.52 48.9363C1827.52 42.054 1796.52 39.4702 1789.72 42.054C1782.92 44.6262 1772.86 40.6172 1773.67 30.2938C1774.26 22.8005 1755.23 18.1764 1743.5 15.3268C1739.07 14.2505 1735.68 13.4272 1734.78 12.7983C1733.28 11.7416 1731.55 15.3087 1729.64 19.2401C1727.4 23.8441 1724.92 28.9475 1722.28 27.71C1717.38 25.4158 1710.31 37.1761 1712.49 43.4791C1714.66 49.7937 1699.16 64.7056 1693.72 63.2688C1689.61 62.1929 1686.9 69.9332 1684.3 77.3708C1683.45 79.785 1682.62 82.1671 1681.75 84.2056C1679 90.6745 1670.64 80.4577 1665.02 73.5891C1663.42 71.6369 1662.05 69.9554 1661.08 69.0042C1658.54 66.488 1656.08 73.011 1653.55 79.7155L1653.55 79.7213C1651.76 84.4688 1649.94 89.3062 1648.03 91.0879C1645.72 93.2337 1642.88 91.808 1640.87 90.8046C1638.86 89.798 1637.7 89.2164 1638.79 93.0925C1640.96 100.832 1626.27 109.997 1622.47 112.013C1620.19 113.221 1619.96 108.971 1619.67 103.705V103.703C1619.48 100.177 1619.26 96.196 1618.39 93.0925C1616.22 85.3527 1600.17 85.6423 1592.83 90.7983C1585.49 95.9543 1558.83 100.264 1562.65 86.2101C1565.13 77.0475 1560.91 73.1295 1557.37 69.8427C1555.48 68.0879 1553.78 66.5129 1553.4 64.4159C1552.32 58.4025 1513.16 65.563 1513.7 70.4408C1514.24 75.3188 1488.41 76.7438 1486.5 65.8526C1484.6 54.9497 1454.42 69.2938 1450.07 73.3026C1445.71 77.3232 1434.84 66.1422 1435.38 60.1173C1435.93 54.0923 1430.22 47.2099 1423.69 53.2349C1417.17 59.2599 1414.18 47.4997 1414.18 40.0495C1414.18 36.1396 1409.47 35.3029 1404.41 34.402C1399.81 33.5836 1394.91 32.7123 1392.97 29.4364C1388.89 22.554 1384.27 27.1422 1384.54 38.3232C1384.8 49.5157 1380.73 51.8098 1369.03 52.3775C1360.57 52.7968 1360.66 50.8076 1360.94 44.1366C1361.05 41.588 1361.18 38.3561 1360.88 34.3142C1360.09 23.6418 1343.07 16.9381 1332.45 12.7574C1328.52 11.2101 1325.47 10.0084 1324.44 9.07895C1322.94 7.72705 1321.73 10.7389 1320.02 15.007C1317.4 21.5671 1313.58 31.0954 1305.67 32.3098C1296.85 33.6638 1297.59 30.8303 1298.92 25.7559C1299.55 23.3185 1300.32 20.364 1300.23 17.1084C1300.05 10.245 1292.35 11.1609 1285.59 11.9652C1282.47 12.3367 1279.55 12.6845 1277.66 12.2305C1274.23 11.4132 1271.6 19.552 1268.71 28.5355C1266.55 35.2158 1264.25 42.363 1261.34 46.6423C1254.54 56.6761 1245.03 48.3571 1245.03 38.3232C1245.03 31.9397 1242.71 32.0512 1238.79 32.2402C1236.55 32.3484 1233.78 32.4819 1230.61 31.4408C1225.51 29.7647 1220.23 36.9398 1215.85 42.8844C1212.76 47.0895 1210.12 50.6788 1208.31 50.0835C1203.96 48.6467 1187.09 61.8436 1185.47 66.9996C1183.84 72.1556 1174.86 77.6014 1164.26 77.0336C1158.31 76.7153 1156.13 79.552 1153.78 82.61C1151.93 85.0055 1149.98 87.5367 1146.04 88.7937C1139.53 90.8776 1129.59 85.2656 1123.27 81.6969C1120.88 80.3444 1119 79.2853 1118.03 79.0497C1114.49 78.1923 1109.33 91.3777 1109.33 91.3777L1101.99 91.0879C1098.32 90.9431 1098.18 88.4346 1098.04 85.9261C1097.9 83.4177 1097.77 80.9092 1094.1 80.7644C1086.74 80.4747 1084.84 95.0969 1085.12 101.122C1085.38 107.147 1069.61 110.009 1057.92 107.715C1050.87 106.331 1045.4 110.058 1040.74 113.235C1037.67 115.327 1034.95 117.181 1032.36 117.181C1029.39 117.181 1028.22 113.031 1027.19 109.369C1025.96 104.977 1024.92 101.286 1021.21 106.289C1014.41 115.466 998.9 115.744 997.274 102.559C995.697 89.8499 980.007 93.9032 978.847 94.2206V147.004C977.851 146.748 976.982 146.518 976.216 146.315C972.825 145.419 971.471 145.062 970.234 145.323C969.413 145.496 968.643 145.944 967.362 146.688C965.654 147.68 963.037 149.199 958.178 151.303C947.346 155.991 942.017 139.94 938.569 129.557C937.169 125.34 936.079 122.058 935.057 121.479C933.637 120.675 932.919 122.689 931.918 125.5C930.426 129.692 928.302 135.654 922.277 136.681C912.211 138.395 908.41 125.21 908.41 125.21C908.41 125.21 904.882 114.319 887.201 114.029C874.006 113.813 870.211 107.038 867.094 101.473C866.037 99.5867 865.058 97.8392 863.817 96.5335C858.916 91.3775 848.312 97.9703 848.312 97.9703C841.921 99.0418 841.819 96.8387 841.656 93.2849C841.513 90.1909 841.324 86.073 836.895 82.2011C829.678 75.8923 821.734 78.8988 815.427 81.2863C813.417 82.047 811.573 82.7448 809.972 83.0585C806.895 83.661 798.83 81.9114 799.643 75.6084C800.467 69.2938 795.566 60.6966 788.225 58.4026C782.962 56.7574 780.913 61.6008 779.073 65.9512C778.347 67.6674 777.654 69.3068 776.808 70.4408C773.819 74.4614 768.105 71.8776 760.764 67.579C753.413 63.2688 749.611 83.0585 749.611 83.0585C749.611 83.0585 730.842 95.0969 729.754 81.6218C728.93 71.4118 724.364 71.0799 720.069 70.7673C718.695 70.6674 717.349 70.5695 716.161 70.1512C713.826 69.3286 713.16 71.8288 712.278 75.1371C711.31 78.7712 710.082 83.3804 706.095 85.6306C701.621 88.1566 697.051 85.5337 692.333 82.8257C689.022 80.925 685.638 78.9824 682.162 78.7484C673.722 78.1806 661.767 93.0923 666.657 100.542C671.547 107.993 652.514 120.61 651.426 112.581C650.338 104.551 631.031 103.694 631.031 103.694C631.031 103.694 616.625 105.698 612.812 93.3705C610.033 84.3856 606.968 84.3801 603.616 84.3739C602.37 84.3717 601.083 84.3694 599.757 83.9044C594.856 82.1895 588.878 91.366 593.23 95.6645C597.581 99.9631 588.604 109.997 578.813 111.434C573.771 112.168 573.417 108.801 573.035 105.166C572.675 101.74 572.289 98.0764 567.934 97.3794C558.956 95.9426 562.219 107.124 562.219 107.124C562.219 107.124 563.307 117.447 548.89 118.884C534.484 120.321 535.297 146.124 535.297 146.124C535.297 146.124 527.682 155.578 526.594 160.456C525.506 165.334 501.298 156.157 497.221 146.691C493.144 137.225 473.287 150.132 473.287 150.132C473.287 150.132 466.211 165.334 456.969 160.746C447.728 156.158 447.178 149.565 449.354 136.09C451.53 122.615 421.344 126.346 427.596 132.649C427.596 132.649 397.685 162.182 398.223 144.119C398.761 126.056 388.157 128.06 388.157 128.06C388.157 128.06 364.773 137.237 369.125 122.615C373.476 107.981 350.895 93.6484 352.806 102.825C354.037 108.729 346.484 107.866 338.549 106.959C334.151 106.456 329.635 105.94 326.434 106.556C321.306 107.542 314.674 98.6121 310.079 92.4259C306.628 87.7796 304.327 84.6809 304.676 88.4926C305.489 97.3795 298.412 101.11 289.171 103.115C284.556 104.115 281.769 95.1824 279.289 87.2351C276.803 79.2658 274.626 72.2878 271.226 77.3116C264.435 87.3454 244.578 83.0468 244.578 83.0468C238.825 82.3534 237.129 74.5839 235.555 67.3776C234.525 62.6637 233.549 58.1907 231.523 56.0967C229.776 54.2893 218.469 54.382 224.183 62.9792C229.897 71.5764 204.612 77.6012 195.634 75.0175C190.535 73.5483 190.973 69.1155 191.349 65.3005C191.634 62.4066 191.884 59.8681 189.656 59.2483C184.492 57.8117 168.986 76.4542 168.986 76.4542L158.688 75.6495C159.644 80.8061 160.6 81.1785 161.557 79.0202C162.058 78.0634 162.56 79.7851 163.063 81.5068L163.063 81.5105C163.476 82.9266 163.889 84.3418 164.302 84.265C164.001 84.7121 163.698 85.254 163.395 85.7975C162.183 87.9682 160.958 90.1633 159.726 86.4341C158.813 87.9644 157.896 87.1109 156.976 86.2546C156.216 85.5472 155.453 84.8379 154.689 85.469C152.797 82.787 150.9 83.5939 149.015 84.3954C147.54 85.023 146.072 85.6472 144.619 84.5916C144.413 86.703 144.205 87.0418 143.998 87.3805C143.787 87.7238 143.577 88.067 143.367 90.2551C143.176 92.7989 142.983 92.5774 142.79 92.3558C142.565 92.0967 142.34 91.8376 142.115 96.0022C141.91 98.757 141.704 98.7972 141.497 98.8374C141.285 98.8786 141.074 98.9199 140.864 101.876C140.657 103.681 140.45 104.141 140.242 104.601C140.032 105.067 139.821 105.534 139.611 107.408C138.718 108.105 137.824 107.604 136.931 107.103C135.911 106.53 134.891 105.958 133.872 107.167C133.392 107.419 132.913 107.746 132.434 108.072C131 109.05 129.566 110.028 128.132 108.992C127.451 108.911 126.77 109.085 126.09 109.259C124.857 109.573 123.624 109.888 122.392 108.689C120.478 106.978 118.565 106.193 116.652 110.576C115.85 110.239 115.048 111.101 114.247 111.962C113.135 113.157 112.023 114.351 110.912 112.353C108.998 108.58 107.085 110.194 105.172 112.16C103.902 112.789 102.631 112.805 101.361 112.821C99.7615 112.842 98.1617 112.863 96.562 114.107C94.5186 116.25 92.4752 115.66 90.4315 115.069C89.6049 114.83 88.7784 114.591 87.9519 114.533C86.338 119.235 84.7242 117.751 83.1104 116.268C81.8543 115.114 80.5981 113.959 79.342 115.722C77.073 108.823 74.8041 111.783 72.5351 114.742C71.9341 115.526 71.3331 116.31 70.7322 116.911C69.9311 117.1 69.1278 117.753 68.3233 118.407C66.5167 119.876 64.7031 121.35 62.8958 117.586C60.2838 116.669 57.6841 117.051 55.1346 119.696C53.4807 117.204 51.8457 118.532 50.2402 119.836C49.3709 120.543 48.5103 121.242 47.66 121.324C46.4333 121.253 45.2271 122.47 44.0471 123.661C42.9025 124.816 41.7828 125.946 40.6931 125.851C38.4801 126.084 36.4215 128.045 34.6245 132.59C32.8319 137.661 31.3012 141.561 30.1448 138.166C29.2735 138.453 28.617 142.072 28.2183 144.27C28.0879 144.988 27.985 145.555 27.9114 145.803C27.8924 146.285 27.8752 146.703 27.8601 147.066L27.8047 148.396C27.7867 148.841 27.7775 149.101 27.7781 149.255C27.7787 149.432 27.7913 149.47 27.8168 149.486C27.8228 149.49 27.8294 149.493 27.8366 149.496C27.94 149.538 28.1828 149.636 28.5809 153.959C27.4164 161.685 26.2102 164.018 24.9832 160.197C24.2143 162.311 23.4342 160.516 22.6478 158.706C22.1789 157.628 21.7078 156.544 21.2355 156.28C19.7652 159.814 18.2767 158.487 16.7895 157.162C15.7145 156.204 14.6401 155.246 13.574 156.126C11.9453 154.369 10.3337 153.895 8.76549 153.433L8.75002 153.428C8.49524 153.353 8.24159 153.279 7.98911 153.199C7.88335 153.165 7.7776 153.131 7.67213 153.095C7.54402 153.052 7.4162 153.006 7.28896 152.958C7.21759 152.931 7.14651 152.903 7.07544 152.874L6.97858 152.835C6.89317 152.799 6.80806 152.762 6.72322 152.723C6.53952 152.639 6.35666 152.547 6.17439 152.445C5.10913 153.155 4.0728 151.704 3.07402 150.305C1.86172 148.608 0.704758 146.988 -0.380859 149.405C-0.894714 148.495 -1.39253 147.528 -1.87286 146.595C-3.24307 143.934 -4.47055 141.551 -5.51776 141.535C-5.61406 141.447 -5.70863 141.362 -5.80177 141.277C-7.07253 140.129 -8.04926 139.246 -8.65396 136.02L-8.71587 136.059C-11.2127 137.609 -13.7954 139.212 -16.4195 138.403C-17.9035 134.563 -19.4018 136.217 -20.9073 137.879C-22.0854 139.18 -23.2679 140.485 -24.4513 139.166C-27.1464 138.201 -29.8461 137.534 -32.508 138.403C-33.4025 138.151 -34.2932 138.144 -35.1782 138.138C-36.9273 138.125 -38.6551 138.113 -40.3483 136.205C-42.016 134.202 -43.6516 134.355 -45.2448 134.505C-45.6495 134.543 -46.0515 134.581 -46.4505 134.583C-46.8821 134.585 -47.3106 134.545 -47.7353 134.419C-48.7713 133.255 -49.785 132.393 -50.7729 131.553C-52.0339 130.481 -53.2531 129.445 -54.4238 127.861C-55.2773 125.893 -56.1044 126.437 -56.9025 126.961C-58.0569 127.72 -59.1506 128.439 -60.176 121.464C-61.2258 121.855 -62.204 119.707 -63.1016 117.737C-63.6868 116.452 -64.2376 115.243 -64.7515 114.862C-65.2909 116.301 -65.8351 114.26 -66.3891 112.183L-66.3899 112.181C-66.8353 110.51 -67.2867 108.817 -67.7464 108.891C-68.2287 106.398 -68.7194 106.398 -69.2206 106.398C-69.7912 106.399 -70.3759 106.399 -70.978 102.723C-72.1095 104.882 -73.3032 101.306 -74.5759 97.077C-75.146 97.9729 -75.7326 96.2987 -76.3376 94.5729C-77.0833 92.4449 -77.8568 90.2381 -78.6604 92.6725C-80.948 90.0768 -83.4873 90.2195 -86.3589 90.3805C-87.1247 90.4234 -87.914 90.4677 -88.7285 90.4618L-88.5989 87.5276C-88.5511 86.4474 -88.4949 85.2026 -88.4304 83.8331C-88.3932 83.0375 -88.353 82.1997 -88.3103 81.3277C-88.1392 82.9394 -87.924 80.6298 -87.6649 77.8494L-87.6641 77.8368L-87.6623 77.8209C-87.3617 74.6006 -87.0035 70.7659 -86.5862 71.6599C-87.0969 69.8845 -87.6045 69.6624 -88.1097 69.4414C-88.6216 69.2173 -89.1306 68.9946 -89.637 67.1576C-90.0356 67.5157 -90.4326 66.4969 -90.8278 65.4827C-91.4881 63.7879 -92.1435 62.1057 -92.7941 66.8812C-93.9964 64.3579 -95.1774 63.6921 -96.3378 63.0382C-97.1807 62.563 -98.0127 62.0941 -98.8335 60.9237C-99.2771 60.1254 -99.7176 59.1945 -100.155 58.2707C-101.64 55.1328 -103.087 52.0749 -104.494 54.5625C-106.316 47.2318 -108.072 46.8984 -109.752 47.8284C-110.166 47.511 -110.577 47.309 -110.982 47.1091C-112.226 46.4965 -113.429 45.904 -114.589 42.0772C-116.128 35.6326 -117.592 34.4612 -118.982 33.3558C-120.371 32.8864 -121.677 30.2409 -122.908 24.9941C-123.763 23.505 -124.58 21.673 -125.357 19.93L-125.36 19.9223C-125.558 19.4782 -125.754 19.0401 -125.947 18.6148C-126.082 18.3169 -126.215 18.0253 -126.348 17.7425C-124.813 19.4622 -123.278 18.8651 -121.742 18.2682C-120.822 17.9105 -119.901 17.5527 -118.982 17.6941C-118.609 17.5522 -118.236 17.42 -117.863 17.2878C-115.781 16.55 -113.697 15.8115 -111.615 13.3597C-110.708 13.5738 -109.801 13.0778 -108.893 12.5816C-107.345 11.7353 -105.796 10.8888 -104.249 13.5659C-103.345 12.8211 -102.441 12.7826 -101.536 12.744C-99.9847 12.678 -98.4328 12.612 -96.8826 8.98148C-95.6125 7.75317 -94.3414 8.39908 -93.0704 9.0448C-91.8853 9.64685 -90.7002 10.2489 -89.5163 9.33246C-87.0625 8.50333 -84.6041 6.78793 -82.1503 4.60327C-83.0651 4.93292 -83.9805 4.61401 -84.8967 4.29477C-86.297 3.80707 -87.6993 3.31848 -89.1048 5.14279C-89.8872 5.1709 -90.6701 4.69934 -91.4534 4.22766C-92.9933 3.30032 -94.5346 2.37207 -96.0759 5.23947C-96.997 4.67972 -97.9175 5.40521 -98.8375 6.13025C-100.24 7.23511 -101.64 8.33878 -103.039 4.89288C-105.321 -1.0983 -107.6 1.45016 -109.871 3.98987L-109.972 4.10318C-110.976 2.18774 -111.978 3.01025 -112.977 3.83078C-114.271 4.89334 -115.561 5.95258 -116.848 1.05856C-118.82 -0.717865 -120.783 0.0774536 -122.731 0.866852C-122.919 0.942688 -123.106 1.01852 -123.293 1.0921C-123.409 1.13757 -123.524 1.18216 -123.64 1.22522C-125.886 2.08081 -128.12 1.71213 -130.324 -0.779663C-132.142 -0.0464478 -133.943 -1.31689 -135.73 -2.57709C-136.114 -2.84784 -136.497 -3.11813 -136.879 -3.36786C-136.538 -3.86554 -136.212 -4.2399 -135.9 -4.59735C-135.01 -5.61731 -134.24 -6.49994 -133.593 -9.71588C-132.72 -10.2203 -132.067 -13.0368 -131.63 -17.5818C-131.414 -14.116 -131.252 -15.8489 -131.143 -17.8188C-131.035 -21.1485 -130.986 -24.5484 -130.99 -25.7723C-130.994 -29.1137 -131.051 -29.1285 -131.161 -29.1575C-131.275 -29.1873 -131.445 -29.2317 -131.672 -32.8705C-131.767 -33.0027 -131.872 -33.0216 -131.987 -33.0421C-132.414 -33.1186 -132.975 -33.2192 -133.677 -39.2361C-134.514 -43.7885 -135.552 -45.1514 -136.783 -46.7686L-137 -47.0538C-136.027 -48.0364 -135.266 -49.3262 -134.716 -52.9938C-134.465 -54.8409 -134.259 -55.4818 -134.099 -55.9807C-133.911 -56.5695 -133.785 -56.9604 -133.722 -58.9031C-133.606 -62.3206 -133.71 -68.0017 -134.034 -69.059C-134.066 -69.0594 -134.1 -69.0789 -134.136 -69.1138C-134.152 -69.1288 -134.167 -69.1466 -134.184 -69.167C-134.194 -69.18 -134.205 -69.1941 -134.215 -69.209C-134.227 -69.2253 -134.239 -69.2427 -134.251 -69.2611C-134.27 -69.2918 -134.291 -69.3252 -134.312 -69.361C-134.377 -69.4722 -134.446 -69.6062 -134.521 -69.7499C-134.821 -70.3275 -135.202 -71.0593 -135.665 -71.0726C-135.112 -72.4322 -134.566 -73.3899 -134.025 -74.3374C-133.455 -75.3372 -132.891 -76.3256 -132.333 -77.7628C-131.247 -79.5659 -130.187 -80.2853 -129.147 -76.8151C-128.063 -79.7132 -127.006 -80.0702 -125.978 -80.4172C-125.042 -80.7333 -124.131 -81.0412 -123.245 -83.2509C-121.386 -89.6736 -119.634 -90.1516 -118.004 -90.3009C-117.102 -90.7368 -116.236 -92.633 -115.407 -94.4472C-114.736 -95.919 -114.088 -97.3369 -113.466 -97.8772L-113.337 -98.2066C-111.998 -101.622 -110.773 -104.748 -109.677 -104.076C-108.817 -102.371 -108.035 -106.801 -107.33 -110.794C-107.105 -112.071 -106.888 -113.303 -106.678 -114.276C-105.817 -119.527 -105.093 -123.002 -104.515 -125.757C-104.262 -126.703 -104.036 -128.096 -103.839 -129.31C-103.59 -130.847 -103.387 -132.097 -103.234 -131.793C-103.122 -133.671 -103.022 -136.027 -102.88 -140.041L-102.855 -140.493C-102.717 -142.97 -102.54 -146.16 -102.282 -139.106C-102.038 -141.237 -101.722 -141.221 -101.3 -141.2C-100.771 -141.173 -100.075 -141.138 -99.1413 -145.279C-98.3689 -147.269 -97.3876 -146.378 -96.345 -145.431C-95.1189 -144.318 -93.8078 -143.128 -92.6525 -146.454C-91.7741 -145.092 -90.9857 -142.581 -90.3924 -140.691L-90.3916 -140.688C-89.5413 -137.979 -89.0922 -136.548 -89.3541 -141.607V-141.78C-89.3538 -141.863 -89.3532 -141.946 -89.3501 -150.122V-158.637C-87.1571 -159.485 -84.9707 -158.589 -82.8072 -157.702C-82.4962 -157.575 -82.1858 -157.447 -81.8757 -157.325C-79.405 -155.632 -76.9675 -155.136 -74.5759 -155.742C-72.1843 -154.369 -69.8465 -152.373 -67.5756 -150.293C-65.3046 -148.262 -63.1044 -146.876 -60.9914 -148.964C-61.5583 -153.689 -62.0632 -153.795 -62.506 -153.888C-62.9081 -153.973 -63.2589 -154.046 -63.5578 -157.558C-63.7837 -159.504 -63.9788 -161.804 -64.1425 -163.735L-64.1442 -163.751V-163.755C-64.4322 -167.148 -64.6225 -169.389 -64.7099 -166.543C-64.7807 -168.837 -64.7847 -170.864 -64.7266 -174.444C-64.6684 -177.01 -64.5477 -179.278 -64.3563 -175.554C-64.1574 -172.737 -63.8848 -174.959 -63.5366 -177.853C-64.0556 -178.713 -64.497 -179.632 -64.6953 -180.736C-64.2611 -183.846 -64.1279 -186.727 -68.6156 -186.086C-71.0568 -185.84 -70.7596 -187.682 -70.4622 -189.523C-70.2478 -190.851 -70.0334 -192.179 -70.8465 -192.724C-68.3388 -197.415 -70.2641 -198.727 -72.9833 -199.434C-74.8175 -199.826 -75.354 -201.208 -75.8902 -202.59C-76.1866 -203.353 -76.4829 -204.116 -76.9979 -204.712C-78.8247 -205.403 -78.9238 -207.411 -79.0233 -209.418C-79.0565 -210.089 -79.0898 -210.76 -79.1875 -211.382C-78.8175 -213.145 -79.9753 -213.744 -81.1332 -214.343C-82.1477 -214.868 -83.1623 -215.393 -83.1494 -216.7C-81.6788 -218.126 -81.4163 -218.632 -81.1538 -219.138C-80.895 -219.636 -80.6362 -220.135 -79.223 -221.512C-76.8248 -223.645 -76.9277 -223.874 -77.0309 -224.103C-77.1315 -224.326 -77.2321 -224.549 -75.0032 -226.547C-71.5776 -229.483 -71.9476 -229.529 -72.317 -229.575C-72.6331 -229.614 -72.9492 -229.652 -70.8926 -231.498C-69.1527 -233.129 -68.9959 -233.554 -68.8392 -233.979C-68.6844 -234.399 -68.5297 -234.818 -66.8537 -236.396C-68.7091 -237.091 -69.1338 -238.9 -69.5608 -240.718C-70.1065 -243.04 -70.6553 -245.378 -74.1936 -245.429C-74.152 -246.571 -75.2592 -246.834 -76.3631 -247.097C-77.6995 -247.415 -79.0316 -247.732 -78.3165 -249.604C-82.3211 -248.342 -81.2398 -250.945 -80.1705 -253.52C-79.9028 -254.165 -79.6357 -254.808 -79.4494 -255.388C-79.2451 -254.944 -77.7588 -255.476 -76.2725 -256.009C-74.4673 -256.655 -72.662 -257.302 -73.1544 -256.197C-74.4825 -253.681 -73.263 -253.105 -67.0388 -256.345C-62.0383 -259.408 -62.8878 -258.012 -63.7372 -256.616C-64.5953 -255.206 -65.4534 -253.796 -60.2835 -256.98C-54.7067 -260.28 -55.0454 -259.071 -55.3842 -257.862C-55.5814 -257.158 -55.7788 -256.454 -54.8078 -256.64C-50.8812 -258.816 -51.046 -257.873 -51.2108 -256.93C-51.3492 -256.137 -51.4879 -255.344 -49.1929 -256.406C-46.2401 -257.681 -45.3193 -257.407 -44.3985 -257.134C-43.8992 -256.985 -43.4 -256.837 -42.5772 -256.935C-41.5515 -258.678 -43.4117 -258.61 -45.5758 -258.531C-47.8726 -258.447 -50.5118 -258.35 -50.4078 -260.392C-49.4551 -262.94 -50.8875 -263.713 -52.2296 -264.438C-53.6961 -265.229 -55.0549 -265.962 -53.0771 -268.89C-50.2238 -270.465 -49.2602 -270.603 -48.2964 -270.74C-47.4031 -270.867 -46.5098 -270.994 -44.111 -272.267C-40.1067 -274.165 -36.5043 -275.763 -35.1452 -275.645C-32.9611 -279.938 -33.1144 -282.226 -34.75 -283.149C-32.8992 -285.881 -32.6837 -287.277 -32.4839 -288.569C-32.3558 -289.399 -32.2343 -290.186 -31.6915 -291.256C-31.6293 -292.172 -30.1192 -294.127 -28.737 -295.917C-27.447 -297.587 -26.2683 -299.114 -26.4812 -299.517C-26.834 -299.777 -25.2153 -301.486 -23.7769 -303.004C-22.0086 -304.871 -20.5129 -306.45 -23.2874 -304.695C-22.0522 -305.917 -20.3745 -307.427 -19.0659 -308.605C-17.3621 -310.14 -16.2842 -311.11 -17.6238 -310.147C-14.2371 -312.837 -12.5551 -313.944 -11.1969 -314.52C-10.8301 -314.717 -10.3747 -314.973 -9.87312 -315.254C-7.58611 -316.536 -4.33986 -318.356 -4.1636 -317.633C-3.64056 -317.826 -3.02611 -318.076 -2.37784 -318.34C0.243927 -319.409 3.41621 -320.702 3.31476 -319.303C5.94482 -324.65 2.91582 -325.772 -0.0945587 -326.887C-2.27467 -327.695 -4.44533 -328.499 -4.44905 -330.902C2.83759 -340.242 -0.514984 -341.349 -3.60675 -342.37C-5.19247 -342.893 -6.7097 -343.394 -6.68793 -344.972C-8.12978 -346.55 -6.19412 -350.422 -4.57286 -353.666C-3.86096 -355.09 -3.20955 -356.394 -2.93126 -357.328C-2.59164 -353.835 0.485794 -352.518 3.50076 -351.228C6.60887 -349.898 9.65105 -348.597 9.5582 -344.968C17.7465 -345.149 20.6726 -341.493 23.5551 -337.892C23.9673 -337.378 24.3785 -336.864 24.8041 -336.363C26.2729 -336.362 27.7411 -336.358 29.2088 -336.354H29.2294C31.9945 -336.347 34.7569 -336.339 37.5145 -336.353L38.0754 -336.354L38.5414 -336.355H38.5448C40.5974 -336.356 42.6555 -336.358 44.6559 -336.673C46.1095 -336.891 47.4911 -337.46 48.3604 -337.818L48.5759 -337.907L48.7006 -337.957C48.821 -338.006 48.925 -338.045 49.0107 -338.074C50.9263 -338.44 52.6521 -337.812 54.2559 -337.229C56.5627 -336.391 58.6167 -335.644 60.6197 -338.074C60.3245 -339.94 59.0326 -340.483 57.777 -341.01C56.8742 -341.39 55.9904 -341.761 55.5092 -342.61C54.368 -342.364 53.2511 -342.055 52.1483 -341.749C48.5192 -340.743 45.0396 -339.779 41.328 -341.245C38.5073 -342.397 37.4357 -344.463 37.4807 -347.206C37.5598 -349.96 38.6993 -352.003 42.3772 -353.178C43.515 -352.544 44.784 -351.848 46.1037 -351.123C47.0085 -350.626 47.9374 -350.116 48.8642 -349.604C49.6111 -349.713 50.3502 -349.822 51.1349 -349.938C51.9738 -350.062 52.8648 -350.193 53.8733 -350.341C55.4424 -348.544 57.7039 -347.552 60.0035 -346.544C62.5984 -345.406 65.2416 -344.247 66.9941 -341.886C67.3908 -341.353 68.3428 -341.133 69.2556 -340.921C69.5631 -340.85 69.8661 -340.779 70.1418 -340.699L71.2271 -340.39L72.2809 -340.091C72.7942 -339.946 73.3098 -339.801 73.8291 -339.655C76.4001 -338.932 79.0637 -338.194 81.9987 -337.386C83.6624 -337.82 85.5155 -338.31 87.4366 -338.817L89.9967 -339.493C90.8172 -339.71 91.6403 -339.926 92.4571 -340.14C94.2847 -339.191 94.1944 -338.074 93.6642 -336.531C92.748 -333.853 92.0094 -331.131 91.2557 -328.352L91.2225 -328.231C91.1184 -327.848 91.0144 -327.463 90.9092 -327.078L90.7688 -326.564L90.6421 -326.105L90.504 -325.606L90.3813 -325.167C90.6716 -324.77 90.9857 -324.351 91.3314 -323.891C91.6575 -323.456 92.0117 -322.985 92.4007 -322.46C94.6458 -322.769 96.8795 -323.078 98.8877 -323.362C101.483 -322.496 104.224 -318.708 106.525 -312.901L109.788 -316.14C110.651 -316.996 111.521 -317.859 112.427 -318.756C112.395 -319.032 112.782 -319.545 113.528 -320.249C118.401 -324.247 118.954 -324.577 120.853 -325.56C121.017 -325.555 122.212 -326.308 123.625 -327.198C123.654 -327.216 123.683 -327.234 123.711 -327.252C123.602 -327.415 123.491 -327.579 123.381 -327.744C123.784 -328.021 124.136 -328.297 124.462 -328.552C125.129 -329.076 125.684 -329.512 126.336 -329.679C127.023 -329.863 127.694 -329.952 128.35 -329.966C128.621 -330.072 128.774 -330.083 128.762 -329.965C131.134 -329.902 133.306 -328.877 135.305 -327.744C137.358 -326.57 139.266 -325.201 141.228 -323.793C142.125 -323.15 143.033 -322.499 143.97 -321.855C144.235 -321.822 144.517 -321.778 144.812 -321.732C145.582 -321.613 146.435 -321.481 147.276 -321.498C148.054 -321.523 148.837 -321.709 149.607 -321.892C149.942 -321.972 150.275 -322.051 150.603 -322.116C150.446 -323.647 150.299 -324.965 150.152 -326.236C152.208 -326.917 153.521 -326.068 154.853 -325.206C154.976 -325.126 155.1 -325.046 155.224 -324.968L155.314 -324.911C155.387 -324.865 155.46 -324.82 155.534 -324.776V-322.375C156.963 -323.244 158.941 -324.529 161.66 -326.378C166.301 -328.834 170.303 -330.761 170.561 -329.791C170.893 -328.872 172.712 -329.044 179.807 -333.195C186.342 -337.354 186.855 -336.903 187.38 -336.441C187.658 -336.197 187.939 -335.95 189.12 -336.383C190.445 -336.889 191.17 -336.93 191.904 -336.971C193.13 -337.041 194.382 -337.112 198.499 -339.35C197.088 -336.837 201.153 -338.455 207.941 -342.1L208.004 -342.082C209.433 -341.669 210.906 -341.243 217.436 -344.63C216.556 -342.346 220.898 -343.994 226.983 -346.934C222.128 -340.98 222.993 -338.848 225.716 -337.769C225.349 -334.335 225.115 -330.64 226.985 -328.355C230.747 -327.507 231.609 -324.261 230.63 -319.587C231.197 -318.326 232.39 -317.537 233.578 -316.754C235.144 -315.719 236.699 -314.693 236.788 -312.595C241.88 -314.07 242.382 -312.107 242.864 -310.228C243.012 -309.652 243.157 -309.083 243.433 -308.624C244.528 -309.753 244.77 -311.189 245.021 -312.679V-312.681C245.219 -313.859 245.424 -315.07 246.059 -316.191C246.49 -316.287 246.998 -316.406 247.542 -316.533L247.6 -316.547L247.623 -316.552C248.325 -316.717 249.084 -316.894 249.816 -317.057C251.86 -314.916 253.743 -312.951 255.789 -310.816L257.307 -309.232C259.81 -310.14 262.248 -311.035 264.797 -311.962C265.615 -312.259 266.445 -312.56 267.291 -312.866L267.707 -312.754C269.667 -312.227 271.783 -311.658 274.185 -311.037C275.506 -311.723 276.926 -312.292 278.377 -312.874L278.38 -312.875C281.547 -314.144 284.863 -315.473 287.633 -318.209L286.605 -321.501L286.391 -322.191L286.132 -323.03C286.199 -323.196 286.252 -323.385 286.306 -323.58L286.307 -323.582L286.308 -323.586L286.309 -323.588C286.376 -323.83 286.446 -324.081 286.548 -324.305C286.64 -324.508 286.757 -324.689 286.922 -324.823C290.058 -327.364 293.228 -329.862 296.384 -332.349L296.388 -332.352L296.398 -332.361C297.193 -332.987 297.986 -333.612 298.778 -334.237C299.215 -334.582 299.652 -334.927 300.088 -335.272C303.166 -335.501 306.211 -335.733 309.257 -335.965L309.319 -335.97L309.379 -335.974L309.408 -335.976L315.982 -336.475C317.024 -336.553 318.07 -336.631 319.12 -336.709C321.602 -339.143 324.231 -341.708 326.645 -344.059L334.863 -340.096C336.118 -339.49 337.376 -338.883 338.66 -338.264C338.944 -338.554 339.219 -338.835 339.487 -339.11L340.628 -340.281C341.707 -341.388 342.703 -342.41 343.748 -343.465C346.89 -344.899 350.091 -346.361 353.245 -347.802L360.728 -351.219C362.598 -350.797 363.681 -349.588 364.77 -348.372C366.373 -346.581 367.99 -344.776 372.156 -345.448C372.269 -345.509 372.413 -345.584 372.585 -345.673C372.781 -345.775 373.012 -345.895 373.272 -346.029C374.395 -346.606 376.06 -347.449 377.774 -348.31C383.449 -345.84 389.146 -343.37 395.916 -340.414C399.988 -340.794 405.02 -341.269 410.751 -341.815C410.8 -341.68 410.858 -341.537 410.923 -341.385L411.011 -341.18L411.08 -341.023L411.086 -341.008C411.407 -340.277 411.789 -339.405 411.902 -338.49C412.13 -336.775 412.205 -335.047 412.289 -333.123C412.321 -332.383 412.355 -331.615 412.398 -330.808C413.899 -330.701 415.388 -330.546 416.9 -330.285C417.035 -330.297 417.159 -330.321 417.283 -330.368C420.679 -331.271 424.086 -332.304 427.257 -333.693C431.611 -335.593 435.921 -337.267 440.445 -336.139C442.549 -338.979 445.456 -339.464 448.305 -339.94C450.114 -340.242 451.899 -340.54 453.442 -341.435L455.833 -341.744L456.883 -340.402L459.184 -342.409L459.602 -342.218L463.674 -340.39H468.525L470.218 -342.812H473.253L476.897 -344.415H476.908C478.198 -344.253 479.553 -344.056 481.028 -343.842C482.571 -343.619 484.245 -343.376 486.114 -343.133C486.599 -343.264 488.844 -343.822 491.089 -344.368C494.857 -341.589 495.59 -337.801 495.805 -333.598C497.745 -331.223 499.821 -328.682 502.134 -325.892C503.041 -326.517 503.933 -327.117 504.81 -327.706L504.814 -327.709C506.466 -328.82 508.063 -329.894 509.603 -331.033L509.859 -331.221L510.225 -331.487L510.229 -331.49C512.195 -332.915 514.284 -334.429 514.386 -336.863C514.463 -338.832 515.845 -339.84 517.231 -340.85C518.285 -341.619 519.341 -342.388 519.824 -343.584C520.461 -345.173 521.492 -346.641 522.551 -348.148L522.557 -348.155C523.016 -348.808 523.479 -349.469 523.919 -350.15C524.194 -350.234 524.468 -350.316 524.741 -350.398C525.083 -350.501 525.424 -350.602 525.764 -350.703L527.153 -351.114C527.986 -351.36 528.83 -351.609 529.707 -351.872C530.811 -353.234 531.443 -354.865 532.078 -356.504C533.098 -359.137 534.126 -361.79 537.13 -363.378C542.859 -362.366 545.629 -361.877 548.188 -362.443C550.584 -362.972 552.795 -364.425 557.077 -367.237L558.374 -364.993L560.551 -366.917L562.875 -366.703L566.937 -363.877L570.806 -365.48L574.202 -363.877L578.083 -365.302L578.929 -365.231L583.092 -362.25L587.684 -364.423C589.259 -364.819 590.777 -365.213 592.254 -365.596L592.313 -365.612L592.321 -365.613L592.327 -365.615L592.358 -365.623C596.112 -366.596 599.612 -367.503 603.151 -368.223C604.385 -368.462 605.706 -368.316 607.133 -368.158C607.833 -368.081 608.558 -368.001 609.311 -367.962C609.651 -367.435 610.029 -366.935 610.398 -366.447C611.169 -365.428 611.902 -364.458 612.177 -363.39C613.316 -359.151 616.283 -356.752 620.988 -355.292C623.278 -356.42 625.568 -357.548 627.825 -358.664C629.28 -356.859 629.28 -356.859 623.47 -352.228L619.036 -352.941C618.984 -352.695 618.906 -352.455 618.832 -352.225C618.681 -351.757 618.543 -351.332 618.664 -350.982C619.882 -347.574 622.951 -346.113 626.369 -345.33C627.129 -345.481 627.878 -345.628 628.617 -345.772L630.863 -346.21L630.873 -346.212L631.186 -346.272C632.225 -346.475 633.246 -346.674 634.255 -346.873C635.211 -345.757 635.813 -344.476 636.405 -343.217C637.594 -340.685 638.742 -338.242 642.638 -337.409C644.01 -338.21 645.47 -339.06 646.978 -339.937L654.608 -344.368C657.412 -344.453 658.547 -342.9 659.734 -341.274C660.357 -340.421 660.995 -339.548 661.896 -338.882C663.159 -339.119 664.649 -339.381 666.239 -339.69L666.948 -339.268L669.714 -337.616L670.644 -337.062L671.7 -336.436C672.506 -336.872 673.348 -337.331 674.274 -337.835C675.692 -338.607 677.307 -339.486 679.292 -340.556C680.796 -340.457 682.562 -340.339 684.441 -340.213L689.807 -339.856C690.528 -340.506 691.227 -341.21 691.933 -341.922L691.935 -341.923C693.55 -343.551 695.199 -345.212 697.208 -346.327C700.028 -347.894 702.285 -349.604 703.785 -352.122C705.331 -352.276 706.775 -352.43 708.433 -352.608C708.773 -353.312 709.091 -353.98 709.375 -354.578L709.396 -354.624C709.67 -355.199 709.912 -355.708 710.114 -356.123C709.361 -361.151 706.019 -364.408 702.824 -367.521C702.095 -368.231 701.375 -368.934 700.694 -369.648L700.999 -375.502C703.517 -376.385 705.928 -377.237 708.392 -378.108L711.164 -379.088C712.991 -378.494 714.83 -377.912 716.94 -377.247C718.592 -377.663 720.386 -378.133 722.146 -378.595L723.348 -378.91C725.007 -378.44 726.64 -377.977 728.297 -377.506C730.538 -376.869 732.821 -376.217 735.273 -375.514L736.92 -376.668L736.992 -376.719C738.734 -377.94 740.626 -379.266 742.707 -380.738C749.669 -381.688 756.257 -381.451 761.751 -375.739C762.96 -374.499 765.126 -373.992 767.449 -373.448L768.086 -373.299C768.337 -373.239 768.589 -373.178 768.842 -373.115C769.516 -372.947 770.19 -372.763 770.844 -372.545C774.601 -373.721 778.618 -374.979 782.871 -376.333C783.035 -377.052 783.201 -377.728 783.362 -378.379C783.644 -379.522 783.906 -380.587 784.1 -381.676C784.131 -381.858 784.16 -382.041 784.187 -382.223C784.209 -382.375 784.23 -382.527 784.25 -382.679C784.286 -382.947 784.317 -383.217 784.347 -383.49C784.406 -384.029 784.457 -384.579 784.51 -385.148V-385.155L784.511 -385.166L784.512 -385.185C784.571 -385.828 784.633 -386.495 784.71 -387.198L791.062 -390C793.194 -387.803 794.897 -385.975 796.691 -384.027C797.082 -384.355 797.442 -384.656 797.796 -384.952ZM135.823 -319.882C135.985 -319.918 136.147 -319.954 136.31 -319.99C136.272 -320.071 136.235 -320.152 136.198 -320.233C136.069 -320.113 135.945 -319.996 135.823 -319.882ZM136.161 -320.313C136.086 -320.474 136.012 -320.634 135.937 -320.795L135.68 -321.346L135.63 -321.454L135.405 -321.939L135.125 -322.543L130.13 -321.757C129.924 -321.162 129.687 -320.543 129.442 -319.919C134.017 -322.393 134.404 -321.676 134.791 -320.96C135.007 -320.561 135.222 -320.161 136.161 -320.313ZM124.658 -325.843C124.648 -325.858 124.639 -325.873 124.629 -325.888C124.593 -325.856 124.557 -325.825 124.52 -325.793C124.567 -325.81 124.613 -325.827 124.658 -325.843Z" fill="#FFBD0C"/>
<path d="M-2.93698 -358.604C-2.72806 -358.373 -2.75328 -357.926 -2.93126 -357.328C-2.96967 -357.725 -2.9731 -358.149 -2.93698 -358.604Z" fill="#FFBD0C"/>
<path d="M-79.2697 -256.05C-79.3133 -255.842 -79.3749 -255.62 -79.4494 -255.388C-79.5091 -255.518 -79.4595 -255.73 -79.2697 -256.05Z" fill="#FFBD0C"/>
<path d="M-88.7844 90.4614C-88.8282 92.5418 -88.8093 92.2747 -88.7285 90.4618L-88.7844 90.4614Z" fill="#FFBD0C"/>
<path d="M164.302 84.265C164.378 84.1525 164.454 84.046 164.529 83.947C164.574 83.8887 164.619 83.8329 164.663 83.78C164.569 84.0246 164.475 84.1692 164.381 84.2316C164.355 84.2491 164.328 84.2602 164.302 84.265Z" fill="#FFBD0C"/>
</svg>
