<svg width="348" height="22" viewBox="0 0 348 22" fill="none" xmlns="http://www.w3.org/2000/svg">
<path d="M6.344 0.975998L0.44 22H24.74C25.892 21.784 26.744 21.148 27.296 20.092L29.564 12.1C29.588 11.116 29.096 10.3 28.088 9.652L29.924 2.956C30.02 1.924 29.54 1.264 28.484 0.975998H6.344ZM11.42 6.304H22.436L21.752 8.86H13.58L12.068 14.152H22.22L21.464 16.672H8.468L11.42 6.304ZM42.0397 0.975998L37.6117 16.672H51.9757L50.4997 22H31.6357C30.5797 21.784 30.0877 21.148 30.1597 20.092L35.5237 0.975998H42.0397ZM63.8245 22L67.3165 16.672H71.4565L70.5205 6.664L60.1885 22H52.6645L67.3525 0.975998H76.6405L79.5565 22H63.8245ZM89.6044 0.975998C88.5964 1.192 87.8044 1.768 87.2284 2.704L84.4924 12.208C84.3724 12.712 84.4564 13.168 84.7444 13.576C85.0324 13.96 85.4284 14.152 85.9324 14.152H102.024L101.268 16.672H83.2324L81.7564 22H104.472C105.432 21.832 106.224 21.256 106.848 20.272L109.476 11.056C109.62 10.48 109.548 9.976 109.26 9.544C108.996 9.088 108.636 8.86 108.18 8.86H92.0884L92.7724 6.304H110.772L112.248 0.975998H89.6044ZM139.741 0.975998L138.265 6.304H127.177L124.225 16.672H129.625L128.149 22H118.213C117.181 21.784 116.701 21.148 116.773 20.092L120.661 6.304H113.677L115.153 0.975998H139.741ZM147.721 6.304H161.761L158.809 16.672H144.769L147.721 6.304ZM144.625 0.975998C144.073 1.096 143.593 1.324 143.185 1.66C142.777 1.972 142.405 2.404 142.069 2.956L137.281 20.092C137.257 21.124 137.737 21.76 138.721 22H161.689C162.169 21.904 162.637 21.712 163.093 21.424C163.549 21.136 163.945 20.752 164.281 20.272L169.249 2.704C169.201 2.224 169.021 1.852 168.709 1.588C168.397 1.3 168.025 1.096 167.593 0.975998H144.625ZM172.563 0.975998L167.199 20.092C167.175 21.124 167.655 21.76 168.639 22H189.267C190.395 21.784 191.235 21.148 191.787 20.092L197.151 0.975998H190.599L186.171 16.672H174.687L179.115 0.975998H172.563ZM224.643 0.975998L223.167 6.304H212.079L209.127 16.672H214.527L213.051 22H203.115C202.083 21.784 201.603 21.148 201.675 20.092L205.563 6.304H198.579L200.055 0.975998H224.643ZM265.696 0.975998C266.608 1.192 267.1 1.768 267.172 2.704L264.364 12.496C264.1 12.832 263.764 13.144 263.356 13.432C262.948 13.696 262.492 13.936 261.988 14.152H245.896L245.14 16.672H263.176L261.7 22H237.148L240.388 10.516C240.796 9.964 241.204 9.58 241.612 9.364C242.02 9.148 242.452 8.98 242.908 8.86H258.856L259.54 6.304H243.772L245.248 0.975998H265.696ZM275.584 6.304H287.212L284.26 16.672H272.632L275.584 6.304ZM272.488 0.975998C271.936 1.096 271.456 1.324 271.048 1.66C270.64 1.972 270.268 2.404 269.932 2.956L265.144 20.092C265.12 21.124 265.6 21.76 266.584 22H287.356C288.316 21.832 289.108 21.256 289.732 20.272L294.7 2.704C294.628 1.768 294.148 1.192 293.26 0.975998H272.488ZM320.715 0.975998C321.627 1.192 322.119 1.768 322.191 2.704L319.383 12.496C319.119 12.832 318.783 13.144 318.375 13.432C317.967 13.696 317.511 13.936 317.007 14.152H300.915L300.159 16.672H318.195L316.719 22H292.167L295.407 10.516C295.815 9.964 296.223 9.58 296.631 9.364C297.039 9.148 297.471 8.98 297.927 8.86H313.875L314.559 6.304H298.791L300.267 0.975998H320.715ZM325.564 0.975998L324.088 6.304H340.18L339.496 8.86H331.324L329.812 14.152H339.964L339.208 16.672H321.1L319.624 22H342.484C343.612 21.784 344.452 21.148 345.004 20.092L347.272 12.1C347.272 11.596 347.164 11.14 346.948 10.732C346.732 10.324 346.36 9.964 345.832 9.652L347.668 2.956C347.764 1.924 347.284 1.264 346.228 0.975998H325.564Z" fill="white"/>
<path d="M6.344 0.975998L0.44 22H24.74C25.892 21.784 26.744 21.148 27.296 20.092L29.564 12.1C29.588 11.116 29.096 10.3 28.088 9.652L29.924 2.956C30.02 1.924 29.54 1.264 28.484 0.975998H6.344ZM11.42 6.304H22.436L21.752 8.86H13.58L12.068 14.152H22.22L21.464 16.672H8.468L11.42 6.304ZM42.0397 0.975998L37.6117 16.672H51.9757L50.4997 22H31.6357C30.5797 21.784 30.0877 21.148 30.1597 20.092L35.5237 0.975998H42.0397ZM63.8245 22L67.3165 16.672H71.4565L70.5205 6.664L60.1885 22H52.6645L67.3525 0.975998H76.6405L79.5565 22H63.8245ZM89.6044 0.975998C88.5964 1.192 87.8044 1.768 87.2284 2.704L84.4924 12.208C84.3724 12.712 84.4564 13.168 84.7444 13.576C85.0324 13.96 85.4284 14.152 85.9324 14.152H102.024L101.268 16.672H83.2324L81.7564 22H104.472C105.432 21.832 106.224 21.256 106.848 20.272L109.476 11.056C109.62 10.48 109.548 9.976 109.26 9.544C108.996 9.088 108.636 8.86 108.18 8.86H92.0884L92.7724 6.304H110.772L112.248 0.975998H89.6044ZM139.741 0.975998L138.265 6.304H127.177L124.225 16.672H129.625L128.149 22H118.213C117.181 21.784 116.701 21.148 116.773 20.092L120.661 6.304H113.677L115.153 0.975998H139.741ZM147.721 6.304H161.761L158.809 16.672H144.769L147.721 6.304ZM144.625 0.975998C144.073 1.096 143.593 1.324 143.185 1.66C142.777 1.972 142.405 2.404 142.069 2.956L137.281 20.092C137.257 21.124 137.737 21.76 138.721 22H161.689C162.169 21.904 162.637 21.712 163.093 21.424C163.549 21.136 163.945 20.752 164.281 20.272L169.249 2.704C169.201 2.224 169.021 1.852 168.709 1.588C168.397 1.3 168.025 1.096 167.593 0.975998H144.625ZM172.563 0.975998L167.199 20.092C167.175 21.124 167.655 21.76 168.639 22H189.267C190.395 21.784 191.235 21.148 191.787 20.092L197.151 0.975998H190.599L186.171 16.672H174.687L179.115 0.975998H172.563ZM224.643 0.975998L223.167 6.304H212.079L209.127 16.672H214.527L213.051 22H203.115C202.083 21.784 201.603 21.148 201.675 20.092L205.563 6.304H198.579L200.055 0.975998H224.643ZM265.696 0.975998C266.608 1.192 267.1 1.768 267.172 2.704L264.364 12.496C264.1 12.832 263.764 13.144 263.356 13.432C262.948 13.696 262.492 13.936 261.988 14.152H245.896L245.14 16.672H263.176L261.7 22H237.148L240.388 10.516C240.796 9.964 241.204 9.58 241.612 9.364C242.02 9.148 242.452 8.98 242.908 8.86H258.856L259.54 6.304H243.772L245.248 0.975998H265.696ZM275.584 6.304H287.212L284.26 16.672H272.632L275.584 6.304ZM272.488 0.975998C271.936 1.096 271.456 1.324 271.048 1.66C270.64 1.972 270.268 2.404 269.932 2.956L265.144 20.092C265.12 21.124 265.6 21.76 266.584 22H287.356C288.316 21.832 289.108 21.256 289.732 20.272L294.7 2.704C294.628 1.768 294.148 1.192 293.26 0.975998H272.488ZM320.715 0.975998C321.627 1.192 322.119 1.768 322.191 2.704L319.383 12.496C319.119 12.832 318.783 13.144 318.375 13.432C317.967 13.696 317.511 13.936 317.007 14.152H300.915L300.159 16.672H318.195L316.719 22H292.167L295.407 10.516C295.815 9.964 296.223 9.58 296.631 9.364C297.039 9.148 297.471 8.98 297.927 8.86H313.875L314.559 6.304H298.791L300.267 0.975998H320.715ZM325.564 0.975998L324.088 6.304H340.18L339.496 8.86H331.324L329.812 14.152H339.964L339.208 16.672H321.1L319.624 22H342.484C343.612 21.784 344.452 21.148 345.004 20.092L347.272 12.1C347.272 11.596 347.164 11.14 346.948 10.732C346.732 10.324 346.36 9.964 345.832 9.652L347.668 2.956C347.764 1.924 347.284 1.264 346.228 0.975998H325.564Z" fill="url(#paint0_linear_955_248)"/>
<path d="M6.344 0.975998V-13.8411C-0.296418 -13.8411 -6.12593 -9.42312 -7.92126 -3.03L6.344 0.975998ZM0.44 22L-13.8253 17.994C-15.0791 22.4589 -14.1701 27.2534 -11.369 30.9495C-8.5678 34.6457 -4.19766 36.8171 0.44 36.8171V22ZM24.74 22V36.8171C25.6561 36.8171 26.5702 36.7321 27.4706 36.5633L24.74 22ZM27.296 20.092L40.4273 26.9561C40.8971 26.0573 41.2734 25.1127 41.5502 24.1371L27.296 20.092ZM29.564 12.1L43.8182 16.1451C44.1586 14.9456 44.3463 13.7078 44.3767 12.4613L29.564 12.1ZM28.088 9.652L13.7984 5.73387C12.0858 11.9795 14.6279 18.6138 20.0756 22.1158L28.088 9.652ZM29.924 2.956L44.2136 6.87413C44.4422 6.0407 44.5973 5.18888 44.6774 4.32841L29.924 2.956ZM28.484 0.975998L32.3826 -13.319C31.1121 -13.6655 29.801 -13.8411 28.484 -13.8411V0.975998ZM11.42 6.304V-8.51307C4.79943 -8.51307 -1.01773 -4.121 -2.8307 2.24651L11.42 6.304ZM22.436 6.304L36.7494 10.1343C37.94 5.68526 36.9941 0.935503 34.1897 -2.71795C31.3854 -6.3714 27.0416 -8.51307 22.436 -8.51307V6.304ZM21.752 8.86V23.6771C28.4601 23.6771 34.3313 19.1704 36.0654 12.6904L21.752 8.86ZM13.58 8.86V-5.95707C6.96447 -5.95707 1.15046 -1.57156 -0.66697 4.78943L13.58 8.86ZM12.068 14.152L-2.17897 10.0814C-3.45628 14.552 -2.56108 19.3629 0.238809 23.0748C3.03869 26.7867 7.41854 28.9691 12.068 28.9691V14.152ZM22.22 14.152L36.4122 18.4097C37.7581 13.9234 36.9035 9.06499 34.1076 5.30724C31.3118 1.54949 26.9038 -0.665074 22.22 -0.665074V14.152ZM21.464 16.672V31.4891C28.0073 31.4891 33.776 27.197 35.6562 20.9297L21.464 16.672ZM8.468 16.672L-5.7827 12.6145C-7.05525 17.0839 -6.15724 21.8915 -3.3571 25.6002C-0.556951 29.3089 3.82093 31.4891 8.468 31.4891V16.672ZM-7.92126 -3.03L-13.8253 17.994L14.7053 26.006L20.6093 4.982L-7.92126 -3.03ZM0.44 36.8171H24.74V7.18293H0.44V36.8171ZM27.4706 36.5633C33.1723 35.4942 37.8124 31.9585 40.4273 26.9561L14.1647 13.2279C14.7926 12.0267 15.8209 10.6508 17.3795 9.4873C18.9449 8.31877 20.5933 7.70222 22.0094 7.43671L27.4706 36.5633ZM41.5502 24.1371L43.8182 16.1451L15.3098 8.05488L13.0418 16.0469L41.5502 24.1371ZM44.3767 12.4613C44.5556 5.12335 40.3574 -0.0751691 36.1004 -2.8118L20.0756 22.1158C19.1514 21.5217 17.7101 20.368 16.524 18.4007C15.2645 16.3118 14.697 13.967 14.7513 11.7387L44.3767 12.4613ZM42.3776 13.5701L44.2136 6.87413L15.6344 -0.96213L13.7984 5.73387L42.3776 13.5701ZM44.6774 4.32841C44.9662 1.22364 44.502 -3.06404 41.6191 -7.02798C38.8132 -10.8862 35.0531 -12.5907 32.3826 -13.319L24.5854 15.271C22.9709 14.8307 19.9788 13.6001 17.6529 10.402C15.25 7.09803 14.9778 3.65635 15.1706 1.58359L44.6774 4.32841ZM28.484 -13.8411H6.344V15.7931H28.484V-13.8411ZM11.42 21.1211H22.436V-8.51307H11.42V21.1211ZM8.12258 2.47365L7.43858 5.02965L36.0654 12.6904L36.7494 10.1343L8.12258 2.47365ZM21.752 -5.95707H13.58V23.6771H21.752V-5.95707ZM-0.66697 4.78943L-2.17897 10.0814L26.315 18.2226L27.827 12.9306L-0.66697 4.78943ZM12.068 28.9691H22.22V-0.665074H12.068V28.9691ZM8.02782 9.89434L7.27182 12.4143L35.6562 20.9297L36.4122 18.4097L8.02782 9.89434ZM21.464 1.85493H8.468V31.4891H21.464V1.85493ZM22.7187 20.7295L25.6707 10.3615L-2.8307 2.24651L-5.7827 12.6145L22.7187 20.7295ZM42.0397 0.975998L56.3002 4.99902C57.5602 0.532583 56.6548 -4.26621 53.854 -7.96649C51.0532 -11.6668 46.6805 -13.8411 42.0397 -13.8411V0.975998ZM37.6117 16.672L23.3512 12.649C22.0912 17.1154 22.9966 21.9142 25.7974 25.6145C28.5982 29.3148 32.9709 31.4891 37.6117 31.4891V16.672ZM51.9757 16.672L66.255 20.6277C67.4906 16.1673 66.571 11.3856 63.7689 7.70168C60.9668 4.01779 56.6042 1.85493 51.9757 1.85493V16.672ZM50.4997 22V36.8171C57.1595 36.8171 63.001 32.3738 64.779 25.9557L50.4997 22ZM31.6357 22L28.6664 36.5165C29.6435 36.7164 30.6383 36.8171 31.6357 36.8171V22ZM30.1597 20.092L15.8936 16.0889C15.6192 17.0669 15.446 18.0706 15.3769 19.0841L30.1597 20.092ZM35.5237 0.975998V-13.8411C28.8822 -13.8411 23.0519 -9.42166 21.2576 -3.0271L35.5237 0.975998ZM27.7792 -3.04702L23.3512 12.649L51.8722 20.695L56.3002 4.99902L27.7792 -3.04702ZM37.6117 31.4891H51.9757V1.85493H37.6117V31.4891ZM37.6964 12.7163L36.2204 18.0443L64.779 25.9557L66.255 20.6277L37.6964 12.7163ZM50.4997 7.18293H31.6357V36.8171H50.4997V7.18293ZM34.605 7.48349C36.3585 7.84217 39.6255 8.97417 42.1944 12.2948C44.793 15.6541 45.0736 19.1759 44.9424 21.0999L15.3769 19.0841C15.1737 22.0641 15.6644 26.4319 18.755 30.4272C21.8158 34.3838 25.8569 35.9418 28.6664 36.5165L34.605 7.48349ZM44.4258 24.0951L49.7898 4.9791L21.2576 -3.0271L15.8936 16.0889L44.4258 24.0951ZM35.5237 15.7931H42.0397V-13.8411H35.5237V15.7931ZM63.8245 22L51.4319 13.8778C48.4479 18.4307 48.2007 24.2533 50.7881 29.0427C53.3755 33.8321 58.3808 36.8171 63.8245 36.8171V22ZM67.3165 16.672V1.85493C62.3212 1.85493 57.6621 4.37191 54.9239 8.54983L67.3165 16.672ZM71.4565 16.672V31.4891C75.6262 31.4891 79.6029 29.7322 82.4107 26.6495C85.2185 23.5669 86.5974 19.4438 86.2092 15.2923L71.4565 16.672ZM70.5205 6.664L85.2732 5.28425C84.6901 -0.950253 80.2508 -6.14518 74.1835 -7.69317C68.1161 -9.24115 61.7307 -6.80797 58.232 -1.61485L70.5205 6.664ZM60.1885 22V36.8171C65.1171 36.8171 69.7231 34.3664 72.4769 30.2788L60.1885 22ZM52.6645 22L40.518 13.5141C37.3553 18.0412 36.9726 23.9516 39.5252 28.8487C42.0778 33.7459 47.142 36.8171 52.6645 36.8171V22ZM67.3525 0.975998V-13.8411C62.5126 -13.8411 57.9778 -11.4774 55.206 -7.50986L67.3525 0.975998ZM76.6405 0.975998L91.317 -1.05962C90.3009 -8.38616 84.0371 -13.8411 76.6405 -13.8411V0.975998ZM79.5565 22V36.8171C83.8413 36.8171 87.9163 34.9622 90.7303 31.731C93.5443 28.4997 94.8217 24.2085 94.233 19.9644L79.5565 22ZM76.217 30.1222L79.7091 24.7942L54.9239 8.54983L51.4319 13.8778L76.217 30.1222ZM67.3165 31.4891H71.4565V1.85493H67.3165V31.4891ZM86.2092 15.2923L85.2732 5.28425L55.7678 8.04375L56.7038 18.0517L86.2092 15.2923ZM58.232 -1.61485L47.9 13.7212L72.4769 30.2788L82.8089 14.9428L58.232 -1.61485ZM60.1885 7.18293H52.6645V36.8171H60.1885V7.18293ZM64.8109 30.4859L79.4989 9.46186L55.206 -7.50986L40.518 13.5141L64.8109 30.4859ZM67.3525 15.7931H76.6405V-13.8411H67.3525V15.7931ZM61.9639 3.01162L64.8799 24.0356L94.233 19.9644L91.317 -1.05962L61.9639 3.01162ZM79.5565 7.18293H63.8245V36.8171H79.5565V7.18293ZM89.6044 0.975998V-13.8411C88.5608 -13.8411 87.5202 -13.7308 86.4998 -13.5122L89.6044 0.975998ZM87.2284 2.704L74.6093 -5.06159C73.9058 -3.91842 73.3609 -2.68495 72.9896 -1.39505L87.2284 2.704ZM84.4924 12.208L70.2536 8.10895C70.19 8.32993 70.1315 8.55236 70.0783 8.77606L84.4924 12.208ZM84.7444 13.576L72.6393 22.1208C72.7215 22.2371 72.8053 22.3523 72.8907 22.4662L84.7444 13.576ZM102.024 14.152L116.217 18.4097C117.562 13.9234 116.708 9.06499 113.912 5.30724C111.116 1.54949 106.708 -0.665074 102.024 -0.665074V14.152ZM101.268 16.672V31.4891C107.812 31.4891 113.58 27.197 115.461 20.9297L101.268 16.672ZM83.2324 16.672V1.85493C76.5726 1.85493 70.7311 6.2982 68.9531 12.7163L83.2324 16.672ZM81.7564 22L67.4771 18.0443C66.2415 22.5047 67.1611 27.2864 69.9632 30.9703C72.7653 34.6542 77.1279 36.8171 81.7564 36.8171V22ZM104.472 22V36.8171C105.329 36.8171 106.183 36.7429 107.027 36.5953L104.472 22ZM106.848 20.272L119.362 28.2072C120.123 27.0065 120.708 25.7025 121.097 24.3352L106.848 20.272ZM109.476 11.056L123.725 15.1192C123.77 14.9634 123.812 14.8069 123.851 14.6497L109.476 11.056ZM109.26 9.544L96.4373 16.9679C96.5938 17.2381 96.7587 17.5033 96.9319 17.763L109.26 9.544ZM92.0884 8.86L77.775 5.02965C76.5844 9.47874 77.5304 14.2285 80.3347 17.8819C83.139 21.5354 87.4828 23.6771 92.0884 23.6771V8.86ZM92.7724 6.304V-8.51307C86.0643 -8.51307 80.1931 -4.00639 78.459 2.47365L92.7724 6.304ZM110.772 6.304V21.1211C117.432 21.1211 123.274 16.6778 125.052 10.2597L110.772 6.304ZM112.248 0.975998L126.528 4.93174C127.763 0.471254 126.844 -4.31042 124.042 -7.99432C121.239 -11.6782 116.877 -13.8411 112.248 -13.8411V0.975998ZM86.4998 -13.5122C81.2527 -12.3878 77.1494 -9.18923 74.6093 -5.06159L99.8475 10.4696C99.2455 11.4478 98.3177 12.5725 96.9694 13.5531C95.6032 14.5467 94.1209 15.1616 92.709 15.4642L86.4998 -13.5122ZM72.9896 -1.39505L70.2536 8.10895L98.7312 16.307L101.467 6.80305L72.9896 -1.39505ZM70.0783 8.77606C69.0149 13.2422 69.7953 18.0916 72.6393 22.1208L96.8495 5.03125C97.8453 6.44201 98.6615 8.20359 99.0373 10.2437C99.4104 12.269 99.2679 14.1224 98.9065 15.6399L70.0783 8.77606ZM72.8907 22.4662C76.1367 26.7941 81.0373 28.9691 85.9324 28.9691V-0.665074C87.5939 -0.665074 89.6309 -0.338343 91.7217 0.675388C93.8367 1.70084 95.4563 3.16345 96.5981 4.68576L72.8907 22.4662ZM85.9324 28.9691H102.024V-0.665074H85.9324V28.9691ZM87.8322 9.89434L87.0762 12.4143L115.461 20.9297L116.217 18.4097L87.8322 9.89434ZM101.268 1.85493H83.2324V31.4891H101.268V1.85493ZM68.9531 12.7163L67.4771 18.0443L96.0357 25.9557L97.5117 20.6277L68.9531 12.7163ZM81.7564 36.8171H104.472V7.18293H81.7564V36.8171ZM107.027 36.5953C112.896 35.5682 116.979 31.9646 119.362 28.2072L94.3353 12.3368C94.8373 11.5451 95.7005 10.4559 97.0714 9.45889C98.4938 8.42446 100.161 7.71222 101.918 7.40473L107.027 36.5953ZM121.097 24.3352L123.725 15.1192L95.2273 6.99279L92.5993 16.2088L121.097 24.3352ZM123.851 14.6497C124.847 10.665 124.536 5.74488 121.589 1.32496L96.9319 17.763C95.8737 16.1758 95.1455 14.3241 94.8623 12.3415C94.586 10.408 94.785 8.72914 95.1017 7.46234L123.851 14.6497ZM122.083 2.12012C119.662 -2.06193 114.837 -5.95707 108.18 -5.95707V23.6771C105.807 23.6771 103.224 23.0429 100.864 21.5487C98.6035 20.1168 97.224 18.3267 96.4373 16.9679L122.083 2.12012ZM108.18 -5.95707H92.0884V23.6771H108.18V-5.95707ZM106.402 12.6904L107.086 10.1343L78.459 2.47365L77.775 5.02965L106.402 12.6904ZM92.7724 21.1211H110.772V-8.51307H92.7724V21.1211ZM125.052 10.2597L126.528 4.93174L97.9691 -2.97975L96.4931 2.34825L125.052 10.2597ZM112.248 -13.8411H89.6044V15.7931H112.248V-13.8411ZM139.741 0.975998L154.02 4.93174C155.256 0.471254 154.336 -4.31042 151.534 -7.99432C148.732 -11.6782 144.369 -13.8411 139.741 -13.8411V0.975998ZM138.265 6.304V21.1211C144.924 21.1211 150.766 16.6778 152.544 10.2597L138.265 6.304ZM127.177 6.304V-8.51307C120.556 -8.51307 114.739 -4.121 112.926 2.24651L127.177 6.304ZM124.225 16.672L109.974 12.6145C108.701 17.0839 109.599 21.8915 112.399 25.6002C115.2 29.3089 119.578 31.4891 124.225 31.4891V16.672ZM129.625 16.672L143.904 20.6277C145.14 16.1673 144.22 11.3856 141.418 7.70168C138.616 4.01779 134.253 1.85493 129.625 1.85493V16.672ZM128.149 22V36.8171C134.808 36.8171 140.65 32.3738 142.428 25.9557L128.149 22ZM118.213 22L115.177 36.5028C116.175 36.7118 117.193 36.8171 118.213 36.8171V22ZM116.773 20.092L102.512 16.0706C102.234 17.0544 102.059 18.0643 101.99 19.0841L116.773 20.092ZM120.661 6.304L134.922 10.3254C136.181 5.85907 135.275 1.0607 132.474 -2.63918C129.674 -6.33906 125.301 -8.51307 120.661 -8.51307V6.304ZM113.677 6.304L99.3973 2.34825C98.1616 6.80874 99.0813 11.5904 101.883 15.2743C104.686 18.9582 109.048 21.1211 113.677 21.1211V6.304ZM115.153 0.975998V-13.8411C108.493 -13.8411 102.651 -9.3978 100.873 -2.97975L115.153 0.975998ZM125.461 -2.97975L123.985 2.34825L152.544 10.2597L154.02 4.93174L125.461 -2.97975ZM138.265 -8.51307H127.177V21.1211H138.265V-8.51307ZM112.926 2.24651L109.974 12.6145L138.475 20.7295L141.427 10.3615L112.926 2.24651ZM124.225 31.4891H129.625V1.85493H124.225V31.4891ZM115.345 12.7163L113.869 18.0443L142.428 25.9557L143.904 20.6277L115.345 12.7163ZM128.149 7.18293H118.213V36.8171H128.149V7.18293ZM121.248 7.49719C123.089 7.88249 126.369 9.07482 128.905 12.4351C131.435 15.7872 131.681 19.2529 131.555 21.0999L101.99 19.0841C101.792 21.9871 102.242 26.2988 105.252 30.2869C108.268 34.2832 112.304 35.9015 115.177 36.5028L121.248 7.49719ZM131.034 24.1134L134.922 10.3254L106.4 2.28264L102.512 16.0706L131.034 24.1134ZM120.661 -8.51307H113.677V21.1211H120.661V-8.51307ZM127.956 10.2597L129.432 4.93174L100.873 -2.97975L99.3973 2.34825L127.956 10.2597ZM115.153 15.7931H139.741V-13.8411H115.153V15.7931ZM147.721 6.304V-8.51307C141.1 -8.51307 135.283 -4.121 133.47 2.24651L147.721 6.304ZM161.761 6.304L176.011 10.3615C177.284 5.89205 176.386 1.08449 173.586 -2.6242C170.786 -6.3329 166.408 -8.51307 161.761 -8.51307V6.304ZM158.809 16.672V31.4891C165.429 31.4891 171.247 27.097 173.059 20.7295L158.809 16.672ZM144.769 16.672L130.518 12.6145C129.246 17.0839 130.144 21.8915 132.944 25.6002C135.744 29.3089 140.122 31.4891 144.769 31.4891V16.672ZM144.625 0.975998V-13.8411C143.567 -13.8411 142.511 -13.7277 141.477 -13.5029L144.625 0.975998ZM143.185 1.66L152.185 13.4301C152.327 13.3218 152.467 13.211 152.604 13.0977L143.185 1.66ZM142.069 2.956L129.412 -4.74809C128.706 -3.58892 128.163 -2.33831 127.798 -1.03134L142.069 2.956ZM137.281 20.092L123.01 16.1047C122.679 17.2917 122.496 18.5154 122.468 19.7475L137.281 20.092ZM138.721 22L135.21 36.3951C136.359 36.6754 137.538 36.8171 138.721 36.8171V22ZM161.689 22V36.8171C162.665 36.8171 163.638 36.7207 164.595 36.5293L161.689 22ZM163.093 21.424L155.181 8.89633L163.093 21.424ZM164.281 20.272L176.419 28.7691C177.371 27.4098 178.087 25.9005 178.539 24.304L164.281 20.272ZM169.249 2.704L183.507 6.73596C184.013 4.94724 184.177 3.07931 183.992 1.22967L169.249 2.704ZM168.709 1.588L158.659 12.4756C158.815 12.6202 158.975 12.7614 159.138 12.8992L168.709 1.588ZM167.593 0.975998L171.558 -13.3005C170.267 -13.6592 168.933 -13.8411 167.593 -13.8411V0.975998ZM147.721 21.1211H161.761V-8.51307H147.721V21.1211ZM147.51 2.24651L144.558 12.6145L173.059 20.7295L176.011 10.3615L147.51 2.24651ZM158.809 1.85493H144.769V31.4891H158.809V1.85493ZM159.019 20.7295L161.971 10.3615L133.47 2.24651L130.518 12.6145L159.019 20.7295ZM141.477 -13.5029C138.785 -12.9176 136.117 -11.714 133.765 -9.77773L152.604 13.0977C151.069 14.362 149.361 15.1096 147.772 15.4549L141.477 -13.5029ZM134.184 -10.1101C131.993 -8.43426 130.467 -6.48099 129.412 -4.74809L154.726 10.6601C154.343 11.289 153.561 12.3783 152.185 13.4301L134.184 -10.1101ZM127.798 -1.03134L123.01 16.1047L151.551 24.0793L156.339 6.94334L127.798 -1.03134ZM122.468 19.7475C122.401 22.6057 123.017 26.5864 125.796 30.2689C128.6 33.9838 132.317 35.6894 135.21 36.3951L142.232 7.60491C144.141 8.07059 147.126 9.33815 149.45 12.4171C151.749 15.4636 152.136 18.6103 152.094 20.4365L122.468 19.7475ZM138.721 36.8171H161.689V7.18293H138.721V36.8171ZM164.595 36.5293C167.024 36.0435 169.173 35.109 171.005 33.9517L155.181 8.89633C156.101 8.31501 157.313 7.76455 158.783 7.47066L164.595 36.5293ZM171.005 33.9517C173.262 32.5261 175.054 30.7195 176.419 28.7691L152.142 11.7749C152.835 10.7845 153.835 9.74586 155.181 8.89633L171.005 33.9517ZM178.539 24.304L183.507 6.73596L154.991 -1.32796L150.023 16.24L178.539 24.304ZM183.992 1.22967C183.636 -2.33784 182.048 -6.53428 178.28 -9.72317L159.138 12.8992C155.993 10.2383 154.766 6.78584 154.505 4.17833L183.992 1.22967ZM178.759 -9.29963C176.62 -11.2741 174.128 -12.5866 171.558 -13.3005L163.627 15.2525C161.921 14.7786 160.174 13.8741 158.659 12.4756L178.759 -9.29963ZM167.593 -13.8411H144.625V15.7931H167.593V-13.8411ZM172.563 0.975998V-13.8411C165.921 -13.8411 160.091 -9.42166 158.297 -3.0271L172.563 0.975998ZM167.199 20.092L152.933 16.0889C152.598 17.2808 152.414 18.5099 152.386 19.7475L167.199 20.092ZM168.639 22L165.128 36.3951C166.277 36.6754 167.456 36.8171 168.639 36.8171V22ZM189.267 22V36.8171C190.202 36.8171 191.135 36.7285 192.053 36.5527L189.267 22ZM191.787 20.092L204.918 26.9561C205.395 26.0444 205.775 25.0856 206.053 24.0951L191.787 20.092ZM197.151 0.975998L211.417 4.9791C212.67 0.514408 211.76 -4.27931 208.959 -7.97474C206.158 -11.6702 201.788 -13.8411 197.151 -13.8411V0.975998ZM190.599 0.975998V-13.8411C183.965 -13.8411 178.139 -9.43168 176.338 -3.04702L190.599 0.975998ZM186.171 16.672V31.4891C192.805 31.4891 198.63 27.0797 200.431 20.695L186.171 16.672ZM174.687 16.672L160.426 12.649C159.166 17.1154 160.072 21.9142 162.872 25.6145C165.673 29.3148 170.046 31.4891 174.687 31.4891V16.672ZM179.115 0.975998L193.375 4.99902C194.635 0.532583 193.73 -4.26621 190.929 -7.96649C188.128 -11.6668 183.756 -13.8411 179.115 -13.8411V0.975998ZM158.297 -3.0271L152.933 16.0889L181.465 24.0951L186.829 4.9791L158.297 -3.0271ZM152.386 19.7475C152.319 22.6057 152.935 26.5864 155.714 30.2689C158.518 33.9838 162.234 35.6894 165.128 36.3951L172.15 7.60491C174.059 8.07059 177.044 9.33815 179.368 12.4171C181.667 15.4636 182.054 18.6103 182.012 20.4365L152.386 19.7475ZM168.639 36.8171H189.267V7.18293H168.639V36.8171ZM192.053 36.5527C197.812 35.45 202.363 31.8445 204.918 26.9561L178.655 13.2279C179.26 12.0722 180.259 10.7135 181.799 9.54797C183.353 8.37133 185.013 7.72822 186.48 7.44733L192.053 36.5527ZM206.053 24.0951L211.417 4.9791L182.885 -3.0271L177.521 16.0889L206.053 24.0951ZM197.151 -13.8411H190.599V15.7931H197.151V-13.8411ZM176.338 -3.04702L171.91 12.649L200.431 20.695L204.859 4.99902L176.338 -3.04702ZM186.171 1.85493H174.687V31.4891H186.171V1.85493ZM188.947 20.695L193.375 4.99902L164.854 -3.04702L160.426 12.649L188.947 20.695ZM179.115 -13.8411H172.563V15.7931H179.115V-13.8411ZM224.643 0.975998L238.922 4.93174C240.158 0.471254 239.238 -4.31042 236.436 -7.99432C233.634 -11.6782 229.271 -13.8411 224.643 -13.8411V0.975998ZM223.167 6.304V21.1211C229.827 21.1211 235.668 16.6778 237.446 10.2597L223.167 6.304ZM212.079 6.304V-8.51307C205.458 -8.51307 199.641 -4.121 197.828 2.24651L212.079 6.304ZM209.127 16.672L194.876 12.6145C193.604 17.0839 194.502 21.8915 197.302 25.6002C200.102 29.3089 204.48 31.4891 209.127 31.4891V16.672ZM214.527 16.672L228.806 20.6277C230.042 16.1673 229.122 11.3856 226.32 7.70168C223.518 4.01779 219.155 1.85493 214.527 1.85493V16.672ZM213.051 22V36.8171C219.711 36.8171 225.552 32.3738 227.33 25.9557L213.051 22ZM203.115 22L200.079 36.5028C201.078 36.7118 202.095 36.8171 203.115 36.8171V22ZM201.675 20.092L187.414 16.0706C187.137 17.0544 186.962 18.0643 186.892 19.0841L201.675 20.092ZM205.563 6.304L219.824 10.3254C221.083 5.85907 220.178 1.0607 217.377 -2.63918C214.576 -6.33906 210.203 -8.51307 205.563 -8.51307V6.304ZM198.579 6.304L184.3 2.34825C183.064 6.80874 183.984 11.5904 186.786 15.2743C189.588 18.9582 193.95 21.1211 198.579 21.1211V6.304ZM200.055 0.975998V-13.8411C193.395 -13.8411 187.554 -9.3978 185.776 -2.97975L200.055 0.975998ZM210.364 -2.97975L208.888 2.34825L237.446 10.2597L238.922 4.93174L210.364 -2.97975ZM223.167 -8.51307H212.079V21.1211H223.167V-8.51307ZM197.828 2.24651L194.876 12.6145L223.378 20.7295L226.33 10.3615L197.828 2.24651ZM209.127 31.4891H214.527V1.85493H209.127V31.4891ZM200.248 12.7163L198.772 18.0443L227.33 25.9557L228.806 20.6277L200.248 12.7163ZM213.051 7.18293H203.115V36.8171H213.051V7.18293ZM206.15 7.49719C207.991 7.88249 211.272 9.07482 213.808 12.4351C216.338 15.7872 216.584 19.2529 216.458 21.0999L186.892 19.0841C186.694 21.9871 187.144 26.2988 190.154 30.2869C193.17 34.2832 197.207 35.9015 200.079 36.5028L206.15 7.49719ZM215.936 24.1134L219.824 10.3254L191.302 2.28264L187.414 16.0706L215.936 24.1134ZM205.563 -8.51307H198.579V21.1211H205.563V-8.51307ZM212.858 10.2597L214.334 4.93174L185.776 -2.97975L184.3 2.34825L212.858 10.2597ZM200.055 15.7931H224.643V-13.8411H200.055V15.7931ZM265.696 0.975998L269.111 -13.4422C267.992 -13.7072 266.846 -13.8411 265.696 -13.8411V0.975998ZM267.172 2.704L281.415 6.78839C281.901 5.09354 282.081 3.32555 281.945 1.56757L267.172 2.704ZM264.364 12.496L276.015 21.6503C277.198 20.1438 278.079 18.4221 278.607 16.5804L264.364 12.496ZM263.356 13.432L271.405 25.872C271.573 25.7637 271.738 25.652 271.901 25.5371L263.356 13.432ZM261.988 14.152V28.9691C263.995 28.9691 265.98 28.5615 267.825 27.771L261.988 14.152ZM245.896 14.152V-0.665074C239.353 -0.665074 233.584 3.62696 231.704 9.89435L245.896 14.152ZM245.14 16.672L230.948 12.4143C229.602 16.9006 230.456 21.759 233.252 25.5168C236.048 29.2745 240.456 31.4891 245.14 31.4891V16.672ZM263.176 16.672L277.455 20.6277C278.691 16.1673 277.771 11.3856 274.969 7.70168C272.167 4.01779 267.804 1.85493 263.176 1.85493V16.672ZM261.7 22V36.8171C268.36 36.8171 274.201 32.3738 275.979 25.9557L261.7 22ZM237.148 22L222.887 17.9767C221.627 22.4432 222.533 27.242 225.333 30.9424C228.134 34.6427 232.507 36.8171 237.148 36.8171V22ZM240.388 10.516L228.472 1.70887C227.408 3.14871 226.614 4.76951 226.127 6.49269L240.388 10.516ZM242.908 8.86V-5.95707C241.635 -5.95707 240.368 -5.79311 239.137 -5.46922L242.908 8.86ZM258.856 8.86V23.6771C265.564 23.6771 271.435 19.1704 273.169 12.6904L258.856 8.86ZM259.54 6.304L273.853 10.1343C275.044 5.68526 274.098 0.935503 271.294 -2.71795C268.489 -6.3714 264.146 -8.51307 259.54 -8.51307V6.304ZM243.772 6.304L229.493 2.34826C228.257 6.80874 229.177 11.5904 231.979 15.2743C234.781 18.9582 239.143 21.1211 243.772 21.1211V6.304ZM245.248 0.975998V-13.8411C238.588 -13.8411 232.747 -9.3978 230.969 -2.97975L245.248 0.975998ZM262.281 15.3942C260.414 14.9521 257.721 13.8143 255.482 11.1935C253.245 8.57472 252.545 5.74189 252.398 3.84042L281.945 1.56757C281.727 -1.26989 280.744 -4.85872 278.015 -8.05348C275.285 -11.2503 271.889 -12.7841 269.111 -13.4422L262.281 15.3942ZM252.929 -1.38039L250.121 8.41161L278.607 16.5804L281.415 6.78839L252.929 -1.38039ZM252.713 3.34167C253.471 2.3773 254.239 1.73088 254.811 1.32693L271.901 25.5371C273.289 24.5571 274.729 23.2867 276.015 21.6503L252.713 3.34167ZM255.306 0.99202C255.684 0.747703 255.982 0.605563 256.151 0.532958L267.825 27.771C269.002 27.2664 270.212 26.6443 271.405 25.872L255.306 0.99202ZM261.988 -0.665074H245.896V28.9691H261.988V-0.665074ZM231.704 9.89435L230.948 12.4143L259.332 20.9297L260.088 18.4097L231.704 9.89435ZM245.14 31.4891H263.176V1.85493H245.14V31.4891ZM248.897 12.7163L247.421 18.0443L275.979 25.9557L277.455 20.6277L248.897 12.7163ZM261.7 7.18293H237.148V36.8171H261.7V7.18293ZM251.408 26.0233L254.648 14.5393L226.127 6.49269L222.887 17.9767L251.408 26.0233ZM252.303 19.3231C251.981 19.7596 250.816 21.2564 248.545 22.4592L234.679 -3.73115C231.591 -2.0964 229.611 0.168382 228.472 1.70887L252.303 19.3231ZM248.545 22.4592C247.928 22.7856 247.297 23.0265 246.679 23.1892L239.137 -5.46922C237.607 -5.06654 236.112 -4.48956 234.679 -3.73115L248.545 22.4592ZM242.908 23.6771H258.856V-5.95707H242.908V23.6771ZM273.169 12.6904L273.853 10.1343L245.226 2.47365L244.542 5.02965L273.169 12.6904ZM259.54 -8.51307H243.772V21.1211H259.54V-8.51307ZM258.051 10.2597L259.527 4.93174L230.969 -2.97975L229.493 2.34826L258.051 10.2597ZM245.248 15.7931H265.696V-13.8411H245.248V15.7931ZM275.584 6.304V-8.51307C268.964 -8.51307 263.146 -4.121 261.333 2.24651L275.584 6.304ZM287.212 6.304L301.463 10.3615C302.735 5.89205 301.837 1.0845 299.037 -2.6242C296.237 -6.3329 291.859 -8.51307 287.212 -8.51307V6.304ZM284.26 16.672V31.4891C290.881 31.4891 296.698 27.097 298.511 20.7295L284.26 16.672ZM272.632 16.672L258.381 12.6145C257.109 17.0839 258.007 21.8915 260.807 25.6002C263.607 29.3089 267.985 31.4891 272.632 31.4891V16.672ZM272.488 0.975998V-13.8411C271.43 -13.8411 270.375 -13.7277 269.34 -13.5029L272.488 0.975998ZM271.048 1.66L280.049 13.4301C280.19 13.3218 280.33 13.211 280.467 13.0977L271.048 1.66ZM269.932 2.956L257.275 -4.74809C256.57 -3.58892 256.027 -2.33831 255.662 -1.03134L269.932 2.956ZM265.144 20.092L250.874 16.1047C250.542 17.2917 250.36 18.5154 250.331 19.7475L265.144 20.092ZM266.584 22L263.073 36.3951C264.222 36.6754 265.401 36.8171 266.584 36.8171V22ZM287.356 22V36.8171C288.212 36.8171 289.067 36.7429 289.91 36.5953L287.356 22ZM289.732 20.272L302.245 28.2072C303.012 26.9973 303.6 25.6825 303.99 24.304L289.732 20.272ZM294.7 2.704L308.958 6.73596C309.433 5.05695 309.607 3.30728 309.473 1.56757L294.7 2.704ZM293.26 0.975998L296.762 -13.4213C295.616 -13.7001 294.44 -13.8411 293.26 -13.8411V0.975998ZM275.584 21.1211H287.212V-8.51307H275.584V21.1211ZM272.961 2.24651L270.009 12.6145L298.511 20.7295L301.463 10.3615L272.961 2.24651ZM284.26 1.85493H272.632V31.4891H284.26V1.85493ZM286.883 20.7295L289.835 10.3615L261.333 2.24651L258.381 12.6145L286.883 20.7295ZM269.34 -13.5029C266.648 -12.9176 263.98 -11.714 261.629 -9.77773L280.467 13.0977C278.932 14.362 277.224 15.1096 275.636 15.4549L269.34 -13.5029ZM262.047 -10.1101C259.856 -8.43426 258.33 -6.48099 257.275 -4.74809L282.589 10.6601C282.206 11.289 281.424 12.3783 280.049 13.4301L262.047 -10.1101ZM255.662 -1.03134L250.874 16.1047L279.415 24.0793L284.203 6.94334L255.662 -1.03134ZM250.331 19.7475C250.265 22.6057 250.88 26.5864 253.659 30.2689C256.463 33.9838 260.18 35.6894 263.073 36.3951L270.095 7.60491C272.004 8.07059 274.989 9.33815 277.313 12.4171C279.612 15.4636 280 18.6103 279.957 20.4365L250.331 19.7475ZM266.584 36.8171H287.356V7.18293H266.584V36.8171ZM289.91 36.5953C295.779 35.5682 299.862 31.9646 302.245 28.2072L277.219 12.3368C277.721 11.5451 278.584 10.4559 279.955 9.4589C281.377 8.42446 283.045 7.71222 284.802 7.40473L289.91 36.5953ZM303.99 24.304L308.958 6.73596L280.442 -1.32796L275.474 16.24L303.99 24.304ZM309.473 1.56757C309.261 -1.1885 308.326 -4.72712 305.669 -7.91566C302.984 -11.1373 299.601 -12.7306 296.762 -13.4213L289.758 15.3733C287.807 14.8986 285.108 13.7013 282.903 11.0557C280.726 8.44312 280.067 5.6605 279.927 3.84042L309.473 1.56757ZM293.26 -13.8411H272.488V15.7931H293.26V-13.8411ZM320.715 0.975998L324.13 -13.4422C323.011 -13.7072 321.865 -13.8411 320.715 -13.8411V0.975998ZM322.191 2.704L336.434 6.78839C336.92 5.09354 337.1 3.32555 336.965 1.56757L322.191 2.704ZM319.383 12.496L331.034 21.6503C332.218 20.1438 333.098 18.4221 333.626 16.5804L319.383 12.496ZM318.375 13.432L326.425 25.872C326.592 25.7637 326.757 25.652 326.92 25.5371L318.375 13.432ZM317.007 14.152V28.9691C319.014 28.9691 321 28.5615 322.844 27.771L317.007 14.152ZM300.915 14.152V-0.665074C294.372 -0.665074 288.603 3.62696 286.723 9.89435L300.915 14.152ZM300.159 16.672L285.967 12.4143C284.621 16.9006 285.476 21.759 288.272 25.5168C291.068 29.2745 295.476 31.4891 300.159 31.4891V16.672ZM318.195 16.672L332.475 20.6277C333.71 16.1673 332.791 11.3856 329.989 7.70168C327.186 4.01779 322.824 1.85493 318.195 1.85493V16.672ZM316.719 22V36.8171C323.379 36.8171 329.221 32.3738 330.999 25.9557L316.719 22ZM292.167 22L277.907 17.9767C276.647 22.4432 277.552 27.242 280.353 30.9424C283.154 34.6427 287.527 36.8171 292.167 36.8171V22ZM295.407 10.516L283.492 1.70887C282.428 3.14871 281.633 4.76951 281.147 6.49269L295.407 10.516ZM297.927 8.86V-5.95707C296.655 -5.95707 295.387 -5.79311 294.157 -5.46922L297.927 8.86ZM313.875 8.86V23.6771C320.583 23.6771 326.455 19.1704 328.189 12.6904L313.875 8.86ZM314.559 6.304L328.873 10.1343C330.063 5.68526 329.117 0.935503 326.313 -2.71795C323.509 -6.3714 319.165 -8.51307 314.559 -8.51307V6.304ZM298.791 6.304L284.512 2.34826C283.276 6.80874 284.196 11.5904 286.998 15.2743C289.8 18.9582 294.163 21.1211 298.791 21.1211V6.304ZM300.267 0.975998V-13.8411C293.608 -13.8411 287.766 -9.3978 285.988 -2.97975L300.267 0.975998ZM317.301 15.3942C315.434 14.9521 312.74 13.8143 310.502 11.1935C308.265 8.57472 307.564 5.74189 307.418 3.84042L336.965 1.56757C336.747 -1.26989 335.764 -4.85872 333.035 -8.05348C330.304 -11.2503 326.909 -12.7841 324.13 -13.4422L317.301 15.3942ZM307.948 -1.38039L305.14 8.41161L333.626 16.5804L336.434 6.78839L307.948 -1.38039ZM307.732 3.34167C308.49 2.3773 309.258 1.73088 309.831 1.32693L326.92 25.5371C328.308 24.5571 329.749 23.2867 331.034 21.6503L307.732 3.34167ZM310.326 0.99202C310.704 0.747703 311.001 0.605563 311.171 0.532958L322.844 27.771C324.022 27.2664 325.231 26.6443 326.425 25.872L310.326 0.99202ZM317.007 -0.665074H300.915V28.9691H317.007V-0.665074ZM286.723 9.89435L285.967 12.4143L314.352 20.9297L315.108 18.4097L286.723 9.89435ZM300.159 31.4891H318.195V1.85493H300.159V31.4891ZM303.916 12.7163L302.44 18.0443L330.999 25.9557L332.475 20.6277L303.916 12.7163ZM316.719 7.18293H292.167V36.8171H316.719V7.18293ZM306.428 26.0233L309.668 14.5393L281.147 6.49269L277.907 17.9767L306.428 26.0233ZM307.323 19.3231C307 19.7596 305.836 21.2564 303.564 22.4592L289.699 -3.73115C286.611 -2.0964 284.63 0.168382 283.492 1.70887L307.323 19.3231ZM303.564 22.4592C302.948 22.7856 302.316 23.0265 301.698 23.1892L294.157 -5.46922C292.626 -5.06654 291.131 -4.48956 289.699 -3.73115L303.564 22.4592ZM297.927 23.6771H313.875V-5.95707H297.927V23.6771ZM328.189 12.6904L328.873 10.1343L300.246 2.47365L299.562 5.02965L328.189 12.6904ZM314.559 -8.51307H298.791V21.1211H314.559V-8.51307ZM313.071 10.2597L314.547 4.93174L285.988 -2.97975L284.512 2.34826L313.071 10.2597ZM300.267 15.7931H320.715V-13.8411H300.267V15.7931ZM325.564 0.975998V-13.8411C318.904 -13.8411 313.062 -9.3978 311.284 -2.97975L325.564 0.975998ZM324.088 6.304L309.808 2.34825C308.573 6.80874 309.492 11.5904 312.294 15.2743C315.097 18.9582 319.459 21.1211 324.088 21.1211V6.304ZM340.18 6.304L354.493 10.1343C355.684 5.68526 354.738 0.935503 351.933 -2.71795C349.129 -6.3714 344.785 -8.51307 340.18 -8.51307V6.304ZM339.496 8.86V23.6771C346.204 23.6771 352.075 19.1704 353.809 12.6904L339.496 8.86ZM331.324 8.86V-5.95707C324.708 -5.95707 318.894 -1.57156 317.077 4.78944L331.324 8.86ZM329.812 14.152L315.565 10.0814C314.287 14.552 315.183 19.3629 317.982 23.0748C320.782 26.7867 325.162 28.9691 329.812 28.9691V14.152ZM339.964 14.152L354.156 18.4096C355.502 13.9234 354.647 9.06498 351.851 5.30723C349.055 1.54948 344.647 -0.665074 339.964 -0.665074V14.152ZM339.208 16.672V31.4891C345.751 31.4891 351.52 27.197 353.4 20.9296L339.208 16.672ZM321.1 16.672V1.85493C314.44 1.85493 308.598 6.2982 306.82 12.7163L321.1 16.672ZM319.624 22L305.344 18.0443C304.109 22.5047 305.028 27.2864 307.83 30.9703C310.633 34.6542 314.995 36.8171 319.624 36.8171V22ZM342.484 22V36.8171C343.419 36.8171 344.352 36.7285 345.27 36.5527L342.484 22ZM345.004 20.092L358.135 26.9561C358.605 26.0573 358.981 25.1127 359.258 24.1371L345.004 20.092ZM347.272 12.1L361.526 16.1451C361.899 14.8292 362.089 13.4679 362.089 12.1H347.272ZM346.948 10.732L360.043 3.79928V3.79927L346.948 10.732ZM345.832 9.652L331.542 5.73387C329.775 12.1786 332.54 19.0087 338.294 22.4084L345.832 9.652ZM347.668 2.956L361.957 6.87413C362.186 6.0407 362.341 5.18887 362.421 4.32839L347.668 2.956ZM346.228 0.975998L350.126 -13.319C348.856 -13.6655 347.545 -13.8411 346.228 -13.8411V0.975998ZM311.284 -2.97975L309.808 2.34825L338.367 10.2597L339.843 4.93174L311.284 -2.97975ZM324.088 21.1211H340.18V-8.51307H324.088V21.1211ZM325.866 2.47365L325.182 5.02965L353.809 12.6904L354.493 10.1343L325.866 2.47365ZM339.496 -5.95707H331.324V23.6771H339.496V-5.95707ZM317.077 4.78944L315.565 10.0814L344.059 18.2226L345.571 12.9306L317.077 4.78944ZM329.812 28.9691H339.964V-0.665074H329.812V28.9691ZM325.771 9.89435L325.015 12.4144L353.4 20.9296L354.156 18.4096L325.771 9.89435ZM339.208 1.85493H321.1V31.4891H339.208V1.85493ZM306.82 12.7163L305.344 18.0443L333.903 25.9557L335.379 20.6277L306.82 12.7163ZM319.624 36.8171H342.484V7.18293H319.624V36.8171ZM345.27 36.5527C351.029 35.45 355.58 31.8445 358.135 26.9561L331.872 13.2279C332.476 12.0722 333.476 10.7135 335.015 9.54796C336.569 8.37133 338.23 7.72822 339.697 7.44733L345.27 36.5527ZM359.258 24.1371L361.526 16.1451L333.017 8.05489L330.749 16.0469L359.258 24.1371ZM362.089 12.1C362.089 9.40584 361.491 6.53484 360.043 3.79928L333.852 17.6647C332.836 15.7452 332.455 13.7862 332.455 12.1H362.089ZM360.043 3.79927C358.192 0.303487 355.499 -1.846 353.369 -3.10441L338.294 22.4084C337.22 21.774 335.271 20.3445 333.852 17.6647L360.043 3.79927ZM360.121 13.5701L361.957 6.87413L333.378 -0.962134L331.542 5.73387L360.121 13.5701ZM362.421 4.32839C362.71 1.22362 362.246 -3.06405 359.363 -7.02799C356.557 -10.8862 352.797 -12.5907 350.126 -13.319L342.329 15.271C340.714 14.8307 337.722 13.6002 335.396 10.402C332.994 7.09805 332.721 3.65637 332.914 1.58361L362.421 4.32839ZM346.228 -13.8411H325.564V15.7931H346.228V-13.8411Z" fill="#0A0823"/>
<defs>
<linearGradient id="paint0_linear_955_248" x1="-134" y1="38" x2="425.288" y2="-136.128" gradientUnits="userSpaceOnUse">
<stop stop-color="#FBDF97"/>
</linearGradient>
</defs>
</svg>
