<svg width="151" height="39" viewBox="0 0 151 39" fill="none" xmlns="http://www.w3.org/2000/svg">
<path d="M4.896 0.983999L0.96 15H17.16C17.928 14.856 18.496 14.432 18.864 13.728L20.376 8.4C20.392 7.744 20.064 7.2 19.392 6.768L20.616 2.304C20.68 1.616 20.36 1.176 19.656 0.983999H4.896ZM8.28 4.536H15.624L15.168 6.24H9.72L8.712 9.768H15.48L14.976 11.448H6.312L8.28 4.536ZM28.6931 0.983999L25.7411 11.448H35.3171L34.3331 15H21.7571C21.0531 14.856 20.7251 14.432 20.7731 13.728L24.3491 0.983999H28.6931ZM43.2163 15L45.5443 11.448H48.3043L47.6803 4.776L40.7923 15H35.7763L45.5683 0.983999H51.7603L53.7043 15H43.2163ZM60.4029 0.983999C59.7309 1.128 59.2029 1.512 58.8189 2.136L56.9949 8.472C56.9149 8.808 56.9709 9.112 57.1629 9.384C57.3549 9.64 57.6189 9.768 57.9549 9.768H68.6829L68.1789 11.448H56.1549L55.1709 15H70.3149C70.9549 14.888 71.4829 14.504 71.8989 13.848L73.6509 7.704C73.7469 7.32 73.6989 6.984 73.5069 6.696C73.3309 6.392 73.0909 6.24 72.7869 6.24H62.0589L62.5149 4.536H74.5149L75.4989 0.983999H60.4029ZM93.8271 0.983999L92.8431 4.536H85.4511L83.4831 11.448H87.0831L86.0991 15H79.4751C78.7871 14.856 78.4671 14.432 78.5151 13.728L81.1071 4.536H76.4511L77.4351 0.983999H93.8271ZM99.1472 4.536H108.507L106.539 11.448H97.1792L99.1472 4.536ZM97.0832 0.983999C96.7152 1.064 96.3952 1.216 96.1232 1.44C95.8512 1.648 95.6032 1.936 95.3792 2.304L92.1872 13.728C92.1712 14.416 92.4912 14.84 93.1472 15H108.459C108.779 14.936 109.091 14.808 109.395 14.616C109.699 14.424 109.963 14.168 110.187 13.848L113.499 2.136C113.467 1.816 113.347 1.568 113.139 1.392C112.931 1.2 112.683 1.064 112.395 0.983999H97.0832ZM115.709 0.983999L112.133 13.728C112.117 14.416 112.437 14.84 113.093 15H126.845C127.597 14.856 128.157 14.432 128.525 13.728L132.101 0.983999H127.733L124.781 11.448H117.125L120.077 0.983999H115.709ZM150.429 0.983999L149.445 4.536H142.053L140.085 11.448H143.685L142.701 15H136.077C135.389 14.856 135.069 14.432 135.117 13.728L137.709 4.536H133.053L134.037 0.983999H150.429ZM20.016 24.984C20.624 25.128 20.952 25.512 21 26.136L19.128 32.664C18.952 32.888 18.728 33.096 18.456 33.288C18.184 33.464 17.88 33.624 17.544 33.768H6.816L6.312 35.448H18.336L17.352 39H0.984L3.144 31.344C3.416 30.976 3.688 30.72 3.96 30.576C4.232 30.432 4.52 30.32 4.824 30.24H15.456L15.912 28.536H5.4L6.384 24.984H20.016ZM26.6081 28.536H34.3601L32.3921 35.448H24.6401L26.6081 28.536ZM24.5441 24.984C24.1761 25.064 23.8561 25.216 23.5841 25.44C23.3121 25.648 23.0641 25.936 22.8401 26.304L19.6481 37.728C19.6321 38.416 19.9521 38.84 20.6081 39H34.4561C35.0961 38.888 35.6241 38.504 36.0401 37.848L39.3521 26.136C39.3041 25.512 38.9841 25.128 38.3921 24.984H24.5441ZM56.6957 24.984C57.3037 25.128 57.6317 25.512 57.6797 26.136L55.8077 32.664C55.6317 32.888 55.4077 33.096 55.1357 33.288C54.8637 33.464 54.5597 33.624 54.2237 33.768H43.4957L42.9917 35.448H55.0157L54.0317 39H37.6637L39.8237 31.344C40.0957 30.976 40.3677 30.72 40.6397 30.576C40.9117 30.432 41.1997 30.32 41.5037 30.24H52.1357L52.5917 28.536H42.0797L43.0637 24.984H56.6957ZM59.9278 24.984L58.9438 28.536H69.6718L69.2158 30.24H63.7678L62.7598 33.768H69.5278L69.0238 35.448H56.9518L55.9678 39H71.2078C71.9598 38.856 72.5198 38.432 72.8878 37.728L74.3998 32.4C74.3998 32.064 74.3278 31.76 74.1838 31.488C74.0398 31.216 73.7918 30.976 73.4398 30.768L74.6638 26.304C74.7278 25.616 74.4078 25.176 73.7038 24.984H59.9278Z" fill="white"/>
<path d="M4.896 0.983999L0.96 15H17.16C17.928 14.856 18.496 14.432 18.864 13.728L20.376 8.4C20.392 7.744 20.064 7.2 19.392 6.768L20.616 2.304C20.68 1.616 20.36 1.176 19.656 0.983999H4.896ZM8.28 4.536H15.624L15.168 6.24H9.72L8.712 9.768H15.48L14.976 11.448H6.312L8.28 4.536ZM28.6931 0.983999L25.7411 11.448H35.3171L34.3331 15H21.7571C21.0531 14.856 20.7251 14.432 20.7731 13.728L24.3491 0.983999H28.6931ZM43.2163 15L45.5443 11.448H48.3043L47.6803 4.776L40.7923 15H35.7763L45.5683 0.983999H51.7603L53.7043 15H43.2163ZM60.4029 0.983999C59.7309 1.128 59.2029 1.512 58.8189 2.136L56.9949 8.472C56.9149 8.808 56.9709 9.112 57.1629 9.384C57.3549 9.64 57.6189 9.768 57.9549 9.768H68.6829L68.1789 11.448H56.1549L55.1709 15H70.3149C70.9549 14.888 71.4829 14.504 71.8989 13.848L73.6509 7.704C73.7469 7.32 73.6989 6.984 73.5069 6.696C73.3309 6.392 73.0909 6.24 72.7869 6.24H62.0589L62.5149 4.536H74.5149L75.4989 0.983999H60.4029ZM93.8271 0.983999L92.8431 4.536H85.4511L83.4831 11.448H87.0831L86.0991 15H79.4751C78.7871 14.856 78.4671 14.432 78.5151 13.728L81.1071 4.536H76.4511L77.4351 0.983999H93.8271ZM99.1472 4.536H108.507L106.539 11.448H97.1792L99.1472 4.536ZM97.0832 0.983999C96.7152 1.064 96.3952 1.216 96.1232 1.44C95.8512 1.648 95.6032 1.936 95.3792 2.304L92.1872 13.728C92.1712 14.416 92.4912 14.84 93.1472 15H108.459C108.779 14.936 109.091 14.808 109.395 14.616C109.699 14.424 109.963 14.168 110.187 13.848L113.499 2.136C113.467 1.816 113.347 1.568 113.139 1.392C112.931 1.2 112.683 1.064 112.395 0.983999H97.0832ZM115.709 0.983999L112.133 13.728C112.117 14.416 112.437 14.84 113.093 15H126.845C127.597 14.856 128.157 14.432 128.525 13.728L132.101 0.983999H127.733L124.781 11.448H117.125L120.077 0.983999H115.709ZM150.429 0.983999L149.445 4.536H142.053L140.085 11.448H143.685L142.701 15H136.077C135.389 14.856 135.069 14.432 135.117 13.728L137.709 4.536H133.053L134.037 0.983999H150.429ZM20.016 24.984C20.624 25.128 20.952 25.512 21 26.136L19.128 32.664C18.952 32.888 18.728 33.096 18.456 33.288C18.184 33.464 17.88 33.624 17.544 33.768H6.816L6.312 35.448H18.336L17.352 39H0.984L3.144 31.344C3.416 30.976 3.688 30.72 3.96 30.576C4.232 30.432 4.52 30.32 4.824 30.24H15.456L15.912 28.536H5.4L6.384 24.984H20.016ZM26.6081 28.536H34.3601L32.3921 35.448H24.6401L26.6081 28.536ZM24.5441 24.984C24.1761 25.064 23.8561 25.216 23.5841 25.44C23.3121 25.648 23.0641 25.936 22.8401 26.304L19.6481 37.728C19.6321 38.416 19.9521 38.84 20.6081 39H34.4561C35.0961 38.888 35.6241 38.504 36.0401 37.848L39.3521 26.136C39.3041 25.512 38.9841 25.128 38.3921 24.984H24.5441ZM56.6957 24.984C57.3037 25.128 57.6317 25.512 57.6797 26.136L55.8077 32.664C55.6317 32.888 55.4077 33.096 55.1357 33.288C54.8637 33.464 54.5597 33.624 54.2237 33.768H43.4957L42.9917 35.448H55.0157L54.0317 39H37.6637L39.8237 31.344C40.0957 30.976 40.3677 30.72 40.6397 30.576C40.9117 30.432 41.1997 30.32 41.5037 30.24H52.1357L52.5917 28.536H42.0797L43.0637 24.984H56.6957ZM59.9278 24.984L58.9438 28.536H69.6718L69.2158 30.24H63.7678L62.7598 33.768H69.5278L69.0238 35.448H56.9518L55.9678 39H71.2078C71.9598 38.856 72.5198 38.432 72.8878 37.728L74.3998 32.4C74.3998 32.064 74.3278 31.76 74.1838 31.488C74.0398 31.216 73.7918 30.976 73.4398 30.768L74.6638 26.304C74.7278 25.616 74.4078 25.176 73.7038 24.984H59.9278Z" fill="url(#paint0_linear_977_311)"/>
<defs>
<linearGradient id="paint0_linear_977_311" x1="-45.0522" y1="44" x2="285.069" y2="20.6849" gradientUnits="userSpaceOnUse">
<stop stop-color="#FBDF97"/>
</linearGradient>
</defs>
</svg>
