<svg width="490" height="470" viewBox="0 0 490 470" fill="none" xmlns="http://www.w3.org/2000/svg">
<path d="M468.154 243.286L467.948 246.135C467.892 246.914 468.136 247.591 468.682 248.166C469.243 248.758 469.954 249.083 470.815 249.14C471.659 249.197 472.394 248.968 473.018 248.455C473.658 247.96 474.006 247.323 474.062 246.543L474.269 243.694L468.154 243.286ZM444.263 236.208L480.12 238.604L479.519 246.908C479.353 249.197 478.408 251.091 476.684 252.591C474.96 254.091 472.961 254.764 470.688 254.613C468.447 254.463 466.586 253.564 465.106 251.915C464.467 253.536 463.432 254.976 462.003 256.234C459.653 258.263 456.936 259.174 453.85 258.968C450.765 258.762 448.205 257.49 446.171 255.152C444.153 252.831 443.255 250.129 443.478 247.044L444.263 236.208ZM461.48 242.84L453.271 242.291L449.324 242.028L448.935 247.409C448.821 248.984 449.316 250.371 450.42 251.57C451.541 252.77 452.938 253.426 454.61 253.538C456.267 253.649 457.728 253.184 458.995 252.143C460.278 251.103 460.976 249.796 461.09 248.221L461.48 242.84Z" fill="#FFBD0C"/>
<path d="M477.018 271.072L475.863 276.442L445.978 270.51L443.606 281.537L438.242 280.472L441.769 264.075L477.018 271.072Z" fill="#FFBD0C"/>
<path d="M466.504 310.886L428.625 308.369L430.558 303.123L436.544 303.534L439.549 295.379L434.626 292.081L436.558 286.834L467.652 307.771L466.504 310.886ZM444.487 298.708L442.563 303.931L454.542 305.091L444.487 298.708Z" fill="#FFBD0C"/>
<path d="M422.422 320.491C423.169 319.118 424.005 317.991 424.93 317.109C425.847 316.241 427.083 315.433 428.639 314.685L434.638 317.7C433.433 318.041 432.577 318.339 432.068 318.593C431.574 318.854 431.011 319.19 430.38 319.601C429.741 320.027 429.121 320.535 428.522 321.126C427.922 321.716 427.436 322.355 427.062 323.041C426.292 324.456 426.156 325.863 426.655 327.26C427.16 328.679 428.096 329.732 429.463 330.419C430.583 330.982 431.702 331.053 432.82 330.632C433.939 330.21 435.427 329.347 437.286 328.042C438.415 327.262 439.403 326.621 440.251 326.118C441.099 325.616 442.04 325.197 443.075 324.861C444.109 324.525 445.198 324.38 446.34 324.426C447.496 324.479 448.7 324.82 449.95 325.449C451.141 326.12 452.116 326.983 452.875 328.038C453.648 329.1 454.183 330.279 454.478 331.574C454.787 332.877 454.849 334.21 454.663 335.572C454.469 336.949 454.025 338.274 453.333 339.546C452.782 340.49 452.169 341.292 451.494 341.954C450.833 342.623 449.918 343.301 448.748 343.988L443.708 341.455C444.442 341.06 444.915 340.769 445.127 340.584C445.346 340.421 445.677 340.187 446.121 339.882C446.571 339.599 447.025 339.226 447.48 338.763C447.928 338.314 448.316 337.79 448.642 337.19C449.359 335.839 449.542 334.483 449.19 333.123C448.852 331.77 448.123 330.812 447.004 330.249C445.926 329.744 444.865 329.702 443.821 330.124C442.783 330.568 441.416 331.428 439.72 332.706C438.545 333.572 437.552 334.256 436.741 334.759C435.922 335.276 434.988 335.717 433.938 336.081C432.887 336.445 431.736 336.586 430.485 336.503C429.233 336.421 427.902 336.043 426.49 335.37C425.21 334.727 424.133 333.848 423.257 332.735C422.396 331.629 421.779 330.381 421.405 328.992C421.032 327.602 420.925 326.165 421.086 324.68C421.253 323.217 421.698 321.82 422.422 320.491Z" fill="#FFBD0C"/>
<path d="M442.979 357.123L428.831 375.809L424.188 372.564L429.612 365.401L404.637 347.948L407.938 343.588L432.913 361.041L438.336 353.878L442.979 357.123Z" fill="#FFBD0C"/>
<path d="M381.318 397.412C379.549 395.636 378.248 393.64 377.416 391.422C376.584 389.227 376.21 386.986 376.295 384.698C376.38 382.41 376.904 380.172 377.868 377.982C378.843 375.804 380.27 373.85 382.151 372.12C384.044 370.379 386.144 369.088 388.452 368.248C390.771 367.418 393.122 367.013 395.504 367.031C397.887 367.049 400.208 367.5 402.466 368.384C404.724 369.29 406.737 370.631 408.506 372.407C410.264 374.171 411.571 376.162 412.426 378.38C413.282 380.62 413.667 382.884 413.582 385.172C413.496 387.46 412.966 389.693 411.992 391.871C411.017 394.049 409.583 396.009 407.69 397.75C405.809 399.479 403.715 400.765 401.408 401.605C399.1 402.446 396.755 402.858 394.372 402.84C391.989 402.821 389.658 402.348 387.377 401.418C385.096 400.511 383.076 399.176 381.318 397.412ZM404.158 376.406C402.928 375.172 401.534 374.234 399.975 373.591C398.428 372.96 396.832 372.626 395.19 372.59C393.558 372.566 391.95 372.841 390.364 373.416C388.79 374.002 387.362 374.884 386.08 376.063C384.81 377.231 383.836 378.558 383.158 380.043C382.492 381.54 382.142 383.066 382.108 384.622C382.073 386.2 382.351 387.746 382.94 389.259C383.541 390.783 384.456 392.162 385.685 393.396C386.914 394.629 388.303 395.562 389.85 396.194C391.409 396.837 393.005 397.17 394.636 397.194C396.267 397.241 397.869 396.972 399.443 396.386C401.017 395.8 402.439 394.923 403.709 393.755C404.991 392.576 405.971 391.244 406.649 389.758C407.327 388.273 407.683 386.741 407.718 385.163C407.764 383.596 407.486 382.05 406.885 380.526C406.296 379.013 405.387 377.64 404.158 376.406Z" fill="#FFBD0C"/>
<path d="M357.11 404.464L371.474 425.135L366.87 428.087L352.507 407.417C350.779 404.931 350.2 402.23 350.768 399.315C351.346 396.413 352.909 394.145 355.458 392.51C358.006 390.876 360.792 390.354 363.818 390.945C366.838 391.558 369.213 393.108 370.94 395.594L385.304 416.264L380.701 419.216L366.337 398.546C365.473 397.303 364.283 396.531 362.765 396.228C361.248 395.926 359.852 396.184 358.578 397.001C357.304 397.818 356.528 398.954 356.251 400.407C355.96 401.869 356.246 403.221 357.11 404.464Z" fill="#FFBD0C"/>
<path d="M357.081 434.761L335.737 444.443L333.238 439.36L341.42 435.648L327.981 408.303L332.962 406.044L346.401 433.389L354.582 429.678L357.081 434.761Z" fill="#FFBD0C"/>
<path d="M297.928 443.873L295.128 444.439C294.362 444.594 293.779 445.011 293.378 445.69C292.965 446.388 292.85 447.158 293.035 448.001C293.216 448.828 293.641 449.472 294.309 449.935C294.964 450.417 295.675 450.58 296.44 450.425L299.24 449.859L297.928 443.873ZM298.076 419.012L305.771 454.116L297.611 455.767C295.362 456.222 293.275 455.823 291.351 454.568C289.426 453.314 288.22 451.574 287.732 449.348C287.251 447.154 287.598 445.125 288.772 443.26C287.033 443.08 285.359 442.473 283.749 441.437C281.141 439.723 279.506 437.356 278.844 434.335C278.181 431.314 278.692 428.513 280.375 425.931C282.046 423.368 284.397 421.78 287.428 421.167L298.076 419.012ZM296.496 437.339L294.734 429.302L293.887 425.439L288.599 426.509C287.051 426.822 285.854 427.67 285.008 429.053C284.165 430.452 283.923 431.971 284.282 433.608C284.638 435.23 285.493 436.51 286.848 437.448C288.207 438.401 289.66 438.722 291.207 438.409L296.496 437.339Z" fill="#FFBD0C"/>
<path d="M272.472 460.124L266.992 460.51L264.671 430.13L253.419 430.924L253.002 425.471L269.733 424.291L272.472 460.124Z" fill="#FFBD0C"/>
<path d="M229.239 461.367L221.781 424.435L227.362 424.766L228.527 430.607L237.203 431.123L239.109 425.464L244.69 425.795L232.554 461.564L229.239 461.367ZM235.272 436.804L229.715 436.474L231.722 448.259L235.272 436.804Z" fill="#FFBD0C"/>
<path d="M207.289 422.231C208.821 422.535 210.137 422.995 211.237 423.612C212.32 424.225 213.426 425.158 214.555 426.411L213.143 432.975C212.501 431.935 211.991 431.211 211.612 430.804C211.23 430.413 210.758 429.979 210.194 429.502C209.615 429.022 208.96 428.585 208.229 428.191C207.498 427.797 206.75 427.524 205.983 427.372C204.403 427.059 202.993 427.343 201.755 428.225C200.497 429.12 199.707 430.316 199.386 431.812C199.122 433.037 199.339 434.117 200.037 435.052C200.735 435.987 201.96 437.142 203.711 438.519C204.762 439.358 205.642 440.105 206.35 440.76C207.058 441.415 207.709 442.183 208.302 443.064C208.895 443.944 209.315 444.932 209.562 446.026C209.806 447.137 209.781 448.376 209.487 449.745C209.135 451.069 208.541 452.245 207.704 453.273C206.863 454.317 205.848 455.169 204.657 455.829C203.463 456.505 202.176 456.954 200.797 457.178C199.401 457.399 197.993 457.368 196.572 457.086C195.509 456.842 194.568 456.497 193.748 456.053C192.924 455.624 192.028 454.956 191.057 454.05L192.243 448.537C192.818 449.115 193.222 449.478 193.457 449.624C193.673 449.783 193.986 450.028 194.398 450.358C194.79 450.701 195.271 451.021 195.84 451.316C196.393 451.609 197.005 451.821 197.675 451.954C199.179 452.236 200.551 452.011 201.791 451.278C203.027 450.561 203.777 449.59 204.04 448.365C204.258 447.197 204.027 446.18 203.348 445.316C202.649 444.463 201.458 443.422 199.775 442.192C198.628 441.334 197.705 440.595 197.006 439.975C196.291 439.352 195.621 438.597 194.996 437.71C194.371 436.822 193.939 435.774 193.7 434.565C193.46 433.356 193.489 431.985 193.785 430.451C194.087 429.051 194.669 427.773 195.534 426.617C196.395 425.477 197.457 424.527 198.719 423.765C199.981 423.004 201.359 422.481 202.852 422.196C204.325 421.925 205.804 421.936 207.289 422.231Z" fill="#FFBD0C"/>
<path d="M175.945 452.365L153.839 444.578L155.859 439.286L164.333 442.271L175.198 413.805L180.356 415.622L169.491 444.088L177.965 447.073L175.945 452.365Z" fill="#FFBD0C"/>
<path d="M119.445 405.577C120.75 403.437 122.4 401.668 124.395 400.271C126.367 398.88 128.508 397.901 130.816 397.333C133.124 396.766 135.5 396.619 137.943 396.893C140.378 397.18 142.709 397.951 144.936 399.204C147.177 400.465 149.023 402.045 150.475 403.945C151.918 405.859 152.947 407.921 153.56 410.133C154.174 412.345 154.339 414.621 154.054 416.963C153.747 419.31 152.941 421.553 151.636 423.693C150.34 425.819 148.697 427.592 146.708 429.011C144.696 430.436 142.536 431.432 140.228 431.999C137.919 432.567 135.548 432.707 133.113 432.419C130.679 432.131 128.341 431.357 126.1 430.096C123.873 428.843 122.033 427.266 120.582 425.367C119.13 423.467 118.097 421.411 117.483 419.199C116.87 416.988 116.725 414.694 117.049 412.319C117.35 409.951 118.149 407.703 119.445 405.577ZM146.487 420.795C147.394 419.309 147.962 417.752 148.191 416.127C148.412 414.515 148.322 412.943 147.922 411.412C147.514 409.894 146.813 408.482 145.819 407.176C144.816 405.884 143.555 404.811 142.038 403.956C140.534 403.11 138.951 402.583 137.287 402.375C135.615 402.18 133.997 402.287 132.433 402.695C130.847 403.109 129.377 403.802 128.021 404.776C126.657 405.763 125.522 406.999 124.616 408.486C123.709 409.973 123.145 411.523 122.925 413.134C122.696 414.76 122.785 416.332 123.193 417.849C123.579 419.373 124.273 420.781 125.276 422.073C126.279 423.365 127.532 424.435 129.036 425.281C130.553 426.135 132.144 426.666 133.808 426.874C135.471 427.083 137.096 426.98 138.682 426.566C140.26 426.166 141.731 425.472 143.094 424.485C144.45 423.512 145.581 422.282 146.487 420.795Z" fill="#FFBD0C"/>
<path d="M105.178 385.122L88.4126 403.897L84.1925 400.418L100.958 381.644C102.974 379.386 105.521 378.133 108.597 377.887C111.663 377.653 114.363 378.498 116.7 380.424C119.036 382.349 120.323 384.79 120.56 387.747C120.775 390.706 119.874 393.314 117.857 395.572L101.092 414.347L96.8716 410.869L113.637 392.094C114.645 390.965 115.093 389.658 114.979 388.174C114.866 386.689 114.225 385.466 113.057 384.503C111.889 383.54 110.539 383.123 109.007 383.251C107.463 383.369 106.186 383.993 105.178 385.122Z" fill="#FFBD0C"/>
<path d="M75.7455 392.794L60.0071 375.427L64.3517 371.793L70.3848 378.45L93.756 358.902L97.4282 362.954L74.0571 382.502L80.0901 389.16L75.7455 392.794Z" fill="#FFBD0C"/>
<path d="M59.6584 355.521L58.0812 353.139C57.6498 352.488 57.0359 352.091 56.2394 351.949C55.42 351.802 54.6423 351.953 53.9063 352.403C53.1841 352.844 52.7259 353.449 52.5315 354.216C52.3143 354.977 52.4213 355.684 52.8527 356.335L54.43 358.717L59.6584 355.521ZM83.4461 347.385L52.7836 366.129L48.1867 359.188C46.9195 357.274 46.5285 355.226 47.0136 353.042C47.4987 350.858 48.7133 349.172 50.6575 347.984C52.5739 346.812 54.6394 346.455 56.8541 346.912C56.3818 345.256 56.3421 343.517 56.7349 341.695C57.4054 338.731 59.0599 336.442 61.6984 334.829C64.337 333.216 67.2002 332.753 70.2882 333.439C73.3534 334.12 75.7397 335.749 77.4473 338.327L83.4461 347.385ZM65.366 352.032L72.3859 347.741L75.7604 345.678L72.7812 341.18C71.9095 339.863 70.6567 339.047 69.0228 338.73C67.3751 338.422 65.836 338.705 64.4056 339.58C62.9892 340.446 62.0841 341.656 61.6904 343.212C61.2829 344.777 61.515 346.217 62.3868 347.534L65.366 352.032Z" fill="#FFBD0C"/>
<path d="M35.3165 338.537L32.9313 333.589L60.7692 321.204L55.8715 311.043L60.8681 308.82L68.151 323.929L35.3165 338.537Z" fill="#FFBD0C"/>
<path d="M18.9645 300.227L50.9724 280.663L52.658 285.994L47.5908 289.075L50.2113 297.362L56.206 297.214L57.8916 302.545L19.9656 303.392L18.9645 300.227ZM44.1858 297.493L42.5075 292.186L32.1602 298.079L44.1858 297.493Z" fill="#FFBD0C"/>
<path d="M48.2203 267.619C48.4696 269.162 48.4971 270.556 48.3029 271.803C48.1061 273.033 47.6177 274.398 46.8377 275.896L40.1973 276.887C40.9477 275.919 41.4475 275.187 41.6967 274.689C41.9299 274.193 42.1716 273.598 42.4219 272.902C42.6696 272.191 42.8506 271.423 42.9648 270.6C43.0791 269.776 43.0739 268.979 42.9492 268.208C42.6922 266.617 41.9345 265.397 40.6763 264.548C39.3994 263.686 38.0043 263.367 36.4911 263.593C35.2515 263.778 34.3155 264.362 33.683 265.345C33.0505 266.327 32.3949 267.882 31.7162 270.007C31.2967 271.287 30.9036 272.374 30.5369 273.268C30.1703 274.162 29.6778 275.042 29.0593 275.907C28.4408 276.773 27.6622 277.514 26.7233 278.131C25.7683 278.751 24.5986 279.164 23.2142 279.371C21.8516 279.508 20.5427 279.366 19.2876 278.944C18.0164 278.525 16.8643 277.874 15.8314 276.992C14.7825 276.111 13.9127 275.065 13.222 273.851C12.5288 272.622 12.0666 271.292 11.8355 269.862C11.6937 268.781 11.6883 267.778 11.8191 266.853C11.9339 265.931 12.2465 264.856 12.757 263.628L18.3349 262.796C17.9932 263.538 17.7949 264.045 17.7398 264.316C17.6661 264.574 17.5461 264.954 17.3799 265.456C17.1951 265.944 17.0634 266.507 16.985 267.144C16.904 267.765 16.918 268.413 17.0271 269.088C17.2873 270.596 17.9766 271.801 19.0952 272.704C20.1976 273.609 21.3686 273.969 22.6082 273.784C23.7781 273.577 24.6498 273.002 25.223 272.061C25.7776 271.106 26.3377 269.624 26.9032 267.615C27.3072 266.238 27.6777 265.113 28.0147 264.24C28.3492 263.351 28.823 262.458 29.4363 261.56C30.0496 260.662 30.8807 259.888 31.9296 259.238C32.9786 258.588 34.2732 258.132 35.8134 257.869C37.23 257.658 38.6303 257.753 40.0142 258.156C41.382 258.56 42.6426 259.22 43.7959 260.134C44.9493 261.048 45.9193 262.154 46.706 263.452C47.4741 264.736 47.9788 266.125 48.2203 267.619Z" fill="#FFBD0C"/>
<path d="M9.28738 250.517L9.00488 227.081L14.6686 227.018L14.7769 236.002L45.2437 235.663L45.3097 241.131L14.8428 241.47L14.9511 250.454L9.28738 250.517Z" fill="#FFBD0C"/>
<path d="M33.7028 180.828C36.1746 181.244 38.4065 182.114 40.3985 183.439C42.3773 184.745 44.0191 186.358 45.3239 188.277C46.6287 190.196 47.5549 192.332 48.1024 194.685C48.634 197.035 48.6709 199.467 48.2131 201.981C47.7525 204.511 46.8569 206.795 45.5265 208.832C44.1801 210.867 42.5542 212.574 40.6488 213.953C38.7434 215.333 36.6278 216.322 34.302 216.922C31.9632 217.502 29.5578 217.585 27.0859 217.169C24.6301 216.757 22.3968 215.894 20.3859 214.583C18.3618 213.253 16.6974 211.628 15.3926 209.709C14.0878 207.79 13.1696 205.655 12.6381 203.305C12.1066 200.955 12.0712 198.515 12.5318 195.985C12.9896 193.471 13.8836 191.195 15.214 189.158C16.5444 187.12 18.1623 185.412 20.0677 184.032C21.9731 182.653 24.1113 181.675 26.4823 181.1C28.8402 180.506 31.247 180.416 33.7028 180.828ZM28.1443 211.357C29.8617 211.645 31.5332 211.596 33.1586 211.209C34.7679 210.82 36.2364 210.159 37.5641 209.227C38.8757 208.292 39.9896 207.126 40.9057 205.728C41.8057 204.328 42.4117 202.772 42.7237 201.058C43.0327 199.361 43.0113 197.707 42.6594 196.097C42.2914 194.484 41.6542 193.032 40.7479 191.741C39.8284 190.431 38.6806 189.33 37.3045 188.439C35.9123 187.545 34.3575 186.954 32.6401 186.665C30.9226 186.376 29.2592 186.427 27.6498 186.817C26.0244 187.203 24.5559 187.864 23.2443 188.799C21.9196 189.715 20.8072 190.873 19.9071 192.273C19.0071 193.673 18.4025 195.222 18.0935 196.919C17.7815 198.633 17.8015 200.294 18.1534 201.905C18.5053 203.515 19.141 204.975 20.0605 206.285C20.964 207.592 22.1118 208.693 23.5039 209.587C24.88 210.478 26.4268 211.068 28.1443 211.357Z" fill="#FFBD0C"/>
<path d="M48.7041 161.433L24.9633 153.07L26.9133 147.961L50.6542 156.324C53.5095 157.33 55.5702 159.186 56.8363 161.892C58.0871 164.592 58.1727 167.357 57.0932 170.185C56.0137 173.013 54.0854 175.077 51.3082 176.376C48.5216 177.654 45.7006 177.79 42.8452 176.784L19.1044 168.421L21.0544 163.311L44.7953 171.675C46.223 172.178 47.6349 172.106 49.0311 171.459C50.4274 170.812 51.3954 169.782 51.9351 168.368C52.4749 166.954 52.4268 165.574 51.7908 164.229C51.1607 162.868 50.1318 161.936 48.7041 161.433Z" fill="#FFBD0C"/>
<path d="M31.3411 138.03L42.9348 117.661L47.949 120.295L43.5048 128.103L70.4779 142.273L67.7727 147.026L40.7996 132.856L36.3553 140.664L31.3411 138.03Z" fill="#FFBD0C"/>
<path d="M61.7578 111.268L63.5238 109.023C64.0068 108.409 64.1772 107.719 64.0352 106.953C63.89 106.164 63.4683 105.516 62.7703 105.009C62.0854 104.512 61.3348 104.309 60.5185 104.4C59.6992 104.468 59.048 104.809 58.5649 105.423L56.7989 107.668L61.7578 111.268ZM78.0737 129.867L48.9925 108.754L54.1395 102.21C55.5584 100.406 57.4179 99.3446 59.718 99.0248C62.0181 98.705 64.0901 99.2145 65.9341 100.553C67.7516 101.873 68.8278 103.609 69.1626 105.761C70.6105 104.762 72.292 104.124 74.2072 103.846C77.3337 103.423 80.1481 104.12 82.6506 105.937C85.153 107.754 86.6141 110.171 87.0337 113.189C87.4502 116.185 86.7024 118.898 84.7905 121.328L78.0737 129.867ZM67.171 115.199L73.8288 120.032L77.0293 122.356L80.3651 118.115C81.3412 116.874 81.6957 115.464 81.4285 113.883C81.1482 112.292 80.3298 111.005 78.9732 110.02C77.6297 109.045 76.1301 108.649 74.4743 108.834C72.8054 109.009 71.4828 109.717 70.5068 110.958L67.171 115.199Z" fill="#FFBD0C"/>
<path d="M70.2726 82.921L74.2201 79.101L96.2684 100.13L104.374 92.2861L108.331 96.0605L96.2783 107.724L70.2726 82.921Z" fill="#FFBD0C"/>
<path d="M101.257 55.378L131.888 78.018L127.388 81.3352L122.554 77.7456L115.558 82.9024L117.915 88.3173L113.415 91.6345L98.5846 57.348L101.257 55.378ZM113.205 77.4541L117.686 74.1513L108.198 66.6884L113.205 77.4541Z" fill="#FFBD0C"/>
<path d="M143.936 69.8799C142.56 70.6216 141.244 71.1096 139.987 71.344C138.744 71.5706 137.267 71.5728 135.554 71.3504L132.167 65.5534C133.364 65.9246 134.245 66.1426 134.81 66.2073C135.367 66.2581 136.023 66.2835 136.776 66.2837C137.544 66.2761 138.341 66.1884 139.166 66.0207C139.991 65.853 140.747 65.5837 141.435 65.2129C142.853 64.4481 143.735 63.3445 144.079 61.9022C144.429 60.4381 144.218 59.0456 143.447 57.7246C142.814 56.6424 141.914 55.9727 140.747 55.7153C139.579 55.4579 137.86 55.3687 135.588 55.4475C134.216 55.4852 133.038 55.4832 132.052 55.4415C131.067 55.3998 130.049 55.2373 128.998 54.954C127.947 54.6706 126.955 54.1983 126.023 53.5369C125.082 52.8615 124.258 51.9196 123.552 50.711C122.92 49.4996 122.573 48.2451 122.512 46.9474C122.443 45.6357 122.637 44.357 123.097 43.1115C123.548 41.8518 124.223 40.7022 125.123 39.6626C126.037 38.6152 127.131 37.7478 128.406 37.0603C129.383 36.5708 130.334 36.233 131.262 36.0471C132.181 35.847 133.319 35.7788 134.675 35.8423L137.52 40.7118C136.688 40.6427 136.133 40.6279 135.855 40.6671C135.582 40.6846 135.177 40.7 134.638 40.7133C134.106 40.7047 133.522 40.7699 132.887 40.9089C132.267 41.0401 131.656 41.268 131.054 41.5925C129.716 42.3327 128.823 43.3684 128.376 44.6997C127.922 46.017 128.01 47.2166 128.642 48.2987C129.27 49.3092 130.137 49.9227 131.244 50.1393C132.356 50.3342 133.972 50.3591 136.091 50.2142C137.549 50.1302 138.756 50.0988 139.71 50.1201C140.679 50.1337 141.703 50.2744 142.783 50.5423C143.862 50.8102 144.904 51.3202 145.909 52.0722C146.913 52.8241 147.824 53.8669 148.641 55.2006C149.364 56.4373 149.788 57.7607 149.915 59.1708C150.034 60.5668 149.871 61.9484 149.426 63.3156C148.981 64.6827 148.287 65.9443 147.342 67.1006C146.403 68.235 145.268 69.1615 143.936 69.8799Z" fill="#FFBD0C"/>
<path d="M147.023 27.6843L169.013 19.5758L171.114 24.8357L162.685 27.9439L173.988 56.2384L168.857 58.1303L157.554 29.8359L149.124 32.9442L147.023 27.6843Z" fill="#FFBD0C"/>
<path d="M221.234 26.5248C221.712 28.9852 221.68 31.3801 221.138 33.7095C220.609 36.02 219.675 38.1222 218.336 40.016C216.996 41.9097 215.321 43.5249 213.309 44.8613C211.295 46.1818 209.03 47.0677 206.514 47.5191C203.983 47.9733 201.53 47.9339 199.155 47.4011C196.777 46.8523 194.608 45.9271 192.647 44.6255C190.687 43.3239 189.018 41.6889 187.64 39.7205C186.276 37.7332 185.354 35.5093 184.876 33.0489C184.401 30.6044 184.424 28.211 184.947 25.8685C185.483 23.5072 186.42 21.3796 187.76 19.4858C189.099 17.5921 190.776 15.9849 192.791 14.6644C194.805 13.3439 197.078 12.4566 199.61 12.0024C202.125 11.5511 204.57 11.5918 206.945 12.1247C209.32 12.6575 211.487 13.5747 213.448 14.8763C215.409 16.1779 217.074 17.8383 218.445 19.8575C219.829 21.8579 220.758 24.0803 221.234 26.5248ZM190.691 32.0054C191.023 33.7149 191.656 35.2631 192.589 36.6499C193.518 38.0208 194.653 39.1648 195.992 40.082C197.327 40.9832 198.81 41.6182 200.44 41.987C202.067 42.3399 203.738 42.3625 205.452 42.055C207.15 41.7502 208.692 41.1512 210.077 40.2579C211.458 39.3486 212.595 38.2436 213.486 36.9428C214.39 35.6232 215.018 34.163 215.369 32.5621C215.718 30.9453 215.727 29.2822 215.394 27.5726C215.062 25.8631 214.431 24.3229 213.501 22.952C212.568 21.5652 211.434 20.4212 210.098 19.52C208.776 18.6 207.301 17.9635 205.674 17.6106C204.047 17.2578 202.384 17.2337 200.686 17.5384C198.972 17.846 197.422 18.4464 196.037 19.3398C194.653 20.2331 193.508 21.3395 192.604 22.6592C191.697 23.9628 191.069 25.423 190.72 27.0398C190.369 28.6407 190.359 30.2959 190.691 32.0054Z" fill="#FFBD0C"/>
<path d="M245.075 33.1079L244.771 7.93882L250.24 7.87798L250.543 33.0471C250.58 36.0742 249.545 38.6737 247.439 40.8457C245.332 43.0015 242.766 44.0962 239.738 44.1299C236.711 44.1635 234.111 43.1263 231.937 41.0182C229.779 38.8937 228.682 36.3178 228.645 33.2907L228.342 8.12162L233.81 8.06078L234.114 33.2298C234.132 34.7434 234.684 36.0313 235.772 37.0935C236.859 38.1557 238.159 38.6783 239.673 38.6615C241.186 38.6447 242.465 38.0933 243.51 37.0074C244.572 35.9213 245.093 34.6215 245.075 33.1079Z" fill="#FFBD0C"/>
<path d="M264.816 8.39288L288.034 11.5935L287.198 17.1954L278.297 15.9685L273.797 46.103L268.379 45.3562L272.88 15.2217L263.98 13.9948L264.816 8.39288Z" fill="#FFBD0C"/>
<path d="M318.225 31.4107L320.902 32.4086C321.634 32.6816 322.361 32.6402 323.084 32.2846C323.828 31.9196 324.361 31.3372 324.685 30.5373C325.002 29.7526 325.011 28.9919 324.712 28.2553C324.434 27.5093 323.929 26.9998 323.197 26.7268L320.521 25.7289L318.225 31.4107ZM303.984 52.0688L317.445 18.7476L325.245 21.6562C327.396 22.458 328.924 23.8874 329.83 25.9443C330.736 28.0013 330.763 30.0862 329.909 32.1989C329.068 34.2815 327.624 35.7922 325.578 36.7309C326.938 37.7938 328.002 39.18 328.767 40.8895C329.988 43.6887 330.019 46.522 328.861 49.3893C327.702 52.2567 325.682 54.3251 322.8 55.5948C319.94 56.855 317.061 56.9449 314.163 55.8645L303.984 52.0688ZM315.72 37.6131L312.638 45.2417L311.156 48.9088L316.212 50.7939C317.691 51.3455 319.179 51.2666 320.677 50.5573C322.18 49.8329 323.246 48.6935 323.874 47.1392C324.496 45.5999 324.503 44.0832 323.896 42.5892C323.295 41.0801 322.254 40.0498 320.775 39.4982L315.72 37.6131Z" fill="#FFBD0C"/>
<path d="M348.673 30.9951L353.526 33.5674L338.355 59.9903L348.321 65.272L345.598 70.0146L330.778 62.1606L348.673 30.9951Z" fill="#FFBD0C"/>
<path d="M384.586 53.0028L370.261 87.5067L365.713 84.2547L367.991 78.8053L360.921 73.7499L356.141 77.41L351.593 74.158L381.885 51.0715L384.586 53.0028ZM365.735 70.0847L370.263 73.3225L375.151 62.5118L365.735 70.0847Z" fill="#FFBD0C"/>
<path d="M381.384 96.7625C380.253 95.6841 379.393 94.5935 378.802 93.4906C378.223 92.3989 377.801 91.0303 377.537 89.385L382.361 84.716C382.331 85.9227 382.363 86.7965 382.459 87.3374C382.567 87.867 382.727 88.481 382.941 89.1793C383.167 89.8889 383.48 90.6038 383.882 91.324C384.284 92.0442 384.767 92.6739 385.333 93.2131C386.499 94.3252 387.85 94.8503 389.388 94.7884C390.948 94.7263 392.278 94.1633 393.378 93.0994C394.279 92.2278 394.692 91.2171 394.617 90.0672C394.542 88.9173 394.143 87.3006 393.42 85.2172C392.993 83.9558 392.66 82.8632 392.422 81.9394C392.184 81.0156 392.057 80.0294 392.041 78.9808C392.026 77.9322 392.216 76.8884 392.611 75.8496C393.018 74.7994 393.724 73.7877 394.73 72.8142C395.76 71.9084 396.914 71.2558 398.192 70.8565C399.481 70.4459 400.813 70.2889 402.186 70.3854C403.572 70.4705 404.911 70.7927 406.204 71.3518C407.509 71.9221 408.685 72.7072 409.734 73.707C410.499 74.4823 411.107 75.275 411.556 76.0853C412.016 76.8842 412.407 77.9202 412.729 79.1932L408.676 83.1151C408.509 82.3264 408.366 81.8082 408.248 81.5606C408.153 81.3129 408.023 80.9412 407.857 80.4457C407.714 79.95 407.483 79.4265 407.164 78.8752C406.857 78.335 406.456 77.829 405.962 77.3572C404.843 76.3126 403.556 75.7591 402.1 75.6967C400.656 75.6231 399.484 76.022 398.583 76.8935C397.753 77.7422 397.387 78.7077 397.485 79.7898C397.606 80.8719 398.04 82.3757 398.786 84.3012C399.284 85.63 399.658 86.7393 399.907 87.6293C400.169 88.5304 400.319 89.5165 400.358 90.5876C400.397 91.6587 400.184 92.7589 399.719 93.8882C399.253 95.0175 398.471 96.1367 397.372 97.2458C396.343 98.2418 395.142 98.9847 393.771 99.4746C392.411 99.9531 390.986 100.167 389.495 100.116C388.004 100.065 386.548 99.7545 385.125 99.1846C383.727 98.6146 382.479 97.8073 381.384 96.7625Z" fill="#FFBD0C"/>
<path d="M424.67 88.6981L439.092 107.173L434.497 110.484L428.968 103.402L404.248 121.214L400.883 116.903L425.603 99.0912L420.075 92.0092L424.67 88.6981Z" fill="#FFBD0C"/>
<path d="M447.168 157.469C444.908 158.554 442.563 159.139 440.131 159.223C437.722 159.315 435.397 158.97 433.156 158.187C430.915 157.404 428.847 156.231 426.953 154.668C425.073 153.099 423.543 151.18 422.364 148.913C421.177 146.632 420.495 144.298 420.317 141.911C420.154 139.517 420.419 137.224 421.113 135.033C421.807 132.841 422.911 130.84 424.427 129.03C425.965 127.227 427.863 125.783 430.123 124.698C432.368 123.621 434.71 123.029 437.148 122.923C439.609 122.824 441.96 123.166 444.201 123.949C446.442 124.732 448.502 125.908 450.382 127.478C452.262 129.048 453.795 130.973 454.982 133.255C456.161 135.522 456.84 137.849 457.017 140.235C457.195 142.622 456.937 144.911 456.244 147.103C455.55 149.295 454.42 151.299 452.852 153.116C451.308 154.94 449.413 156.391 447.168 157.469ZM432.849 129.94C431.279 130.694 429.955 131.69 428.876 132.93C427.812 134.163 427.029 135.531 426.528 137.035C426.041 138.532 425.857 140.1 425.976 141.739C426.11 143.371 426.579 144.959 427.382 146.504C428.178 148.035 429.215 149.341 430.494 150.424C431.787 151.5 433.198 152.293 434.729 152.803C436.282 153.321 437.891 153.541 439.556 153.463C441.235 153.379 442.86 152.96 444.43 152.206C446 151.452 447.317 150.459 448.381 149.226C449.46 147.987 450.243 146.618 450.73 145.122C451.239 143.632 451.426 142.071 451.292 140.439C451.159 138.807 450.694 137.226 449.898 135.695C449.094 134.15 448.053 132.836 446.775 131.754C445.497 130.671 444.081 129.871 442.528 129.353C440.99 128.829 439.381 128.609 437.702 128.693C436.037 128.771 434.419 129.186 432.849 129.94Z" fill="#FFBD0C"/>
<path d="M447.34 181.357L471.553 174.482L473.161 179.709L448.948 186.584C446.035 187.411 443.232 187.099 440.539 185.648C437.861 184.192 436.077 182.018 435.186 179.124C434.296 176.231 434.561 173.466 435.98 170.83C437.42 168.205 439.596 166.48 442.508 165.653L466.722 158.777L468.33 164.004L444.116 170.88C442.66 171.293 441.573 172.16 440.856 173.48C440.138 174.8 440.002 176.184 440.447 177.63C440.892 179.077 441.787 180.159 443.131 180.877C444.481 181.611 445.883 181.77 447.34 181.357Z" fill="#FFBD0C"/>
<path d="M475.844 190.257L479.213 213.451L473.599 214.204L472.308 205.313L442.109 209.362L441.323 203.95L471.521 199.901L470.23 191.01L475.844 190.257Z" fill="#FFBD0C"/>
</svg>
