<svg width="1440" height="911" viewBox="0 0 1440 911" fill="none" xmlns="http://www.w3.org/2000/svg">
<g clip-path="url(#clip0_690_604)">
<rect width="1440" height="911" fill="#0F0B36"/>
<rect x="-12" width="1452" height="911" fill="#0F0B36"/>
<path d="M779.076 -54.3101C780.885 -53.4113 782.711 -52.4955 784.646 -51.5283C787.993 -51.3472 791.466 -51.1645 795.229 -50.9618C796.289 -47.9902 797.107 -45.1135 798.35 -42.3404C799.294 -40.2479 800.575 -38.302 804.24 -38.2425C805.434 -38.2202 806.513 -36.8032 807.81 -36.2447C808.89 -35.7724 810.183 -35.6152 811.573 -35.2813C814.269 -31.321 816.974 -27.3773 819.84 -23.1893C819.749 -22.3795 819.609 -21.2359 819.508 -20.3259C822.887 -18.2635 825.256 -21.1616 828.037 -20.6527C828.363 -20.6154 828.707 -20.6365 828.977 -20.5247C832.246 -19.0822 835.569 -17.6725 838.755 -16.1223C839.475 -15.7628 839.8 -14.8813 840.165 -14.4172C843.242 -13.5872 846.138 -12.7927 849.467 -11.8761C850.783 -12.1701 852.588 -12.5753 854.794 -13.0679C855.963 -12.4524 857.314 -11.8431 858.527 -11.085C862.346 -8.76665 866.788 -9.40028 871.334 -9.57294C872.776 -6.68888 872.248 -3.35132 875.903 -0.934622C876.934 -0.864078 878.49 -0.770698 879.765 -0.697303C882.759 -2.09181 885.453 -3.34771 887.628 -4.36724C891.37 -3.19507 894.526 -2.18856 898.584 -0.91239C899.19 -0.0610367 900.258 1.4561 901.433 3.14168C904.956 6.10018 909.92 5.71506 913.784 5.77686C917.179 7.23756 914.509 8.82811 915.217 10.1404C915.953 11.4949 916.452 12.9218 917.21 14.7195C920.343 13.7697 923.231 12.9006 926.91 11.7815L935.272 11.8791C937.153 10.4549 934.668 9.37263 935.162 8.13285C935.965 6.78801 936.768 5.44319 937.71 3.85755C939.429 3.12527 941.357 2.32019 943.385 1.46613C946.209 2.24306 948.87 2.9763 951.55 3.7181C952.242 4.88812 952.899 5.9825 953.52 7.04302C958.509 9.23285 961.901 5.54418 966.322 5.16108C966.97 5.46958 967.771 5.84675 968.653 6.275C968.825 10.1808 965.983 13.2824 964.388 16.5741C964.814 18.8026 967.447 18.1061 968.868 18.9168C970.108 19.6251 971.413 20.2756 972.484 20.8482C973.736 20.5786 974.643 20.3802 975.904 20.1023C976.083 21.0908 976.236 21.9536 976.456 23.2602C977.872 23.6947 979.531 24.1989 981.272 24.7291C984.164 22.7483 986.792 20.9733 989.583 19.0833C995.063 18.7627 1000.71 18.4356 1006.92 18.0734C1009.18 19.6714 1006.81 22.6614 1008.85 24.6831C1011 26.7813 1013.76 26.8469 1016.59 25.927C1018.32 25.362 1019.75 24.2753 1021.5 23.7439C1022.87 23.3253 1024.5 23.3777 1025.69 23.2579C1025.59 20.9078 1025.49 18.9923 1025.41 17.2526C1028.23 15.7057 1030.56 15.9585 1033.38 17.3707C1033.52 17.9742 1033.71 18.8792 1034.11 20.7731C1034.48 21.0951 1035.72 22.1629 1036.84 23.1373C1041.98 21.7678 1045.68 19.0189 1047.19 15.6844C1048.82 12.0421 1053.23 10.7895 1055.43 7.84763C1055.92 7.20129 1057.69 7.14677 1058.26 6.98615C1061.95 4.82236 1060.56 0.75186 1065.3 -0.74764C1062.93 -2.50565 1060.9 -3.98384 1058.57 -5.71636C1060.16 -6.79291 1061.76 -7.87761 1063.54 -9.09402C1064.84 -8.3432 1065.83 -7.79666 1066.88 -7.21605C1067.36 -4.68587 1067.84 -2.28115 1068.35 0.33293C1071.47 1.28051 1074.38 2.15032 1077.62 3.12434C1078.71 2.15911 1079.97 1.37965 1080.68 0.359729C1082.11 -1.70509 1084.02 -3.22093 1087.04 -4.35601C1089.56 -3.56585 1092.18 -2.75781 1095.16 -1.82864C1097.02 -5.69407 1099.29 -9.42917 1103.33 -11.9567C1103.78 -13.6986 1104.13 -15.1406 1104.46 -16.3907C1107.18 -18.7414 1110.89 -18.8235 1114.55 -19.8842C1115.3 -19.4407 1116.3 -18.9024 1117.24 -18.2813C1118.22 -17.6513 1119.12 -16.9385 1120.13 -16.2246C1122.93 -16.6099 1125.65 -16.9878 1127.82 -17.2884C1128.73 -17.0354 1129.09 -17.0145 1129.3 -16.8615C1131.64 -15.2126 1133.93 -13.5306 1136.26 -11.8567C1135.93 -10.7488 1135.65 -9.79078 1135.37 -8.81593C1137.35 -5.29867 1142.58 -4.87823 1145.02 -2.35031C1156.08 -1.57759 1161.69 0.694757 1168.23 5.54425C1169.96 5.61457 1172.18 5.57357 1174.36 5.82469C1176.53 6.0757 1178.64 6.62698 1181.08 7.1153C1183.33 5.58666 1185.71 3.96765 1188.37 2.15133C1189.44 2.83255 1190.57 3.53948 1192.08 4.48497C1193.25 4.22288 1194.71 3.89708 1195.44 3.73012C1198.97 1.0879 1195.96 -3.1018 1201.27 -4.38569C1198.76 -6.51315 1196.87 -8.0816 1194.95 -9.72578C1194.95 -11.8406 1198.36 -11.5584 1199.16 -13.1875C1199.11 -14.116 1199.04 -15.0447 1198.96 -16.241C1202.27 -16.5284 1205.33 -16.6014 1209.04 -15.7055C1207.16 -13.4536 1205.58 -11.5495 1203.63 -9.21486C1204.55 -8.56051 1205.25 -8.08421 1206.06 -7.51461C1208.13 -7.95859 1209.89 -8.44795 1211.7 -8.66933C1213.54 -8.907 1215.46 -8.89297 1217.73 -9.01691C1219.11 -11.2076 1220.49 -13.3816 1221.88 -15.5556C1225.92 -17.5481 1229.51 -13.7194 1233.67 -15.3094C1233.98 -13.7593 1234.21 -12.5362 1234.5 -11.0783C1236.34 -10.0119 1238.36 -8.83467 1240.45 -7.62331C1241.43 -8.30564 1242.35 -8.93864 1243.38 -9.66223C1244.19 -9.46049 1245.07 -9.1994 1245.98 -9.01333C1247.2 -8.76504 1248.44 -8.59166 1249.68 -8.36824C1250.6 -8.19866 1251.58 -8.10368 1252.42 -7.80132C1253.26 -7.50722 1253.99 -6.97211 1255.17 -6.32305C1252.96 -4.80234 1251.34 -3.69279 1249.7 -2.55826C1249.12 -0.14919 1248.94 2.26453 1250.13 4.75281C1252.53 3.6774 1252.77 3.45449 1254.63 0.826277C1256.29 1.02948 1258.1 1.25964 1260.27 1.51902C1262.02 0.553023 1264.06 -0.56838 1266.15 -1.71435C1263.59 -5.02941 1269.64 -6.86475 1267.48 -9.61507C1268.62 -10.212 1269.12 -10.6743 1269.68 -10.7179C1271.87 -10.9181 1274.07 -10.9844 1276.05 -11.0783C1277.48 -10.0251 1278.61 -9.17594 1279.94 -8.1823C1282.93 -8.05551 1286.16 -8.1599 1289.25 -7.68916C1292.29 -7.24414 1295.2 -6.20705 1298.03 -5.46345C1299.2 -6.62844 1300.16 -7.59526 1301.11 -8.5205C1303.71 -8.25606 1306.13 -8.82964 1308.52 -7.78196C1310.37 -6.96629 1312.54 -6.60652 1314.61 -6.0307L1332.34 -12.5948L1345.26 -9.05854L1365.52 -12.2077L1386.26 -11.9657L1408.05 -14.1022L1412.87 -13.3521L1439.64 -9.15272L1468.64 -6.69936L1491.14 10.3988C1491.77 10.6234 1492.43 10.7816 1493.13 10.9235L1492.48 66.497C1492.07 66.8015 1491.63 67.089 1491.18 67.4014C1490.26 67.2402 1489.07 67.0507 1487.64 66.8167C1484.87 67.5283 1481.86 68.279 1477.9 69.261C1476.72 69.4478 1474.86 67.3781 1472.53 68.5714C1470.43 69.642 1468.35 68.9239 1466.13 68.6388C1464.08 68.3725 1461.85 69.0319 1459.84 69.2759C1457.14 67.6646 1454.67 66.1812 1452.48 64.8683C1446.47 65.141 1440.97 65.3944 1435.05 65.6514C1433.98 64.6608 1432.77 63.5433 1431.52 62.4001C1431.06 62.3949 1430.37 62.2196 1429.94 62.3985C1425.52 64.3197 1421.14 66.3082 1416.89 68.198C1414.91 70.2229 1413 72.1651 1410.8 74.4048C1406.16 69.3936 1399.5 69.2155 1393.52 69.6223C1386.92 70.072 1380.93 69.5757 1374.85 67.3981C1373.52 65.8948 1372.12 64.2818 1370.8 62.7951C1367.54 63.2084 1365.51 66.7208 1362.05 64.1057C1360.95 62.5966 1364.86 60.9285 1361.62 59.4613C1357.92 60.672 1358.54 64.0815 1356.25 66.0861C1353.11 66.0578 1353.49 62.7937 1351.47 62.4693C1350.21 62.2539 1349.45 61.8856 1349 62.056C1345.09 63.5149 1340.93 64.2271 1336.73 64.9805C1332.96 65.6639 1329.51 67.0112 1328.52 69.4406C1323.72 71.3574 1319.8 72.9417 1314.96 74.8748L1304.13 74.7484C1300.03 74.0401 1296.85 71.5204 1293.33 68.9213C1287.15 68.7405 1280.84 68.2657 1274.25 69.1919C1274.02 68.7044 1273.61 68.0642 1273.41 67.3933C1273.21 66.6636 1273.2 65.9028 1273.06 64.6807C1271.58 63.6019 1269.79 62.2852 1268.09 61.0533C1263.2 63.7214 1263.2 63.7214 1260.51 68.1037L1248.1 67.9589C1247.87 67.8642 1247.07 67.7546 1246.78 67.3834C1243.63 63.3509 1239.11 62.0108 1233.16 61.933C1227.52 61.8505 1222.01 60.6577 1217.69 57.1298C1214.82 54.7892 1211.01 53.1983 1206.81 52.8399C1204.06 52.5989 1202.1 51.4809 1200.24 50.1552C1198.23 50.7754 1196.48 51.3067 1194.54 51.911C1191.93 50.9276 1188.07 51.8104 1186.93 48.7293C1183.35 49.2894 1184.04 51.9473 1182.76 53.4204C1180.67 53.7804 1178.84 54.0852 1177.15 54.3914C1176.25 55.2503 1175.46 56.0269 1174.67 56.8034C1172.54 56.5863 1170.74 56.4065 1168.62 56.1895C1166.87 59.0698 1165.11 61.9583 1163.4 64.7887C1161.68 63.3058 1159.8 61.6873 1158.03 60.1703C1154.39 61.3818 1153.05 63.69 1151.7 65.9312C1150.28 68.2469 1148.49 70.2239 1144.98 71.5706C1143.61 71.1617 1141.94 70.6658 1140.24 70.1528C1139.71 68.2072 1139.25 66.53 1138.85 65.0624C1136.73 63.5246 1134.44 63.9995 1131.58 64.0246C1127.27 66.7078 1121.87 68.6511 1115.48 69.4292C1114.78 68.8108 1113.56 68.1695 1113.22 67.3296C1112.16 64.7259 1111.59 62.0109 1110.57 59.4075C1110.13 58.2989 1109.02 57.3582 1108.47 56.6579C1105.58 55.9973 1104.5 57.5645 1103.08 58.1749C1102.27 58.1655 1101.61 58.2915 1101.08 58.1265C1097.83 57.1356 1094.64 56.0284 1091.36 55.0873C1090.24 54.7566 1088.92 54.7831 1087.69 54.7102C1087.46 54.6907 1087.21 54.9637 1086.47 55.3814C1086.36 55.9987 1085.81 57.0038 1086.08 57.8763C1086.58 59.5372 1087.54 61.1116 1088.13 62.3139C1090.94 64.1523 1095.38 62.4821 1096.46 65.8719C1094.97 68.3204 1092.11 69.3655 1089.07 70.1993C1084.82 67.7422 1079.91 67.7017 1074.7 67.8164C1071.98 68.7042 1069.08 69.6568 1066.36 70.5362C1062.17 69.735 1058.23 68.9868 1053.98 68.1765C1053.49 69.7256 1053.04 71.1247 1052.6 72.5072C1050.33 74.0524 1048.06 75.3801 1044.89 74.1226C1043.41 75.3258 1041.93 76.529 1040.32 77.8476C1037.2 76.7329 1034.32 75.7213 1031.22 74.6151C1027.91 75.7301 1024.76 77.6494 1020.98 77.3712C1017.55 77.1139 1014.21 76.2975 1010.81 75.7228C1009.69 74.8821 1008.55 74.0329 1007.2 73.0308C1005.76 73.106 1004.02 72.8934 1002.66 73.3457C1000.98 73.9196 999.339 74.2598 997.691 74.2657C995.625 74.5091 993.52 74.1669 991.38 72.9382C990.856 72.8652 990.341 72.8257 989.816 72.8112C986.957 72.7194 984.088 72.711 981.174 72.6853C979.123 73.163 977.133 73.8252 975.206 74.5718C973.993 75.335 972.78 76.0816 971.586 76.8367C971.007 76.855 970.409 76.8898 969.829 76.9082C969.629 77.0061 969.42 77.0956 969.211 77.2019L959.084 77.0837C959.021 77.0579 958.958 77.0237 958.904 76.9897C951.431 76.7687 944.128 75.8643 937.14 73.626C935.063 74.8139 933.377 75.7806 931.791 76.6984C924.19 71.9034 924.19 71.9034 922.304 68.312C920.545 68.6091 918.75 68.8891 917.027 69.1615C913.432 71.6107 912.36 75.8531 907.132 77.1295C904.277 75.8674 901.297 74.562 898.118 73.1624C896.652 73.9561 895.368 74.6349 894.247 75.2405L883.469 75.1147C882.047 76.026 880.095 77.2738 878.171 78.5136C876.642 77.6849 875.338 76.9843 873.836 76.181C871.858 76.5675 869.772 76.9778 867.322 77.4592C865.584 76.0011 863.899 74.577 862.025 73.0087L857.175 72.9521C857.439 74.3345 857.652 75.4655 857.925 76.9566C856.552 79.0304 856.056 81.9337 851.752 83.1374C850.237 81.9076 848.767 80.7034 846.669 78.9987C845.033 78.8041 842.472 78.7407 840.117 78.1615C837.355 77.494 835.559 75.4585 833.228 74.3696C831.086 73.3666 829.144 72.2238 827.351 70.7567C825.273 71.209 823.485 71.6061 821.154 72.0971C819.222 70.8708 817.039 69.4912 814.559 67.9074C811.99 67.7688 809.15 67.6102 806.382 67.4609C802.269 66.2677 800.954 63.4269 799.927 60.6563C795.238 59.9997 790.909 59.3975 784.882 58.5498C782.238 58.636 779.339 61.2437 775.537 62.8294C774.066 62.5029 772.558 62.176 770.816 61.7795C767.544 62.9451 764.081 64.1837 760.2 65.5678C754.535 65.5017 748.479 65.6484 742.428 65.3019C735.192 64.9082 728.605 66.2608 722.047 68.9846C720.956 70.2509 719.726 71.6827 718.286 73.3545C716.018 73.7376 713.464 73.9084 711.175 74.6257C708.577 75.4313 706.227 76.7163 703.752 77.8076C700.609 76.5086 699.584 79.7819 696.995 79.7851L685.937 79.6561C676.375 76.1088 665.938 73.1282 656.057 69.0422C655.527 67.1635 655.058 65.4862 654.553 63.7416C653.098 62.8552 651.707 61.7857 650.086 61.0646C647.088 59.7423 644.107 58.4704 640.331 59.3709C636.883 60.1833 633.444 59.324 630.316 58.2509C628.407 59.7584 626.717 61.0929 624.689 62.6909C621.493 60.4802 618.673 58.5414 616.088 56.7558C613.866 56.2952 612.005 56.0227 609.936 57.2859C610.202 58.4927 610.512 59.8923 610.838 61.4342C609.965 62.586 608.99 63.8452 607.961 65.1874C604.344 64.9279 600.955 63.7431 598.303 65.3004C594.892 63.6389 592.247 62.2622 589.492 61.0431C588.132 60.4337 586.557 59.663 585.135 59.7216C579.485 59.9399 575.631 57.5209 572.413 54.8251C570.046 54.4547 568.454 55.1383 568.087 56.3461C566.967 59.9945 564.151 62.4861 559.873 64.5344C557.603 63.6051 555.162 62.5568 552.657 61.6164C550.08 60.6501 547.438 59.8 544.21 58.7091C539.376 57.2901 534.294 59.9727 528.848 59.7921C526.77 58.6393 524.702 57.4867 522.157 56.0861C521.629 54.826 519.967 52.9759 520.418 51.5935C521.675 47.7964 519.304 45.3947 516.427 43.0038C514.67 41.5538 512.739 40.2273 511.008 38.9281C511.234 37.3926 511.41 36.216 511.626 34.7556C507.204 31.3436 503.167 27.5014 501.26 22.6558C498.829 22.3265 497.003 22.0878 495.485 21.8946C491.603 24.1982 488.255 26.4413 487.059 29.6206C482.101 32.5721 476.344 31.0671 471.414 32.4557C469.767 33.9496 468.246 35.5535 466.429 36.92C464.621 38.2614 462.526 39.3738 460.175 40.8009C458.744 40.8929 456.869 41.0131 454.351 41.176C452.259 42.8067 449.658 44.6071 445.145 44.3705C444.362 43.9852 442.778 43.206 440.969 42.2989C440.559 44.1248 440.251 45.6593 439.871 47.2013C439.492 48.6514 439.068 50.1093 438.614 51.801C436.755 52.8409 434.697 53.9705 432.519 55.1906C428.757 53.4247 425.353 51.1363 420.614 50.8386C419.068 50.737 417.646 49.2575 415.749 48.1654C414.409 48.9857 412.969 49.855 412.248 50.3063C410.428 51.9402 412.703 53.9897 409.944 54.6346C407.975 53.55 406.014 52.4822 404.305 51.5428C400.97 54.2373 397.909 56.7261 394.775 59.2559C392.297 58.2991 390.164 57.2961 387.873 56.6508C385.257 55.893 384.31 53.299 380.688 53.3821C378.516 53.4403 376.255 51.7254 373.724 50.6676C373.144 50.7194 372.185 50.7166 371.277 50.8899C370.37 51.0632 369.515 51.4294 368.607 51.703C367.099 51.4012 365.591 51.0827 363.831 50.7194C362.871 52.2547 362.093 53.8506 360.927 55.2413C359.89 56.4831 358.43 57.4776 357.305 58.4508C356.87 60.1176 356.5 61.5595 356.178 62.8012C355.421 63.2689 354.973 63.6064 354.436 63.8676C350.959 65.5992 347.236 65.8567 343.505 64.5091C340.314 63.3601 337.362 63.5263 334.023 64.9335C328.054 63.075 321.753 61.5804 314.936 61.76C312.528 61.8238 310.05 60.8754 307.675 60.413C303.471 61.576 299.34 62.7148 294.418 64.0868C291.482 65.9167 287.808 68.1977 283.742 70.725C281.806 69.0974 280.13 67.6985 278.319 66.1811L272.283 66.1107C268.682 68.3257 272.558 70.4607 271.763 72.675C271.251 73.0954 270.716 73.9919 269.954 74.1168C266.009 74.8064 262.444 76.2611 258.719 77.5133C254.712 78.8375 250.37 80.1661 245.576 79.1154C244.021 78.2613 242.474 77.4073 240.495 76.331C238.47 76.1402 235.975 75.8854 233.435 75.6467C233.01 74.8226 232.357 74.1462 232.374 73.4944C232.408 72.057 232.778 70.6402 233.003 69.1967C231.371 67.907 230.191 69.7072 227.614 69.4849C226.894 69.1923 225.245 68.5043 223.525 67.7737C222.939 66.0699 222.378 64.45 221.749 62.5785C217.425 62.3692 213.336 62.1711 208.867 61.9685C206.9 60.6916 204.699 59.2699 202.238 57.6697C201.178 57.766 199.937 57.8184 198.74 58.0217C197.561 58.2086 196.426 58.5548 195.01 58.8977C193.677 57.5614 192.514 56.411 191.226 55.1086C187.068 53.8647 182.884 51.7511 177.966 53.6331C176.234 51.5565 177.417 50.2328 179.533 48.8364C180.909 48.7856 182.566 48.7464 184.848 48.6644C183.576 47.5461 182.778 46.8346 181.829 45.9793C182.811 43.2823 183.839 40.4939 184.97 37.4393C183.361 37.2366 182.148 37.2559 181.139 36.9014C180.03 36.529 179.088 35.8074 177.631 34.9712C176.73 36.223 175.94 37.2252 175.294 38.2877C174.768 39.1593 174.431 40.1083 173.985 41.0728C172.114 41.6612 170.388 42.2095 168.689 42.7497C168.741 43.7451 168.784 44.6902 168.845 45.6689C165.927 47.4907 162.666 46.1653 159.974 46.5435C154.427 44.088 150.254 40.3027 143.708 39.6913C142.951 40.2175 142.02 40.8503 140.852 41.6642L134.581 41.591C132.917 40.6772 131.352 39.823 129.679 38.9174C124.279 40.2253 118.869 41.5414 113.786 42.7695C110.293 42.0182 110.556 39.6388 109.544 37.9217C106.36 37.7675 107.397 39.6354 107.164 40.9785C106.038 41.2831 104.858 41.6037 103.351 42.0124C103.384 43.7683 103.327 45.615 103.45 47.4638C103.557 49.1286 103.855 50.7788 104.087 52.5955C102.141 53.392 100.486 54.0665 98.5305 54.8629C96.8641 54.1747 95.1976 53.4949 93.0808 52.6259C92.1041 50.2321 91.0661 47.6621 89.9134 44.8399C85.2962 46.4997 80.7244 48.1516 75.7711 49.9162C72.7734 48.527 69.5325 47.0346 66.0036 45.4052C64.27 45.828 62.5242 46.5182 60.7129 46.6141C58.9107 46.7101 57.0519 46.2203 54.0876 45.8513C53.0899 46.0319 50.9675 46.4168 48.8359 46.8182C47.9198 46.9831 46.7978 46.9616 46.1592 47.3888C40.7041 51.0534 34.1316 51.1857 27.4716 51.0662C25.8791 51.0309 24.2607 50.8867 22.6932 51.0356C20.5187 51.2359 18.3867 51.6624 15.712 52.0742C14.5418 51.5172 12.9669 50.7465 11.3381 49.9417C10.018 50.6118 8.68872 51.2818 7.0771 52.1072C-0.824189 49.7747 -10.5219 50.1464 -15.7471 43.4064C-17.3889 42.9442 -18.8593 42.5258 -20.5733 42.0376C-21.3502 40.3651 -22.0918 38.7598 -23.037 36.776C-24.3704 36.2505 -26.0465 35.6207 -28.1999 34.7847C-29.4725 33.6999 -31.1214 32.293 -33.0123 30.6827C-36.8963 32.3343 -40.4439 33.8561 -44.2459 35.4669C-45.5927 34.54 -46.6969 33.7664 -47.8011 32.9845C-48.5037 33.4778 -49.1975 33.988 -50.3384 34.8023C-51.0391 35.1285 -51.7738 35.262 -52.5253 35.2867L-51.8395 -23.488C-50.5021 -22.5278 -49.2724 -21.6524 -47.9527 -20.7259C-46.8487 -21.482 -45.7265 -22.2547 -44.5769 -23.0438C-39.518 -23.0015 -37.9344 -18.3185 -33.5333 -17.7489C-29.1502 -17.1878 -26.6698 -14.1245 -22.5335 -13.3573C-20.6608 -14.0627 -18.7845 -15.0774 -16.7349 -15.4296C-14.5491 -15.8221 -12.2694 -15.7286 -10.9238 -17.8027C-9.93069 -16.8131 -9.01788 -15.9247 -7.97974 -14.9178C-4.10281 -15.1903 -0.973653 -13.4317 2.51117 -11.9031C3.86671 -10.1736 5.33824 -8.3007 6.62256 -6.67237C11.5168 -5.7041 12.8883 -9.22407 16.3317 -10.3458C18.769 -10.5765 21.5689 -10.8448 24.0335 -11.0835C27.5035 -13.718 28.6523 -16.7641 28.8107 -20.2565C30.5932 -20.988 32.2576 -21.6791 34.1948 -22.4841C37.0915 -20.9707 39.9523 -19.4828 42.6421 -18.0805C42.8644 -16.9661 43.0171 -16.0866 43.2564 -14.8801C45.3437 -16.1347 46.994 -17.1771 48.698 -18.1603C49.1899 -18.4304 49.8607 -18.5145 50.5055 -18.7076C51.8109 -18.1073 53.1523 -17.4897 54.5746 -16.8295C58.223 -18.4588 57.0671 -21.7909 58.9801 -23.6243C58.3715 -24.9856 57.9751 -25.9182 57.587 -26.7837C60.8145 -31.1263 63.7246 -35.4141 64.561 -40.3949C69.6186 -43.3368 74.7093 -44.4728 80.226 -40.2288C79.3194 -38.5424 78.366 -36.7312 77.4408 -35.0033C77.9696 -33.0076 78.4723 -31.1042 79.0269 -28.9912C81.1375 -29.1421 83.2306 -29.3434 85.3402 -29.4107C87.2416 -29.4721 89.1594 -29.3828 91.5213 -29.3553C96.2466 -34.0733 105.069 -33.9202 110.704 -39.0205C110.636 -40.2 110.529 -41.8396 110.422 -43.5545C111.454 -44.3701 112.837 -44.2202 113.735 -43.541C115.08 -42.5389 116.061 -41.2568 117.17 -40.1154C119.645 -41.2484 117.234 -42.4636 117.818 -43.6522C119.009 -45.6779 121.106 -45.4111 123.55 -44.6636C126.466 -47.1458 129.428 -49.6608 132.682 -52.4483C136.441 -48.8266 141.974 -47.5332 146.655 -44.5612C148.995 -44.977 151.68 -45.4639 153.757 -45.8493C156.211 -45.1435 158.15 -44.5859 161.659 -43.5837C162.628 -42.8618 163.654 -40.0495 167.637 -40.0866C168.543 -37.8274 169.541 -35.7342 170.213 -33.5864C170.815 -31.6902 169.641 -29.5806 171.229 -27.5809C174.511 -26.5144 175.744 -29.8187 178.614 -29.827C181.827 -29.8397 183.606 -31.8753 185.508 -33.4916C187.382 -35.083 188.942 -36.9122 190.838 -38.8378C192.269 -38.1608 193.295 -37.689 193.943 -37.3722C195.124 -35.4107 192.648 -34.9881 192.444 -33.7868C192.721 -33.4325 192.896 -32.9121 193.328 -32.6981C196.297 -31.2591 199.323 -29.8947 202.491 -28.4115C205.602 -28.952 208.967 -29.5314 212.594 -30.1661C213.361 -31.4863 214.137 -32.8148 215.033 -34.3591C218.63 -36.2649 218.63 -36.2482 222.452 -36.5212C223.894 -34.4062 225.344 -32.2577 226.902 -29.9992C226.176 -29.0547 225.385 -28.0107 224.558 -26.9336C227.502 -23.2546 232.828 -23.6271 237.402 -22.3449C238.289 -20.8132 239.194 -19.2645 240.241 -17.4718C241.927 -17.6778 243.703 -17.8828 245.761 -18.1346C246.829 -16.6258 247.898 -15.1003 249.046 -13.4903C266.63 -3.97287 263.02 -6.44755 277.917 -6.3824C279.887 -7.63003 282.093 -9.02537 283.917 -10.1744C288.362 -11.0421 291.962 -10.0972 295.603 -8.75905C299.429 -10.1271 303.155 -11.4546 307.236 -12.92C309.351 -11.0563 311.42 -9.24325 313.472 -7.44713L317.725 -7.3975C322.088 -8.95994 323.811 -13.1529 329.014 -13.0003C331.459 -10.8652 331.594 -8.41434 331.943 -5.80215L341.437 -5.69138C339.59 -7.20089 338.119 -8.37999 336.254 -9.89807C339.093 -11.1523 341.376 -12.1706 344.324 -13.482C339.041 -16.7954 333.676 -16.9834 328.142 -16.63C326.813 -18.3007 329 -20.3483 326.558 -22.0486C324.197 -23.6979 325.331 -26.2426 325.536 -28.33C329.584 -30.1135 333.405 -31.7909 337.618 -33.656C338.929 -35.9395 340.352 -38.4056 341.885 -41.0377C342.839 -41.3776 343.985 -41.7822 345.084 -42.1874C345.568 -41.7554 346.18 -41.464 346.311 -41.0696C346.983 -38.9385 345.779 -37.3392 343.828 -36.0914C346.587 -34.4792 349.347 -32.8839 352.242 -31.2033C353.539 -31.4389 355.045 -31.7056 356.632 -31.9964C357.359 -31.503 358.051 -31.0268 358.589 -30.6444C359.286 -29.0396 357.755 -28.2049 357.209 -27.1078C352.097 -24.9522 352.097 -24.9522 346.38 -25.2112C347.864 -22.0759 349.632 -19.2549 351.541 -16.9003C354.027 -15.8264 354.691 -17.7162 356.748 -17.9096C357.236 -17.0512 357.658 -15.968 358.435 -15.0895C359.132 -14.304 360.229 -13.7311 360.867 -13.289C361.363 -11.5863 358.668 -9.44428 362.763 -9.02033C363.863 -12.5184 364.035 -16.4536 369.382 -18.6148C371.07 -17.4666 372.696 -16.3526 374.635 -15.0175C374.368 -13.842 374.11 -12.683 373.69 -10.8322C374.49 -10.3046 375.693 -9.51311 377.301 -8.44108C380.363 -9.46699 383.506 -10.5003 386.623 -11.5423C388.974 -11.3644 387.839 -9.48006 389.581 -8.29779C390.096 -8.21655 391.279 -7.96869 392.49 -7.82917C393.737 -7.67251 394.985 -7.61615 396.016 -7.53725C397.354 -6.56868 398.475 -5.74474 399.938 -4.67439C405.133 -8.4925 410.647 -11.7886 412.008 -17.4989C413.635 -18.1653 415.036 -18.7341 416.837 -19.4655C418.942 -19.14 421.752 -17.9954 423.696 -18.5913C426.575 -19.4521 428.609 -18.4253 431.544 -17.8895C435.088 -19.1605 439.697 -19.2656 443.674 -21.9109C443.54 -23.6261 443.417 -25.5502 443.175 -28.8382C443.66 -30.8555 447.519 -31.8721 450.597 -33.5081C453.885 -32.9347 452.985 -30.2535 454.461 -28.765C455.785 -27.4539 457.063 -26.1098 458.638 -24.4949C459.199 -24.5134 460.394 -24.583 462.106 -24.6717C462.281 -23.3907 462.447 -22.0847 462.697 -20.2428C465.295 -21.8091 467.501 -23.1459 469.716 -24.4743C473.62 -25.5823 477.192 -24.4873 481.006 -23.306C482.939 -23.7599 485.036 -24.2453 487.423 -24.811C488.806 -23.8921 490.207 -22.9729 491.563 -22.071C494.75 -22.1341 494.807 -23.8973 494.876 -25.9696C499.893 -26.1702 504.9 -26.3792 509.865 -25.2931C512.519 -27.7449 516.386 -27.984 520.254 -29.0339C522.483 -27.6704 524.693 -26.3071 526.626 -25.131C528.763 -25.2565 530.641 -25.5941 532.449 -25.4308C536.798 -25.0541 541.108 -24.4354 545.428 -23.9252C547.552 -23.6663 549.694 -23.4073 551.818 -23.1568C553.339 -25.4964 556.314 -23.7229 558.297 -24.5524C560.516 -25.4712 562.575 -26.6341 564.66 -27.7383C565.708 -28.2945 566.595 -29.1285 567.722 -29.4748C569.484 -30.0143 571.387 -30.2261 573.31 -30.6049C575.917 -29.8138 578.323 -28.9248 579.926 -26.7159C581.449 -24.5832 583.827 -22.8418 585.689 -21.0646C590.143 -20.3523 594.145 -19.7037 598.156 -19.0885C598.436 -19.0518 598.772 -19.1732 599.598 -19.3057C600.199 -20.4105 600.938 -21.7394 601.891 -23.4837C603.665 -24.2739 605.839 -25.2265 607.75 -26.082C608.744 -25.9199 609.358 -25.8208 609.963 -25.7218C613.36 -25.1806 615.871 -25.494 618.463 -26.6257C621.456 -27.9366 624.328 -29.7421 627.548 -30.3065C631.765 -31.0347 633.892 -33.3337 636.685 -35.3826C635.619 -36.3062 634.804 -37.0179 633.889 -37.7893C634.719 -39.8527 635.324 -42.0442 638.081 -43.2993C639 -41.366 639 -41.3659 638.302 -39.0084C639.693 -37.989 641.228 -36.8594 643.049 -35.5006C642.423 -34.5717 642.077 -33.5893 641.282 -32.9549C639.793 -31.7602 638.052 -30.744 636.219 -29.5198C637.723 -28.892 639.101 -28.2992 640.857 -27.5514C642.384 -28.0937 644.065 -28.6759 645.683 -29.2506C645.467 -30.9333 645.293 -32.3481 645.086 -33.9805C649.115 -35.6388 653.008 -37.2653 657.091 -38.9563C657.812 -40.2436 658.543 -41.606 659.403 -43.1843C660.357 -43.4406 661.528 -43.7697 663.217 -44.2348C664.484 -45.7999 665.972 -47.6634 667.441 -49.477C668.69 -49.429 669.621 -49.3763 670.915 -49.3194C671.512 -47.7242 672.099 -46.104 672.679 -44.5508C673.318 -44.2591 673.838 -43.8434 674.381 -43.812C676.289 -43.7312 678.448 -43.3466 680.039 -43.9048C685.009 -45.6357 690.031 -44.7411 694.946 -44.7674C696.023 -43.9356 696.911 -43.2565 697.862 -42.5265C699.181 -43.1632 700.528 -43.8078 701.83 -44.4363C708.145 -44.2205 711.574 -40.2015 716.036 -37.9509C718.703 -37.669 721.144 -37.4148 723.702 -37.1509C725.148 -38.4799 726.548 -39.7676 728.13 -41.2287C733.537 -41.5084 738.65 -40.688 743.553 -38.9172C745.66 -39.5028 746.318 -40.8243 746.445 -42.4194C746.55 -43.6637 746.682 -44.8826 746.834 -46.2852C748.915 -46.9882 750.887 -47.6507 753.24 -48.4341C753.11 -49.6727 752.996 -50.8444 752.843 -52.4511C753.877 -52.6146 755.077 -53.1022 756.08 -52.9066C757.19 -52.693 758.259 -51.97 759.111 -51.2829C759.981 -50.5873 760.567 -49.6693 761.398 -48.6983C762.658 -48.8424 763.836 -48.9708 764.597 -49.0539C766.227 -50.6733 762.724 -52.9879 766.734 -53.8021C767.541 -52.3549 768.365 -50.8907 769.323 -49.191C771.293 -48.9339 773.127 -48.6701 774.962 -48.4564C776.752 -48.2349 778.541 -48.0469 780.241 -47.8599C782.527 -50.6085 778.079 -51.1034 777.775 -52.9209C778.114 -53.2848 778.471 -53.6652 779.076 -54.3101Z" fill="white"/>
</g>
<defs>
<clipPath id="clip0_690_604">
<rect width="1440" height="911" fill="white"/>
</clipPath>
</defs>
</svg>
