<svg width="1440" height="911" viewBox="0 0 1440 911" fill="none" xmlns="http://www.w3.org/2000/svg">
<g clip-path="url(#clip0_681_238)">
<rect width="1440" height="911" fill="white"/>
<rect x="-12" width="1452" height="911" fill="#240724"/>
<path d="M779.076 -57.3101C780.885 -56.4113 782.712 -55.4955 784.646 -54.5283C787.993 -54.3472 791.466 -54.1645 795.229 -53.9618C796.29 -50.9902 797.107 -48.1135 798.351 -45.3404C799.295 -43.2479 800.575 -41.302 804.24 -41.2425C805.434 -41.2202 806.513 -39.8032 807.81 -39.2447C808.891 -38.7724 810.183 -38.6152 811.573 -38.2813C814.269 -34.321 816.974 -30.3773 819.84 -26.1893C819.749 -25.3795 819.609 -24.2359 819.508 -23.3259C822.887 -21.2635 825.256 -24.1616 828.038 -23.6527C828.363 -23.6154 828.707 -23.6365 828.977 -23.5247C832.246 -22.0822 835.569 -20.6725 838.755 -19.1223C839.475 -18.7628 839.8 -17.8813 840.165 -17.4172C843.242 -16.5872 846.138 -15.7927 849.467 -14.8761C850.783 -15.1701 852.589 -15.5753 854.794 -16.0679C855.963 -15.4524 857.314 -14.8431 858.527 -14.085C862.346 -11.7667 866.789 -12.4003 871.334 -12.5729C872.776 -9.68888 872.248 -6.35132 875.904 -3.93462C876.934 -3.86408 878.49 -3.7707 879.765 -3.6973C882.759 -5.09181 885.453 -6.34771 887.628 -7.36724C891.37 -6.19507 894.526 -5.18856 898.584 -3.91239C899.19 -3.06103 900.258 -1.54389 901.433 0.141682C904.956 3.10018 909.92 2.71506 913.784 2.77686C917.179 4.23756 914.509 5.82811 915.218 7.14043C915.953 8.49486 916.452 9.92178 917.21 11.7195C920.343 10.7697 923.232 9.90057 926.91 8.78155L935.272 8.87912C937.153 7.45491 934.668 6.37263 935.162 5.13286C935.965 3.78802 936.768 2.44319 937.71 0.857553C939.429 0.125275 941.357 -0.679811 943.385 -1.53387C946.209 -0.756944 948.871 -0.0237074 951.55 0.718098C952.242 1.88812 952.899 2.9825 953.521 4.04302C958.509 6.23285 961.901 2.54418 966.322 2.16108C966.97 2.46958 967.771 2.84675 968.653 3.27501C968.825 7.18081 965.983 10.2824 964.388 13.5741C964.815 15.8026 967.447 15.1061 968.868 15.9168C970.109 16.6251 971.413 17.2756 972.484 17.8482C973.736 17.5786 974.643 17.3802 975.905 17.1023C976.083 18.0908 976.236 18.9536 976.456 20.2602C977.872 20.6947 979.531 21.1989 981.272 21.7291C984.164 19.7483 986.792 17.9733 989.583 16.0833C995.063 15.7627 1000.71 15.4356 1006.92 15.0734C1009.18 16.6714 1006.81 19.6614 1008.85 21.6831C1011 23.7813 1013.76 23.8469 1016.59 22.927C1018.32 22.362 1019.75 21.2753 1021.5 20.7439C1022.87 20.3253 1024.5 20.3777 1025.69 20.2579C1025.59 17.9078 1025.49 15.9923 1025.41 14.2526C1028.23 12.7057 1030.56 12.9585 1033.38 14.3707C1033.52 14.9742 1033.71 15.8792 1034.11 17.7731C1034.48 18.0951 1035.72 19.1629 1036.84 20.1373C1041.98 18.7678 1045.68 16.0189 1047.19 12.6844C1048.82 9.04211 1053.23 7.78955 1055.43 4.84763C1055.92 4.20129 1057.69 4.14677 1058.26 3.98616C1061.95 1.82236 1060.56 -2.24814 1065.3 -3.74764C1062.93 -5.50566 1060.9 -6.98384 1058.57 -8.71636C1060.16 -9.79291 1061.76 -10.8776 1063.54 -12.094C1064.84 -11.3432 1065.83 -10.7967 1066.88 -10.2161C1067.36 -7.68587 1067.84 -5.28115 1068.35 -2.66707C1071.47 -1.71949 1074.38 -0.849679 1077.62 0.124344C1078.71 -0.840891 1079.97 -1.62035 1080.68 -2.64027C1082.11 -4.70509 1084.02 -6.22092 1087.04 -7.35601C1089.56 -6.56585 1092.18 -5.75781 1095.16 -4.82864C1097.02 -8.69407 1099.29 -12.4292 1103.33 -14.9567C1103.78 -16.6986 1104.13 -18.1407 1104.46 -19.3907C1107.18 -21.7414 1110.89 -21.8235 1114.55 -22.8842C1115.3 -22.4407 1116.3 -21.9024 1117.24 -21.2813C1118.22 -20.6513 1119.12 -19.9385 1120.13 -19.2246C1122.93 -19.6099 1125.65 -19.9878 1127.82 -20.2884C1128.73 -20.0354 1129.09 -20.0145 1129.3 -19.8615C1131.64 -18.2126 1133.93 -16.5306 1136.26 -14.8567C1135.93 -13.7488 1135.65 -12.7908 1135.37 -11.8159C1137.35 -8.29867 1142.58 -7.87823 1145.02 -5.35031C1156.08 -4.57759 1161.69 -2.30524 1168.23 2.54425C1169.96 2.61457 1172.18 2.57357 1174.36 2.82469C1176.53 3.0757 1178.64 3.62699 1181.08 4.1153C1183.33 2.58666 1185.71 0.967655 1188.37 -0.848668C1189.44 -0.167448 1190.57 0.539475 1192.08 1.48497C1193.25 1.22288 1194.71 0.897087 1195.44 0.730119C1198.97 -1.91209 1195.96 -6.10179 1201.27 -7.38569C1198.76 -9.51315 1196.87 -11.0816 1194.95 -12.7258C1194.95 -14.8406 1198.36 -14.5584 1199.16 -16.1875C1199.11 -17.116 1199.04 -18.0447 1198.96 -19.241C1202.27 -19.5284 1205.33 -19.6014 1209.04 -18.7055C1207.16 -16.4536 1205.58 -14.5495 1203.63 -12.2149C1204.55 -11.5605 1205.25 -11.0842 1206.06 -10.5146C1208.13 -10.9586 1209.89 -11.4479 1211.7 -11.6693C1213.54 -11.907 1215.46 -11.893 1217.73 -12.0169C1219.11 -14.2076 1220.5 -16.3816 1221.88 -18.5556C1225.92 -20.5481 1229.51 -16.7194 1233.67 -18.3094C1233.98 -16.7593 1234.21 -15.5362 1234.5 -14.0783C1236.34 -13.0118 1238.36 -11.8347 1240.45 -10.6233C1241.43 -11.3056 1242.35 -11.9386 1243.38 -12.6622C1244.19 -12.4605 1245.07 -12.1994 1245.98 -12.0133C1247.2 -11.765 1248.44 -11.5917 1249.68 -11.3682C1250.6 -11.1987 1251.58 -11.1037 1252.42 -10.8013C1253.26 -10.5072 1253.99 -9.9721 1255.17 -9.32305C1252.96 -7.80234 1251.34 -6.69278 1249.7 -5.55825C1249.12 -3.14918 1248.94 -0.735465 1250.13 1.75281C1252.54 0.677407 1252.77 0.454489 1254.63 -2.17372C1256.29 -1.97052 1258.1 -1.74035 1260.27 -1.48098C1262.02 -2.44697 1264.06 -3.56838 1266.15 -4.71434C1263.59 -8.02941 1269.64 -9.86475 1267.48 -12.6151C1268.62 -13.212 1269.12 -13.6743 1269.68 -13.7179C1271.87 -13.9181 1274.07 -13.9844 1276.05 -14.0783C1277.48 -13.0251 1278.61 -12.1759 1279.94 -11.1823C1282.93 -11.0555 1286.16 -11.1599 1289.25 -10.6892C1292.29 -10.2441 1295.2 -9.20705 1298.03 -8.46345C1299.2 -9.62844 1300.17 -10.5953 1301.11 -11.5205C1303.71 -11.2561 1306.13 -11.8296 1308.52 -10.782C1310.37 -9.96629 1312.54 -9.60652 1314.61 -9.0307L1332.34 -15.5948L1345.26 -12.0585L1365.52 -15.2077L1386.26 -14.9657L1408.05 -17.1022L1412.87 -16.3521L1439.64 -12.1527L1468.64 -9.69936L1491.14 7.39882C1491.77 7.62342 1492.43 7.78157 1493.13 7.92354L1492.48 63.497C1492.07 63.8015 1491.63 64.089 1491.19 64.4014C1490.26 64.2402 1489.07 64.0507 1487.64 63.8168C1484.87 64.5283 1481.86 65.279 1477.9 66.261C1476.72 66.4478 1474.86 64.3781 1472.53 65.5714C1470.43 66.642 1468.35 65.9239 1466.13 65.6388C1464.08 65.3725 1461.85 66.0319 1459.84 66.276C1457.14 64.6646 1454.67 63.1812 1452.48 61.8683C1446.47 62.141 1440.97 62.3944 1435.05 62.6514C1433.98 61.6608 1432.77 60.5433 1431.52 59.4002C1431.06 59.3949 1430.37 59.2196 1429.94 59.3985C1425.52 61.3197 1421.14 63.3082 1416.89 65.198C1414.91 67.2229 1413 69.1651 1410.8 71.4048C1406.16 66.3936 1399.5 66.2155 1393.52 66.6223C1386.93 67.072 1380.93 66.5757 1374.85 64.3981C1373.52 62.8948 1372.12 61.2818 1370.8 59.7951C1367.54 60.2084 1365.51 63.7208 1362.05 61.1057C1360.96 59.5966 1364.86 57.9285 1361.62 56.4613C1357.92 57.672 1358.54 61.0815 1356.25 63.0861C1353.11 63.0578 1353.49 59.7937 1351.47 59.4693C1350.21 59.2539 1349.45 58.8856 1349.01 59.056C1345.09 60.5149 1340.93 61.2272 1336.73 61.9805C1332.96 62.6639 1329.51 64.0112 1328.52 66.4406C1323.72 68.3574 1319.8 69.9417 1314.96 71.8748L1304.13 71.7484C1300.03 71.0401 1296.85 68.5204 1293.33 65.9213C1287.15 65.7405 1280.84 65.2657 1274.25 66.1919C1274.02 65.7044 1273.61 65.0642 1273.41 64.3933C1273.21 63.6636 1273.2 62.9028 1273.06 61.6807C1271.58 60.6019 1269.79 59.2852 1268.09 58.0533C1263.2 60.7214 1263.2 60.7214 1260.51 65.1037L1248.1 64.9589C1247.87 64.8642 1247.07 64.7546 1246.78 64.3834C1243.63 60.3509 1239.11 59.0108 1233.16 58.933C1227.52 58.8505 1222.01 57.6577 1217.69 54.1298C1214.82 51.7892 1211.01 50.1983 1206.81 49.8399C1204.06 49.5989 1202.1 48.4809 1200.24 47.1552C1198.23 47.7754 1196.48 48.3067 1194.54 48.911C1191.93 47.9276 1188.07 48.8104 1186.93 45.7293C1183.35 46.2894 1184.04 48.9473 1182.76 50.4204C1180.67 50.7804 1178.84 51.0852 1177.15 51.3914C1176.25 52.2503 1175.46 53.0269 1174.67 53.8034C1172.54 53.5863 1170.74 53.4065 1168.62 53.1895C1166.87 56.0698 1165.11 58.9583 1163.4 61.7888C1161.68 60.3058 1159.8 58.6873 1158.03 57.1703C1154.39 58.3818 1153.05 60.69 1151.7 62.9312C1150.28 65.2469 1148.49 67.2239 1144.98 68.5706C1143.61 68.1617 1141.94 67.6658 1140.24 67.1528C1139.71 65.2072 1139.25 63.53 1138.85 62.0624C1136.73 60.5246 1134.44 60.9995 1131.58 61.0246C1127.27 63.7078 1121.87 65.6511 1115.48 66.4292C1114.78 65.8108 1113.56 65.1695 1113.22 64.3296C1112.16 61.7259 1111.59 59.0109 1110.57 56.4075C1110.13 55.2989 1109.02 54.3582 1108.47 53.6579C1105.58 52.9973 1104.5 54.5645 1103.08 55.1749C1102.27 55.1655 1101.61 55.2915 1101.08 55.1265C1097.83 54.1356 1094.64 53.0284 1091.36 52.0873C1090.24 51.7566 1088.92 51.7831 1087.69 51.7102C1087.46 51.6907 1087.21 51.9637 1086.47 52.3814C1086.36 52.9987 1085.81 54.0038 1086.08 54.8763C1086.58 56.5372 1087.54 58.1116 1088.13 59.3139C1090.94 61.1523 1095.38 59.4821 1096.46 62.8719C1094.97 65.3204 1092.11 66.3655 1089.07 67.1993C1084.82 64.7422 1079.91 64.7017 1074.7 64.8164C1071.98 65.7042 1069.08 66.6568 1066.36 67.5362C1062.17 66.735 1058.23 65.9868 1053.98 65.1765C1053.49 66.7256 1053.04 68.1247 1052.6 69.5072C1050.33 71.0524 1048.06 72.3801 1044.89 71.1226C1043.41 72.3258 1041.93 73.529 1040.32 74.8476C1037.2 73.7329 1034.32 72.7213 1031.22 71.6151C1027.91 72.7301 1024.76 74.6494 1020.98 74.3712C1017.55 74.1139 1014.21 73.2975 1010.81 72.7228C1009.69 71.8821 1008.55 71.0329 1007.2 70.0308C1005.76 70.106 1004.03 69.8934 1002.66 70.3457C1000.98 70.9196 999.339 71.2599 997.692 71.2657C995.625 71.5091 993.52 71.1669 991.381 69.9382C990.856 69.8652 990.341 69.8257 989.816 69.8112C986.957 69.7194 984.088 69.711 981.174 69.6853C979.123 70.163 977.133 70.8252 975.206 71.5718C973.993 72.335 972.781 73.0816 971.586 73.8367C971.007 73.855 970.409 73.8898 969.829 73.9082C969.629 74.0061 969.42 74.0956 969.211 74.2019L959.084 74.0837C959.021 74.0579 958.958 74.0237 958.904 73.9897C951.431 73.7687 944.128 72.8643 937.14 70.626C935.063 71.8139 933.377 72.7806 931.791 73.6984C924.19 68.9034 924.19 68.9034 922.304 65.312C920.545 65.6091 918.75 65.8891 917.027 66.1615C913.432 68.6107 912.36 72.8531 907.132 74.1295C904.278 72.8674 901.297 71.562 898.118 70.1624C896.652 70.9561 895.368 71.6349 894.247 72.2405L883.47 72.1147C882.047 73.026 880.095 74.2738 878.171 75.5136C876.642 74.6849 875.338 73.9843 873.836 73.181C871.859 73.5675 869.772 73.9778 867.323 74.4592C865.584 73.0011 863.899 71.577 862.026 70.0087L857.175 69.9521C857.439 71.3345 857.653 72.4655 857.925 73.9566C856.552 76.0304 856.057 78.9337 851.752 80.1374C850.237 78.9076 848.767 77.7034 846.669 75.9987C845.033 75.8041 842.472 75.7407 840.117 75.1616C837.355 74.494 835.56 72.4585 833.228 71.3696C831.086 70.3666 829.144 69.2238 827.351 67.7567C825.273 68.209 823.485 68.6061 821.154 69.0971C819.222 67.8708 817.039 66.4912 814.559 64.9074C811.99 64.7688 809.15 64.6102 806.383 64.4609C802.269 63.2677 800.954 60.4269 799.927 57.6563C795.238 56.9997 790.909 56.3975 784.882 55.5498C782.238 55.636 779.339 58.2437 775.537 59.8294C774.066 59.5029 772.558 59.176 770.816 58.7795C767.544 59.9451 764.081 61.1837 760.2 62.5678C754.535 62.5017 748.479 62.6484 742.428 62.3019C735.192 61.9082 728.605 63.2608 722.048 65.9846C720.956 67.2509 719.726 68.6827 718.286 70.3545C716.019 70.7376 713.464 70.9084 711.175 71.6257C708.577 72.4313 706.227 73.7163 703.752 74.8076C700.609 73.5086 699.584 76.7819 696.996 76.7851L685.937 76.6561C676.375 73.1088 665.938 70.1282 656.057 66.0422C655.527 64.1635 655.058 62.4862 654.553 60.7416C653.098 59.8552 651.707 58.7857 650.086 58.0646C647.088 56.7423 644.107 55.4704 640.331 56.3709C636.883 57.1833 633.444 56.324 630.316 55.2509C628.407 56.7584 626.717 58.0929 624.689 59.6909C621.493 57.4802 618.673 55.5414 616.088 53.7558C613.867 53.2952 612.005 53.0227 609.936 54.2859C610.202 55.4927 610.512 56.8923 610.838 58.4342C609.965 59.586 608.991 60.8452 607.961 62.1874C604.344 61.9279 600.955 60.7431 598.303 62.3004C594.892 60.6389 592.247 59.2622 589.492 58.0431C588.132 57.4337 586.557 56.663 585.136 56.7216C579.485 56.9399 575.631 54.5209 572.413 51.8251C570.046 51.4547 568.454 52.1383 568.087 53.3461C566.967 56.9945 564.151 59.4861 559.873 61.5344C557.603 60.6051 555.162 59.5568 552.657 58.6164C550.08 57.6501 547.438 56.8 544.211 55.7091C539.376 54.2901 534.294 56.9727 528.848 56.7921C526.77 55.6393 524.702 54.4867 522.157 53.0861C521.629 51.826 519.967 49.9759 520.418 48.5936C521.675 44.7964 519.304 42.3947 516.427 40.0038C514.67 38.5538 512.739 37.2273 511.008 35.9281C511.234 34.3926 511.41 33.216 511.627 31.7556C507.204 28.3436 503.167 24.5014 501.26 19.6558C498.829 19.3265 497.004 19.0878 495.485 18.8946C491.603 21.1982 488.255 23.4413 487.059 26.6206C482.101 29.5721 476.344 28.0671 471.414 29.4557C469.767 30.9496 468.246 32.5535 466.429 33.92C464.621 35.2614 462.526 36.3738 460.175 37.8009C458.744 37.8929 456.869 38.0131 454.351 38.176C452.259 39.8067 449.658 41.6071 445.145 41.3705C444.362 40.9852 442.778 40.206 440.969 39.2989C440.559 41.1248 440.251 42.6593 439.871 44.2013C439.492 45.6514 439.068 47.1093 438.614 48.801C436.756 49.8409 434.697 50.9705 432.519 52.1906C428.757 50.4247 425.353 48.1363 420.614 47.8386C419.068 47.737 417.646 46.2575 415.749 45.1654C414.409 45.9857 412.969 46.855 412.248 47.3063C410.428 48.9402 412.703 50.9897 409.944 51.6346C407.975 50.55 406.014 49.4822 404.305 48.5428C400.97 51.2373 397.909 53.7261 394.775 56.2559C392.298 55.2991 390.164 54.2961 387.873 53.6508C385.257 52.893 384.31 50.299 380.688 50.3821C378.516 50.4403 376.255 48.7254 373.724 47.6676C373.144 47.7194 372.185 47.7166 371.278 47.8899C370.37 48.0632 369.515 48.4294 368.607 48.703C367.099 48.4012 365.591 48.0827 363.831 47.7194C362.872 49.2547 362.093 50.8506 360.927 52.2413C359.89 53.4831 358.43 54.4776 357.305 55.4508C356.87 57.1176 356.5 58.5595 356.178 59.8012C355.421 60.2689 354.973 60.6064 354.436 60.8676C350.959 62.5992 347.236 62.8567 343.505 61.5091C340.314 60.3601 337.362 60.5263 334.024 61.9335C328.054 60.075 321.754 58.5804 314.936 58.76C312.528 58.8238 310.05 57.8754 307.675 57.413C303.471 58.576 299.34 59.7148 294.418 61.0868C291.482 62.9167 287.808 65.1977 283.742 67.725C281.806 66.0974 280.13 64.6985 278.319 63.1811L272.283 63.1107C268.682 65.3257 272.558 67.4607 271.763 69.675C271.251 70.0954 270.716 70.9919 269.954 71.1168C266.009 71.8064 262.444 73.2611 258.719 74.5133C254.712 75.8375 250.37 77.1661 245.576 76.1154C244.021 75.2613 242.474 74.4074 240.495 73.331C238.47 73.1402 235.975 72.8854 233.435 72.6467C233.01 71.8226 232.357 71.1462 232.374 70.4944C232.408 69.057 232.778 67.6402 233.003 66.1967C231.371 64.907 230.191 66.7072 227.614 66.4849C226.894 66.1923 225.245 65.5043 223.525 64.7737C222.939 63.0699 222.378 61.45 221.749 59.5785C217.425 59.3692 213.336 59.1711 208.867 58.9685C206.9 57.6916 204.699 56.2699 202.238 54.6697C201.178 54.766 199.937 54.8184 198.74 55.0217C197.562 55.2086 196.426 55.5548 195.01 55.8977C193.677 54.5614 192.514 53.411 191.226 52.1086C187.068 50.8647 182.884 48.7511 177.966 50.6331C176.234 48.5565 177.417 47.2328 179.533 45.8364C180.909 45.7856 182.566 45.7464 184.848 45.6644C183.576 44.5461 182.779 43.8346 181.829 42.9793C182.811 40.2823 183.839 37.4939 184.97 34.4393C183.361 34.2366 182.148 34.2559 181.139 33.9014C180.03 33.529 179.088 32.8074 177.631 31.9712C176.73 33.223 175.94 34.2252 175.294 35.2877C174.768 36.1593 174.431 37.1083 173.985 38.0728C172.114 38.6612 170.388 39.2095 168.689 39.7497C168.741 40.7451 168.784 41.6902 168.845 42.6689C165.927 44.4907 162.666 43.1653 159.974 43.5435C154.427 41.088 150.254 37.3027 143.708 36.6913C142.951 37.2175 142.02 37.8503 140.852 38.6642L134.581 38.591C132.917 37.6772 131.352 36.823 129.679 35.9174C124.279 37.2253 118.869 38.5415 113.786 39.7695C110.293 39.0182 110.556 36.6388 109.544 34.9217C106.36 34.7675 107.397 36.6354 107.164 37.9785C106.038 38.2831 104.858 38.6037 103.351 39.0124C103.384 40.7683 103.327 42.615 103.45 44.4638C103.557 46.1286 103.855 47.7788 104.087 49.5955C102.141 50.392 100.486 51.0665 98.5305 51.8629C96.8641 51.1747 95.1976 50.4949 93.0808 49.6259C92.1041 47.2321 91.0661 44.6621 89.9134 41.8399C85.2962 43.4997 80.7244 45.1516 75.7711 46.9162C72.7734 45.527 69.5325 44.0346 66.0036 42.4052C64.27 42.828 62.5242 43.5182 60.7129 43.6141C58.9107 43.7101 57.0519 43.2203 54.0876 42.8513C53.0899 43.0319 50.9675 43.4168 48.8359 43.8182C47.9198 43.9831 46.7978 43.9616 46.1592 44.3889C40.7041 48.0534 34.1317 48.1857 27.4717 48.0662C25.8791 48.0309 24.2607 47.8867 22.6932 48.0356C20.5187 48.2359 18.3868 48.6624 15.712 49.0742C14.5419 48.5172 12.967 47.7465 11.3381 46.9417C10.018 47.6118 8.68873 48.2818 7.07711 49.1072C-0.824182 46.7748 -10.5219 47.1464 -15.7471 40.4064C-17.3889 39.9442 -18.8593 39.5258 -20.5733 39.0376C-21.3502 37.3651 -22.0918 35.7598 -23.037 33.776C-24.3704 33.2505 -26.0465 32.6207 -28.1999 31.7847C-29.4725 30.6999 -31.1214 29.293 -33.0123 27.6827C-36.8963 29.3343 -40.4439 30.8561 -44.2459 32.4669C-45.5927 31.54 -46.6969 30.7664 -47.8011 29.9845C-48.5037 30.4778 -49.1975 30.988 -50.3384 31.8023C-51.0391 32.1285 -51.7738 32.262 -52.5253 32.2867L-51.8395 -26.488C-50.5021 -25.5278 -49.2724 -24.6524 -47.9527 -23.7259C-46.8487 -24.482 -45.7265 -25.2547 -44.5769 -26.0438C-39.518 -26.0015 -37.9344 -21.3185 -33.5333 -20.7489C-29.1502 -20.1878 -26.6698 -17.1244 -22.5335 -16.3573C-20.6608 -17.0627 -18.7845 -18.0773 -16.7349 -18.4296C-14.5491 -18.8221 -12.2694 -18.7286 -10.9238 -20.8027C-9.93069 -19.8131 -9.01787 -18.9247 -7.97973 -17.9178C-4.10281 -18.1903 -0.973646 -16.4317 2.51118 -14.9031C3.86672 -13.1736 5.33825 -11.3007 6.62256 -9.67237C11.5168 -8.7041 12.8883 -12.2241 16.3317 -13.3458C18.7691 -13.5765 21.5689 -13.8448 24.0335 -14.0835C27.5035 -16.718 28.6523 -19.7641 28.8107 -23.2565C30.5932 -23.988 32.2576 -24.6791 34.1948 -25.4841C37.0915 -23.9707 39.9523 -22.4828 42.6421 -21.0805C42.8644 -19.9661 43.0171 -19.0866 43.2564 -17.8801C45.3437 -19.1347 46.9941 -20.1771 48.698 -21.1603C49.1899 -21.4304 49.8607 -21.5145 50.5055 -21.7076C51.8109 -21.1073 53.1523 -20.4897 54.5746 -19.8295C58.223 -21.4588 57.0671 -24.7909 58.9802 -26.6243C58.3715 -27.9856 57.9751 -28.9182 57.587 -29.7837C60.8145 -34.1263 63.7246 -38.4141 64.5611 -43.3949C69.6186 -46.3368 74.7093 -47.4728 80.2261 -43.2288C79.3194 -41.5424 78.366 -39.7312 77.4408 -38.0033C77.9696 -36.0076 78.4724 -34.1042 79.027 -31.9912C81.1376 -32.1421 83.2306 -32.3434 85.3402 -32.4107C87.2416 -32.4721 89.1594 -32.3828 91.5213 -32.3553C96.2466 -37.0733 105.069 -36.9202 110.704 -42.0205C110.636 -43.2 110.529 -44.8396 110.422 -46.5545C111.454 -47.3701 112.837 -47.2202 113.735 -46.541C115.081 -45.5389 116.061 -44.2568 117.17 -43.1154C119.645 -44.2485 117.234 -45.4636 117.818 -46.6522C119.009 -48.6779 121.106 -48.4111 123.55 -47.6636C126.466 -50.1458 129.428 -52.6608 132.682 -55.4483C136.441 -51.8266 141.974 -50.5332 146.655 -47.5612C148.995 -47.9769 151.68 -48.4639 153.757 -48.8493C156.211 -48.1435 158.15 -47.5859 161.659 -46.5837C162.628 -45.8618 163.654 -43.0495 167.637 -43.0866C168.543 -40.8274 169.541 -38.7342 170.213 -36.5864C170.815 -34.6902 169.641 -32.5806 171.229 -30.5809C174.511 -29.5144 175.744 -32.8187 178.614 -32.827C181.827 -32.8397 183.606 -34.8753 185.508 -36.4916C187.382 -38.083 188.942 -39.9122 190.838 -41.8378C192.269 -41.1607 193.295 -40.689 193.943 -40.3722C195.124 -38.4107 192.648 -37.9881 192.444 -36.7868C192.721 -36.4325 192.896 -35.9121 193.328 -35.6981C196.298 -34.2591 199.323 -32.8947 202.491 -31.4115C205.602 -31.952 208.967 -32.5314 212.594 -33.1661C213.361 -34.4863 214.137 -35.8148 215.033 -37.3591C218.63 -39.2649 218.63 -39.2482 222.452 -39.5212C223.894 -37.4062 225.344 -35.2577 226.902 -32.9992C226.176 -32.0547 225.385 -31.0107 224.558 -29.9336C227.502 -26.2546 232.828 -26.6271 237.402 -25.3449C238.289 -23.8132 239.194 -22.2645 240.241 -20.4718C241.927 -20.6778 243.703 -20.8828 245.761 -21.1346C246.829 -19.6258 247.898 -18.1003 249.046 -16.4903C266.63 -6.97288 263.02 -9.44755 277.917 -9.3824C279.887 -10.63 282.093 -12.0254 283.917 -13.1744C288.362 -14.042 291.962 -13.0972 295.603 -11.7591C299.429 -13.1271 303.156 -14.4546 307.236 -15.92C309.351 -14.0563 311.42 -12.2432 313.472 -10.4471L317.725 -10.3975C322.088 -11.9599 323.811 -16.1529 329.014 -16.0003C331.46 -13.8652 331.594 -11.4143 331.944 -8.80215L341.437 -8.69138C339.59 -10.2009 338.119 -11.38 336.254 -12.8981C339.093 -14.1523 341.376 -15.1706 344.324 -16.482C339.041 -19.7954 333.676 -19.9834 328.142 -19.63C326.813 -21.3007 329 -23.3483 326.558 -25.0486C324.197 -26.6979 325.331 -29.2426 325.536 -31.33C329.584 -33.1135 333.405 -34.7909 337.618 -36.656C338.929 -38.9395 340.352 -41.4057 341.885 -44.0377C342.839 -44.3776 343.985 -44.7822 345.084 -45.1874C345.568 -44.7554 346.18 -44.464 346.311 -44.0696C346.983 -41.9385 345.779 -40.3392 343.828 -39.0914C346.587 -37.4792 349.347 -35.8839 352.242 -34.2033C353.539 -34.4389 355.045 -34.7056 356.632 -34.9964C357.359 -34.503 358.051 -34.0268 358.589 -33.6444C359.286 -32.0396 357.755 -31.2049 357.209 -30.1078C352.097 -27.9522 352.097 -27.9522 346.38 -28.2112C347.864 -25.0759 349.632 -22.2549 351.541 -19.9003C354.027 -18.8264 354.691 -20.7162 356.748 -20.9096C357.236 -20.0512 357.658 -18.968 358.435 -18.0895C359.132 -17.304 360.229 -16.7311 360.867 -16.289C361.363 -14.5863 358.668 -12.4443 362.763 -12.0203C363.863 -15.5184 364.035 -19.4536 369.382 -21.6148C371.071 -20.4666 372.696 -19.3526 374.635 -18.0175C374.368 -16.842 374.11 -15.683 373.69 -13.8322C374.49 -13.3046 375.693 -12.5131 377.301 -11.4411C380.363 -12.467 383.506 -13.5003 386.623 -14.5423C388.974 -14.3644 387.839 -12.4801 389.581 -11.2978C390.096 -11.2166 391.279 -10.9687 392.49 -10.8292C393.737 -10.6725 394.985 -10.6162 396.016 -10.5372C397.354 -9.56868 398.475 -8.74473 399.938 -7.67439C405.133 -11.4925 410.647 -14.7886 412.008 -20.4989C413.636 -21.1653 415.036 -21.7341 416.837 -22.4655C418.942 -22.14 421.752 -20.9954 423.696 -21.5913C426.575 -22.4521 428.609 -21.4253 431.544 -20.8895C435.089 -22.1605 439.697 -22.2656 443.674 -24.9109C443.54 -26.6261 443.417 -28.5502 443.175 -31.8382C443.66 -33.8555 447.519 -34.8721 450.597 -36.5081C453.885 -35.9347 452.985 -33.2535 454.461 -31.765C455.785 -30.4539 457.063 -29.1098 458.638 -27.4949C459.199 -27.5134 460.394 -27.583 462.106 -27.6717C462.281 -26.3907 462.447 -25.0847 462.697 -23.2428C465.295 -24.8091 467.501 -26.1459 469.716 -27.4743C473.62 -28.5823 477.192 -27.4873 481.006 -26.306C482.94 -26.7599 485.036 -27.2453 487.423 -27.811C488.806 -26.8921 490.207 -25.9729 491.563 -25.071C494.75 -25.1341 494.807 -26.8973 494.876 -28.9696C499.893 -29.1702 504.9 -29.3792 509.865 -28.2931C512.519 -30.7449 516.386 -30.984 520.254 -32.0339C522.483 -30.6704 524.693 -29.3071 526.626 -28.131C528.763 -28.2565 530.641 -28.5941 532.449 -28.4308C536.798 -28.0541 541.108 -27.4354 545.428 -26.9252C547.552 -26.6663 549.694 -26.4073 551.818 -26.1568C553.339 -28.4964 556.314 -26.7229 558.297 -27.5524C560.516 -28.4712 562.575 -29.6341 564.66 -30.7383C565.708 -31.2945 566.595 -32.1285 567.722 -32.4748C569.484 -33.0143 571.387 -33.2261 573.31 -33.6049C575.917 -32.8138 578.323 -31.9248 579.926 -29.7159C581.449 -27.5832 583.827 -25.8418 585.689 -24.0646C590.143 -23.3523 594.145 -22.7037 598.156 -22.0885C598.436 -22.0518 598.773 -22.1732 599.598 -22.3057C600.199 -23.4105 600.938 -24.7394 601.891 -26.4837C603.665 -27.2739 605.839 -28.2265 607.75 -29.082C608.744 -28.9199 609.358 -28.8208 609.963 -28.7218C613.36 -28.1806 615.871 -28.494 618.464 -29.6257C621.457 -30.9366 624.329 -32.7421 627.548 -33.3064C631.765 -34.0347 633.892 -36.3337 636.685 -38.3826C635.619 -39.3062 634.804 -40.0179 633.89 -40.7893C634.719 -42.8527 635.324 -45.0442 638.081 -46.2993C639 -44.366 639 -44.3659 638.302 -42.0084C639.693 -40.989 641.228 -39.8594 643.049 -38.5006C642.423 -37.5717 642.077 -36.5893 641.282 -35.9549C639.793 -34.7602 638.052 -33.744 636.219 -32.5198C637.723 -31.892 639.101 -31.2992 640.857 -30.5514C642.384 -31.0937 644.065 -31.6759 645.683 -32.2506C645.467 -33.9333 645.293 -35.3481 645.086 -36.9805C649.115 -38.6388 653.008 -40.2653 657.091 -41.9563C657.812 -43.2436 658.543 -44.606 659.403 -46.1843C660.357 -46.4406 661.528 -46.7697 663.217 -47.2348C664.484 -48.7999 665.972 -50.6634 667.442 -52.477C668.69 -52.429 669.622 -52.3763 670.915 -52.3194C671.512 -50.7242 672.1 -49.104 672.679 -47.5508C673.318 -47.2591 673.838 -46.8434 674.381 -46.812C676.289 -46.7312 678.448 -46.3466 680.039 -46.9048C685.01 -48.6357 690.031 -47.7411 694.946 -47.7674C696.023 -46.9356 696.911 -46.2565 697.862 -45.5265C699.181 -46.1632 700.528 -46.8078 701.83 -47.4363C708.145 -47.2205 711.574 -43.2015 716.037 -40.9509C718.703 -40.669 721.144 -40.4148 723.702 -40.1509C725.148 -41.4799 726.548 -42.7676 728.13 -44.2287C733.537 -44.5084 738.65 -43.688 743.553 -41.9172C745.66 -42.5028 746.318 -43.8243 746.445 -45.4194C746.55 -46.6637 746.682 -47.8826 746.834 -49.2852C748.915 -49.9882 750.887 -50.6507 753.24 -51.4341C753.11 -52.6727 752.997 -53.8444 752.843 -55.4511C753.877 -55.6146 755.077 -56.1022 756.08 -55.9066C757.191 -55.693 758.259 -54.97 759.111 -54.2829C759.981 -53.5873 760.567 -52.6693 761.398 -51.6983C762.658 -51.8425 763.836 -51.9708 764.597 -52.0539C766.227 -53.6733 762.724 -55.9879 766.734 -56.8021C767.541 -55.3549 768.365 -53.8907 769.323 -52.191C771.293 -51.9339 773.127 -51.6701 774.962 -51.4564C776.752 -51.2349 778.542 -51.0469 780.241 -50.8599C782.527 -53.6085 778.079 -54.1034 777.775 -55.9209C778.114 -56.2848 778.471 -56.6651 779.076 -57.3101Z" fill="white"/>
</g>
<defs>
<clipPath id="clip0_681_238">
<rect width="1440" height="911" fill="white"/>
</clipPath>
</defs>
</svg>
