<svg width="197" height="111" viewBox="0 0 197 111" fill="none" xmlns="http://www.w3.org/2000/svg">
<rect x="188" width="9" height="136" rx="4.5" fill="url(#paint0_linear_1584_3004)"/>
<rect x="170" y="26" width="9" height="136" rx="4.5" fill="url(#paint1_linear_1584_3004)"/>
<rect x="152" y="48" width="9" height="136" rx="4.5" fill="url(#paint2_linear_1584_3004)"/>
<rect x="134" y="36" width="9" height="136" rx="4.5" fill="url(#paint3_linear_1584_3004)"/>
<rect x="112" y="22" width="9" height="136" rx="4.5" fill="url(#paint4_linear_1584_3004)"/>
<rect x="90" y="36" width="9" height="136" rx="4.5" fill="url(#paint5_linear_1584_3004)"/>
<rect x="68" y="60" width="9" height="136" rx="4.5" fill="url(#paint6_linear_1584_3004)"/>
<rect x="44" y="43" width="9" height="136" rx="4.5" fill="url(#paint7_linear_1584_3004)"/>
<rect x="22" y="64" width="9" height="136" rx="4.5" fill="url(#paint8_linear_1584_3004)"/>
<rect y="86" width="9" height="110" rx="4.5" fill="url(#paint9_linear_1584_3004)"/>
<defs>
<linearGradient id="paint0_linear_1584_3004" x1="192.5" y1="2.52443e-09" x2="191.22" y2="227.196" gradientUnits="userSpaceOnUse">
<stop stop-color="#0A0823"/>
<stop offset="1" stop-color="#FBDF97"/>
</linearGradient>
<linearGradient id="paint1_linear_1584_3004" x1="174.5" y1="26" x2="173.22" y2="253.196" gradientUnits="userSpaceOnUse">
<stop stop-color="#0A0823"/>
<stop offset="1" stop-color="#FBDF97"/>
</linearGradient>
<linearGradient id="paint2_linear_1584_3004" x1="156.5" y1="48" x2="155.22" y2="275.196" gradientUnits="userSpaceOnUse">
<stop stop-color="#0A0823"/>
<stop offset="1" stop-color="#FBDF97"/>
</linearGradient>
<linearGradient id="paint3_linear_1584_3004" x1="138.5" y1="36" x2="137.22" y2="263.196" gradientUnits="userSpaceOnUse">
<stop stop-color="#0A0823"/>
<stop offset="1" stop-color="#FBDF97"/>
</linearGradient>
<linearGradient id="paint4_linear_1584_3004" x1="116.5" y1="22" x2="115.22" y2="249.196" gradientUnits="userSpaceOnUse">
<stop stop-color="#0A0823"/>
<stop offset="1" stop-color="#FBDF97"/>
</linearGradient>
<linearGradient id="paint5_linear_1584_3004" x1="94.5" y1="36" x2="93.22" y2="263.196" gradientUnits="userSpaceOnUse">
<stop stop-color="#0A0823"/>
<stop offset="1" stop-color="#FBDF97"/>
</linearGradient>
<linearGradient id="paint6_linear_1584_3004" x1="72.5" y1="60" x2="71.22" y2="287.196" gradientUnits="userSpaceOnUse">
<stop stop-color="#0A0823"/>
<stop offset="1" stop-color="#FBDF97"/>
</linearGradient>
<linearGradient id="paint7_linear_1584_3004" x1="48.5" y1="43" x2="47.22" y2="270.196" gradientUnits="userSpaceOnUse">
<stop stop-color="#0A0823"/>
<stop offset="1" stop-color="#FBDF97"/>
</linearGradient>
<linearGradient id="paint8_linear_1584_3004" x1="26.5" y1="64" x2="25.22" y2="291.196" gradientUnits="userSpaceOnUse">
<stop stop-color="#0A0823"/>
<stop offset="1" stop-color="#FBDF97"/>
</linearGradient>
<linearGradient id="paint9_linear_1584_3004" x1="4.5" y1="86" x2="3.66264" y2="269.763" gradientUnits="userSpaceOnUse">
<stop stop-color="#0A0823"/>
<stop offset="1" stop-color="#FBDF97"/>
</linearGradient>
</defs>
</svg>
