<svg width="895" height="158" viewBox="0 0 895 158" fill="none" xmlns="http://www.w3.org/2000/svg">
<path d="M2.71797e-05 255V226.796C0.202511 225.948 0.549031 225.075 1.121 224.209C3.59778 220.462 12.8045 219.336 18.9334 218.587L18.9521 218.585C19.8216 218.478 20.6315 218.379 21.3496 218.281C27.1183 217.495 26.5557 210.136 26.5557 210.136C26.5557 210.136 25.3461 202.38 33.2565 195.641C41.168 188.903 42.9392 193.894 42.9392 193.894C42.9392 193.894 44.1541 199.202 50.3769 196.762C54.0404 195.326 54.175 190.585 54.2909 186.482V186.479C54.3723 183.615 54.4453 181.062 55.7041 180.161C57.2561 179.05 60.0679 179.388 62.9643 179.736C65.7845 180.075 68.684 180.424 70.5762 179.453C72.8317 178.296 73.1376 175.868 73.4037 173.747C73.5895 172.263 73.7565 170.93 74.5602 170.288C75.4985 169.539 77.1935 169.896 79.187 170.317C81.3434 170.772 83.8484 171.3 86.1206 170.581C88.3093 169.888 87.7978 168.953 87.23 167.913C86.6633 166.876 86.0402 165.736 87.9805 164.628C91.8674 162.41 86.6873 156.475 86.6873 156.475C90.1014 154.971 94.0759 150.702 93.4424 148.173C92.8098 145.645 98.7925 137.117 103.931 138.408C108.469 139.547 110.313 138.237 113.301 136.114L113.317 136.102L113.786 135.771L114.232 135.457L114.557 135.232C116.89 133.628 119.646 134.793 122.233 135.886C123.862 136.575 125.423 137.234 126.769 137.154C128.727 137.038 130.103 135.703 131.684 134.17V134.169L131.687 134.167C132.91 132.979 134.255 131.673 136.09 130.722C140.296 128.544 147.824 130.135 147.824 130.135C151.147 127.362 160.403 132.076 164.83 134.609C165.82 135.175 167.217 134.721 167.415 133.766C168.242 129.812 171.325 123.525 173.498 122.15C176.172 120.455 180.743 123.35 180.204 125.989C179.664 128.627 187.947 129.571 191.044 128.801C192.697 128.389 192.715 125.021 192.733 121.662V121.654C192.748 118.72 192.764 115.795 193.87 114.853C196.066 112.983 213.216 116.139 218.58 117.126L219.634 117.319C222.971 117.922 228.367 111.606 229.262 110.558L229.377 110.424C229.69 110.077 241.25 108.148 240.177 110.431C239.101 112.709 247.806 112.745 247.806 112.745C247.806 112.745 252.094 110.964 259.344 110.329C266.594 109.694 262.686 102.919 262.686 102.919C262.686 102.919 278.571 99.0182 280.774 98.428C281.901 98.1253 282.537 95.9727 282.891 93.9373L283.225 93.7745C284.19 93.2971 285.045 92.8354 285.81 92.401C286.934 93.2336 288.495 94.2389 290.609 95.3137C293.366 96.7158 295.635 95.3229 297.55 93.4969C300.588 96.8739 301.28 97.5551 301.28 97.5551L311.565 99.3553C311.565 99.3553 317.507 97.195 317.735 95.9349C317.964 94.6747 318.421 92.3343 318.421 92.3343C318.421 92.3343 326.419 89.2739 326.876 88.1938C327.334 87.1136 328.019 84.7733 328.019 84.7733C328.019 84.7733 326.876 87.1136 329.619 81.3528C330.417 79.678 330.924 78.5358 331.299 77.6916V77.6881C332.214 75.6319 332.341 75.346 333.961 73.4318C334.93 72.287 335.242 71.1422 335.576 69.9151V69.9121C336.029 68.2455 336.524 66.427 338.76 64.2505C340.607 62.4537 343.436 61.1043 345.894 59.9315L345.897 59.9297L345.901 59.928C348.612 58.6348 350.874 57.5564 350.874 56.3294C350.874 55.4198 349.596 55.7068 348.544 55.9431C346.89 56.3148 345.793 56.5612 351.103 51.8288C359.786 44.0878 368.7 43.3677 368.7 43.3677C368.7 43.3677 376.699 43.3677 378.755 44.4479C380.812 45.528 384.698 48.9485 384.698 48.9485L385.84 53.4491L400.01 43.7277L409.38 39.4072C409.38 39.4072 410.066 39.7672 411.438 42.2875C411.961 43.2487 412.383 43.372 412.707 43.4663C413.232 43.6193 413.494 43.6958 413.494 47.1482C413.494 51.0239 412.943 53.1631 412.606 54.4702C412.457 55.0453 412.351 55.4593 412.351 55.7894C412.351 56.1164 412.099 56.4104 411.825 56.7314C411.193 57.4706 410.439 58.3527 412.351 60.11C413.179 60.871 413.674 61.5172 414.1 62.0732V62.0745C415.083 63.3591 415.699 64.1625 419.207 64.7906C424.001 65.6487 425.471 67.9791 426.787 70.0664V70.0683L426.978 70.3713C427.84 71.7297 428.702 73.4438 429.45 74.9321C429.893 75.8108 430.296 76.6108 430.635 77.2123C430.992 77.8442 429.993 78.2844 429.21 78.6291C427.987 79.1681 427.294 79.4734 433.148 79.9127C435.502 80.0893 437.306 80.1468 438.705 80.1914C443.013 80.3286 443.484 80.3437 444.348 83.3331C444.729 84.6542 444.652 86.1556 444.585 87.4831C444.449 90.1354 444.349 92.0938 448.004 90.5341C452.11 88.7819 456.729 93.1855 460.039 96.3405C461.15 97.3994 462.113 98.3176 462.859 98.8152C465.83 100.795 474.515 104.756 474.515 104.756L480.685 109.257C480.685 109.257 494.855 107.996 495.084 107.456C495.312 106.916 494.855 101.516 494.855 101.516C494.855 101.516 494.169 98.8152 494.398 96.6549C494.626 94.4946 496.455 92.6944 496.455 92.6944L509.939 82.253L510.625 75.052C510.625 75.052 510.168 70.0113 510.168 69.4713C510.168 68.9312 513.367 64.9707 513.367 64.9707C513.367 64.9707 516.11 67.1309 516.11 64.0705V59.2098C516.11 58.3097 518.623 57.2296 518.623 57.2296C518.623 57.2296 521.137 56.8695 522.737 56.8695C524.337 56.8695 529.594 57.5896 529.594 57.5896C529.594 57.5896 530.965 56.5095 533.478 61.0101C534.218 62.3339 534.8 63.7356 535.328 65.0089L535.331 65.0162V65.017C536.596 68.0689 537.554 70.3808 539.649 69.1112C542.62 67.311 545.134 66.9509 545.591 68.2111C546.048 69.4712 547.419 74.3319 547.419 74.3319C547.419 74.3319 550.162 80.0927 551.533 80.0927C552.148 80.0927 554.094 80.8528 556.159 81.659L556.165 81.661L556.168 81.6623C557.09 82.022 558.034 82.3907 558.893 82.7049C558.902 82.5641 558.899 82.4131 558.897 82.2465V82.2368C558.89 81.6029 558.881 80.7432 559.351 79.3614C559.597 78.6426 559.793 77.9623 559.977 77.3265C560.583 75.2292 561.05 73.6158 562.668 72.7014C563.59 72.1809 563.792 73.8619 563.993 75.5244V75.5275C564.251 77.6707 564.504 79.7813 566.289 77.1029C567 76.0365 567.68 74.9584 568.335 73.9205L568.338 73.9141L568.341 73.9114C570.603 70.3231 572.562 67.2192 574.434 66.7573C576.849 66.1615 582.128 68.0643 582.731 68.3046C582.832 68.3442 583.084 68.5117 583.424 68.7387C585.106 69.8611 588.964 72.4373 587.712 68.1845C587.341 66.9249 587.007 65.9034 586.734 65.0754V65.0713C585.905 62.5418 585.669 61.8219 586.804 61.6446C586.891 61.6309 586.978 61.6155 587.064 61.599L587.235 61.565C587.364 61.5381 587.491 61.5095 587.618 61.4811C588.779 61.2212 589.853 60.9807 591.327 62.2404C592.136 62.9315 592.434 63.6216 592.676 64.1845V64.1883C592.88 64.6625 593.046 65.0459 593.448 65.2629C593.908 64.9684 594.345 64.7614 594.728 64.6106C595.612 64.2624 596.306 64.5128 597.055 64.7829C597.467 64.9318 597.896 65.0867 598.384 65.1507C598.415 65.1548 598.45 65.1569 598.487 65.1572C599.211 64.9345 599.762 64.5785 599.923 64.0231C600.1 63.4175 600.07 62.9945 600.039 62.5756C599.991 61.9244 599.944 61.2833 600.679 59.9819C600.871 59.6427 601.04 59.3273 601.197 59.0343C602.027 57.4805 602.521 56.5574 604.301 56.0561C604.863 55.8971 605.266 55.7128 605.625 55.5483C606.612 55.0965 607.269 54.7948 610.031 55.5804C612.104 56.1667 615.232 57.4064 617.621 58.3963C619.14 59.0257 619.475 60.6451 618.267 61.6061C616.64 62.8987 615.975 64.3403 622.254 63.7829C622.254 63.7829 625.876 64.1385 626.778 63.6628C627.108 63.4882 627.258 62.9134 627.433 62.2379V62.2365C627.736 61.0709 628.117 59.6063 629.644 59.3813C632.058 59.0257 635.075 59.0257 635.075 59.0257C635.075 59.0257 639.453 60.6883 640.354 61.6398C640.732 62.0384 640.926 62.3535 641.09 62.6202C641.318 62.9898 641.488 63.2662 642.013 63.5426L642.098 63.5867C643.062 64.0936 645.374 65.3078 646.841 64.7295C647.97 64.283 648.93 62.8357 649.658 61.7378L649.867 61.4239L650.042 61.167C650.101 61.0836 650.156 61.0052 650.21 60.9328L650.31 60.8037C650.597 60.4433 650.557 60.0828 650.529 59.8259C650.484 59.4045 650.468 59.2612 651.968 59.8523C654.382 60.8037 657.699 63.6579 657.699 63.6579C657.699 63.6579 655.133 69.3665 661.32 68.295C667.39 67.2439 667.646 65.8506 667.944 64.2286V64.2262L667.959 64.1337C668.258 62.4711 669.166 61.1593 671.879 60.5682C672.872 60.3505 672.902 60.8689 672.956 61.7694V61.7728C673.048 63.3366 673.209 66.0487 678.567 68.0595C681.556 69.1814 683.738 70.085 685.446 70.8335C688.566 64.6233 696.578 65.1021 700.714 65.3492C701.52 65.3974 702.18 65.4369 702.627 65.416C705.543 65.2795 715.48 60.553 715.654 56.5032C715.827 52.4535 731.077 46.9138 738.279 48.9387C743.866 50.5111 747.908 46.3831 750.721 43.5116C751.53 42.6853 752.238 41.963 752.85 41.5105C755.592 39.4857 763.993 39.442 763.993 39.442C763.993 39.442 768.792 34.9393 770.62 35.1194C771.388 35.195 772.035 34.3818 772.933 33.2527C774.174 31.6925 775.894 29.5292 779.076 28.2752C783.873 26.3849 792.167 29.7302 797.688 31.9571C798.479 32.2763 799.214 32.5725 799.872 32.8271C805.129 34.8574 810.157 28.6355 810.157 28.6355C810.157 28.6355 814.956 21.7913 826.383 19.9902C837.81 18.1892 835.524 23.0521 835.524 23.0521C835.524 23.0521 832.554 27.915 839.41 28.8155C843.446 29.3458 847.087 25.5679 850.238 22.2976C852.439 20.0135 854.401 17.977 856.093 17.8289C858.177 17.6464 860.203 19.2209 862.289 20.8422C864.32 22.4209 866.407 24.0439 868.662 24.1327C871.351 24.2387 873.408 22.412 875.204 20.8168C876.461 19.7006 877.589 18.6977 878.718 18.5494C880.035 18.3763 881.142 19.4501 882.443 20.7126C883.85 22.0783 885.485 23.6648 887.859 24.1327C890.148 24.5837 890.431 23.5895 890.745 22.4844C891.059 21.3825 891.405 20.1703 893.801 20.1703C898.6 20.1703 898.829 12.966 898.829 12.966C902.714 13.3262 909.113 11.7052 910.484 9.36375C911.856 7.02234 923.054 2.87982 926.253 6.3019C929.079 9.32397 931.548 9.11539 935.549 8.77724C936.08 8.73248 936.636 8.68545 937.224 8.64335C940.308 8.42238 941.672 10.6413 942.952 12.7224C943.758 14.0339 944.531 15.2907 945.679 15.8477C947.353 16.6594 949.462 16.2136 951.884 15.7017C953.761 15.305 955.825 14.8685 958.02 14.9472C963.048 15.1273 967.957 19.8974 967.957 19.8974C972.716 19.1879 976.698 27.2874 978.395 31.3862C978.776 32.3032 980.243 32.5815 981.116 31.8992C984.731 29.0775 991.912 25.4099 994.697 25.3007C998.124 25.1643 999.669 29.6233 997.265 31.5118C994.863 33.4002 1000.87 37.9957 1003.95 38.8035C1005.59 39.2345 1008.12 36.5136 1010.63 33.7999C1012.83 31.4282 1015.03 29.0621 1016.63 28.8101C1019.8 28.3099 1031.34 38.8036 1034.95 42.0813L1035.65 42.7222C1037.91 44.7538 1046.98 42.1316 1048.49 41.6964L1048.68 41.6415C1049.19 41.5051 1059.99 45.2874 1057.42 46.6409C1054.85 47.989 1061.87 52.0442 1061.87 52.0442C1061.87 52.0442 1066.67 52.5845 1073.02 55.4226C1079.36 58.2607 1081.24 50.9636 1081.24 50.9636C1081.24 50.9636 1097.01 55.1497 1099.24 55.69C1100.85 56.083 1104.46 52.9775 1106.32 51.2528C1106.71 50.8871 1107.46 51.0782 1107.51 51.553C1107.66 52.8138 1108.13 54.9041 1109.52 57.7149C1111.1 60.9163 1115.65 59.7276 1119.31 58.772C1121.21 58.276 1122.87 57.8428 1123.74 58.1188C1124.9 58.4841 1125.4 57.4138 1125.96 56.2069C1126.64 54.7452 1127.41 53.0833 1129.57 53.5287C1131.94 54.015 1132.32 55.6285 1132.7 57.2193C1132.95 58.2712 1133.2 59.3131 1134.02 60.0127C1136.08 61.7701 1141.74 59.4724 1142.76 58.1243C1142.97 57.8547 1143.24 57.3798 1143.57 56.8119C1144.88 54.5395 1147.04 50.7779 1149.1 52.721C1151.67 55.1497 1158.88 54.8823 1160.07 54.2055C1160.46 53.9854 1160.73 53.523 1161.04 52.9619C1161.71 51.7975 1162.61 50.2082 1165.39 49.479C1167.82 48.8402 1168.57 47.5416 1169.42 46.0836C1170.01 45.0751 1170.64 43.9904 1171.9 42.995C1174.98 40.5608 1186.98 43.1315 1190.41 45.1564C1192.82 46.5864 1195.24 41.5651 1196.46 38.4815C1196.79 37.63 1198.23 37.4717 1198.83 38.2194C1200.79 40.6536 1204.15 44.5997 1206 45.6967C1208.74 47.3177 1212 44.7525 1212 44.7525V255H2.71797e-05Z" fill="white"/>
<rect x="107.76" y="4.05745" width="256.702" height="100.987" transform="rotate(7.79857 107.76 4.05745)" fill="black" stroke="black" stroke-width="7"/>
<rect x="109.47" y="6.31034" width="252.702" height="96.987" transform="rotate(7.79857 109.47 6.31034)" fill="black" stroke="#FFBD0C" stroke-width="3"/>
<rect x="111.353" y="8.18848" width="16.1292" height="93.7749" transform="rotate(7.79857 111.353 8.18848)" fill="#FFBD0C"/>
<rect x="291.263" y="32.8286" width="16.1292" height="93.7749" transform="rotate(7.79857 291.263 32.8286)" fill="#FFBD0C"/>
<rect x="249.966" y="27.1729" width="16.1292" height="93.7749" transform="rotate(7.79857 249.966 27.1729)" fill="#FFBD0C"/>
<rect x="166.474" y="15.7378" width="11.961" height="93.7749" transform="rotate(7.79857 166.474 15.7378)" fill="#FFBD0C"/>
<rect x="183.353" y="18.0498" width="9.96748" height="93.7749" transform="rotate(7.79857 183.353 18.0498)" fill="#FFBD0C"/>
<rect x="328.609" y="37.9438" width="9.96748" height="93.7749" transform="rotate(7.79857 328.609 37.9438)" fill="#FFBD0C"/>
<rect x="136.849" y="11.6807" width="5.98049" height="93.7749" transform="rotate(7.79857 136.849 11.6807)" fill="#FFBD0C"/>
<rect x="343.512" y="39.9849" width="5.98049" height="93.7749" transform="rotate(7.79857 343.512 39.9849)" fill="#FFBD0C"/>
<rect x="280.129" y="31.3047" width="5.98049" height="93.7749" transform="rotate(7.79857 280.129 31.3047)" fill="#FFBD0C"/>
<rect x="152.65" y="13.8452" width="3.80577" height="93.7749" transform="rotate(7.79857 152.65 13.8452)" fill="#FFBD0C"/>
<rect x="200.409" y="20.3857" width="3.80577" height="93.7749" transform="rotate(7.79857 200.409 20.3857)" fill="#FFBD0C"/>
<rect x="213.697" y="22.2056" width="3.80577" height="93.7749" transform="rotate(7.79857 213.697 22.2056)" fill="#FFBD0C"/>
<rect x="321.428" y="36.9604" width="3.80577" height="93.7749" transform="rotate(7.79857 321.428 36.9604)" fill="#FFBD0C"/>
<rect x="226.984" y="24.0254" width="7.24908" height="93.7749" transform="rotate(7.79857 226.984 24.0254)" fill="#FFBD0C"/>
<rect x="130.743" y="10.8447" width="2.89963" height="93.7749" transform="rotate(7.79857 130.743 10.8447)" fill="#FFBD0C"/>
<rect x="354.823" y="41.5347" width="2.89963" height="93.7749" transform="rotate(7.79857 354.823 41.5347)" fill="#FFBD0C"/>
<rect x="243.681" y="26.312" width="2.89963" height="93.7749" transform="rotate(7.79857 243.681 26.312)" fill="#FFBD0C"/>
<rect x="272.05" y="30.1973" width="2.89963" height="93.7749" transform="rotate(7.79857 272.05 30.1973)" fill="#FFBD0C"/>
</svg>
