<svg width="1920" height="96" viewBox="0 0 1920 96" fill="none" xmlns="http://www.w3.org/2000/svg">
<g opacity="0.7">
<rect x="-13" y="37" width="18" height="124" rx="9" fill="url(#paint0_linear_957_1090)"/>
<rect x="19" y="58" width="18" height="103" rx="9" fill="url(#paint1_linear_957_1090)"/>
<rect x="51" y="27" width="18" height="134" rx="9" fill="url(#paint2_linear_957_1090)"/>
<rect x="83" width="18" height="161" rx="9" fill="url(#paint3_linear_957_1090)"/>
<rect x="115" y="27" width="18" height="134" rx="9" fill="url(#paint4_linear_957_1090)"/>
<rect x="147" y="58" width="18" height="134" rx="9" fill="url(#paint5_linear_957_1090)"/>
<rect x="179" y="69" width="18" height="123" rx="9" fill="url(#paint6_linear_957_1090)"/>
<rect x="214" y="64" width="18" height="95" rx="9" fill="url(#paint7_linear_957_1090)"/>
<rect x="246" y="42" width="18" height="117" rx="9" fill="url(#paint8_linear_957_1090)"/>
<rect x="278" y="30" width="18" height="129" rx="9" fill="url(#paint9_linear_957_1090)"/>
<rect x="310" y="21" width="18" height="138" rx="9" fill="url(#paint10_linear_957_1090)"/>
<rect x="342" width="18" height="159" rx="9" fill="url(#paint11_linear_957_1090)"/>
<rect x="374" y="12" width="18" height="178" rx="9" fill="url(#paint12_linear_957_1090)"/>
<rect x="406" y="30" width="18" height="160" rx="9" fill="url(#paint13_linear_957_1090)"/>
<rect x="441" y="56" width="18" height="103" rx="9" fill="url(#paint14_linear_957_1090)"/>
<rect x="473" y="69" width="18" height="90" rx="9" fill="url(#paint15_linear_957_1090)"/>
<rect x="505" y="56" width="18" height="103" rx="9" fill="url(#paint16_linear_957_1090)"/>
<rect x="537" y="41" width="18" height="118" rx="9" fill="url(#paint17_linear_957_1090)"/>
<rect x="569" y="17" width="18" height="142" rx="9" fill="url(#paint18_linear_957_1090)"/>
<rect x="601" width="18" height="190" rx="9" fill="url(#paint19_linear_957_1090)"/>
<rect x="633" y="9" width="18" height="181" rx="9" fill="url(#paint20_linear_957_1090)"/>
<rect x="668" y="17" width="18" height="140" rx="9" fill="url(#paint21_linear_957_1090)"/>
<rect x="700" y="27" width="18" height="130" rx="9" fill="url(#paint22_linear_957_1090)"/>
<rect x="732" y="41" width="18" height="116" rx="9" fill="url(#paint23_linear_957_1090)"/>
<rect x="764" y="46" width="18" height="111" rx="9" fill="url(#paint24_linear_957_1090)"/>
<rect x="796" y="54" width="18" height="103" rx="9" fill="url(#paint25_linear_957_1090)"/>
<rect x="828" y="69" width="18" height="119" rx="9" fill="url(#paint26_linear_957_1090)"/>
<rect x="860" y="77" width="18" height="111" rx="9" fill="url(#paint27_linear_957_1090)"/>
<rect x="895" y="87" width="18" height="70" rx="9" fill="url(#paint28_linear_957_1090)"/>
<rect x="927" y="79" width="18" height="78" rx="9" fill="url(#paint29_linear_957_1090)"/>
<rect x="959" y="87" width="18" height="70" rx="9" fill="url(#paint30_linear_957_1090)"/>
<rect x="991" y="87" width="18" height="70" rx="9" fill="url(#paint31_linear_957_1090)"/>
<rect x="1023" y="79" width="18" height="78" rx="9" fill="url(#paint32_linear_957_1090)"/>
<rect x="1055" y="69" width="18" height="119" rx="9" fill="url(#paint33_linear_957_1090)"/>
<rect x="1087" y="54" width="18" height="134" rx="9" fill="url(#paint34_linear_957_1090)"/>
<rect x="1119" y="46" width="18" height="111" rx="9" fill="url(#paint35_linear_957_1090)"/>
<rect x="1151" y="27" width="18" height="130" rx="9" fill="url(#paint36_linear_957_1090)"/>
<rect x="1183" y="36" width="18" height="121" rx="9" fill="url(#paint37_linear_957_1090)"/>
<rect x="1215" y="17" width="18" height="140" rx="9" fill="url(#paint38_linear_957_1090)"/>
<rect x="1247" y="4" width="18" height="153" rx="9" fill="url(#paint39_linear_957_1090)"/>
<rect x="1279" y="13" width="18" height="175" rx="9" fill="url(#paint40_linear_957_1090)"/>
<rect x="1311" y="34" width="18" height="154" rx="9" fill="url(#paint41_linear_957_1090)"/>
<rect x="1343" y="54" width="18" height="103" rx="9" fill="url(#paint42_linear_957_1090)"/>
<rect x="1375" y="67" width="18" height="90" rx="9" fill="url(#paint43_linear_957_1090)"/>
<rect x="1407" y="54" width="18" height="103" rx="9" fill="url(#paint44_linear_957_1090)"/>
<rect x="1439" y="34" width="18" height="123" rx="9" fill="url(#paint45_linear_957_1090)"/>
<rect x="1471" y="22" width="18" height="135" rx="9" fill="url(#paint46_linear_957_1090)"/>
<rect x="1503" y="34" width="18" height="154" rx="9" fill="url(#paint47_linear_957_1090)"/>
<rect x="1535" y="54" width="18" height="134" rx="9" fill="url(#paint48_linear_957_1090)"/>
<rect x="1567" y="75" width="18" height="80" rx="9" fill="url(#paint49_linear_957_1090)"/>
<rect x="1599" y="52" width="18" height="103" rx="9" fill="url(#paint50_linear_957_1090)"/>
<rect x="1631" y="34" width="18" height="121" rx="9" fill="url(#paint51_linear_957_1090)"/>
<rect x="1663" y="17" width="18" height="138" rx="9" fill="url(#paint52_linear_957_1090)"/>
<rect x="1695" y="45" width="18" height="110" rx="9" fill="url(#paint53_linear_957_1090)"/>
<rect x="1727" y="67" width="18" height="119" rx="9" fill="url(#paint54_linear_957_1090)"/>
<rect x="1759" y="54" width="18" height="132" rx="9" fill="url(#paint55_linear_957_1090)"/>
<rect x="1791" y="40" width="18" height="115" rx="9" fill="url(#paint56_linear_957_1090)"/>
<rect x="1823" y="34" width="18" height="121" rx="9" fill="url(#paint57_linear_957_1090)"/>
<rect x="1855" y="45" width="18" height="110" rx="9" fill="url(#paint58_linear_957_1090)"/>
<rect x="1887" y="17" width="18" height="138" rx="9" fill="url(#paint59_linear_957_1090)"/>
<rect x="1919" y="21" width="18" height="134" rx="9" fill="url(#paint60_linear_957_1090)"/>
</g>
<defs>
<linearGradient id="paint0_linear_957_1090" x1="-4" y1="37" x2="-4" y2="161" gradientUnits="userSpaceOnUse">
<stop stop-color="#0A0823"/>
<stop offset="1" stop-color="#FBDF97"/>
</linearGradient>
<linearGradient id="paint1_linear_957_1090" x1="28" y1="58" x2="28" y2="161" gradientUnits="userSpaceOnUse">
<stop stop-color="#0A0823"/>
<stop offset="1" stop-color="#FBDF97"/>
</linearGradient>
<linearGradient id="paint2_linear_957_1090" x1="60" y1="27" x2="60" y2="161" gradientUnits="userSpaceOnUse">
<stop stop-color="#0A0823"/>
<stop offset="1" stop-color="#FBDF97"/>
</linearGradient>
<linearGradient id="paint3_linear_957_1090" x1="92" y1="0" x2="92" y2="161" gradientUnits="userSpaceOnUse">
<stop stop-color="#0A0823"/>
<stop offset="1" stop-color="#FBDF97"/>
</linearGradient>
<linearGradient id="paint4_linear_957_1090" x1="124" y1="27" x2="124" y2="161" gradientUnits="userSpaceOnUse">
<stop stop-color="#0A0823"/>
<stop offset="1" stop-color="#FBDF97"/>
</linearGradient>
<linearGradient id="paint5_linear_957_1090" x1="156" y1="58" x2="156" y2="192" gradientUnits="userSpaceOnUse">
<stop stop-color="#0A0823"/>
<stop offset="1" stop-color="#FBDF97"/>
</linearGradient>
<linearGradient id="paint6_linear_957_1090" x1="188" y1="69" x2="188" y2="192" gradientUnits="userSpaceOnUse">
<stop stop-color="#0A0823"/>
<stop offset="1" stop-color="#FBDF97"/>
</linearGradient>
<linearGradient id="paint7_linear_957_1090" x1="223" y1="64" x2="223" y2="159" gradientUnits="userSpaceOnUse">
<stop stop-color="#0A0823"/>
<stop offset="1" stop-color="#FBDF97"/>
</linearGradient>
<linearGradient id="paint8_linear_957_1090" x1="255" y1="42" x2="255" y2="159" gradientUnits="userSpaceOnUse">
<stop stop-color="#0A0823"/>
<stop offset="1" stop-color="#FBDF97"/>
</linearGradient>
<linearGradient id="paint9_linear_957_1090" x1="287" y1="30" x2="287" y2="159" gradientUnits="userSpaceOnUse">
<stop stop-color="#0A0823"/>
<stop offset="1" stop-color="#FBDF97"/>
</linearGradient>
<linearGradient id="paint10_linear_957_1090" x1="319" y1="21" x2="319" y2="159" gradientUnits="userSpaceOnUse">
<stop stop-color="#0A0823"/>
<stop offset="1" stop-color="#FBDF97"/>
</linearGradient>
<linearGradient id="paint11_linear_957_1090" x1="351" y1="0" x2="351" y2="159" gradientUnits="userSpaceOnUse">
<stop stop-color="#0A0823"/>
<stop offset="1" stop-color="#FBDF97"/>
</linearGradient>
<linearGradient id="paint12_linear_957_1090" x1="383" y1="12" x2="383" y2="190" gradientUnits="userSpaceOnUse">
<stop stop-color="#0A0823"/>
<stop offset="1" stop-color="#FBDF97"/>
</linearGradient>
<linearGradient id="paint13_linear_957_1090" x1="415" y1="30" x2="415" y2="190" gradientUnits="userSpaceOnUse">
<stop stop-color="#0A0823"/>
<stop offset="1" stop-color="#FBDF97"/>
</linearGradient>
<linearGradient id="paint14_linear_957_1090" x1="450" y1="56" x2="450" y2="159" gradientUnits="userSpaceOnUse">
<stop stop-color="#0A0823"/>
<stop offset="1" stop-color="#FBDF97"/>
</linearGradient>
<linearGradient id="paint15_linear_957_1090" x1="482" y1="69" x2="482" y2="159" gradientUnits="userSpaceOnUse">
<stop stop-color="#0A0823"/>
<stop offset="1" stop-color="#FBDF97"/>
</linearGradient>
<linearGradient id="paint16_linear_957_1090" x1="514" y1="56" x2="514" y2="159" gradientUnits="userSpaceOnUse">
<stop stop-color="#0A0823"/>
<stop offset="1" stop-color="#FBDF97"/>
</linearGradient>
<linearGradient id="paint17_linear_957_1090" x1="546" y1="41" x2="546" y2="159" gradientUnits="userSpaceOnUse">
<stop stop-color="#0A0823"/>
<stop offset="1" stop-color="#FBDF97"/>
</linearGradient>
<linearGradient id="paint18_linear_957_1090" x1="578" y1="17" x2="578" y2="159" gradientUnits="userSpaceOnUse">
<stop stop-color="#0A0823"/>
<stop offset="1" stop-color="#FBDF97"/>
</linearGradient>
<linearGradient id="paint19_linear_957_1090" x1="610" y1="0" x2="610" y2="190" gradientUnits="userSpaceOnUse">
<stop stop-color="#0A0823"/>
<stop offset="1" stop-color="#FBDF97"/>
</linearGradient>
<linearGradient id="paint20_linear_957_1090" x1="642" y1="9" x2="642" y2="190" gradientUnits="userSpaceOnUse">
<stop stop-color="#0A0823"/>
<stop offset="1" stop-color="#FBDF97"/>
</linearGradient>
<linearGradient id="paint21_linear_957_1090" x1="677" y1="17" x2="677" y2="157" gradientUnits="userSpaceOnUse">
<stop stop-color="#0A0823"/>
<stop offset="1" stop-color="#FBDF97"/>
</linearGradient>
<linearGradient id="paint22_linear_957_1090" x1="709" y1="27" x2="709" y2="157" gradientUnits="userSpaceOnUse">
<stop stop-color="#0A0823"/>
<stop offset="1" stop-color="#FBDF97"/>
</linearGradient>
<linearGradient id="paint23_linear_957_1090" x1="741" y1="41" x2="741" y2="157" gradientUnits="userSpaceOnUse">
<stop stop-color="#0A0823"/>
<stop offset="1" stop-color="#FBDF97"/>
</linearGradient>
<linearGradient id="paint24_linear_957_1090" x1="773" y1="46" x2="773" y2="157" gradientUnits="userSpaceOnUse">
<stop stop-color="#0A0823"/>
<stop offset="1" stop-color="#FBDF97"/>
</linearGradient>
<linearGradient id="paint25_linear_957_1090" x1="805" y1="54" x2="805" y2="157" gradientUnits="userSpaceOnUse">
<stop stop-color="#0A0823"/>
<stop offset="1" stop-color="#FBDF97"/>
</linearGradient>
<linearGradient id="paint26_linear_957_1090" x1="837" y1="69" x2="837" y2="188" gradientUnits="userSpaceOnUse">
<stop stop-color="#0A0823"/>
<stop offset="1" stop-color="#FBDF97"/>
</linearGradient>
<linearGradient id="paint27_linear_957_1090" x1="869" y1="77" x2="869" y2="188" gradientUnits="userSpaceOnUse">
<stop stop-color="#0A0823"/>
<stop offset="1" stop-color="#FBDF97"/>
</linearGradient>
<linearGradient id="paint28_linear_957_1090" x1="904" y1="87" x2="904" y2="157" gradientUnits="userSpaceOnUse">
<stop stop-color="#0A0823"/>
<stop offset="1" stop-color="#FBDF97"/>
</linearGradient>
<linearGradient id="paint29_linear_957_1090" x1="936" y1="79" x2="936" y2="157" gradientUnits="userSpaceOnUse">
<stop stop-color="#0A0823"/>
<stop offset="1" stop-color="#FBDF97"/>
</linearGradient>
<linearGradient id="paint30_linear_957_1090" x1="968" y1="87" x2="968" y2="157" gradientUnits="userSpaceOnUse">
<stop stop-color="#0A0823"/>
<stop offset="1" stop-color="#FBDF97"/>
</linearGradient>
<linearGradient id="paint31_linear_957_1090" x1="1000" y1="87" x2="1000" y2="157" gradientUnits="userSpaceOnUse">
<stop stop-color="#0A0823"/>
<stop offset="1" stop-color="#FBDF97"/>
</linearGradient>
<linearGradient id="paint32_linear_957_1090" x1="1032" y1="79" x2="1032" y2="157" gradientUnits="userSpaceOnUse">
<stop stop-color="#0A0823"/>
<stop offset="1" stop-color="#FBDF97"/>
</linearGradient>
<linearGradient id="paint33_linear_957_1090" x1="1064" y1="69" x2="1064" y2="188" gradientUnits="userSpaceOnUse">
<stop stop-color="#0A0823"/>
<stop offset="1" stop-color="#FBDF97"/>
</linearGradient>
<linearGradient id="paint34_linear_957_1090" x1="1096" y1="54" x2="1096" y2="188" gradientUnits="userSpaceOnUse">
<stop stop-color="#0A0823"/>
<stop offset="1" stop-color="#FBDF97"/>
</linearGradient>
<linearGradient id="paint35_linear_957_1090" x1="1128" y1="46" x2="1128" y2="157" gradientUnits="userSpaceOnUse">
<stop stop-color="#0A0823"/>
<stop offset="1" stop-color="#FBDF97"/>
</linearGradient>
<linearGradient id="paint36_linear_957_1090" x1="1160" y1="27" x2="1160" y2="157" gradientUnits="userSpaceOnUse">
<stop stop-color="#0A0823"/>
<stop offset="1" stop-color="#FBDF97"/>
</linearGradient>
<linearGradient id="paint37_linear_957_1090" x1="1192" y1="36" x2="1192" y2="157" gradientUnits="userSpaceOnUse">
<stop stop-color="#0A0823"/>
<stop offset="1" stop-color="#FBDF97"/>
</linearGradient>
<linearGradient id="paint38_linear_957_1090" x1="1224" y1="17" x2="1224" y2="157" gradientUnits="userSpaceOnUse">
<stop stop-color="#0A0823"/>
<stop offset="1" stop-color="#FBDF97"/>
</linearGradient>
<linearGradient id="paint39_linear_957_1090" x1="1256" y1="4" x2="1256" y2="157" gradientUnits="userSpaceOnUse">
<stop stop-color="#0A0823"/>
<stop offset="1" stop-color="#FBDF97"/>
</linearGradient>
<linearGradient id="paint40_linear_957_1090" x1="1288" y1="13" x2="1288" y2="188" gradientUnits="userSpaceOnUse">
<stop stop-color="#0A0823"/>
<stop offset="1" stop-color="#FBDF97"/>
</linearGradient>
<linearGradient id="paint41_linear_957_1090" x1="1320" y1="34" x2="1320" y2="188" gradientUnits="userSpaceOnUse">
<stop stop-color="#0A0823"/>
<stop offset="1" stop-color="#FBDF97"/>
</linearGradient>
<linearGradient id="paint42_linear_957_1090" x1="1352" y1="54" x2="1352" y2="157" gradientUnits="userSpaceOnUse">
<stop stop-color="#0A0823"/>
<stop offset="1" stop-color="#FBDF97"/>
</linearGradient>
<linearGradient id="paint43_linear_957_1090" x1="1384" y1="67" x2="1384" y2="157" gradientUnits="userSpaceOnUse">
<stop stop-color="#0A0823"/>
<stop offset="1" stop-color="#FBDF97"/>
</linearGradient>
<linearGradient id="paint44_linear_957_1090" x1="1416" y1="54" x2="1416" y2="157" gradientUnits="userSpaceOnUse">
<stop stop-color="#0A0823"/>
<stop offset="1" stop-color="#FBDF97"/>
</linearGradient>
<linearGradient id="paint45_linear_957_1090" x1="1448" y1="34" x2="1448" y2="157" gradientUnits="userSpaceOnUse">
<stop stop-color="#0A0823"/>
<stop offset="1" stop-color="#FBDF97"/>
</linearGradient>
<linearGradient id="paint46_linear_957_1090" x1="1480" y1="22" x2="1480" y2="157" gradientUnits="userSpaceOnUse">
<stop stop-color="#0A0823"/>
<stop offset="1" stop-color="#FBDF97"/>
</linearGradient>
<linearGradient id="paint47_linear_957_1090" x1="1512" y1="34" x2="1512" y2="188" gradientUnits="userSpaceOnUse">
<stop stop-color="#0A0823"/>
<stop offset="1" stop-color="#FBDF97"/>
</linearGradient>
<linearGradient id="paint48_linear_957_1090" x1="1544" y1="54" x2="1544" y2="188" gradientUnits="userSpaceOnUse">
<stop stop-color="#0A0823"/>
<stop offset="1" stop-color="#FBDF97"/>
</linearGradient>
<linearGradient id="paint49_linear_957_1090" x1="1576" y1="75" x2="1576" y2="155" gradientUnits="userSpaceOnUse">
<stop stop-color="#0A0823"/>
<stop offset="1" stop-color="#FBDF97"/>
</linearGradient>
<linearGradient id="paint50_linear_957_1090" x1="1608" y1="52" x2="1608" y2="155" gradientUnits="userSpaceOnUse">
<stop stop-color="#0A0823"/>
<stop offset="1" stop-color="#FBDF97"/>
</linearGradient>
<linearGradient id="paint51_linear_957_1090" x1="1640" y1="34" x2="1640" y2="155" gradientUnits="userSpaceOnUse">
<stop stop-color="#0A0823"/>
<stop offset="1" stop-color="#FBDF97"/>
</linearGradient>
<linearGradient id="paint52_linear_957_1090" x1="1672" y1="17" x2="1672" y2="155" gradientUnits="userSpaceOnUse">
<stop stop-color="#0A0823"/>
<stop offset="1" stop-color="#FBDF97"/>
</linearGradient>
<linearGradient id="paint53_linear_957_1090" x1="1704" y1="45" x2="1704" y2="155" gradientUnits="userSpaceOnUse">
<stop stop-color="#0A0823"/>
<stop offset="1" stop-color="#FBDF97"/>
</linearGradient>
<linearGradient id="paint54_linear_957_1090" x1="1736" y1="67" x2="1736" y2="186" gradientUnits="userSpaceOnUse">
<stop stop-color="#0A0823"/>
<stop offset="1" stop-color="#FBDF97"/>
</linearGradient>
<linearGradient id="paint55_linear_957_1090" x1="1768" y1="54" x2="1768" y2="186" gradientUnits="userSpaceOnUse">
<stop stop-color="#0A0823"/>
<stop offset="1" stop-color="#FBDF97"/>
</linearGradient>
<linearGradient id="paint56_linear_957_1090" x1="1800" y1="40" x2="1800" y2="155" gradientUnits="userSpaceOnUse">
<stop stop-color="#0A0823"/>
<stop offset="1" stop-color="#FBDF97"/>
</linearGradient>
<linearGradient id="paint57_linear_957_1090" x1="1832" y1="34" x2="1832" y2="155" gradientUnits="userSpaceOnUse">
<stop stop-color="#0A0823"/>
<stop offset="1" stop-color="#FBDF97"/>
</linearGradient>
<linearGradient id="paint58_linear_957_1090" x1="1864" y1="45" x2="1864" y2="155" gradientUnits="userSpaceOnUse">
<stop stop-color="#0A0823"/>
<stop offset="1" stop-color="#FBDF97"/>
</linearGradient>
<linearGradient id="paint59_linear_957_1090" x1="1896" y1="17" x2="1896" y2="155" gradientUnits="userSpaceOnUse">
<stop stop-color="#0A0823"/>
<stop offset="1" stop-color="#FBDF97"/>
</linearGradient>
<linearGradient id="paint60_linear_957_1090" x1="1928" y1="21" x2="1928" y2="155" gradientUnits="userSpaceOnUse">
<stop stop-color="#0A0823"/>
<stop offset="1" stop-color="#FBDF97"/>
</linearGradient>
</defs>
</svg>
