<svg width="48" height="48" viewBox="0 0 48 48" fill="none" xmlns="http://www.w3.org/2000/svg">
<circle cx="24" cy="24" r="24" fill="#A5A5A5"/>
<path d="M18.7667 12H28.5667C32.3 12 35.3333 15.0333 35.3333 18.7667V28.5667C35.3333 30.3613 34.6204 32.0824 33.3514 33.3514C32.0824 34.6204 30.3613 35.3333 28.5667 35.3333H18.7667C15.0333 35.3333 12 32.3 12 28.5667V18.7667C12 16.972 12.7129 15.2509 13.9819 13.9819C15.2509 12.7129 16.972 12 18.7667 12ZM18.5333 14.3333C17.4194 14.3333 16.3511 14.7758 15.5635 15.5635C14.7758 16.3511 14.3333 17.4194 14.3333 18.5333V28.8C14.3333 31.1217 16.2117 33 18.5333 33H28.8C29.9139 33 30.9822 32.5575 31.7699 31.7699C32.5575 30.9822 33 29.9139 33 28.8V18.5333C33 16.2117 31.1217 14.3333 28.8 14.3333H18.5333ZM29.7917 16.0833C30.1784 16.0833 30.5494 16.237 30.8229 16.5105C31.0964 16.784 31.25 17.1549 31.25 17.5417C31.25 17.9284 31.0964 18.2994 30.8229 18.5729C30.5494 18.8464 30.1784 19 29.7917 19C29.4049 19 29.034 18.8464 28.7605 18.5729C28.487 18.2994 28.3333 17.9284 28.3333 17.5417C28.3333 17.1549 28.487 16.784 28.7605 16.5105C29.034 16.237 29.4049 16.0833 29.7917 16.0833ZM23.6667 17.8333C25.2138 17.8333 26.6975 18.4479 27.7915 19.5419C28.8854 20.6358 29.5 22.1196 29.5 23.6667C29.5 25.2138 28.8854 26.6975 27.7915 27.7915C26.6975 28.8854 25.2138 29.5 23.6667 29.5C22.1196 29.5 20.6358 28.8854 19.5419 27.7915C18.4479 26.6975 17.8333 25.2138 17.8333 23.6667C17.8333 22.1196 18.4479 20.6358 19.5419 19.5419C20.6358 18.4479 22.1196 17.8333 23.6667 17.8333ZM23.6667 20.1667C22.7384 20.1667 21.8482 20.5354 21.1918 21.1918C20.5354 21.8482 20.1667 22.7384 20.1667 23.6667C20.1667 24.5949 20.5354 25.4852 21.1918 26.1415C21.8482 26.7979 22.7384 27.1667 23.6667 27.1667C24.5949 27.1667 25.4852 26.7979 26.1415 26.1415C26.7979 25.4852 27.1667 24.5949 27.1667 23.6667C27.1667 22.7384 26.7979 21.8482 26.1415 21.1918C25.4852 20.5354 24.5949 20.1667 23.6667 20.1667Z" fill="white"/>
</svg>
