<svg width="48" height="48" viewBox="0 0 48 48" fill="none" xmlns="http://www.w3.org/2000/svg">
<circle cx="24" cy="24" r="24" fill="#D9D9D9"/>
<path d="M31.05 16.91C30.1332 15.9839 29.0412 15.2497 27.8376 14.75C26.6341 14.2504 25.3431 13.9955 24.04 14C18.58 14 14.13 18.45 14.13 23.91C14.13 25.66 14.59 27.36 15.45 28.86L14.05 34L19.3 32.62C20.75 33.41 22.38 33.83 24.04 33.83C29.5 33.83 33.95 29.38 33.95 23.92C33.95 21.27 32.92 18.78 31.05 16.91ZM24.04 32.15C22.56 32.15 21.11 31.75 19.84 31L19.54 30.82L16.42 31.64L17.25 28.6L17.05 28.29C16.2277 26.977 15.7911 25.4592 15.79 23.91C15.79 19.37 19.49 15.67 24.03 15.67C26.23 15.67 28.3 16.53 29.85 18.09C30.6175 18.854 31.2257 19.7627 31.6394 20.7634C32.0531 21.7642 32.264 22.8371 32.26 23.92C32.28 28.46 28.58 32.15 24.04 32.15ZM28.56 25.99C28.31 25.87 27.09 25.27 26.87 25.18C26.64 25.1 26.48 25.06 26.31 25.3C26.14 25.55 25.67 26.11 25.53 26.27C25.39 26.44 25.24 26.46 24.99 26.33C24.74 26.21 23.94 25.94 23 25.1C22.26 24.44 21.77 23.63 21.62 23.38C21.48 23.13 21.6 23 21.73 22.87C21.84 22.76 21.98 22.58 22.1 22.44C22.22 22.3 22.27 22.19 22.35 22.03C22.43 21.86 22.39 21.72 22.33 21.6C22.27 21.48 21.77 20.26 21.57 19.76C21.37 19.28 21.16 19.34 21.01 19.33H20.53C20.36 19.33 20.1 19.39 19.87 19.64C19.65 19.89 19.01 20.49 19.01 21.71C19.01 22.93 19.9 24.11 20.02 24.27C20.14 24.44 21.77 26.94 24.25 28.01C24.84 28.27 25.3 28.42 25.66 28.53C26.25 28.72 26.79 28.69 27.22 28.63C27.7 28.56 28.69 28.03 28.89 27.45C29.1 26.87 29.1 26.38 29.03 26.27C28.96 26.16 28.81 26.11 28.56 25.99Z" fill="black"/>
</svg>
