<svg width="226" height="224" viewBox="0 0 226 224" fill="none" xmlns="http://www.w3.org/2000/svg">
<path opacity="0.7" d="M-53.4799 37.2495L-53.6649 37.8822L-53.0057 37.8898L-12.0828 38.3568L-12.0362 38.3574L-11.9903 38.3493C-9.89182 37.9795 -8.31602 36.825 -7.29532 34.9201L-7.27106 34.8748L-7.25651 34.8256L-3.28384 21.3731L-3.26594 21.3125L-3.26368 21.2493C-3.20066 19.4832 -4.02718 18.0171 -5.62292 16.8619L-2.50106 5.93423L-2.48905 5.89219L-2.48452 5.84871C-2.38473 4.89131 -2.54912 4.04487 -3.03445 3.35944C-3.51735 2.67744 -4.27279 2.21881 -5.23154 1.94481L-5.29609 1.92637L-5.36322 1.9256L-42.6485 1.50003L-43.0277 1.4957L-43.1342 1.8597L-53.4799 37.2495ZM-38.7108 28.0543L-33.8359 11.5993L-16.3129 11.7993L-17.2356 15.1055L-30.6137 14.9529L-30.9912 14.9485L-31.0987 15.3104L-33.7465 24.2179L-33.9352 24.8528L-33.2729 24.8603L-16.8476 25.0478L-17.8586 28.2923L-38.7108 28.0543ZM8.96787 31.7812L21.1465 7.83272L21.4454 7.24491L20.7987 7.11576L10.036 4.96624L9.66372 4.89189L9.49209 5.23054L-5.65657 35.1225L-5.67982 35.1684L-5.69325 35.218C-5.94799 36.1605 -5.92691 37.0285 -5.55561 37.7765C-5.18496 38.5233 -4.50395 39.0725 -3.59471 39.4563L-3.54797 39.476L-3.49823 39.4859L27.6601 45.7088L28.0337 45.7834L28.2048 45.4431L28.3334 45.1871L28.9564 45.4387L40.7105 50.1862L40.9578 50.2861L41.1785 50.1363L65.8102 33.4184L61.5308 47.8165L55.5731 45.4102L55.322 45.3088L55.0998 45.4637L46.2919 51.6067L45.5348 52.1348L46.3907 52.4804L70.8514 62.3601L71.1919 62.5842L103.178 83.6308L103.215 83.6547L103.255 83.672C104.916 84.3912 106.713 84.287 108.602 83.4299L108.668 83.4L108.723 83.3526L120.938 72.7747L120.945 72.7693L120.951 72.7638C121.769 72.0072 122.207 71.1053 122.204 70.0739C122.257 69.0482 121.903 68.2124 121.09 67.6776L98.9737 53.1253L101.528 50.8398L126.552 67.3055L126.871 67.5151L127.157 67.2633L134.158 61.1079L134.65 60.675L134.103 60.3147L102.218 39.3348L102.174 39.3056L102.124 39.2864C100.368 38.6043 98.5787 38.6966 96.788 39.5385L96.7262 39.5675L96.6744 39.6121L84.0405 50.4966L84.0317 50.5042L84.0232 50.5122C83.2887 51.2071 82.9244 52.0655 82.958 53.0574L82.9582 53.0646L82.9586 53.0717C83.0198 54.0462 83.4898 54.8236 84.3235 55.3721L106.423 69.9132L103.828 72.0988L78.7429 55.5933L78.4243 55.3837L78.1379 55.6355L71.8685 61.1475L80.3137 27.2901L80.4189 26.8683L80.0158 26.7055L65.506 20.845L65.2637 20.7471L65.045 20.8902L28.8699 44.5567L28.5427 44.7708L32.3956 37.1053L32.6903 36.519L32.0467 36.3904L8.96787 31.7812ZM169.396 97.2953L169.963 96.9667L169.497 96.5065L139.963 67.3989L139.691 67.1312L139.361 67.3224L131.299 71.9923L130.731 72.3209L131.198 72.7811L139.118 80.5864L118.742 92.263L118.697 92.2889L118.658 92.3234C117.931 92.9702 117.471 93.7022 117.364 94.5228C117.257 95.3436 117.514 96.1678 118.051 96.9763L118.08 97.0194L118.116 97.0557L130.051 108.818L130.322 109.086L130.652 108.895L138.715 104.225L139.283 103.896L138.816 103.436L132.8 97.507L147.683 89.0283L160.732 101.889L161.003 102.156L161.333 101.965L169.396 97.2953ZM175.992 107.66L175.963 107.615L175.924 107.577C175.192 106.863 174.359 106.358 173.43 106.072C172.543 105.766 171.528 105.643 170.398 105.687L170.329 105.689L170.263 105.711L141.754 114.967L141.695 114.986L141.642 115.02C140.839 115.527 140.27 116.157 140 116.926C139.729 117.695 139.783 118.536 140.101 119.419L140.121 119.476L140.154 119.526L161.534 151.851L161.561 151.893L161.596 151.928C162.225 152.561 162.982 153.074 163.861 153.47C164.755 153.872 165.729 154.084 166.776 154.111L166.861 154.113L166.942 154.087L196.224 144.681L196.314 144.652L196.388 144.592C197.095 144.012 197.53 143.304 197.63 142.472C197.755 141.685 197.686 140.895 197.431 140.107L197.41 140.042L197.372 139.986L175.992 107.66ZM201.584 151.993L201.445 151.64L201.067 151.679L167.805 155.11L167.742 155.117L167.683 155.139C166.793 155.467 166.105 155.965 165.681 156.661C165.257 157.357 165.135 158.191 165.263 159.121L165.271 159.18L165.293 159.236L178.052 191.638L178.07 191.682L178.095 191.722C179.216 193.495 180.871 194.5 183.012 194.727L183.064 194.733L183.117 194.727L216.379 191.296L217.035 191.228L216.793 190.615L212.74 180.324L212.602 179.971L212.225 180.009L185.275 182.751L178.552 165.679L205.222 162.965L205.879 162.899L205.637 162.285L201.584 151.993ZM214.241 240.172L214.306 240.547L214.684 240.584L223.951 241.498L224.605 241.562L224.493 240.915L217.395 200.004L217.33 199.63L216.952 199.592L207.685 198.679L207.031 198.614L207.143 199.262L209.047 210.231L185.703 207.821L185.652 207.816L185.6 207.821C184.633 207.922 183.833 208.249 183.269 208.854C182.705 209.459 182.435 210.279 182.402 211.249L182.4 211.301L182.409 211.352L185.277 227.884L185.342 228.258L185.721 228.296L194.987 229.209L195.641 229.274L195.529 228.626L194.083 220.294L211.105 222.095L214.241 240.172ZM154.461 123.064L170.771 117.857L183.267 136.751L166.956 141.958L154.461 123.064Z" fill="#FFBD0C" stroke="#FB5507"/>
</svg>
