<?xml version="1.0" standalone="no"?>
<!DOCTYPE svg PUBLIC "-//W3C//DTD SVG 20010904//EN"
 "http://www.w3.org/TR/2001/REC-SVG-20010904/DTD/svg10.dtd">
<svg version="1.0" xmlns="http://www.w3.org/2000/svg"
 width="1584.000000pt" height="1584.000000pt" viewBox="0 0 1584.000000 1584.000000"
 preserveAspectRatio="xMidYMid meet">
<metadata>
Created by potrace 1.14, written by Peter Selinger 2001-2017
</metadata>
<g transform="translate(0.000000,1584.000000) scale(0.100000,-0.100000)"
fill="#000000" stroke="none">
<path d="M7578 15835 c-2 -1 -59 -6 -128 -9 -69 -4 -139 -9 -155 -11 -17 -2
-68 -6 -115 -9 -47 -4 -92 -9 -100 -11 -8 -2 -46 -6 -85 -9 -38 -3 -79 -8 -90
-10 -19 -4 -74 -11 -154 -22 -19 -2 -47 -6 -63 -9 -44 -8 -90 -15 -123 -21
-159 -25 -500 -100 -669 -146 -59 -16 -115 -31 -125 -34 -209 -51 -721 -233
-968 -345 -24 -10 -45 -19 -48 -19 -5 0 -82 -35 -248 -114 -64 -30 -121 -56
-125 -57 -4 -2 -33 -18 -64 -36 -31 -18 -59 -33 -62 -33 -10 0 -270 -146 -406
-228 -236 -143 -523 -337 -700 -474 -41 -32 -80 -61 -85 -65 -42 -32 -167
-132 -195 -157 -20 -17 -57 -49 -84 -71 -27 -22 -54 -45 -60 -50 -6 -6 -60
-55 -121 -110 -186 -169 -487 -475 -620 -630 -27 -32 -57 -66 -65 -74 -19 -21
-197 -237 -230 -281 -14 -18 -32 -41 -40 -50 -8 -10 -22 -28 -30 -40 -8 -12
-20 -28 -25 -34 -25 -27 -167 -228 -255 -361 -202 -304 -334 -531 -501 -865
-60 -120 -109 -221 -109 -224 0 -3 -16 -38 -35 -78 -145 -307 -338 -859 -435
-1248 -18 -69 -34 -132 -36 -140 -11 -44 -23 -98 -28 -120 -2 -14 -14 -70 -25
-125 -43 -215 -83 -453 -96 -575 -3 -30 -8 -66 -10 -80 -4 -29 -13 -110 -20
-195 -3 -33 -8 -78 -10 -100 -21 -223 -28 -890 -12 -1115 5 -63 10 -140 12
-170 4 -49 10 -109 20 -205 2 -16 6 -59 10 -95 4 -36 9 -73 11 -84 2 -10 6
-44 10 -75 3 -31 8 -63 9 -73 2 -9 7 -38 11 -65 3 -26 8 -57 10 -68 5 -22 7
-34 28 -155 9 -47 23 -116 31 -155 8 -38 17 -79 19 -90 22 -113 102 -422 147
-567 17 -54 30 -100 30 -103 0 -14 156 -456 188 -530 5 -11 37 -87 71 -170
222 -530 496 -1022 860 -1540 65 -93 308 -404 386 -495 300 -349 616 -666 918
-921 16 -13 34 -29 40 -34 80 -74 497 -393 574 -440 9 -5 19 -13 22 -16 4 -5
180 -121 280 -185 99 -63 203 -124 211 -124 5 0 9 -4 9 -9 0 -5 8 -11 18 -14
9 -3 40 -19 67 -36 96 -57 488 -258 610 -313 33 -15 92 -41 130 -59 324 -145
866 -330 1230 -420 93 -23 366 -85 410 -93 153 -27 328 -56 363 -61 24 -3 53
-7 65 -10 12 -2 47 -7 77 -10 30 -3 66 -7 80 -10 24 -4 109 -12 200 -21 25 -2
68 -6 95 -8 274 -27 1044 -28 1275 -2 19 3 69 7 110 11 114 9 246 25 350 40
14 2 50 7 80 11 30 4 57 8 60 9 3 0 26 4 51 8 70 12 99 17 159 28 30 6 66 12
80 15 88 16 363 79 460 105 63 17 125 32 138 35 13 3 44 12 70 21 26 8 54 17
62 18 8 2 15 4 15 5 0 1 9 3 20 6 62 12 472 156 650 227 183 74 260 107 434
189 46 22 94 44 105 49 28 12 269 139 326 171 93 52 146 82 165 92 182 98 801
517 901 611 6 5 26 21 44 35 33 24 204 165 226 185 6 5 42 37 80 70 124 109
187 168 374 355 188 187 229 231 355 375 99 112 147 171 269 325 58 74 110
140 115 146 5 6 26 35 47 65 21 30 48 68 61 84 26 33 33 44 48 67 6 8 53 80
106 159 87 130 163 250 194 304 9 18 46 80 96 163 55 93 291 550 295 572 0 3
15 37 33 75 145 312 319 790 416 1145 17 63 95 375 98 397 3 16 14 71 26 123
11 52 23 111 26 130 3 19 8 46 10 60 13 66 19 102 30 181 3 19 7 45 10 59 7
37 17 109 30 230 4 30 8 66 10 80 2 14 7 59 10 100 4 41 8 91 10 110 27 278
28 1007 0 1295 -2 22 -6 76 -10 119 -4 44 -8 88 -10 97 -2 10 -7 49 -10 86 -4
37 -8 79 -11 93 -4 25 -7 41 -24 160 -14 96 -18 123 -24 146 -2 12 -7 37 -10
55 -3 19 -11 61 -17 94 -6 33 -12 69 -14 80 -2 11 -9 43 -15 70 -6 28 -14 61
-16 75 -8 42 -63 272 -79 325 -8 28 -28 100 -46 160 -73 260 -227 696 -314
890 -8 17 -45 100 -84 186 -64 142 -219 455 -254 511 -8 13 -28 48 -44 78 -50
91 -97 172 -136 233 -20 31 -37 59 -37 62 0 5 -57 92 -183 280 -70 105 -253
359 -282 392 -5 6 -21 26 -35 44 -28 37 -159 198 -223 273 -43 51 -80 93 -177
200 -71 79 -407 415 -486 486 -128 116 -200 179 -268 235 -27 22 -58 48 -70
59 -11 10 -37 30 -56 45 -19 14 -37 28 -40 31 -3 3 -34 28 -70 55 -36 27 -69
53 -75 57 -5 5 -28 22 -50 38 -22 16 -44 33 -50 38 -5 4 -32 23 -60 42 -27 19
-52 38 -55 41 -7 8 -378 252 -415 273 -16 9 -46 27 -66 39 -199 124 -629 347
-874 454 -445 195 -859 336 -1300 443 -222 54 -245 59 -275 64 -14 2 -36 7
-50 10 -14 3 -36 8 -50 10 -14 3 -50 9 -80 15 -65 12 -76 14 -240 40 -132 21
-158 24 -310 41 -52 6 -108 13 -125 15 -16 2 -77 7 -135 11 -58 3 -121 8 -140
11 -40 4 -827 13 -832 8z"/>
</g>
</svg>
