<svg width="139" height="139" viewBox="0 0 139 139" fill="none" xmlns="http://www.w3.org/2000/svg">
<g opacity="0.5">
<line x1="20.3236" y1="5.11242" x2="19.3297" y2="132.438" stroke="#FF0070" stroke-width="1.27998"/>
<line x1="36.9798" y1="5.2423" x2="35.9859" y2="132.568" stroke="#FF0070" stroke-width="1.27998"/>
<line x1="53.64" y1="5.37218" x2="52.6461" y2="132.698" stroke="#FF0070" stroke-width="1.27998"/>
<line x1="70.3001" y1="5.50304" x2="69.3062" y2="132.829" stroke="#FF0070" stroke-width="1.27998"/>
<line x1="86.9544" y1="5.63244" x2="85.9605" y2="132.958" stroke="#FF0070" stroke-width="1.27998"/>
<line x1="103.611" y1="5.76281" x2="102.617" y2="133.088" stroke="#FF0070" stroke-width="1.27998"/>
<line x1="120.271" y1="5.89269" x2="119.277" y2="133.218" stroke="#FF0070" stroke-width="1.27998"/>
<line x1="5.11437" y1="117.998" x2="132.437" y2="118.992" stroke="#FF0070" stroke-width="1.27998"/>
<line x1="5.24328" y1="101.34" x2="132.566" y2="102.334" stroke="#FF0070" stroke-width="1.27998"/>
<line x1="5.37609" y1="84.6823" x2="132.699" y2="85.6762" stroke="#FF0070" stroke-width="1.27998"/>
<line x1="5.505" y1="68.0236" x2="132.828" y2="69.0175" stroke="#FF0070" stroke-width="1.27998"/>
<line x1="5.6339" y1="51.3659" x2="132.957" y2="52.3598" stroke="#FF0070" stroke-width="1.27998"/>
<line x1="5.76671" y1="34.7077" x2="133.09" y2="35.7016" stroke="#FF0070" stroke-width="1.27998"/>
<line x1="5.89562" y1="18.0495" x2="133.219" y2="19.0434" stroke="#FF0070" stroke-width="1.27998"/>
</g>
<g opacity="0.5" filter="url(#filter0_f_1388_641)">
<line x1="20.3236" y1="5.11242" x2="19.3297" y2="132.438" stroke="#FF0070" stroke-width="1.27998"/>
<line x1="36.9798" y1="5.2423" x2="35.9859" y2="132.568" stroke="#FF0070" stroke-width="1.27998"/>
<line x1="53.64" y1="5.37218" x2="52.6461" y2="132.698" stroke="#FF0070" stroke-width="1.27998"/>
<line x1="70.3001" y1="5.50304" x2="69.3062" y2="132.829" stroke="#FF0070" stroke-width="1.27998"/>
<line x1="86.9544" y1="5.63244" x2="85.9605" y2="132.958" stroke="#FF0070" stroke-width="1.27998"/>
<line x1="103.611" y1="5.76281" x2="102.617" y2="133.088" stroke="#FF0070" stroke-width="1.27998"/>
<line x1="120.271" y1="5.89269" x2="119.277" y2="133.218" stroke="#FF0070" stroke-width="1.27998"/>
<line x1="5.11437" y1="117.998" x2="132.437" y2="118.992" stroke="#FF0070" stroke-width="1.27998"/>
<line x1="5.24328" y1="101.34" x2="132.566" y2="102.334" stroke="#FF0070" stroke-width="1.27998"/>
<line x1="5.37609" y1="84.6823" x2="132.699" y2="85.6762" stroke="#FF0070" stroke-width="1.27998"/>
<line x1="5.505" y1="68.0236" x2="132.828" y2="69.0175" stroke="#FF0070" stroke-width="1.27998"/>
<line x1="5.6339" y1="51.3659" x2="132.957" y2="52.3598" stroke="#FF0070" stroke-width="1.27998"/>
<line x1="5.76671" y1="34.7077" x2="133.09" y2="35.7016" stroke="#FF0070" stroke-width="1.27998"/>
<line x1="5.89562" y1="18.0495" x2="133.219" y2="19.0434" stroke="#FF0070" stroke-width="1.27998"/>
</g>
<rect x="25.166" y="53.02" width="94.398" height="21.9947" fill="black"/>
<rect x="26.7363" y="54.2495" width="90.9144" height="19.5357" fill="#FFBD0C"/>
<rect x="29.5371" y="55.7524" width="85.2451" height="16.5302" fill="#FF3234"/>
<mask id="path-32-outside-1_1388_641" maskUnits="userSpaceOnUse" x="36.0293" y="59.022" width="74" height="12" fill="black">
<rect fill="white" x="36.0293" y="59.022" width="74" height="12"/>
<path d="M38.5235 63.2906H39.3039C39.5174 63.2906 39.6975 63.2105 39.8442 63.0504C39.9954 62.8859 40.071 62.6858 40.071 62.4501C40.071 62.2188 39.9954 62.0231 39.8442 61.8631C39.6975 61.6985 39.5174 61.6162 39.3039 61.6162H38.5235V63.2906ZM37.0293 69.9411V60.122H39.3039C39.9309 60.122 40.4646 60.3422 40.9048 60.7824C41.3451 61.2227 41.5652 61.7541 41.5652 62.3767C41.5652 62.9904 41.354 63.5151 40.9315 63.9509C41.3851 64.0932 41.7964 64.3467 42.1655 64.7114C42.7614 65.3117 43.0594 66.0344 43.0594 66.8793C43.0594 67.7243 42.7592 68.4469 42.1589 69.0473C41.563 69.6432 40.8426 69.9411 39.9976 69.9411H37.0293ZM38.5235 65.1183V68.4469H39.9976C40.429 68.4469 40.7981 68.2846 41.1049 67.96C41.4118 67.6309 41.5652 67.2373 41.5652 66.7793C41.5652 66.3257 41.4118 65.9365 41.1049 65.6119C40.7981 65.2828 40.429 65.1183 39.9976 65.1183H38.5235Z"/>
<path d="M46.2996 60.122H47.8005V68.4469H50.8822V69.9411H46.2996V60.122Z"/>
<path d="M57.7178 60.022L60.3993 69.9745H58.8718L58.4516 68.4002H56.0769L55.6566 69.9745H54.1291L56.8106 60.022H57.7178ZM56.5038 66.8193H58.0246L57.2709 63.6374L56.5038 66.8193Z"/>
<path d="M65.8208 69.9545C65.3939 69.9545 65.0159 69.9011 64.6868 69.7944C64.3622 69.6876 64.0131 69.4964 63.6396 69.2207V67.3863C63.8708 67.6309 64.0487 67.7976 64.1732 67.8866C64.2977 67.9711 64.4489 68.0622 64.6268 68.1601C64.8091 68.2579 65.0092 68.3402 65.2271 68.4069C65.445 68.4736 65.6607 68.5069 65.8742 68.5069C66.3144 68.5069 66.6746 68.3557 66.9548 68.0533C67.2394 67.7465 67.3817 67.3841 67.3817 66.966C67.3817 66.6236 67.2616 66.3457 67.0215 66.1322C66.7813 65.9188 66.3878 65.6742 65.8408 65.3985C65.5117 65.2295 65.2338 65.076 65.007 64.9382C64.7802 64.8003 64.5623 64.6291 64.3533 64.4245C64.1443 64.22 63.9753 63.9776 63.8463 63.6975C63.7174 63.4128 63.6529 63.0793 63.6529 62.6969C63.6707 62.3233 63.7618 61.9764 63.9264 61.6563C64.0909 61.3316 64.3133 61.0492 64.5934 60.8091C64.8736 60.5645 65.1915 60.3755 65.5473 60.2421C65.9075 60.1087 66.2855 60.042 66.6813 60.042C66.9792 60.0509 67.2505 60.0931 67.4951 60.1687C67.7397 60.2399 68.0176 60.3711 68.3289 60.5623V62.1032C68.1421 61.9787 68.0131 61.9031 67.942 61.8764C67.8753 61.8453 67.7775 61.7963 67.6485 61.7296C67.524 61.6585 67.3772 61.5985 67.2082 61.5495C67.0437 61.5006 66.8681 61.4762 66.6813 61.4762C66.2633 61.4806 65.9097 61.614 65.6207 61.8764C65.3316 62.1343 65.1871 62.4345 65.1871 62.7769C65.196 63.1016 65.3161 63.3617 65.5473 63.5574C65.783 63.7486 66.161 63.9643 66.6813 64.2044C67.037 64.3734 67.3261 64.5224 67.5484 64.6513C67.7752 64.7803 67.9976 64.9471 68.2155 65.1516C68.4334 65.3562 68.609 65.6141 68.7424 65.9254C68.8759 66.2367 68.947 66.6058 68.9559 67.0327C68.9559 67.4241 68.8736 67.7976 68.7091 68.1534C68.5446 68.5047 68.3155 68.816 68.022 69.0873C67.7285 69.3585 67.3906 69.572 67.0081 69.7277C66.6301 69.8789 66.2344 69.9545 65.8208 69.9545Z"/>
<path d="M71.8426 60.0687H78.2462V61.6162H75.7915V69.9411H74.2973V61.6162H71.8426V60.0687Z"/>
<path d="M90.3515 65.0049C90.3515 65.6897 90.2181 66.3323 89.9512 66.9327C89.6889 67.5286 89.3287 68.0489 88.8706 68.4936C88.4126 68.9383 87.879 69.2918 87.2697 69.5542C86.6605 69.8121 86.0068 69.9411 85.3086 69.9411C84.606 69.9411 83.9501 69.8121 83.3408 69.5542C82.7316 69.2918 82.198 68.9383 81.7399 68.4936C81.2819 68.0489 80.9195 67.5286 80.6527 66.9327C80.3903 66.3323 80.2591 65.6897 80.2591 65.0049C80.2591 64.3245 80.3903 63.6819 80.6527 63.0771C80.9195 62.4678 81.2819 61.9409 81.7399 61.4962C82.198 61.0515 82.7316 60.7001 83.3408 60.4422C83.9501 60.1843 84.606 60.0553 85.3086 60.0553C86.0068 60.0553 86.6605 60.1843 87.2697 60.4422C87.879 60.7001 88.4126 61.0515 88.8706 61.4962C89.3287 61.9409 89.6889 62.4678 89.9512 63.0771C90.2181 63.6819 90.3515 64.3245 90.3515 65.0049ZM81.8733 65.0049C81.8733 65.4807 81.9623 65.9277 82.1402 66.3457C82.318 66.7592 82.5626 67.1217 82.8739 67.433C83.1852 67.7398 83.5498 67.9822 83.9679 68.1601C84.3859 68.3335 84.8328 68.4202 85.3086 68.4202C85.78 68.4202 86.2247 68.3335 86.6427 68.1601C87.0607 67.9822 87.4231 67.7398 87.73 67.433C88.0413 67.1217 88.2859 66.7592 88.4637 66.3457C88.6416 65.9277 88.7306 65.4807 88.7306 65.0049C88.7306 64.5291 88.6416 64.0843 88.4637 63.6708C88.2859 63.2528 88.0413 62.8903 87.73 62.5835C87.4231 62.2722 87.0607 62.0298 86.6427 61.8564C86.2247 61.6829 85.78 61.5962 85.3086 61.5962C84.8328 61.5962 84.3859 61.6829 83.9679 61.8564C83.5498 62.0298 83.1852 62.2722 82.8739 62.5835C82.5626 62.8903 82.318 63.2528 82.1402 63.6708C81.9623 64.0843 81.8733 64.5291 81.8733 65.0049Z"/>
<path d="M98.0876 66.946V60.0687H99.5818V66.946C99.5818 67.7732 99.2905 68.4803 98.7079 69.0673C98.1254 69.6498 97.4205 69.9411 96.5934 69.9411C95.7663 69.9411 95.0592 69.6498 94.4722 69.0673C93.8897 68.4803 93.5984 67.7732 93.5984 66.946V60.0687H95.0926V66.946C95.0926 67.3596 95.2393 67.7131 95.5328 68.0066C95.8263 68.3002 96.1798 68.4469 96.5934 68.4469C97.007 68.4469 97.3583 68.3002 97.6473 68.0066C97.9408 67.7131 98.0876 67.3596 98.0876 66.946Z"/>
<path d="M102.829 60.0687H109.232V61.6162H106.778V69.9411H105.283V61.6162H102.829V60.0687Z"/>
</mask>
<path d="M38.5235 63.2906H39.3039C39.5174 63.2906 39.6975 63.2105 39.8442 63.0504C39.9954 62.8859 40.071 62.6858 40.071 62.4501C40.071 62.2188 39.9954 62.0231 39.8442 61.8631C39.6975 61.6985 39.5174 61.6162 39.3039 61.6162H38.5235V63.2906ZM37.0293 69.9411V60.122H39.3039C39.9309 60.122 40.4646 60.3422 40.9048 60.7824C41.3451 61.2227 41.5652 61.7541 41.5652 62.3767C41.5652 62.9904 41.354 63.5151 40.9315 63.9509C41.3851 64.0932 41.7964 64.3467 42.1655 64.7114C42.7614 65.3117 43.0594 66.0344 43.0594 66.8793C43.0594 67.7243 42.7592 68.4469 42.1589 69.0473C41.563 69.6432 40.8426 69.9411 39.9976 69.9411H37.0293ZM38.5235 65.1183V68.4469H39.9976C40.429 68.4469 40.7981 68.2846 41.1049 67.96C41.4118 67.6309 41.5652 67.2373 41.5652 66.7793C41.5652 66.3257 41.4118 65.9365 41.1049 65.6119C40.7981 65.2828 40.429 65.1183 39.9976 65.1183H38.5235Z" fill="black"/>
<path d="M46.2996 60.122H47.8005V68.4469H50.8822V69.9411H46.2996V60.122Z" fill="black"/>
<path d="M57.7178 60.022L60.3993 69.9745H58.8718L58.4516 68.4002H56.0769L55.6566 69.9745H54.1291L56.8106 60.022H57.7178ZM56.5038 66.8193H58.0246L57.2709 63.6374L56.5038 66.8193Z" fill="black"/>
<path d="M65.8208 69.9545C65.3939 69.9545 65.0159 69.9011 64.6868 69.7944C64.3622 69.6876 64.0131 69.4964 63.6396 69.2207V67.3863C63.8708 67.6309 64.0487 67.7976 64.1732 67.8866C64.2977 67.9711 64.4489 68.0622 64.6268 68.1601C64.8091 68.2579 65.0092 68.3402 65.2271 68.4069C65.445 68.4736 65.6607 68.5069 65.8742 68.5069C66.3144 68.5069 66.6746 68.3557 66.9548 68.0533C67.2394 67.7465 67.3817 67.3841 67.3817 66.966C67.3817 66.6236 67.2616 66.3457 67.0215 66.1322C66.7813 65.9188 66.3878 65.6742 65.8408 65.3985C65.5117 65.2295 65.2338 65.076 65.007 64.9382C64.7802 64.8003 64.5623 64.6291 64.3533 64.4245C64.1443 64.22 63.9753 63.9776 63.8463 63.6975C63.7174 63.4128 63.6529 63.0793 63.6529 62.6969C63.6707 62.3233 63.7618 61.9764 63.9264 61.6563C64.0909 61.3316 64.3133 61.0492 64.5934 60.8091C64.8736 60.5645 65.1915 60.3755 65.5473 60.2421C65.9075 60.1087 66.2855 60.042 66.6813 60.042C66.9792 60.0509 67.2505 60.0931 67.4951 60.1687C67.7397 60.2399 68.0176 60.3711 68.3289 60.5623V62.1032C68.1421 61.9787 68.0131 61.9031 67.942 61.8764C67.8753 61.8453 67.7775 61.7963 67.6485 61.7296C67.524 61.6585 67.3772 61.5985 67.2082 61.5495C67.0437 61.5006 66.8681 61.4762 66.6813 61.4762C66.2633 61.4806 65.9097 61.614 65.6207 61.8764C65.3316 62.1343 65.1871 62.4345 65.1871 62.7769C65.196 63.1016 65.3161 63.3617 65.5473 63.5574C65.783 63.7486 66.161 63.9643 66.6813 64.2044C67.037 64.3734 67.3261 64.5224 67.5484 64.6513C67.7752 64.7803 67.9976 64.9471 68.2155 65.1516C68.4334 65.3562 68.609 65.6141 68.7424 65.9254C68.8759 66.2367 68.947 66.6058 68.9559 67.0327C68.9559 67.4241 68.8736 67.7976 68.7091 68.1534C68.5446 68.5047 68.3155 68.816 68.022 69.0873C67.7285 69.3585 67.3906 69.572 67.0081 69.7277C66.6301 69.8789 66.2344 69.9545 65.8208 69.9545Z" fill="black"/>
<path d="M71.8426 60.0687H78.2462V61.6162H75.7915V69.9411H74.2973V61.6162H71.8426V60.0687Z" fill="black"/>
<path d="M90.3515 65.0049C90.3515 65.6897 90.2181 66.3323 89.9512 66.9327C89.6889 67.5286 89.3287 68.0489 88.8706 68.4936C88.4126 68.9383 87.879 69.2918 87.2697 69.5542C86.6605 69.8121 86.0068 69.9411 85.3086 69.9411C84.606 69.9411 83.9501 69.8121 83.3408 69.5542C82.7316 69.2918 82.198 68.9383 81.7399 68.4936C81.2819 68.0489 80.9195 67.5286 80.6527 66.9327C80.3903 66.3323 80.2591 65.6897 80.2591 65.0049C80.2591 64.3245 80.3903 63.6819 80.6527 63.0771C80.9195 62.4678 81.2819 61.9409 81.7399 61.4962C82.198 61.0515 82.7316 60.7001 83.3408 60.4422C83.9501 60.1843 84.606 60.0553 85.3086 60.0553C86.0068 60.0553 86.6605 60.1843 87.2697 60.4422C87.879 60.7001 88.4126 61.0515 88.8706 61.4962C89.3287 61.9409 89.6889 62.4678 89.9512 63.0771C90.2181 63.6819 90.3515 64.3245 90.3515 65.0049ZM81.8733 65.0049C81.8733 65.4807 81.9623 65.9277 82.1402 66.3457C82.318 66.7592 82.5626 67.1217 82.8739 67.433C83.1852 67.7398 83.5498 67.9822 83.9679 68.1601C84.3859 68.3335 84.8328 68.4202 85.3086 68.4202C85.78 68.4202 86.2247 68.3335 86.6427 68.1601C87.0607 67.9822 87.4231 67.7398 87.73 67.433C88.0413 67.1217 88.2859 66.7592 88.4637 66.3457C88.6416 65.9277 88.7306 65.4807 88.7306 65.0049C88.7306 64.5291 88.6416 64.0843 88.4637 63.6708C88.2859 63.2528 88.0413 62.8903 87.73 62.5835C87.4231 62.2722 87.0607 62.0298 86.6427 61.8564C86.2247 61.6829 85.78 61.5962 85.3086 61.5962C84.8328 61.5962 84.3859 61.6829 83.9679 61.8564C83.5498 62.0298 83.1852 62.2722 82.8739 62.5835C82.5626 62.8903 82.318 63.2528 82.1402 63.6708C81.9623 64.0843 81.8733 64.5291 81.8733 65.0049Z" fill="black"/>
<path d="M98.0876 66.946V60.0687H99.5818V66.946C99.5818 67.7732 99.2905 68.4803 98.7079 69.0673C98.1254 69.6498 97.4205 69.9411 96.5934 69.9411C95.7663 69.9411 95.0592 69.6498 94.4722 69.0673C93.8897 68.4803 93.5984 67.7732 93.5984 66.946V60.0687H95.0926V66.946C95.0926 67.3596 95.2393 67.7131 95.5328 68.0066C95.8263 68.3002 96.1798 68.4469 96.5934 68.4469C97.007 68.4469 97.3583 68.3002 97.6473 68.0066C97.9408 67.7131 98.0876 67.3596 98.0876 66.946Z" fill="black"/>
<path d="M102.829 60.0687H109.232V61.6162H106.778V69.9411H105.283V61.6162H102.829V60.0687Z" fill="black"/>
<path d="M38.5235 63.2906H39.3039C39.5174 63.2906 39.6975 63.2105 39.8442 63.0504C39.9954 62.8859 40.071 62.6858 40.071 62.4501C40.071 62.2188 39.9954 62.0231 39.8442 61.8631C39.6975 61.6985 39.5174 61.6162 39.3039 61.6162H38.5235V63.2906ZM37.0293 69.9411V60.122H39.3039C39.9309 60.122 40.4646 60.3422 40.9048 60.7824C41.3451 61.2227 41.5652 61.7541 41.5652 62.3767C41.5652 62.9904 41.354 63.5151 40.9315 63.9509C41.3851 64.0932 41.7964 64.3467 42.1655 64.7114C42.7614 65.3117 43.0594 66.0344 43.0594 66.8793C43.0594 67.7243 42.7592 68.4469 42.1589 69.0473C41.563 69.6432 40.8426 69.9411 39.9976 69.9411H37.0293ZM38.5235 65.1183V68.4469H39.9976C40.429 68.4469 40.7981 68.2846 41.1049 67.96C41.4118 67.6309 41.5652 67.2373 41.5652 66.7793C41.5652 66.3257 41.4118 65.9365 41.1049 65.6119C40.7981 65.2828 40.429 65.1183 39.9976 65.1183H38.5235Z" stroke="black" stroke-width="1.36612" mask="url(#path-32-outside-1_1388_641)"/>
<path d="M46.2996 60.122H47.8005V68.4469H50.8822V69.9411H46.2996V60.122Z" stroke="black" stroke-width="1.36612" mask="url(#path-32-outside-1_1388_641)"/>
<path d="M57.7178 60.022L60.3993 69.9745H58.8718L58.4516 68.4002H56.0769L55.6566 69.9745H54.1291L56.8106 60.022H57.7178ZM56.5038 66.8193H58.0246L57.2709 63.6374L56.5038 66.8193Z" stroke="black" stroke-width="1.36612" mask="url(#path-32-outside-1_1388_641)"/>
<path d="M65.8208 69.9545C65.3939 69.9545 65.0159 69.9011 64.6868 69.7944C64.3622 69.6876 64.0131 69.4964 63.6396 69.2207V67.3863C63.8708 67.6309 64.0487 67.7976 64.1732 67.8866C64.2977 67.9711 64.4489 68.0622 64.6268 68.1601C64.8091 68.2579 65.0092 68.3402 65.2271 68.4069C65.445 68.4736 65.6607 68.5069 65.8742 68.5069C66.3144 68.5069 66.6746 68.3557 66.9548 68.0533C67.2394 67.7465 67.3817 67.3841 67.3817 66.966C67.3817 66.6236 67.2616 66.3457 67.0215 66.1322C66.7813 65.9188 66.3878 65.6742 65.8408 65.3985C65.5117 65.2295 65.2338 65.076 65.007 64.9382C64.7802 64.8003 64.5623 64.6291 64.3533 64.4245C64.1443 64.22 63.9753 63.9776 63.8463 63.6975C63.7174 63.4128 63.6529 63.0793 63.6529 62.6969C63.6707 62.3233 63.7618 61.9764 63.9264 61.6563C64.0909 61.3316 64.3133 61.0492 64.5934 60.8091C64.8736 60.5645 65.1915 60.3755 65.5473 60.2421C65.9075 60.1087 66.2855 60.042 66.6813 60.042C66.9792 60.0509 67.2505 60.0931 67.4951 60.1687C67.7397 60.2399 68.0176 60.3711 68.3289 60.5623V62.1032C68.1421 61.9787 68.0131 61.9031 67.942 61.8764C67.8753 61.8453 67.7775 61.7963 67.6485 61.7296C67.524 61.6585 67.3772 61.5985 67.2082 61.5495C67.0437 61.5006 66.8681 61.4762 66.6813 61.4762C66.2633 61.4806 65.9097 61.614 65.6207 61.8764C65.3316 62.1343 65.1871 62.4345 65.1871 62.7769C65.196 63.1016 65.3161 63.3617 65.5473 63.5574C65.783 63.7486 66.161 63.9643 66.6813 64.2044C67.037 64.3734 67.3261 64.5224 67.5484 64.6513C67.7752 64.7803 67.9976 64.9471 68.2155 65.1516C68.4334 65.3562 68.609 65.6141 68.7424 65.9254C68.8759 66.2367 68.947 66.6058 68.9559 67.0327C68.9559 67.4241 68.8736 67.7976 68.7091 68.1534C68.5446 68.5047 68.3155 68.816 68.022 69.0873C67.7285 69.3585 67.3906 69.572 67.0081 69.7277C66.6301 69.8789 66.2344 69.9545 65.8208 69.9545Z" stroke="black" stroke-width="1.36612" mask="url(#path-32-outside-1_1388_641)"/>
<path d="M71.8426 60.0687H78.2462V61.6162H75.7915V69.9411H74.2973V61.6162H71.8426V60.0687Z" stroke="black" stroke-width="1.36612" mask="url(#path-32-outside-1_1388_641)"/>
<path d="M90.3515 65.0049C90.3515 65.6897 90.2181 66.3323 89.9512 66.9327C89.6889 67.5286 89.3287 68.0489 88.8706 68.4936C88.4126 68.9383 87.879 69.2918 87.2697 69.5542C86.6605 69.8121 86.0068 69.9411 85.3086 69.9411C84.606 69.9411 83.9501 69.8121 83.3408 69.5542C82.7316 69.2918 82.198 68.9383 81.7399 68.4936C81.2819 68.0489 80.9195 67.5286 80.6527 66.9327C80.3903 66.3323 80.2591 65.6897 80.2591 65.0049C80.2591 64.3245 80.3903 63.6819 80.6527 63.0771C80.9195 62.4678 81.2819 61.9409 81.7399 61.4962C82.198 61.0515 82.7316 60.7001 83.3408 60.4422C83.9501 60.1843 84.606 60.0553 85.3086 60.0553C86.0068 60.0553 86.6605 60.1843 87.2697 60.4422C87.879 60.7001 88.4126 61.0515 88.8706 61.4962C89.3287 61.9409 89.6889 62.4678 89.9512 63.0771C90.2181 63.6819 90.3515 64.3245 90.3515 65.0049ZM81.8733 65.0049C81.8733 65.4807 81.9623 65.9277 82.1402 66.3457C82.318 66.7592 82.5626 67.1217 82.8739 67.433C83.1852 67.7398 83.5498 67.9822 83.9679 68.1601C84.3859 68.3335 84.8328 68.4202 85.3086 68.4202C85.78 68.4202 86.2247 68.3335 86.6427 68.1601C87.0607 67.9822 87.4231 67.7398 87.73 67.433C88.0413 67.1217 88.2859 66.7592 88.4637 66.3457C88.6416 65.9277 88.7306 65.4807 88.7306 65.0049C88.7306 64.5291 88.6416 64.0843 88.4637 63.6708C88.2859 63.2528 88.0413 62.8903 87.73 62.5835C87.4231 62.2722 87.0607 62.0298 86.6427 61.8564C86.2247 61.6829 85.78 61.5962 85.3086 61.5962C84.8328 61.5962 84.3859 61.6829 83.9679 61.8564C83.5498 62.0298 83.1852 62.2722 82.8739 62.5835C82.5626 62.8903 82.318 63.2528 82.1402 63.6708C81.9623 64.0843 81.8733 64.5291 81.8733 65.0049Z" stroke="black" stroke-width="1.36612" mask="url(#path-32-outside-1_1388_641)"/>
<path d="M98.0876 66.946V60.0687H99.5818V66.946C99.5818 67.7732 99.2905 68.4803 98.7079 69.0673C98.1254 69.6498 97.4205 69.9411 96.5934 69.9411C95.7663 69.9411 95.0592 69.6498 94.4722 69.0673C93.8897 68.4803 93.5984 67.7732 93.5984 66.946V60.0687H95.0926V66.946C95.0926 67.3596 95.2393 67.7131 95.5328 68.0066C95.8263 68.3002 96.1798 68.4469 96.5934 68.4469C97.007 68.4469 97.3583 68.3002 97.6473 68.0066C97.9408 67.7131 98.0876 67.3596 98.0876 66.946Z" stroke="black" stroke-width="1.36612" mask="url(#path-32-outside-1_1388_641)"/>
<path d="M102.829 60.0687H109.232V61.6162H106.778V69.9411H105.283V61.6162H102.829V60.0687Z" stroke="black" stroke-width="1.36612" mask="url(#path-32-outside-1_1388_641)"/>
<mask id="path-33-outside-2_1388_641" maskUnits="userSpaceOnUse" x="34.9355" y="57.8608" width="74" height="12" fill="black">
<rect fill="white" x="34.9355" y="57.8608" width="74" height="12"/>
<path d="M37.4297 62.1294H38.2102C38.4236 62.1294 38.6037 62.0494 38.7505 61.8893C38.9017 61.7247 38.9773 61.5246 38.9773 61.2889C38.9773 61.0577 38.9017 60.862 38.7505 60.7019C38.6037 60.5374 38.4236 60.4551 38.2102 60.4551H37.4297V62.1294ZM35.9355 68.78V58.9609H38.2102C38.8372 58.9609 39.3708 59.181 39.8111 59.6213C40.2513 60.0615 40.4714 60.593 40.4714 61.2156C40.4714 61.8292 40.2602 62.354 39.8378 62.7898C40.2913 62.9321 40.7027 63.1856 41.0718 63.5503C41.6677 64.1506 41.9656 64.8732 41.9656 65.7182C41.9656 66.5631 41.6655 67.2858 41.0651 67.8861C40.4692 68.482 39.7488 68.78 38.9039 68.78H35.9355ZM37.4297 63.9572V67.2858H38.9039C39.3352 67.2858 39.7043 67.1235 40.0112 66.7988C40.318 66.4697 40.4714 66.0762 40.4714 65.6181C40.4714 65.1645 40.318 64.7754 40.0112 64.4508C39.7043 64.1217 39.3352 63.9572 38.9039 63.9572H37.4297Z"/>
<path d="M45.2059 58.9609H46.7067V67.2858H49.7885V68.78H45.2059V58.9609Z"/>
<path d="M56.6241 58.8608L59.3056 68.8133H57.778L57.3578 67.2391H54.9831L54.5629 68.8133H53.0354L55.7169 58.8608H56.6241ZM55.41 65.6582H56.9309L56.1771 62.4763L55.41 65.6582Z"/>
<path d="M64.727 68.7933C64.3001 68.7933 63.9221 68.74 63.5931 68.6332C63.2684 68.5265 62.9194 68.3353 62.5458 68.0596V66.2251C62.777 66.4697 62.9549 66.6365 63.0794 66.7254C63.204 66.8099 63.3552 66.9011 63.533 66.9989C63.7154 67.0968 63.9155 67.179 64.1334 67.2457C64.3513 67.3125 64.567 67.3458 64.7804 67.3458C65.2207 67.3458 65.5809 67.1946 65.861 66.8922C66.1456 66.5854 66.2879 66.2229 66.2879 65.8049C66.2879 65.4625 66.1679 65.1845 65.9277 64.9711C65.6876 64.7576 65.294 64.513 64.7471 64.2373C64.418 64.0683 64.14 63.9149 63.9132 63.7771C63.6865 63.6392 63.4686 63.468 63.2595 63.2634C63.0505 63.0589 62.8816 62.8165 62.7526 62.5363C62.6236 62.2517 62.5591 61.9182 62.5591 61.5357C62.5769 61.1622 62.6681 60.8153 62.8326 60.4951C62.9972 60.1705 63.2195 59.8881 63.4997 59.648C63.7798 59.4034 64.0978 59.2144 64.4536 59.081C64.8138 58.9476 65.1917 58.8809 65.5875 58.8809C65.8855 58.8897 66.1567 58.932 66.4013 59.0076C66.6459 59.0787 66.9238 59.2099 67.2351 59.4012V60.9421C67.0484 60.8175 66.9194 60.7419 66.8482 60.7153C66.7815 60.6841 66.6837 60.6352 66.5547 60.5685C66.4302 60.4974 66.2835 60.4373 66.1145 60.3884C65.95 60.3395 65.7743 60.315 65.5875 60.315C65.1695 60.3195 64.816 60.4529 64.5269 60.7153C64.2379 60.9732 64.0934 61.2734 64.0934 61.6158C64.1022 61.9404 64.2223 62.2006 64.4536 62.3962C64.6892 62.5875 65.0672 62.8031 65.5875 63.0433C65.9433 63.2123 66.2323 63.3613 66.4547 63.4902C66.6815 63.6192 66.9038 63.7859 67.1217 63.9905C67.3396 64.1951 67.5153 64.453 67.6487 64.7643C67.7821 65.0756 67.8533 65.4447 67.8622 65.8716C67.8622 66.2629 67.7799 66.6365 67.6153 66.9923C67.4508 67.3436 67.2218 67.6549 66.9283 67.9261C66.6348 68.1974 66.2968 68.4109 65.9144 68.5665C65.5364 68.7177 65.1406 68.7933 64.727 68.7933Z"/>
<path d="M70.7488 58.9075H77.1525V60.4551H74.6978V68.78H73.2036V60.4551H70.7488V58.9075Z"/>
<path d="M89.2577 63.8438C89.2577 64.5286 89.1243 65.1712 88.8575 65.7716C88.5951 66.3675 88.2349 66.8878 87.7769 67.3325C87.3188 67.7772 86.7852 68.1307 86.176 68.3931C85.5667 68.651 84.913 68.78 84.2149 68.78C83.5123 68.78 82.8563 68.651 82.2471 68.3931C81.6379 68.1307 81.1042 67.7772 80.6462 67.3325C80.1881 66.8878 79.8257 66.3675 79.5589 65.7716C79.2965 65.1712 79.1653 64.5286 79.1653 63.8438C79.1653 63.1634 79.2965 62.5208 79.5589 61.916C79.8257 61.3067 80.1881 60.7797 80.6462 60.335C81.1042 59.8903 81.6379 59.539 82.2471 59.2811C82.8563 59.0232 83.5123 58.8942 84.2149 58.8942C84.913 58.8942 85.5667 59.0232 86.176 59.2811C86.7852 59.539 87.3188 59.8903 87.7769 60.335C88.2349 60.7797 88.5951 61.3067 88.8575 61.916C89.1243 62.5208 89.2577 63.1634 89.2577 63.8438ZM80.7796 63.8438C80.7796 64.3196 80.8685 64.7665 81.0464 65.1845C81.2243 65.5981 81.4689 65.9606 81.7802 66.2718C82.0914 66.5787 82.4561 66.8211 82.8741 66.9989C83.2921 67.1724 83.739 67.2591 84.2149 67.2591C84.6862 67.2591 85.1309 67.1724 85.549 66.9989C85.967 66.8211 86.3294 66.5787 86.6362 66.2718C86.9475 65.9606 87.1921 65.5981 87.37 65.1845C87.5479 64.7665 87.6368 64.3196 87.6368 63.8438C87.6368 63.3679 87.5479 62.9232 87.37 62.5096C87.1921 62.0916 86.9475 61.7292 86.6362 61.4223C86.3294 61.111 85.967 60.8687 85.549 60.6952C85.1309 60.5218 84.6862 60.4351 84.2149 60.4351C83.739 60.4351 83.2921 60.5218 82.8741 60.6952C82.4561 60.8687 82.0914 61.111 81.7802 61.4223C81.4689 61.7292 81.2243 62.0916 81.0464 62.5096C80.8685 62.9232 80.7796 63.3679 80.7796 63.8438Z"/>
<path d="M96.9938 65.7849V58.9075H98.488V65.7849C98.488 66.612 98.1967 67.3191 97.6142 67.9061C97.0316 68.4887 96.3268 68.78 95.4997 68.78C94.6725 68.78 93.9655 68.4887 93.3785 67.9061C92.7959 67.3191 92.5046 66.612 92.5046 65.7849V58.9075H93.9988V65.7849C93.9988 66.1985 94.1456 66.552 94.4391 66.8455C94.7326 67.139 95.0861 67.2858 95.4997 67.2858C95.9132 67.2858 96.2645 67.139 96.5536 66.8455C96.8471 66.552 96.9938 66.1985 96.9938 65.7849Z"/>
<path d="M101.735 58.9075H108.139V60.4551H105.684V68.78H104.19V60.4551H101.735V58.9075Z"/>
</mask>
<path d="M37.4297 62.1294H38.2102C38.4236 62.1294 38.6037 62.0494 38.7505 61.8893C38.9017 61.7247 38.9773 61.5246 38.9773 61.2889C38.9773 61.0577 38.9017 60.862 38.7505 60.7019C38.6037 60.5374 38.4236 60.4551 38.2102 60.4551H37.4297V62.1294ZM35.9355 68.78V58.9609H38.2102C38.8372 58.9609 39.3708 59.181 39.8111 59.6213C40.2513 60.0615 40.4714 60.593 40.4714 61.2156C40.4714 61.8292 40.2602 62.354 39.8378 62.7898C40.2913 62.9321 40.7027 63.1856 41.0718 63.5503C41.6677 64.1506 41.9656 64.8732 41.9656 65.7182C41.9656 66.5631 41.6655 67.2858 41.0651 67.8861C40.4692 68.482 39.7488 68.78 38.9039 68.78H35.9355ZM37.4297 63.9572V67.2858H38.9039C39.3352 67.2858 39.7043 67.1235 40.0112 66.7988C40.318 66.4697 40.4714 66.0762 40.4714 65.6181C40.4714 65.1645 40.318 64.7754 40.0112 64.4508C39.7043 64.1217 39.3352 63.9572 38.9039 63.9572H37.4297Z" fill="#FFBD0C"/>
<path d="M45.2059 58.9609H46.7067V67.2858H49.7885V68.78H45.2059V58.9609Z" fill="#FFBD0C"/>
<path d="M56.6241 58.8608L59.3056 68.8133H57.778L57.3578 67.2391H54.9831L54.5629 68.8133H53.0354L55.7169 58.8608H56.6241ZM55.41 65.6582H56.9309L56.1771 62.4763L55.41 65.6582Z" fill="#FFBD0C"/>
<path d="M64.727 68.7933C64.3001 68.7933 63.9221 68.74 63.5931 68.6332C63.2684 68.5265 62.9194 68.3353 62.5458 68.0596V66.2251C62.777 66.4697 62.9549 66.6365 63.0794 66.7254C63.204 66.8099 63.3552 66.9011 63.533 66.9989C63.7154 67.0968 63.9155 67.179 64.1334 67.2457C64.3513 67.3125 64.567 67.3458 64.7804 67.3458C65.2207 67.3458 65.5809 67.1946 65.861 66.8922C66.1456 66.5854 66.2879 66.2229 66.2879 65.8049C66.2879 65.4625 66.1679 65.1845 65.9277 64.9711C65.6876 64.7576 65.294 64.513 64.7471 64.2373C64.418 64.0683 64.14 63.9149 63.9132 63.7771C63.6865 63.6392 63.4686 63.468 63.2595 63.2634C63.0505 63.0589 62.8816 62.8165 62.7526 62.5363C62.6236 62.2517 62.5591 61.9182 62.5591 61.5357C62.5769 61.1622 62.6681 60.8153 62.8326 60.4951C62.9972 60.1705 63.2195 59.8881 63.4997 59.648C63.7798 59.4034 64.0978 59.2144 64.4536 59.081C64.8138 58.9476 65.1917 58.8809 65.5875 58.8809C65.8855 58.8897 66.1567 58.932 66.4013 59.0076C66.6459 59.0787 66.9238 59.2099 67.2351 59.4012V60.9421C67.0484 60.8175 66.9194 60.7419 66.8482 60.7153C66.7815 60.6841 66.6837 60.6352 66.5547 60.5685C66.4302 60.4974 66.2835 60.4373 66.1145 60.3884C65.95 60.3395 65.7743 60.315 65.5875 60.315C65.1695 60.3195 64.816 60.4529 64.5269 60.7153C64.2379 60.9732 64.0934 61.2734 64.0934 61.6158C64.1022 61.9404 64.2223 62.2006 64.4536 62.3962C64.6892 62.5875 65.0672 62.8031 65.5875 63.0433C65.9433 63.2123 66.2323 63.3613 66.4547 63.4902C66.6815 63.6192 66.9038 63.7859 67.1217 63.9905C67.3396 64.1951 67.5153 64.453 67.6487 64.7643C67.7821 65.0756 67.8533 65.4447 67.8622 65.8716C67.8622 66.2629 67.7799 66.6365 67.6153 66.9923C67.4508 67.3436 67.2218 67.6549 66.9283 67.9261C66.6348 68.1974 66.2968 68.4109 65.9144 68.5665C65.5364 68.7177 65.1406 68.7933 64.727 68.7933Z" fill="#FFBD0C"/>
<path d="M70.7488 58.9075H77.1525V60.4551H74.6978V68.78H73.2036V60.4551H70.7488V58.9075Z" fill="#FFBD0C"/>
<path d="M89.2577 63.8438C89.2577 64.5286 89.1243 65.1712 88.8575 65.7716C88.5951 66.3675 88.2349 66.8878 87.7769 67.3325C87.3188 67.7772 86.7852 68.1307 86.176 68.3931C85.5667 68.651 84.913 68.78 84.2149 68.78C83.5123 68.78 82.8563 68.651 82.2471 68.3931C81.6379 68.1307 81.1042 67.7772 80.6462 67.3325C80.1881 66.8878 79.8257 66.3675 79.5589 65.7716C79.2965 65.1712 79.1653 64.5286 79.1653 63.8438C79.1653 63.1634 79.2965 62.5208 79.5589 61.916C79.8257 61.3067 80.1881 60.7797 80.6462 60.335C81.1042 59.8903 81.6379 59.539 82.2471 59.2811C82.8563 59.0232 83.5123 58.8942 84.2149 58.8942C84.913 58.8942 85.5667 59.0232 86.176 59.2811C86.7852 59.539 87.3188 59.8903 87.7769 60.335C88.2349 60.7797 88.5951 61.3067 88.8575 61.916C89.1243 62.5208 89.2577 63.1634 89.2577 63.8438ZM80.7796 63.8438C80.7796 64.3196 80.8685 64.7665 81.0464 65.1845C81.2243 65.5981 81.4689 65.9606 81.7802 66.2718C82.0914 66.5787 82.4561 66.8211 82.8741 66.9989C83.2921 67.1724 83.739 67.2591 84.2149 67.2591C84.6862 67.2591 85.1309 67.1724 85.549 66.9989C85.967 66.8211 86.3294 66.5787 86.6362 66.2718C86.9475 65.9606 87.1921 65.5981 87.37 65.1845C87.5479 64.7665 87.6368 64.3196 87.6368 63.8438C87.6368 63.3679 87.5479 62.9232 87.37 62.5096C87.1921 62.0916 86.9475 61.7292 86.6362 61.4223C86.3294 61.111 85.967 60.8687 85.549 60.6952C85.1309 60.5218 84.6862 60.4351 84.2149 60.4351C83.739 60.4351 83.2921 60.5218 82.8741 60.6952C82.4561 60.8687 82.0914 61.111 81.7802 61.4223C81.4689 61.7292 81.2243 62.0916 81.0464 62.5096C80.8685 62.9232 80.7796 63.3679 80.7796 63.8438Z" fill="#FFBD0C"/>
<path d="M96.9938 65.7849V58.9075H98.488V65.7849C98.488 66.612 98.1967 67.3191 97.6142 67.9061C97.0316 68.4887 96.3268 68.78 95.4997 68.78C94.6725 68.78 93.9655 68.4887 93.3785 67.9061C92.7959 67.3191 92.5046 66.612 92.5046 65.7849V58.9075H93.9988V65.7849C93.9988 66.1985 94.1456 66.552 94.4391 66.8455C94.7326 67.139 95.0861 67.2858 95.4997 67.2858C95.9132 67.2858 96.2645 67.139 96.5536 66.8455C96.8471 66.552 96.9938 66.1985 96.9938 65.7849Z" fill="#FFBD0C"/>
<path d="M101.735 58.9075H108.139V60.4551H105.684V68.78H104.19V60.4551H101.735V58.9075Z" fill="#FFBD0C"/>
<path d="M37.4297 62.1294H38.2102C38.4236 62.1294 38.6037 62.0494 38.7505 61.8893C38.9017 61.7247 38.9773 61.5246 38.9773 61.2889C38.9773 61.0577 38.9017 60.862 38.7505 60.7019C38.6037 60.5374 38.4236 60.4551 38.2102 60.4551H37.4297V62.1294ZM35.9355 68.78V58.9609H38.2102C38.8372 58.9609 39.3708 59.181 39.8111 59.6213C40.2513 60.0615 40.4714 60.593 40.4714 61.2156C40.4714 61.8292 40.2602 62.354 39.8378 62.7898C40.2913 62.9321 40.7027 63.1856 41.0718 63.5503C41.6677 64.1506 41.9656 64.8732 41.9656 65.7182C41.9656 66.5631 41.6655 67.2858 41.0651 67.8861C40.4692 68.482 39.7488 68.78 38.9039 68.78H35.9355ZM37.4297 63.9572V67.2858H38.9039C39.3352 67.2858 39.7043 67.1235 40.0112 66.7988C40.318 66.4697 40.4714 66.0762 40.4714 65.6181C40.4714 65.1645 40.318 64.7754 40.0112 64.4508C39.7043 64.1217 39.3352 63.9572 38.9039 63.9572H37.4297Z" stroke="black" stroke-width="0.854288" mask="url(#path-33-outside-2_1388_641)"/>
<path d="M45.2059 58.9609H46.7067V67.2858H49.7885V68.78H45.2059V58.9609Z" stroke="black" stroke-width="0.854288" mask="url(#path-33-outside-2_1388_641)"/>
<path d="M56.6241 58.8608L59.3056 68.8133H57.778L57.3578 67.2391H54.9831L54.5629 68.8133H53.0354L55.7169 58.8608H56.6241ZM55.41 65.6582H56.9309L56.1771 62.4763L55.41 65.6582Z" stroke="black" stroke-width="0.854288" mask="url(#path-33-outside-2_1388_641)"/>
<path d="M64.727 68.7933C64.3001 68.7933 63.9221 68.74 63.5931 68.6332C63.2684 68.5265 62.9194 68.3353 62.5458 68.0596V66.2251C62.777 66.4697 62.9549 66.6365 63.0794 66.7254C63.204 66.8099 63.3552 66.9011 63.533 66.9989C63.7154 67.0968 63.9155 67.179 64.1334 67.2457C64.3513 67.3125 64.567 67.3458 64.7804 67.3458C65.2207 67.3458 65.5809 67.1946 65.861 66.8922C66.1456 66.5854 66.2879 66.2229 66.2879 65.8049C66.2879 65.4625 66.1679 65.1845 65.9277 64.9711C65.6876 64.7576 65.294 64.513 64.7471 64.2373C64.418 64.0683 64.14 63.9149 63.9132 63.7771C63.6865 63.6392 63.4686 63.468 63.2595 63.2634C63.0505 63.0589 62.8816 62.8165 62.7526 62.5363C62.6236 62.2517 62.5591 61.9182 62.5591 61.5357C62.5769 61.1622 62.6681 60.8153 62.8326 60.4951C62.9972 60.1705 63.2195 59.8881 63.4997 59.648C63.7798 59.4034 64.0978 59.2144 64.4536 59.081C64.8138 58.9476 65.1917 58.8809 65.5875 58.8809C65.8855 58.8897 66.1567 58.932 66.4013 59.0076C66.6459 59.0787 66.9238 59.2099 67.2351 59.4012V60.9421C67.0484 60.8175 66.9194 60.7419 66.8482 60.7153C66.7815 60.6841 66.6837 60.6352 66.5547 60.5685C66.4302 60.4974 66.2835 60.4373 66.1145 60.3884C65.95 60.3395 65.7743 60.315 65.5875 60.315C65.1695 60.3195 64.816 60.4529 64.5269 60.7153C64.2379 60.9732 64.0934 61.2734 64.0934 61.6158C64.1022 61.9404 64.2223 62.2006 64.4536 62.3962C64.6892 62.5875 65.0672 62.8031 65.5875 63.0433C65.9433 63.2123 66.2323 63.3613 66.4547 63.4902C66.6815 63.6192 66.9038 63.7859 67.1217 63.9905C67.3396 64.1951 67.5153 64.453 67.6487 64.7643C67.7821 65.0756 67.8533 65.4447 67.8622 65.8716C67.8622 66.2629 67.7799 66.6365 67.6153 66.9923C67.4508 67.3436 67.2218 67.6549 66.9283 67.9261C66.6348 68.1974 66.2968 68.4109 65.9144 68.5665C65.5364 68.7177 65.1406 68.7933 64.727 68.7933Z" stroke="black" stroke-width="0.854288" mask="url(#path-33-outside-2_1388_641)"/>
<path d="M70.7488 58.9075H77.1525V60.4551H74.6978V68.78H73.2036V60.4551H70.7488V58.9075Z" stroke="black" stroke-width="0.854288" mask="url(#path-33-outside-2_1388_641)"/>
<path d="M89.2577 63.8438C89.2577 64.5286 89.1243 65.1712 88.8575 65.7716C88.5951 66.3675 88.2349 66.8878 87.7769 67.3325C87.3188 67.7772 86.7852 68.1307 86.176 68.3931C85.5667 68.651 84.913 68.78 84.2149 68.78C83.5123 68.78 82.8563 68.651 82.2471 68.3931C81.6379 68.1307 81.1042 67.7772 80.6462 67.3325C80.1881 66.8878 79.8257 66.3675 79.5589 65.7716C79.2965 65.1712 79.1653 64.5286 79.1653 63.8438C79.1653 63.1634 79.2965 62.5208 79.5589 61.916C79.8257 61.3067 80.1881 60.7797 80.6462 60.335C81.1042 59.8903 81.6379 59.539 82.2471 59.2811C82.8563 59.0232 83.5123 58.8942 84.2149 58.8942C84.913 58.8942 85.5667 59.0232 86.176 59.2811C86.7852 59.539 87.3188 59.8903 87.7769 60.335C88.2349 60.7797 88.5951 61.3067 88.8575 61.916C89.1243 62.5208 89.2577 63.1634 89.2577 63.8438ZM80.7796 63.8438C80.7796 64.3196 80.8685 64.7665 81.0464 65.1845C81.2243 65.5981 81.4689 65.9606 81.7802 66.2718C82.0914 66.5787 82.4561 66.8211 82.8741 66.9989C83.2921 67.1724 83.739 67.2591 84.2149 67.2591C84.6862 67.2591 85.1309 67.1724 85.549 66.9989C85.967 66.8211 86.3294 66.5787 86.6362 66.2718C86.9475 65.9606 87.1921 65.5981 87.37 65.1845C87.5479 64.7665 87.6368 64.3196 87.6368 63.8438C87.6368 63.3679 87.5479 62.9232 87.37 62.5096C87.1921 62.0916 86.9475 61.7292 86.6362 61.4223C86.3294 61.111 85.967 60.8687 85.549 60.6952C85.1309 60.5218 84.6862 60.4351 84.2149 60.4351C83.739 60.4351 83.2921 60.5218 82.8741 60.6952C82.4561 60.8687 82.0914 61.111 81.7802 61.4223C81.4689 61.7292 81.2243 62.0916 81.0464 62.5096C80.8685 62.9232 80.7796 63.3679 80.7796 63.8438Z" stroke="black" stroke-width="0.854288" mask="url(#path-33-outside-2_1388_641)"/>
<path d="M96.9938 65.7849V58.9075H98.488V65.7849C98.488 66.612 98.1967 67.3191 97.6142 67.9061C97.0316 68.4887 96.3268 68.78 95.4997 68.78C94.6725 68.78 93.9655 68.4887 93.3785 67.9061C92.7959 67.3191 92.5046 66.612 92.5046 65.7849V58.9075H93.9988V65.7849C93.9988 66.1985 94.1456 66.552 94.4391 66.8455C94.7326 67.139 95.0861 67.2858 95.4997 67.2858C95.9132 67.2858 96.2645 67.139 96.5536 66.8455C96.8471 66.552 96.9938 66.1985 96.9938 65.7849Z" stroke="black" stroke-width="0.854288" mask="url(#path-33-outside-2_1388_641)"/>
<path d="M101.735 58.9075H108.139V60.4551H105.684V68.78H104.19V60.4551H101.735V58.9075Z" stroke="black" stroke-width="0.854288" mask="url(#path-33-outside-2_1388_641)"/>
<defs>
<filter id="filter0_f_1388_641" x="0.309433" y="0.307479" width="137.715" height="137.716" filterUnits="userSpaceOnUse" color-interpolation-filters="sRGB">
<feFlood flood-opacity="0" result="BackgroundImageFix"/>
<feBlend mode="normal" in="SourceGraphic" in2="BackgroundImageFix" result="shape"/>
<feGaussianBlur stdDeviation="2.39997" result="effect1_foregroundBlur_1388_641"/>
</filter>
</defs>
</svg>
