<svg width="146" height="146" viewBox="0 0 146 146" fill="none" xmlns="http://www.w3.org/2000/svg">
<g opacity="0.9">
<path fill-rule="evenodd" clip-rule="evenodd" d="M62.5548 18.4392L62.792 19.6717C58.9865 20.404 55.2003 21.558 51.4928 23.1578C47.7854 24.7577 44.3483 26.7208 41.2048 28.9871L40.4708 27.969C43.6876 25.6498 47.204 23.6415 50.9955 22.0054C54.7871 20.3693 58.6606 19.1886 62.5548 18.4392ZM36.6694 30.9719L37.49 31.9217C35.0802 34.0037 32.8791 36.2788 30.9003 38.7128L29.9264 37.921C31.9511 35.4305 34.2034 33.1025 36.6694 30.9719ZM27.0369 41.8108L28.0761 42.5146C23.635 49.073 20.6691 56.5416 19.401 64.36L18.1621 64.1591C19.4593 56.1605 22.4934 48.5203 27.0369 41.8108ZM18.4401 83.4461L19.6726 83.2089C20.405 87.0144 21.5589 90.8006 23.1587 94.5081C24.7586 98.2156 26.7217 101.653 28.9881 104.796L27.9699 105.53C25.6507 102.313 23.6425 98.797 22.0063 95.0054C20.3702 91.2138 19.1895 87.3404 18.4401 83.4461ZM30.9728 109.332L31.9226 108.511C34.0046 110.921 36.2797 113.122 38.7137 115.101L37.9219 116.075C35.4315 114.05 33.1034 111.798 30.9728 109.332ZM41.8118 118.964L42.5155 117.925C49.0739 122.366 56.5425 125.332 64.3609 126.6L64.16 127.839C56.1614 126.542 48.5212 123.508 41.8118 118.964ZM83.447 127.561C87.3413 126.811 91.2148 125.631 95.0063 123.995C98.7979 122.358 102.314 120.35 105.531 118.031L104.797 117.013C101.654 119.279 98.2165 121.242 94.509 122.842C90.8015 124.442 87.0153 125.596 83.2098 126.328L83.447 127.561ZM109.332 115.028L108.512 114.078C110.922 111.996 113.123 109.721 115.102 107.287L116.075 108.079C114.051 110.569 111.798 112.898 109.332 115.028ZM118.965 104.189L117.926 103.485C122.367 96.927 125.333 89.4584 126.601 81.64L127.84 81.8409C126.543 89.8395 123.508 97.4797 118.965 104.189ZM127.562 62.5539L126.329 62.7911C125.597 58.9856 124.443 55.1994 122.843 51.4919C121.243 47.7844 119.28 44.3474 117.014 41.2039L118.032 40.4698C120.351 43.6867 122.359 47.203 123.996 50.9946C125.632 54.7862 126.812 58.6596 127.562 62.5539ZM115.029 36.6685C112.898 34.2025 110.57 31.9501 108.08 29.9254L107.288 30.8993C109.722 32.8781 111.997 35.0792 114.079 37.4891L115.029 36.6685ZM104.19 27.0359L103.486 28.0752C96.928 23.634 89.4594 20.6682 81.6409 19.4001L81.8419 18.1612C89.8404 19.4584 97.4806 22.4924 104.19 27.0359Z" fill="#8338ED"/>
<path fill-rule="evenodd" clip-rule="evenodd" d="M108.692 25.0223L107.943 26.0288C97.9603 18.5917 85.5394 14.2675 72.1292 14.4672C58.719 14.667 46.4324 19.3591 36.676 27.0903L35.8965 26.1066C45.8621 18.2096 58.4142 13.4162 72.1105 13.2122C85.8069 13.0082 98.4962 17.4257 108.692 25.0223ZM25.0231 37.3088L26.0296 38.0586C18.5925 48.0409 14.2683 60.4618 14.468 73.872C14.6678 87.2823 19.3599 99.5688 27.0911 109.325L26.1074 110.105C18.2104 100.139 13.417 87.5871 13.213 73.8907C13.009 60.1943 17.4265 47.5051 25.0231 37.3088ZM37.3096 120.978C47.5059 128.575 60.1952 132.992 73.8915 132.788C87.5879 132.584 100.14 127.791 110.106 119.894L109.326 118.91C99.5696 126.641 87.2831 131.333 73.8728 131.533C60.4626 131.733 48.0417 127.409 38.0594 119.972L37.3096 120.978ZM120.979 108.692L119.972 107.942C127.41 97.9595 131.734 85.5386 131.534 72.1284C131.334 58.7182 126.642 46.4316 118.911 36.6752L119.895 35.8957C127.792 45.8613 132.585 58.4134 132.789 72.1097C132.993 85.8061 128.576 98.4954 120.979 108.692Z" fill="#FF0070"/>
<circle cx="73.0007" cy="73.0002" r="46.754" stroke="#FFB800" stroke-width="1.25514"/>
<path d="M101.242 73.0002C101.242 85.9884 98.0329 97.7168 92.878 106.177C87.7164 114.649 80.6705 119.754 73.001 119.754C65.3316 119.754 58.2857 114.649 53.1241 106.177C47.9692 97.7168 44.7604 85.9884 44.7604 73.0002C44.7604 60.012 47.9692 48.2836 53.1241 39.8229C58.2857 31.3511 65.3316 26.2462 73.001 26.2462C80.6705 26.2462 87.7164 31.3511 92.878 39.8229C98.0329 48.2836 101.242 60.012 101.242 73.0002Z" stroke="#FFB800" stroke-width="1.25514"/>
<path d="M86.1789 73.0002C86.1789 86.0421 84.6377 97.8256 82.1601 106.328C80.9201 110.584 79.4556 113.982 77.8572 116.302C76.2455 118.642 74.5935 119.754 72.9999 119.754C71.4063 119.754 69.7544 118.642 68.1426 116.302C66.5443 113.982 65.0798 110.584 63.8397 106.328C61.3621 97.8256 59.8209 86.0421 59.8209 73.0002C59.8209 59.9583 61.3621 48.1748 63.8397 39.672C65.0798 35.4164 66.5443 32.0182 68.1426 29.6982C69.7544 27.3586 71.4063 26.2462 72.9999 26.2462C74.5935 26.2462 76.2455 27.3586 77.8572 29.6982C79.4556 32.0182 80.9201 35.4164 82.1601 39.672C84.6377 48.1748 86.1789 59.9583 86.1789 73.0002Z" stroke="#FFB800" stroke-width="1.25514"/>
<path d="M73.0007 66.0966C86.0623 66.0966 97.8732 66.9384 106.406 68.2946C110.677 68.9735 114.099 69.7769 116.438 70.656C117.611 71.0969 118.475 71.5433 119.035 71.9778C119.606 72.4213 119.755 72.767 119.755 72.9999C119.755 73.2328 119.606 73.5785 119.035 74.022C118.475 74.4565 117.611 74.903 116.438 75.3438C114.099 76.2229 110.677 77.0263 106.406 77.7052C97.8732 79.0614 86.0623 79.9032 73.0007 79.9032C59.9391 79.9032 48.1282 79.0614 39.5954 77.7052C35.324 77.0263 31.9028 76.2229 29.5634 75.3438C28.3902 74.903 27.5261 74.4565 26.9667 74.022C26.3957 73.5785 26.2467 73.2328 26.2467 72.9999C26.2467 72.767 26.3957 72.4213 26.9667 71.9778C27.5261 71.5433 28.3902 71.0969 29.5634 70.656C31.9028 69.7769 35.324 68.9735 39.5954 68.2946C48.1282 66.9384 59.9391 66.0966 73.0007 66.0966Z" stroke="#FFB800" stroke-width="1.25514"/>
<path d="M72.9996 47.2695C84.9326 47.2695 95.7205 48.111 103.511 49.466C107.412 50.1443 110.531 50.9463 112.66 51.8218C113.728 52.2608 114.51 52.7038 115.016 53.1332C115.526 53.5669 115.674 53.9157 115.674 54.1728C115.674 54.4298 115.526 54.7786 115.016 55.2123C114.51 55.6418 113.728 56.0848 112.66 56.5237C110.531 57.3992 107.412 58.2012 103.511 58.8796C95.7205 60.2345 84.9326 61.076 72.9996 61.076C61.0666 61.076 50.2787 60.2345 42.4878 58.8796C38.5872 58.2012 35.4682 57.3992 33.3388 56.5237C32.2714 56.0848 31.4887 55.6418 30.9834 55.2123C30.4731 54.7786 30.3248 54.4298 30.3248 54.1728C30.3248 53.9157 30.4731 53.5669 30.9834 53.1332C31.4887 52.7038 32.2714 52.2608 33.3388 51.8218C35.4682 50.9463 38.5872 50.1443 42.4878 49.466C50.2787 48.111 61.0666 47.2695 72.9996 47.2695Z" stroke="#FFB800" stroke-width="1.25514"/>
<path d="M72.9996 84.9238C84.9326 84.9238 95.7205 85.7653 103.511 87.1202C107.412 87.7986 110.531 88.6006 112.66 89.4761C113.728 89.9151 114.51 90.3581 115.016 90.7875C115.526 91.2212 115.674 91.57 115.674 91.8271C115.674 92.0841 115.526 92.4329 115.016 92.8666C114.51 93.2961 113.728 93.7391 112.66 94.178C110.531 95.0535 107.412 95.8555 103.511 96.5339C95.7205 97.8888 84.9326 98.7303 72.9996 98.7303C61.0666 98.7303 50.2787 97.8888 42.4878 96.5339C38.5872 95.8555 35.4682 95.0535 33.3388 94.178C32.2714 93.7391 31.4887 93.2961 30.9834 92.8666C30.4731 92.4329 30.3248 92.0841 30.3248 91.8271C30.3248 91.57 30.4731 91.2212 30.9834 90.7875C31.4887 90.3581 32.2714 89.9151 33.3388 89.4761C35.4682 88.6006 38.5872 87.7986 42.4878 87.1202C50.2787 85.7653 61.0666 84.9238 72.9996 84.9238Z" stroke="#FFB800" stroke-width="1.25514"/>
<path d="M73 25.6187V120.382" stroke="#FFB800" stroke-width="1.25514"/>
<g opacity="0.5" filter="url(#filter0_f_1395_638)">
<path fill-rule="evenodd" clip-rule="evenodd" d="M62.5548 18.4392L62.792 19.6717C58.9865 20.404 55.2003 21.558 51.4928 23.1578C47.7854 24.7577 44.3483 26.7208 41.2048 28.9871L40.4708 27.969C43.6876 25.6498 47.204 23.6415 50.9955 22.0054C54.7871 20.3693 58.6606 19.1886 62.5548 18.4392ZM36.6694 30.9719L37.49 31.9217C35.0802 34.0037 32.8791 36.2788 30.9003 38.7128L29.9264 37.921C31.9511 35.4305 34.2034 33.1025 36.6694 30.9719ZM27.0369 41.8108L28.0761 42.5146C23.635 49.073 20.6691 56.5416 19.401 64.36L18.1621 64.1591C19.4593 56.1605 22.4934 48.5203 27.0369 41.8108ZM18.4401 83.4461L19.6726 83.2089C20.405 87.0144 21.5589 90.8006 23.1587 94.5081C24.7586 98.2156 26.7217 101.653 28.9881 104.796L27.9699 105.53C25.6507 102.313 23.6425 98.797 22.0063 95.0054C20.3702 91.2138 19.1895 87.3404 18.4401 83.4461ZM30.9728 109.332L31.9226 108.511C34.0046 110.921 36.2797 113.122 38.7137 115.101L37.9219 116.075C35.4315 114.05 33.1034 111.798 30.9728 109.332ZM41.8118 118.964L42.5155 117.925C49.0739 122.366 56.5425 125.332 64.3609 126.6L64.16 127.839C56.1614 126.542 48.5212 123.508 41.8118 118.964ZM83.447 127.561C87.3413 126.811 91.2148 125.631 95.0063 123.995C98.7979 122.358 102.314 120.35 105.531 118.031L104.797 117.013C101.654 119.279 98.2165 121.242 94.509 122.842C90.8015 124.442 87.0153 125.596 83.2098 126.328L83.447 127.561ZM109.332 115.028L108.512 114.078C110.922 111.996 113.123 109.721 115.102 107.287L116.075 108.079C114.051 110.569 111.798 112.898 109.332 115.028ZM118.965 104.189L117.926 103.485C122.367 96.927 125.333 89.4584 126.601 81.64L127.84 81.8409C126.543 89.8395 123.508 97.4797 118.965 104.189ZM127.562 62.5539L126.329 62.7911C125.597 58.9856 124.443 55.1994 122.843 51.4919C121.243 47.7844 119.28 44.3474 117.014 41.2039L118.032 40.4698C120.351 43.6867 122.359 47.203 123.996 50.9946C125.632 54.7862 126.812 58.6596 127.562 62.5539ZM115.029 36.6685C112.898 34.2025 110.57 31.9501 108.08 29.9254L107.288 30.8993C109.722 32.8781 111.997 35.0792 114.079 37.4891L115.029 36.6685ZM104.19 27.0359L103.486 28.0752C96.928 23.634 89.4594 20.6682 81.6409 19.4001L81.8419 18.1612C89.8404 19.4584 97.4806 22.4924 104.19 27.0359Z" fill="#8338ED"/>
<path fill-rule="evenodd" clip-rule="evenodd" d="M108.692 25.0223L107.943 26.0288C97.9603 18.5917 85.5394 14.2675 72.1292 14.4672C58.719 14.667 46.4324 19.3591 36.676 27.0903L35.8965 26.1066C45.8621 18.2096 58.4142 13.4162 72.1105 13.2122C85.8069 13.0082 98.4962 17.4257 108.692 25.0223ZM25.0231 37.3088L26.0296 38.0586C18.5925 48.0409 14.2683 60.4618 14.468 73.872C14.6678 87.2823 19.3599 99.5688 27.0911 109.325L26.1074 110.105C18.2104 100.139 13.417 87.5871 13.213 73.8907C13.009 60.1943 17.4265 47.5051 25.0231 37.3088ZM37.3096 120.978C47.5059 128.575 60.1952 132.992 73.8915 132.788C87.5879 132.584 100.14 127.791 110.106 119.894L109.326 118.91C99.5696 126.641 87.2831 131.333 73.8728 131.533C60.4626 131.733 48.0417 127.409 38.0594 119.972L37.3096 120.978ZM120.979 108.692L119.972 107.942C127.41 97.9595 131.734 85.5386 131.534 72.1284C131.334 58.7182 126.642 46.4316 118.911 36.6752L119.895 35.8957C127.792 45.8613 132.585 58.4134 132.789 72.1097C132.993 85.8061 128.576 98.4954 120.979 108.692Z" fill="#FF0070"/>
<circle cx="73.0007" cy="73.0002" r="46.754" stroke="#FFB800" stroke-width="1.25514"/>
<path d="M101.242 73.0002C101.242 85.9884 98.0329 97.7168 92.878 106.177C87.7164 114.649 80.6705 119.754 73.001 119.754C65.3316 119.754 58.2857 114.649 53.1241 106.177C47.9692 97.7168 44.7604 85.9884 44.7604 73.0002C44.7604 60.012 47.9692 48.2836 53.1241 39.8229C58.2857 31.3511 65.3316 26.2462 73.001 26.2462C80.6705 26.2462 87.7164 31.3511 92.878 39.8229C98.0329 48.2836 101.242 60.012 101.242 73.0002Z" stroke="#FFB800" stroke-width="1.25514"/>
<path d="M86.1789 73.0002C86.1789 86.0421 84.6377 97.8256 82.1601 106.328C80.9201 110.584 79.4556 113.982 77.8572 116.302C76.2455 118.642 74.5935 119.754 72.9999 119.754C71.4063 119.754 69.7544 118.642 68.1426 116.302C66.5443 113.982 65.0798 110.584 63.8397 106.328C61.3621 97.8256 59.8209 86.0421 59.8209 73.0002C59.8209 59.9583 61.3621 48.1748 63.8397 39.672C65.0798 35.4164 66.5443 32.0182 68.1426 29.6982C69.7544 27.3586 71.4063 26.2462 72.9999 26.2462C74.5935 26.2462 76.2455 27.3586 77.8572 29.6982C79.4556 32.0182 80.9201 35.4164 82.1601 39.672C84.6377 48.1748 86.1789 59.9583 86.1789 73.0002Z" stroke="#FFB800" stroke-width="1.25514"/>
<path d="M73.0007 66.0966C86.0623 66.0966 97.8732 66.9384 106.406 68.2946C110.677 68.9735 114.099 69.7769 116.438 70.656C117.611 71.0969 118.475 71.5433 119.035 71.9778C119.606 72.4213 119.755 72.767 119.755 72.9999C119.755 73.2328 119.606 73.5785 119.035 74.022C118.475 74.4565 117.611 74.903 116.438 75.3438C114.099 76.2229 110.677 77.0263 106.406 77.7052C97.8732 79.0614 86.0623 79.9032 73.0007 79.9032C59.9391 79.9032 48.1282 79.0614 39.5954 77.7052C35.324 77.0263 31.9028 76.2229 29.5634 75.3438C28.3902 74.903 27.5261 74.4565 26.9667 74.022C26.3957 73.5785 26.2467 73.2328 26.2467 72.9999C26.2467 72.767 26.3957 72.4213 26.9667 71.9778C27.5261 71.5433 28.3902 71.0969 29.5634 70.656C31.9028 69.7769 35.324 68.9735 39.5954 68.2946C48.1282 66.9384 59.9391 66.0966 73.0007 66.0966Z" stroke="#FFB800" stroke-width="1.25514"/>
<path d="M72.9996 47.2695C84.9326 47.2695 95.7205 48.111 103.511 49.466C107.412 50.1443 110.531 50.9463 112.66 51.8218C113.728 52.2608 114.51 52.7038 115.016 53.1332C115.526 53.5669 115.674 53.9157 115.674 54.1728C115.674 54.4298 115.526 54.7786 115.016 55.2123C114.51 55.6418 113.728 56.0848 112.66 56.5237C110.531 57.3992 107.412 58.2012 103.511 58.8796C95.7205 60.2345 84.9326 61.076 72.9996 61.076C61.0666 61.076 50.2787 60.2345 42.4878 58.8796C38.5872 58.2012 35.4682 57.3992 33.3388 56.5237C32.2714 56.0848 31.4887 55.6418 30.9834 55.2123C30.4731 54.7786 30.3248 54.4298 30.3248 54.1728C30.3248 53.9157 30.4731 53.5669 30.9834 53.1332C31.4887 52.7038 32.2714 52.2608 33.3388 51.8218C35.4682 50.9463 38.5872 50.1443 42.4878 49.466C50.2787 48.111 61.0666 47.2695 72.9996 47.2695Z" stroke="#FFB800" stroke-width="1.25514"/>
<path d="M72.9996 84.9238C84.9326 84.9238 95.7205 85.7653 103.511 87.1202C107.412 87.7986 110.531 88.6006 112.66 89.4761C113.728 89.9151 114.51 90.3581 115.016 90.7875C115.526 91.2212 115.674 91.57 115.674 91.8271C115.674 92.0841 115.526 92.4329 115.016 92.8666C114.51 93.2961 113.728 93.7391 112.66 94.178C110.531 95.0535 107.412 95.8555 103.511 96.5339C95.7205 97.8888 84.9326 98.7303 72.9996 98.7303C61.0666 98.7303 50.2787 97.8888 42.4878 96.5339C38.5872 95.8555 35.4682 95.0535 33.3388 94.178C32.2714 93.7391 31.4887 93.2961 30.9834 92.8666C30.4731 92.4329 30.3248 92.0841 30.3248 91.8271C30.3248 91.57 30.4731 91.2212 30.9834 90.7875C31.4887 90.3581 32.2714 89.9151 33.3388 89.4761C35.4682 88.6006 38.5872 87.7986 42.4878 87.1202C50.2787 85.7653 61.0666 84.9238 72.9996 84.9238Z" stroke="#FFB800" stroke-width="1.25514"/>
<path d="M73 25.6187V120.382" stroke="#FFB800" stroke-width="1.25514"/>
</g>
</g>
<defs>
<filter id="filter0_f_1395_638" x="8.18647" y="8.18501" width="129.629" height="129.63" filterUnits="userSpaceOnUse" color-interpolation-filters="sRGB">
<feFlood flood-opacity="0" result="BackgroundImageFix"/>
<feBlend mode="normal" in="SourceGraphic" in2="BackgroundImageFix" result="shape"/>
<feGaussianBlur stdDeviation="2.51028" result="effect1_foregroundBlur_1395_638"/>
</filter>
</defs>
</svg>
