<svg width="70" height="178" viewBox="0 0 70 178" fill="none" xmlns="http://www.w3.org/2000/svg">
<g opacity="0.67">
<path d="M4.67186 88.8939L65.0805 171.663L65.0805 6.12526L4.67186 88.8939Z" stroke="url(#paint0_linear_1388_597)" stroke-width="1.8"/>
<path d="M65.9805 174.422L65.9805 3.45868" stroke="url(#paint1_linear_1388_597)" stroke-width="1.8"/>
<path d="M65.9805 174.516C65.9805 174.516 59.2466 122.263 59.2723 88.6145C59.2978 55.2924 65.9805 3.55194 65.9805 3.55194" stroke="url(#paint2_linear_1388_597)" stroke-width="1.8"/>
<path d="M65.9805 174.516C65.9805 174.516 49.4639 122.263 49.4897 88.6145C49.5152 55.2924 65.9805 3.55194 65.9805 3.55194" stroke="url(#paint3_linear_1388_597)" stroke-width="1.8"/>
<path d="M65.9805 174.516C65.9805 174.516 35.7682 122.263 35.7939 88.6145C35.8194 55.2924 65.9805 3.55194 65.9805 3.55194" stroke="url(#paint4_linear_1388_597)" stroke-width="1.8"/>
<path d="M65.9805 174.516C65.9805 174.516 25.6128 122.263 25.6386 88.6145C25.6641 55.2924 65.9805 3.55194 65.9805 3.55194" stroke="url(#paint5_linear_1388_597)" stroke-width="1.8"/>
<path d="M3.65061 89.0801H66.2598" stroke="url(#paint6_linear_1388_597)" stroke-width="1.8"/>
<path d="M3.6508 89.0801C28.5675 63.0773 42.4444 49.782 65.9805 42.8686" stroke="url(#paint7_linear_1388_597)" stroke-width="1.8"/>
<path d="M3.6508 89.0801C28.5675 115.083 42.4444 128.378 65.9805 135.292" stroke="url(#paint8_linear_1388_597)" stroke-width="1.8"/>
<path d="M3.55765 89.0801C28.9685 75.073 42.8569 68.987 65.9805 66.2539" stroke="url(#paint9_linear_1388_597)" stroke-width="1.8"/>
<path d="M3.55765 89.0801C28.9685 103.087 42.8569 109.173 65.9805 111.906" stroke="url(#paint10_linear_1388_597)" stroke-width="1.8"/>
</g>
<g opacity="0.4" filter="url(#filter0_f_1388_597)">
<path d="M4.67186 88.8939L65.0805 171.663L65.0805 6.12526L4.67186 88.8939Z" stroke="url(#paint11_linear_1388_597)" stroke-width="1.8"/>
<path d="M65.9805 174.422L65.9805 3.45868" stroke="url(#paint12_linear_1388_597)" stroke-width="1.8"/>
<path d="M65.9805 174.516C65.9805 174.516 59.2466 122.263 59.2723 88.6145C59.2978 55.2924 65.9805 3.55194 65.9805 3.55194" stroke="url(#paint13_linear_1388_597)" stroke-width="1.8"/>
<path d="M65.9805 174.516C65.9805 174.516 49.4639 122.263 49.4897 88.6145C49.5152 55.2924 65.9805 3.55194 65.9805 3.55194" stroke="url(#paint14_linear_1388_597)" stroke-width="1.8"/>
<path d="M65.9805 174.516C65.9805 174.516 35.7682 122.263 35.7939 88.6145C35.8194 55.2924 65.9805 3.55194 65.9805 3.55194" stroke="url(#paint15_linear_1388_597)" stroke-width="1.8"/>
<path d="M65.9805 174.516C65.9805 174.516 25.6128 122.263 25.6386 88.6145C25.6641 55.2924 65.9805 3.55194 65.9805 3.55194" stroke="url(#paint16_linear_1388_597)" stroke-width="1.8"/>
<path d="M3.65061 89.0801H66.2598" stroke="url(#paint17_linear_1388_597)" stroke-width="1.8"/>
<path d="M3.6508 89.0801C28.5675 63.0773 42.4444 49.782 65.9805 42.8686" stroke="url(#paint18_linear_1388_597)" stroke-width="1.8"/>
<path d="M3.6508 89.0801C28.5675 115.083 42.4444 128.378 65.9805 135.292" stroke="url(#paint19_linear_1388_597)" stroke-width="1.8"/>
<path d="M3.55765 89.0801C28.9685 75.073 42.8569 68.987 65.9805 66.2539" stroke="url(#paint20_linear_1388_597)" stroke-width="1.8"/>
<path d="M3.55765 89.0801C28.9685 103.087 42.8569 109.173 65.9805 111.906" stroke="url(#paint21_linear_1388_597)" stroke-width="1.8"/>
</g>
<path fill-rule="evenodd" clip-rule="evenodd" d="M62.6906 11.389C62.6412 11.5599 62.5913 11.7332 62.5408 11.9088C60.9941 17.2895 58.9316 24.8113 56.8681 33.377C55.8768 37.4921 54.8841 41.8525 53.9479 46.3356C50.7833 47.7616 47.7579 49.3592 44.8012 51.1489C46.9431 45.1964 49.3275 39.3716 51.7186 33.951C55.4799 25.4245 59.2412 17.9348 62.0622 12.5767C62.2773 12.1682 62.4869 11.7721 62.6906 11.389ZM58.618 33.7986C57.7215 37.52 56.8258 41.4353 55.9729 45.4545C57.5426 44.7955 59.1487 44.1761 60.7995 43.5939C61.1053 40.1189 61.4221 36.7345 61.7387 33.5001C62.4793 25.9333 63.2194 19.1816 63.8145 14.0033C62.336 19.2124 60.4773 26.0808 58.618 33.7986ZM55.5229 47.6048C57.1815 46.8793 58.8797 46.2011 60.628 45.5667C60.0478 52.3239 59.5166 59.3759 59.1155 66.2975C56.6719 66.6906 54.3202 67.1327 52.0304 67.6304C52.9429 60.98 54.1668 54.1769 55.5229 47.6048ZM51.778 69.5287C54.1155 69.0073 56.5155 68.5462 59.0118 68.1376C58.6285 75.1405 58.3868 81.9699 58.3715 88.1807H50.3894C50.4185 82.3926 50.9386 76.0527 51.778 69.5287ZM62.4911 44.9136C61.8955 51.78 61.3482 58.9647 60.9349 66.0164C61.9974 65.8588 63.078 65.7099 64.1789 65.5691L64.1789 44.3602C63.6108 44.5406 63.0483 44.725 62.4911 44.9136ZM60.8303 67.8519C61.9262 67.6867 63.0415 67.5309 64.1789 67.3839V88.1807H60.1715C60.1871 81.8924 60.4363 74.9603 60.8303 67.8519ZM48.5893 88.1807C48.6175 82.5061 49.1101 76.3208 49.9087 69.9617C45.9715 70.9078 42.1899 72.0353 38.3958 73.3818C37.356 78.5474 36.7345 83.5441 36.6944 88.1807H48.5893ZM34.8943 88.1807C34.9316 83.7419 35.4866 78.9958 36.4211 74.1019C33.5892 75.1618 30.7342 76.3468 27.7867 77.6723C27.0198 81.3212 26.5776 84.8477 26.5396 88.1807H34.8943ZM36.8373 72.0294C34.019 73.0558 31.1893 74.2018 28.2821 75.4817C29.3231 71.1741 30.784 66.7195 32.5387 62.2304C35.5145 59.7476 38.4406 57.5075 41.3957 55.4849C39.5623 61.01 37.9813 66.5958 36.8373 72.0294ZM24.7395 88.1807C24.7731 85.1097 25.1358 81.8973 25.7656 78.5963C20.0821 81.236 14.0081 84.3954 7.06851 88.1807H24.7395ZM26.2193 76.4061C20.7582 78.8955 14.9777 81.856 8.45723 85.3786C16.4035 77.1484 23.2252 70.3237 29.7027 64.6553C28.2688 68.6207 27.0761 72.5644 26.2193 76.4061ZM6.63891 84.6705C5.51476 85.8363 4.36877 87.0293 3.19879 88.25L3.12162 88.2925L3.13491 88.3167L2.99942 88.458L3.45179 88.8915L3.55608 89.0807L3.45179 89.2699L2.99942 89.7034C3.04462 89.7506 3.08978 89.7977 3.13491 89.8448L3.12162 89.8689C3.14735 89.8831 3.17308 89.8973 3.19879 89.9114C4.75788 91.5381 6.27435 93.1155 7.75331 94.6452L48.6446 150.672C52.4351 156.822 56.05 162.207 58.9337 166.341C60.8309 169.06 62.4125 171.239 63.5204 172.74C64.0745 173.49 64.5101 174.07 64.8077 174.464C64.9565 174.661 65.0708 174.811 65.1481 174.912L65.2361 175.026L65.2587 175.056L65.2645 175.063L65.2661 175.065C65.2664 175.066 65.2667 175.066 65.9789 174.516L66.7011 174.423H66.8789L66.8789 3.45914H65.9789V3.36595L65.9109 3.45914H65.8593C65.2689 2.99916 65.2687 2.99947 65.2683 2.99994L65.2668 3.00192L65.261 3.00945L65.2384 3.03851L65.1506 3.15213C65.0733 3.25226 64.9592 3.40082 64.8106 3.59564C64.5133 3.98531 64.0781 4.56012 63.5248 5.30293C62.4181 6.78851 60.8383 8.9464 58.9431 11.6394C56.1314 15.6347 52.6237 20.8103 48.9355 26.718L6.63891 84.6705ZM8.73 92.9301L9.13266 93.4818C16.9298 101.543 23.6484 108.237 30.0436 113.804C28.5632 109.773 27.3196 105.759 26.4093 101.842C20.9684 99.3692 15.2145 96.4287 8.73 92.9301ZM7.06851 89.9807C14.0757 93.8029 20.2002 96.9868 25.9315 99.6421C25.262 96.3209 24.8503 93.0832 24.7572 89.9807H7.06851ZM27.9668 100.57C27.1586 96.9017 26.6632 93.3487 26.558 89.9807H34.9073C35.0075 94.4514 35.6057 99.2145 36.5683 104.115C33.7458 103.062 30.9016 101.886 27.9668 100.57ZM28.4849 102.769C31.3753 104.037 34.1905 105.172 36.9956 106.19C38.1746 111.667 39.7791 117.286 41.6266 122.834C38.711 120.851 35.8256 118.656 32.8949 116.227C32.8671 116.157 32.8393 116.087 32.8116 116.016C32.7968 115.979 32.7821 115.941 32.7673 115.904C31.0235 111.462 29.5565 107.048 28.4849 102.769ZM38.5486 104.834C37.4814 99.6645 36.8154 94.6514 36.7077 89.9807H48.5959C48.6643 95.6849 49.179 101.873 49.987 108.219C46.0745 107.281 42.3166 106.165 38.5486 104.834ZM50.2381 110.127C46.3814 109.227 42.6826 108.16 38.9932 106.894C40.2909 112.667 42.0559 118.602 44.0739 124.444C47.1611 126.407 50.3049 128.144 53.5927 129.683C52.2933 123.265 51.1209 116.631 50.2381 110.127ZM52.1127 110.549C53.0373 117.22 54.2639 124.029 55.6168 130.598C57.2525 131.311 58.9268 131.978 60.6499 132.603C60.0714 125.855 59.5404 118.803 59.1368 111.867C56.7148 111.478 54.3831 111.041 52.1127 110.549ZM51.8574 108.65C54.1763 109.166 56.5571 109.622 59.0326 110.027C58.6484 103.047 58.4013 96.2209 58.3734 89.9807H50.396C50.4669 95.7999 51.0091 102.142 51.8574 108.65ZM60.8512 110.313C60.4564 103.227 60.2019 96.2993 60.1734 89.9807H64.1789V110.778C63.0488 110.632 61.9404 110.477 60.8512 110.313ZM60.9563 112.148C62.0119 112.305 63.0854 112.452 64.1789 112.592V133.801C63.6182 133.623 63.0629 133.441 62.5128 133.255C61.919 126.398 61.3721 119.215 60.9563 112.148ZM50.1567 68.0533C46.2726 68.9627 42.5477 70.0416 38.8302 71.323C40.0934 65.592 41.8374 59.687 43.8449 53.8632C46.976 51.8599 50.1631 50.0896 53.4977 48.5231C52.196 54.943 51.0271 61.5703 50.1567 68.0533ZM63.5301 33.6755C63.238 36.6595 62.946 39.7694 62.6627 42.9588C63.1638 42.7938 63.6691 42.632 64.1789 42.4734V27.2388C63.9651 29.3011 63.7477 31.4531 63.5301 33.6755ZM31.0317 61.1437C26.0657 65.312 20.9749 70.1319 15.4104 75.7056L40.1227 41.846C36.8076 48.0034 33.6758 54.478 31.1146 60.9342L31.0317 61.1437ZM16.4131 103.457L40.2468 136.113C37.0047 130.053 33.9327 123.683 31.3918 117.319C26.6111 113.332 21.7224 108.742 16.4131 103.457ZM42.5768 125.622C44.8699 132.2 47.4645 138.627 50.0513 144.544C52.2415 149.554 54.4316 154.21 56.4385 158.298L50.14 149.668C48.9629 147.757 47.7691 145.773 46.5754 143.73C42.2087 136.255 37.8501 128.003 34.3177 119.693C37.0653 121.859 39.7982 123.829 42.5768 125.622ZM45.0282 127.149C47.1055 132.919 49.3997 138.56 51.7006 143.823C55.4652 152.434 59.2314 159.998 62.0564 165.409C62.2724 165.823 62.4828 166.224 62.6873 166.612C62.6365 166.435 62.5851 166.255 62.5331 166.073C60.9824 160.639 58.9152 153.043 56.8485 144.393C55.8967 140.409 54.9441 136.198 54.0417 131.868C50.924 130.468 47.942 128.901 45.0282 127.149ZM56.0654 132.746C57.6125 133.393 59.1951 134.002 60.821 134.575C61.1139 137.91 61.4167 141.159 61.7194 144.271C62.4631 151.915 63.2075 158.735 63.8064 163.965C62.3242 158.704 60.4613 151.768 58.5992 143.975C57.7413 140.384 56.8845 136.615 56.0654 132.746ZM62.684 135.21C62.9544 138.26 63.2326 141.235 63.511 144.097C63.7349 146.398 63.9589 148.625 64.1789 150.756V135.688C63.6764 135.532 63.1781 135.372 62.684 135.21ZM42.3464 52.6886C39.5232 54.5215 36.7455 56.5388 33.9498 58.7592C37.5496 50.2237 42.0674 41.7203 46.5928 34.0449C47.8781 31.8649 49.1635 29.7526 50.4279 27.7264L56.6584 19.1897C54.5983 23.3366 52.3353 28.0933 50.0717 33.2245C47.3912 39.3012 44.7013 45.9216 42.3464 52.6886Z" fill="url(#paint22_linear_1388_597)"/>
<defs>
<filter id="filter0_f_1388_597" x="0.60195" y="0.599509" width="68.6789" height="176.865" filterUnits="userSpaceOnUse" color-interpolation-filters="sRGB">
<feFlood flood-opacity="0" result="BackgroundImageFix"/>
<feBlend mode="normal" in="SourceGraphic" in2="BackgroundImageFix" result="shape"/>
<feGaussianBlur stdDeviation="1.2" result="effect1_foregroundBlur_1388_597"/>
</filter>
<linearGradient id="paint0_linear_1388_597" x1="34.7691" y1="-11.1819" x2="34.7691" y2="183.326" gradientUnits="userSpaceOnUse">
<stop stop-color="#8338ED"/>
<stop offset="1" stop-color="#FF3234"/>
</linearGradient>
<linearGradient id="paint1_linear_1388_597" x1="65.4805" y1="-11.0807" x2="65.4812" y2="183.321" gradientUnits="userSpaceOnUse">
<stop stop-color="#8338ED"/>
<stop offset="1" stop-color="#FF3234"/>
</linearGradient>
<linearGradient id="paint2_linear_1388_597" x1="62.6264" y1="-10.9875" x2="62.6265" y2="183.415" gradientUnits="userSpaceOnUse">
<stop stop-color="#8338ED"/>
<stop offset="1" stop-color="#FF3234"/>
</linearGradient>
<linearGradient id="paint3_linear_1388_597" x1="57.7351" y1="-10.9875" x2="57.7351" y2="183.415" gradientUnits="userSpaceOnUse">
<stop stop-color="#8338ED"/>
<stop offset="1" stop-color="#FF3234"/>
</linearGradient>
<linearGradient id="paint4_linear_1388_597" x1="50.8872" y1="-10.9875" x2="50.8872" y2="183.415" gradientUnits="userSpaceOnUse">
<stop stop-color="#8338ED"/>
<stop offset="1" stop-color="#FF3234"/>
</linearGradient>
<linearGradient id="paint5_linear_1388_597" x1="45.8095" y1="-10.9875" x2="45.8095" y2="183.415" gradientUnits="userSpaceOnUse">
<stop stop-color="#8338ED"/>
<stop offset="1" stop-color="#FF3234"/>
</linearGradient>
<linearGradient id="paint6_linear_1388_597" x1="34.9552" y1="87.995" x2="34.9552" y2="89.1321" gradientUnits="userSpaceOnUse">
<stop stop-color="#8338ED"/>
<stop offset="1" stop-color="#FF3234"/>
</linearGradient>
<linearGradient id="paint7_linear_1388_597" x1="34.8156" y1="38.9386" x2="34.8156" y2="91.4855" gradientUnits="userSpaceOnUse">
<stop stop-color="#8338ED"/>
<stop offset="1" stop-color="#FF3234"/>
</linearGradient>
<linearGradient id="paint8_linear_1388_597" x1="34.8156" y1="139.222" x2="34.8156" y2="86.6746" gradientUnits="userSpaceOnUse">
<stop stop-color="#8338ED"/>
<stop offset="1" stop-color="#FF3234"/>
</linearGradient>
<linearGradient id="paint9_linear_1388_597" x1="34.7691" y1="64.3126" x2="34.7691" y2="90.2682" gradientUnits="userSpaceOnUse">
<stop stop-color="#8338ED"/>
<stop offset="1" stop-color="#FF3234"/>
</linearGradient>
<linearGradient id="paint10_linear_1388_597" x1="34.7691" y1="113.848" x2="34.7691" y2="87.8919" gradientUnits="userSpaceOnUse">
<stop stop-color="#8338ED"/>
<stop offset="1" stop-color="#FF3234"/>
</linearGradient>
<linearGradient id="paint11_linear_1388_597" x1="34.7691" y1="-11.1819" x2="34.7691" y2="183.326" gradientUnits="userSpaceOnUse">
<stop stop-color="#8338ED"/>
<stop offset="1" stop-color="#FF3234"/>
</linearGradient>
<linearGradient id="paint12_linear_1388_597" x1="65.4805" y1="-11.0807" x2="65.4812" y2="183.321" gradientUnits="userSpaceOnUse">
<stop stop-color="#8338ED"/>
<stop offset="1" stop-color="#FF3234"/>
</linearGradient>
<linearGradient id="paint13_linear_1388_597" x1="62.6264" y1="-10.9875" x2="62.6265" y2="183.415" gradientUnits="userSpaceOnUse">
<stop stop-color="#8338ED"/>
<stop offset="1" stop-color="#FF3234"/>
</linearGradient>
<linearGradient id="paint14_linear_1388_597" x1="57.7351" y1="-10.9875" x2="57.7351" y2="183.415" gradientUnits="userSpaceOnUse">
<stop stop-color="#8338ED"/>
<stop offset="1" stop-color="#FF3234"/>
</linearGradient>
<linearGradient id="paint15_linear_1388_597" x1="50.8872" y1="-10.9875" x2="50.8872" y2="183.415" gradientUnits="userSpaceOnUse">
<stop stop-color="#8338ED"/>
<stop offset="1" stop-color="#FF3234"/>
</linearGradient>
<linearGradient id="paint16_linear_1388_597" x1="45.8095" y1="-10.9875" x2="45.8095" y2="183.415" gradientUnits="userSpaceOnUse">
<stop stop-color="#8338ED"/>
<stop offset="1" stop-color="#FF3234"/>
</linearGradient>
<linearGradient id="paint17_linear_1388_597" x1="34.9552" y1="87.995" x2="34.9552" y2="89.1321" gradientUnits="userSpaceOnUse">
<stop stop-color="#8338ED"/>
<stop offset="1" stop-color="#FF3234"/>
</linearGradient>
<linearGradient id="paint18_linear_1388_597" x1="34.8156" y1="38.9386" x2="34.8156" y2="91.4855" gradientUnits="userSpaceOnUse">
<stop stop-color="#8338ED"/>
<stop offset="1" stop-color="#FF3234"/>
</linearGradient>
<linearGradient id="paint19_linear_1388_597" x1="34.8156" y1="139.222" x2="34.8156" y2="86.6746" gradientUnits="userSpaceOnUse">
<stop stop-color="#8338ED"/>
<stop offset="1" stop-color="#FF3234"/>
</linearGradient>
<linearGradient id="paint20_linear_1388_597" x1="34.7691" y1="64.3126" x2="34.7691" y2="90.2682" gradientUnits="userSpaceOnUse">
<stop stop-color="#8338ED"/>
<stop offset="1" stop-color="#FF3234"/>
</linearGradient>
<linearGradient id="paint21_linear_1388_597" x1="34.7691" y1="113.848" x2="34.7691" y2="87.8919" gradientUnits="userSpaceOnUse">
<stop stop-color="#8338ED"/>
<stop offset="1" stop-color="#FF3234"/>
</linearGradient>
<linearGradient id="paint22_linear_1388_597" x1="35.0583" y1="91.7159" x2="86.2084" y2="91.7159" gradientUnits="userSpaceOnUse">
<stop stop-color="#0F0B36" stop-opacity="0"/>
<stop stop-color="#0F0B36" stop-opacity="0"/>
<stop offset="1" stop-color="#0F0B36"/>
</linearGradient>
</defs>
</svg>
