<svg width="1314" height="1030" viewBox="0 0 1314 1030" fill="none" xmlns="http://www.w3.org/2000/svg">
<path opacity="0.7" fill-rule="evenodd" clip-rule="evenodd" d="M13 16.9953C94.606 22.8171 167.016 38.6256 231.024 61.4699C274.857 77.1139 314.754 96.0592 350.971 117.361C377.15 132.759 401.406 149.389 423.836 166.895C443.676 182.38 462.087 198.55 479.135 215.159C497.825 233.368 514.878 252.105 530.379 271.044C543.481 287.053 555.476 303.207 566.413 319.309C578.156 336.596 588.681 353.823 598.054 370.746C627.833 424.519 645.96 475.206 654.539 515C645.96 554.794 627.833 605.481 598.054 659.254C588.681 676.177 578.156 693.404 566.413 710.691C555.476 726.793 543.481 742.947 530.379 758.956C514.878 777.895 497.825 796.632 479.135 814.841C462.087 831.45 443.676 847.62 423.836 863.105C401.406 880.611 377.15 897.241 350.971 912.639C314.754 933.941 274.857 952.886 231.024 968.53C167.016 991.374 94.606 1007.18 13 1013L13.1423 1017L1300.03 1017L1300.17 1013.01C1218.56 1007.18 1146.15 991.375 1082.14 968.53C1038.31 952.886 998.414 933.941 962.198 912.639C936.019 897.241 911.762 880.611 889.332 863.105C869.493 847.62 851.082 831.45 834.034 814.841C815.343 796.632 798.291 777.895 782.79 758.956C769.687 742.947 757.693 726.793 746.755 710.691C735.013 693.404 724.488 676.177 715.115 659.254C685.336 605.481 667.209 554.794 658.63 515C667.209 475.206 685.336 424.519 715.115 370.746C724.488 353.823 735.013 336.596 746.755 319.309C757.693 303.207 769.687 287.053 782.79 271.044C798.291 252.105 815.343 233.368 834.034 215.159C851.082 198.55 869.493 182.38 889.332 166.895C911.762 149.389 936.019 132.759 962.198 117.361C998.414 96.0592 1038.31 77.1139 1082.14 61.4699C1146.15 38.6254 1218.56 22.8168 1300.17 16.9949L1300.03 13L13.1423 13.0004L13 16.9953ZM435.571 57.5863H232.042C179.074 38.7101 120.417 24.6355 55.6355 17.0004L334.676 17.0003C362.8 22.3161 398.404 35.134 435.571 57.5863ZM443.197 57.5863C410.819 37.272 379.345 24.1902 352.535 17.0003L654.584 17.0002V57.5863H443.197ZM658.584 57.5863V17.0002L960.634 17.0001C933.824 24.19 902.35 37.2719 869.972 57.5863H658.584ZM877.597 57.5863C914.764 35.1339 950.369 22.3159 978.492 17.0001L1257.53 17C1192.75 24.6351 1134.09 38.71 1081.13 57.5863H877.597ZM871.122 61.5863H1070.18C1030.44 76.4619 993.994 94.054 960.64 113.637H805.309C826.868 92.6353 849.205 75.4288 871.122 61.5863ZM801.258 117.637H953.915C930.17 131.947 908.028 147.265 887.414 163.319H761.701C774.337 146.475 787.625 131.284 801.258 117.637ZM758.735 167.319H882.329C864.319 181.626 847.501 196.491 831.825 211.726H730.051C739.072 195.817 748.686 181.034 758.735 167.319ZM727.808 215.726H827.745C810.546 232.727 794.753 250.163 780.296 267.777H702.894C710.478 249.245 718.837 231.914 727.808 215.726ZM701.276 271.777H777.038C765.124 286.52 754.139 301.372 744.043 316.185H685.776C690.45 300.68 695.64 285.886 701.276 271.777ZM684.587 320.185H741.337C730.605 336.175 720.906 352.102 712.188 367.777H672.764C676.17 351.225 680.132 335.369 684.587 320.185ZM671.955 371.777H709.982C684.991 417.46 668.338 460.869 658.769 497.267C659.727 451.61 664.374 409.871 671.955 371.777ZM667.876 371.777C663.953 391.624 660.82 412.448 658.584 434.287V371.777H667.876ZM668.68 367.777H658.584V320.185H680.418C675.994 335.378 672.061 351.234 668.68 367.777ZM654.584 367.777V320.185H632.751C637.174 335.378 641.108 351.234 644.489 367.777H654.584ZM681.598 316.185H658.584V271.777H696.969C691.379 285.896 686.233 300.691 681.598 316.185ZM654.584 316.185V271.777H616.2C621.79 285.896 626.936 300.691 631.571 316.185H654.584ZM698.572 267.777H658.584V215.726H723.239C714.354 231.936 706.08 249.267 698.572 267.777ZM654.584 267.777V215.726H589.93C598.815 231.936 607.089 249.267 614.596 267.777H654.584ZM725.457 211.726H658.584V167.319H753.787C743.857 181.059 734.363 195.843 725.457 211.726ZM654.584 211.726V167.319H559.382C569.312 181.059 578.806 195.843 587.712 211.726H654.584ZM756.712 163.319H658.584V117.637H795.632C782.204 131.334 769.134 146.527 756.712 163.319ZM654.584 163.319V117.637H517.537C530.965 131.334 544.035 146.527 556.457 163.319H654.584ZM799.606 113.637H658.584V61.5863H863.729C842.283 75.6169 820.548 92.8385 799.606 113.637ZM654.584 113.637V61.5863H449.439C470.886 75.6169 492.621 92.8385 513.563 113.637H654.584ZM242.991 61.5863H442.046C463.963 75.4288 486.301 92.6352 507.86 113.637H352.529C319.174 94.054 282.726 76.4619 242.991 61.5863ZM359.253 117.637H511.911C525.543 131.284 538.832 146.475 551.468 163.319H425.754C405.141 147.264 382.998 131.947 359.253 117.637ZM430.839 167.319H554.434C564.482 181.034 574.097 195.817 583.118 211.726H481.343C465.668 196.491 448.85 181.626 430.839 167.319ZM485.424 215.726H585.36C594.332 231.914 602.69 249.245 610.275 267.777H532.873C518.416 250.163 502.622 232.727 485.424 215.726ZM536.131 271.777H611.893C617.529 285.886 622.719 300.68 627.393 316.185H569.126C559.03 301.372 548.045 286.52 536.131 271.777ZM571.832 320.185H628.582C633.037 335.369 636.999 351.225 640.405 367.777H600.981C592.263 352.102 582.563 336.175 571.832 320.185ZM603.187 371.777H641.214C648.795 409.871 653.442 451.61 654.4 497.267C644.831 460.869 628.178 417.46 603.187 371.777ZM654.584 371.777V434.287C652.348 412.448 649.216 391.624 645.293 371.777H654.584ZM435.571 972.414H232.042C179.074 991.29 120.417 1005.36 55.6355 1013L334.676 1013C362.8 1007.68 398.404 994.866 435.571 972.414ZM443.197 972.414C410.819 992.728 379.345 1005.81 352.535 1013L654.584 1013V972.414H443.197ZM658.584 972.414V1013L960.634 1013C933.824 1005.81 902.35 992.728 869.972 972.414H658.584ZM877.597 972.414C914.764 994.866 950.369 1007.68 978.492 1013L1257.53 1013C1192.75 1005.36 1134.09 991.29 1081.13 972.414H877.597ZM871.122 968.414H1070.18C1030.44 953.538 993.994 935.946 960.64 916.363H805.309C826.868 937.365 849.205 954.571 871.122 968.414ZM801.258 912.363H953.915C930.17 898.053 908.028 882.735 887.414 866.681H761.701C774.337 883.525 787.625 898.716 801.258 912.363ZM758.735 862.681H882.329C864.319 848.374 847.501 833.509 831.825 818.274H730.051C739.072 834.183 748.686 848.966 758.735 862.681ZM727.808 814.274H827.745C810.546 797.273 794.753 779.837 780.296 762.223H702.894C710.478 780.755 718.837 798.086 727.808 814.274ZM701.276 758.223H777.038C765.124 743.48 754.139 728.628 744.043 713.815H685.776C690.45 729.32 695.64 744.114 701.276 758.223ZM684.587 709.815H741.337C730.605 693.825 720.906 677.898 712.188 662.223H672.764C676.17 678.775 680.132 694.631 684.587 709.815ZM671.955 658.223H709.982C684.991 612.54 668.338 569.131 658.769 532.733C659.727 578.39 664.374 620.129 671.955 658.223ZM667.876 658.223C663.953 638.376 660.82 617.552 658.584 595.713V658.223H667.876ZM668.68 662.223H658.584V709.815H680.418C675.994 694.622 672.061 678.766 668.68 662.223ZM654.584 662.223V709.815H632.751C637.174 694.622 641.108 678.766 644.489 662.223H654.584ZM681.598 713.815H658.584V758.223H696.969C691.379 744.104 686.233 729.309 681.598 713.815ZM654.584 713.815V758.223H616.2C621.79 744.104 626.936 729.309 631.571 713.815H654.584ZM698.572 762.223H658.584V814.274H723.239C714.354 798.064 706.08 780.733 698.572 762.223ZM654.584 762.223V814.274H589.93C598.815 798.064 607.089 780.733 614.596 762.223H654.584ZM725.457 818.274H658.584V862.681H753.787C743.857 848.941 734.363 834.157 725.457 818.274ZM654.584 818.274V862.681H559.382C569.312 848.941 578.806 834.157 587.712 818.274H654.584ZM756.712 866.681H658.584V912.363H795.632C782.204 898.666 769.134 883.473 756.712 866.681ZM654.584 866.681V912.363H517.537C530.965 898.666 544.035 883.473 556.457 866.681H654.584ZM799.606 916.363H658.584V968.414H863.729C842.283 954.383 820.548 937.161 799.606 916.363ZM654.584 916.363V968.414H449.439C470.886 954.383 492.621 937.161 513.563 916.363H654.584ZM242.991 968.414H442.046C463.963 954.571 486.301 937.365 507.86 916.363H352.529C319.174 935.946 282.726 953.538 242.991 968.414ZM359.253 912.363H511.911C525.543 898.716 538.832 883.525 551.468 866.681H425.754C405.141 882.735 382.998 898.053 359.253 912.363ZM430.839 862.681H554.434C564.482 848.966 574.097 834.183 583.118 818.274H481.343C465.668 833.509 448.85 848.374 430.839 862.681ZM485.424 814.274H585.36C594.332 798.086 602.69 780.755 610.275 762.223H532.873C518.416 779.837 502.622 797.273 485.424 814.274ZM536.131 758.223H611.893C617.529 744.114 622.719 729.32 627.393 713.815H569.126C559.03 728.628 548.045 743.48 536.131 758.223ZM571.832 709.815H628.582C633.037 694.631 636.999 678.775 640.405 662.223H600.981C592.263 677.898 582.563 693.825 571.832 709.815ZM603.187 658.223H641.214C648.795 620.129 653.442 578.39 654.4 532.733C644.831 569.131 628.178 612.54 603.187 658.223ZM654.584 658.223V595.713C652.348 617.552 649.216 638.376 645.293 658.223H654.584Z" fill="url(#paint0_linear_939_258)"/>
<g opacity="0.5" filter="url(#filter0_f_939_258)">
<path fill-rule="evenodd" clip-rule="evenodd" d="M13 16.9953C94.606 22.8171 167.016 38.6256 231.024 61.4699C274.857 77.1139 314.754 96.0592 350.971 117.361C377.15 132.759 401.406 149.389 423.836 166.895C443.676 182.38 462.087 198.55 479.135 215.159C497.825 233.368 514.878 252.105 530.379 271.044C543.481 287.053 555.476 303.207 566.413 319.309C578.156 336.596 588.681 353.823 598.054 370.746C627.833 424.519 645.96 475.206 654.539 515C645.96 554.794 627.833 605.481 598.054 659.254C588.681 676.177 578.156 693.404 566.413 710.691C555.476 726.793 543.481 742.947 530.379 758.956C514.878 777.895 497.825 796.632 479.135 814.841C462.087 831.45 443.676 847.62 423.836 863.105C401.406 880.611 377.15 897.241 350.971 912.639C314.754 933.941 274.857 952.886 231.024 968.53C167.016 991.374 94.606 1007.18 13 1013L13.1423 1017L1300.03 1017L1300.17 1013.01C1218.56 1007.18 1146.15 991.375 1082.14 968.53C1038.31 952.886 998.414 933.941 962.198 912.639C936.019 897.241 911.762 880.611 889.332 863.105C869.493 847.62 851.082 831.45 834.034 814.841C815.343 796.632 798.291 777.895 782.79 758.956C769.687 742.947 757.693 726.793 746.755 710.691C735.013 693.404 724.488 676.177 715.115 659.254C685.336 605.481 667.209 554.794 658.63 515C667.209 475.206 685.336 424.519 715.115 370.746C724.488 353.823 735.013 336.596 746.755 319.309C757.693 303.207 769.687 287.053 782.79 271.044C798.291 252.105 815.343 233.368 834.034 215.159C851.082 198.55 869.493 182.38 889.332 166.895C911.762 149.389 936.019 132.759 962.198 117.361C998.414 96.0592 1038.31 77.1139 1082.14 61.4699C1146.15 38.6254 1218.56 22.8168 1300.17 16.9949L1300.03 13L13.1423 13.0004L13 16.9953ZM435.571 57.5863H232.042C179.074 38.7101 120.417 24.6355 55.6355 17.0004L334.676 17.0003C362.8 22.3161 398.404 35.134 435.571 57.5863ZM443.197 57.5863C410.819 37.272 379.345 24.1902 352.535 17.0003L654.584 17.0002V57.5863H443.197ZM658.584 57.5863V17.0002L960.634 17.0001C933.824 24.19 902.35 37.2719 869.972 57.5863H658.584ZM877.597 57.5863C914.764 35.1339 950.369 22.3159 978.492 17.0001L1257.53 17C1192.75 24.6351 1134.09 38.71 1081.13 57.5863H877.597ZM871.122 61.5863H1070.18C1030.44 76.4619 993.994 94.054 960.64 113.637H805.309C826.868 92.6353 849.205 75.4288 871.122 61.5863ZM801.258 117.637H953.915C930.17 131.947 908.028 147.265 887.414 163.319H761.701C774.337 146.475 787.625 131.284 801.258 117.637ZM758.735 167.319H882.329C864.319 181.626 847.501 196.491 831.825 211.726H730.051C739.072 195.817 748.686 181.034 758.735 167.319ZM727.808 215.726H827.745C810.546 232.727 794.753 250.163 780.296 267.777H702.894C710.478 249.245 718.837 231.914 727.808 215.726ZM701.276 271.777H777.038C765.124 286.52 754.139 301.372 744.043 316.185H685.776C690.45 300.68 695.64 285.886 701.276 271.777ZM684.587 320.185H741.337C730.605 336.175 720.906 352.102 712.188 367.777H672.764C676.17 351.225 680.132 335.369 684.587 320.185ZM671.955 371.777H709.982C684.991 417.46 668.338 460.869 658.769 497.267C659.727 451.61 664.374 409.871 671.955 371.777ZM667.876 371.777C663.953 391.624 660.82 412.448 658.584 434.287V371.777H667.876ZM668.68 367.777H658.584V320.185H680.418C675.994 335.378 672.061 351.234 668.68 367.777ZM654.584 367.777V320.185H632.751C637.174 335.378 641.108 351.234 644.489 367.777H654.584ZM681.598 316.185H658.584V271.777H696.969C691.379 285.896 686.233 300.691 681.598 316.185ZM654.584 316.185V271.777H616.2C621.79 285.896 626.936 300.691 631.571 316.185H654.584ZM698.572 267.777H658.584V215.726H723.239C714.354 231.936 706.08 249.267 698.572 267.777ZM654.584 267.777V215.726H589.93C598.815 231.936 607.089 249.267 614.596 267.777H654.584ZM725.457 211.726H658.584V167.319H753.787C743.857 181.059 734.363 195.843 725.457 211.726ZM654.584 211.726V167.319H559.382C569.312 181.059 578.806 195.843 587.712 211.726H654.584ZM756.712 163.319H658.584V117.637H795.632C782.204 131.334 769.134 146.527 756.712 163.319ZM654.584 163.319V117.637H517.537C530.965 131.334 544.035 146.527 556.457 163.319H654.584ZM799.606 113.637H658.584V61.5863H863.729C842.283 75.6169 820.548 92.8385 799.606 113.637ZM654.584 113.637V61.5863H449.439C470.886 75.6169 492.621 92.8385 513.563 113.637H654.584ZM242.991 61.5863H442.046C463.963 75.4288 486.301 92.6352 507.86 113.637H352.529C319.174 94.054 282.726 76.4619 242.991 61.5863ZM359.253 117.637H511.911C525.543 131.284 538.832 146.475 551.468 163.319H425.754C405.141 147.264 382.998 131.947 359.253 117.637ZM430.839 167.319H554.434C564.482 181.034 574.097 195.817 583.118 211.726H481.343C465.668 196.491 448.85 181.626 430.839 167.319ZM485.424 215.726H585.36C594.332 231.914 602.69 249.245 610.275 267.777H532.873C518.416 250.163 502.622 232.727 485.424 215.726ZM536.131 271.777H611.893C617.529 285.886 622.719 300.68 627.393 316.185H569.126C559.03 301.372 548.045 286.52 536.131 271.777ZM571.832 320.185H628.582C633.037 335.369 636.999 351.225 640.405 367.777H600.981C592.263 352.102 582.563 336.175 571.832 320.185ZM603.187 371.777H641.214C648.795 409.871 653.442 451.61 654.4 497.267C644.831 460.869 628.178 417.46 603.187 371.777ZM654.584 371.777V434.287C652.348 412.448 649.216 391.624 645.293 371.777H654.584ZM435.571 972.414H232.042C179.074 991.29 120.417 1005.36 55.6355 1013L334.676 1013C362.8 1007.68 398.404 994.866 435.571 972.414ZM443.197 972.414C410.819 992.728 379.345 1005.81 352.535 1013L654.584 1013V972.414H443.197ZM658.584 972.414V1013L960.634 1013C933.824 1005.81 902.35 992.728 869.972 972.414H658.584ZM877.597 972.414C914.764 994.866 950.369 1007.68 978.492 1013L1257.53 1013C1192.75 1005.36 1134.09 991.29 1081.13 972.414H877.597ZM871.122 968.414H1070.18C1030.44 953.538 993.994 935.946 960.64 916.363H805.309C826.868 937.365 849.205 954.571 871.122 968.414ZM801.258 912.363H953.915C930.17 898.053 908.028 882.735 887.414 866.681H761.701C774.337 883.525 787.625 898.716 801.258 912.363ZM758.735 862.681H882.329C864.319 848.374 847.501 833.509 831.825 818.274H730.051C739.072 834.183 748.686 848.966 758.735 862.681ZM727.808 814.274H827.745C810.546 797.273 794.753 779.837 780.296 762.223H702.894C710.478 780.755 718.837 798.086 727.808 814.274ZM701.276 758.223H777.038C765.124 743.48 754.139 728.628 744.043 713.815H685.776C690.45 729.32 695.64 744.114 701.276 758.223ZM684.587 709.815H741.337C730.605 693.825 720.906 677.898 712.188 662.223H672.764C676.17 678.775 680.132 694.631 684.587 709.815ZM671.955 658.223H709.982C684.991 612.54 668.338 569.131 658.769 532.733C659.727 578.39 664.374 620.129 671.955 658.223ZM667.876 658.223C663.953 638.376 660.82 617.552 658.584 595.713V658.223H667.876ZM668.68 662.223H658.584V709.815H680.418C675.994 694.622 672.061 678.766 668.68 662.223ZM654.584 662.223V709.815H632.751C637.174 694.622 641.108 678.766 644.489 662.223H654.584ZM681.598 713.815H658.584V758.223H696.969C691.379 744.104 686.233 729.309 681.598 713.815ZM654.584 713.815V758.223H616.2C621.79 744.104 626.936 729.309 631.571 713.815H654.584ZM698.572 762.223H658.584V814.274H723.239C714.354 798.064 706.08 780.733 698.572 762.223ZM654.584 762.223V814.274H589.93C598.815 798.064 607.089 780.733 614.596 762.223H654.584ZM725.457 818.274H658.584V862.681H753.787C743.857 848.941 734.363 834.157 725.457 818.274ZM654.584 818.274V862.681H559.382C569.312 848.941 578.806 834.157 587.712 818.274H654.584ZM756.712 866.681H658.584V912.363H795.632C782.204 898.666 769.134 883.473 756.712 866.681ZM654.584 866.681V912.363H517.537C530.965 898.666 544.035 883.473 556.457 866.681H654.584ZM799.606 916.363H658.584V968.414H863.729C842.283 954.383 820.548 937.161 799.606 916.363ZM654.584 916.363V968.414H449.439C470.886 954.383 492.621 937.161 513.563 916.363H654.584ZM242.991 968.414H442.046C463.963 954.571 486.301 937.365 507.86 916.363H352.529C319.174 935.946 282.726 953.538 242.991 968.414ZM359.253 912.363H511.911C525.543 898.716 538.832 883.525 551.468 866.681H425.754C405.141 882.735 382.998 898.053 359.253 912.363ZM430.839 862.681H554.434C564.482 848.966 574.097 834.183 583.118 818.274H481.343C465.668 833.509 448.85 848.374 430.839 862.681ZM485.424 814.274H585.36C594.332 798.086 602.69 780.755 610.275 762.223H532.873C518.416 779.837 502.622 797.273 485.424 814.274ZM536.131 758.223H611.893C617.529 744.114 622.719 729.32 627.393 713.815H569.126C559.03 728.628 548.045 743.48 536.131 758.223ZM571.832 709.815H628.582C633.037 694.631 636.999 678.775 640.405 662.223H600.981C592.263 677.898 582.563 693.825 571.832 709.815ZM603.187 658.223H641.214C648.795 620.129 653.442 578.39 654.4 532.733C644.831 569.131 628.178 612.54 603.187 658.223ZM654.584 658.223V595.713C652.348 617.552 649.216 638.376 645.293 658.223H654.584Z" fill="url(#paint1_linear_939_258)"/>
</g>
<defs>
<filter id="filter0_f_939_258" x="0" y="0" width="1313.17" height="1030" filterUnits="userSpaceOnUse" color-interpolation-filters="sRGB">
<feFlood flood-opacity="0" result="BackgroundImageFix"/>
<feBlend mode="normal" in="SourceGraphic" in2="BackgroundImageFix" result="shape"/>
<feGaussianBlur stdDeviation="6.5" result="effect1_foregroundBlur_939_258"/>
</filter>
<linearGradient id="paint0_linear_939_258" x1="1409.63" y1="515" x2="-54.0007" y2="515" gradientUnits="userSpaceOnUse">
<stop stop-color="#8338ED"/>
<stop offset="1" stop-color="#FF3234"/>
</linearGradient>
<linearGradient id="paint1_linear_939_258" x1="13" y1="515" x2="1344.52" y2="515" gradientUnits="userSpaceOnUse">
<stop stop-color="#FB5507"/>
<stop offset="1" stop-color="#FB5507" stop-opacity="0"/>
</linearGradient>
</defs>
</svg>
