<svg width="167" height="316" viewBox="0 0 167 316" fill="none" xmlns="http://www.w3.org/2000/svg">
<path opacity="0.7" d="M4 158.013C16.7412 155.957 32.9712 151.595 50.1808 144.422M4 158.013C16.7411 160.068 32.9712 164.43 50.1808 171.604M4 158.013H163M4 158.013C115.806 158.013 156.586 209.35 163 235.019M4 158.013C115.806 158.013 156.586 106.675 163 81.0063M148.822 56.3125C156.106 40.9495 161.145 23.5748 163 4L163 81.0063M148.822 56.3125V259.713M148.822 56.3125C143.833 66.833 137.791 76.4102 130.997 85.1044M148.822 259.713C156.106 275.076 161.145 292.45 163 312.025L163 235.019M148.822 259.713C143.833 249.192 137.791 239.615 130.997 230.921M130.997 85.1044V230.921M130.997 85.1044C126.086 91.389 120.782 97.2123 115.199 102.597M130.997 230.921C126.086 224.636 120.782 218.813 115.199 213.428M115.199 102.597V213.428M115.199 102.597C110.26 107.36 105.102 111.78 99.805 115.873M115.199 213.428C110.26 208.665 105.102 204.245 99.805 200.152M99.805 115.873V200.152M99.805 115.873C93.9973 120.36 88.0214 124.454 81.9808 128.175M99.805 200.152C93.9973 195.665 88.0214 191.572 81.9808 187.85M81.9808 128.175V187.85M81.9808 128.175C76.8749 131.32 71.7228 134.2 66.5872 136.826M81.9808 187.85C76.8749 184.705 71.7228 181.826 66.5872 179.2M66.5872 136.826V179.2M66.5872 136.826C61.0736 139.645 55.579 142.171 50.1808 144.422M66.5872 179.2C61.0736 176.381 55.579 173.854 50.1808 171.604M50.1808 144.422V171.604M163 158.013L163 235.019M163 158.013L163 81.0063" stroke="url(#paint0_linear_1038_252)" stroke-width="0.938416"/>
<g opacity="0.5" filter="url(#filter0_f_1038_252)">
<path d="M4 158.013C16.7412 155.957 32.9712 151.595 50.1808 144.422M4 158.013C16.7411 160.068 32.9712 164.43 50.1808 171.604M4 158.013H163M4 158.013C115.806 158.013 156.586 209.35 163 235.019M4 158.013C115.806 158.013 156.586 106.675 163 81.0063M148.822 56.3125C156.106 40.9495 161.145 23.5748 163 4L163 81.0063M148.822 56.3125V259.713M148.822 56.3125C143.833 66.833 137.791 76.4102 130.997 85.1044M148.822 259.713C156.106 275.076 161.145 292.45 163 312.025L163 235.019M148.822 259.713C143.833 249.192 137.791 239.615 130.997 230.921M130.997 85.1044V230.921M130.997 85.1044C126.086 91.389 120.782 97.2123 115.199 102.597M130.997 230.921C126.086 224.636 120.782 218.813 115.199 213.428M115.199 102.597V213.428M115.199 102.597C110.26 107.36 105.102 111.78 99.805 115.873M115.199 213.428C110.26 208.665 105.102 204.245 99.805 200.152M99.805 115.873V200.152M99.805 115.873C93.9973 120.36 88.0214 124.454 81.9808 128.175M99.805 200.152C93.9973 195.665 88.0214 191.572 81.9808 187.85M81.9808 128.175V187.85M81.9808 128.175C76.8749 131.32 71.7228 134.2 66.5872 136.826M81.9808 187.85C76.8749 184.705 71.7228 181.826 66.5872 179.2M66.5872 136.826V179.2M66.5872 136.826C61.0736 139.645 55.579 142.171 50.1808 144.422M66.5872 179.2C61.0736 176.381 55.579 173.854 50.1808 171.604M50.1808 144.422V171.604M163 158.013L163 235.019M163 158.013L163 81.0063" stroke="url(#paint1_linear_1038_252)" stroke-width="0.938416"/>
</g>
<defs>
<filter id="filter0_f_1038_252" x="0.874952" y="0.905713" width="165.644" height="314.213" filterUnits="userSpaceOnUse" color-interpolation-filters="sRGB">
<feFlood flood-opacity="0" result="BackgroundImageFix"/>
<feBlend mode="normal" in="SourceGraphic" in2="BackgroundImageFix" result="shape"/>
<feGaussianBlur stdDeviation="1.52493" result="effect1_foregroundBlur_1038_252"/>
</filter>
<linearGradient id="paint0_linear_1038_252" x1="176.522" y1="158.013" x2="-4.27639" y2="158.013" gradientUnits="userSpaceOnUse">
<stop stop-color="#8338ED"/>
<stop offset="1" stop-color="#FF3234"/>
</linearGradient>
<linearGradient id="paint1_linear_1038_252" x1="4" y1="158.013" x2="168.479" y2="158.013" gradientUnits="userSpaceOnUse">
<stop stop-color="#FB5507"/>
<stop offset="1" stop-color="#FB5507" stop-opacity="0"/>
</linearGradient>
</defs>
</svg>
